%TF.GenerationSoftware,KiCad,Pcbnew,(6.0.6)*%
%TF.CreationDate,2022-08-28T18:07:26+02:00*%
%TF.ProjectId,PCAP04_Interface,50434150-3034-45f4-996e-746572666163,rev?*%
%TF.SameCoordinates,Original*%
%TF.FileFunction,Paste,Top*%
%TF.FilePolarity,Positive*%
%FSLAX46Y46*%
G04 Gerber Fmt 4.6, Leading zero omitted, Abs format (unit mm)*
G04 Created by KiCad (PCBNEW (6.0.6)) date 2022-08-28 18:07:26*
%MOMM*%
%LPD*%
G01*
G04 APERTURE LIST*
G04 Aperture macros list*
%AMRoundRect*
0 Rectangle with rounded corners*
0 $1 Rounding radius*
0 $2 $3 $4 $5 $6 $7 $8 $9 X,Y pos of 4 corners*
0 Add a 4 corners polygon primitive as box body*
4,1,4,$2,$3,$4,$5,$6,$7,$8,$9,$2,$3,0*
0 Add four circle primitives for the rounded corners*
1,1,$1+$1,$2,$3*
1,1,$1+$1,$4,$5*
1,1,$1+$1,$6,$7*
1,1,$1+$1,$8,$9*
0 Add four rect primitives between the rounded corners*
20,1,$1+$1,$2,$3,$4,$5,0*
20,1,$1+$1,$4,$5,$6,$7,0*
20,1,$1+$1,$6,$7,$8,$9,0*
20,1,$1+$1,$8,$9,$2,$3,0*%
G04 Aperture macros list end*
%ADD10RoundRect,0.250000X-0.375000X-0.275000X0.375000X-0.275000X0.375000X0.275000X-0.375000X0.275000X0*%
%ADD11R,2.000000X1.500000*%
%ADD12R,1.200000X0.800000*%
%ADD13RoundRect,0.237500X0.237500X-0.300000X0.237500X0.300000X-0.237500X0.300000X-0.237500X-0.300000X0*%
%ADD14RoundRect,0.237500X-0.237500X0.300000X-0.237500X-0.300000X0.237500X-0.300000X0.237500X0.300000X0*%
%ADD15RoundRect,0.237500X0.250000X0.237500X-0.250000X0.237500X-0.250000X-0.237500X0.250000X-0.237500X0*%
%ADD16RoundRect,0.237500X0.300000X0.237500X-0.300000X0.237500X-0.300000X-0.237500X0.300000X-0.237500X0*%
%ADD17O,0.750000X0.250000*%
%ADD18O,0.250000X0.750000*%
%ADD19R,2.600000X2.600000*%
%ADD20R,2.100000X1.400000*%
%ADD21RoundRect,0.237500X-0.250000X-0.237500X0.250000X-0.237500X0.250000X0.237500X-0.250000X0.237500X0*%
%ADD22RoundRect,0.237500X-0.300000X-0.237500X0.300000X-0.237500X0.300000X0.237500X-0.300000X0.237500X0*%
%ADD23RoundRect,0.250000X0.325000X0.450000X-0.325000X0.450000X-0.325000X-0.450000X0.325000X-0.450000X0*%
%ADD24R,2.000000X3.800000*%
%ADD25R,1.500000X1.000000*%
G04 APERTURE END LIST*
D10*
%TO.C,C30*%
X178524000Y-84455000D03*
X180124000Y-84455000D03*
%TD*%
D11*
%TO.C,J3*%
X131065000Y-87416000D03*
X131065000Y-101306000D03*
X139265000Y-101306000D03*
X139265000Y-87416000D03*
D12*
X133265000Y-97586000D03*
X133265000Y-96486000D03*
X133265000Y-95386000D03*
X133265000Y-94286000D03*
X133265000Y-93186000D03*
X133265000Y-92086000D03*
X133265000Y-90986000D03*
X133265000Y-89886000D03*
%TD*%
D13*
%TO.C,C4*%
X173349195Y-129099195D03*
X173349195Y-127374195D03*
%TD*%
D14*
%TO.C,C11*%
X147849195Y-123374195D03*
X147849195Y-125099195D03*
%TD*%
D15*
%TO.C,R7*%
X144261695Y-115236695D03*
X142436695Y-115236695D03*
%TD*%
D13*
%TO.C,C2*%
X149349195Y-129099195D03*
X149349195Y-127374195D03*
%TD*%
D16*
%TO.C,C6*%
X120211695Y-119236695D03*
X118486695Y-119236695D03*
%TD*%
D15*
%TO.C,R10*%
X167761695Y-115236695D03*
X165936695Y-115236695D03*
%TD*%
D17*
%TO.C,IC3*%
X169274195Y-125986695D03*
X169274195Y-125486695D03*
X169274195Y-124986695D03*
X169274195Y-124486695D03*
X169274195Y-123986695D03*
X169274195Y-123486695D03*
D18*
X168599195Y-122811695D03*
X168099195Y-122811695D03*
X167599195Y-122811695D03*
X167099195Y-122811695D03*
X166599195Y-122811695D03*
X166099195Y-122811695D03*
D17*
X165424195Y-123486695D03*
X165424195Y-123986695D03*
X165424195Y-124486695D03*
X165424195Y-124986695D03*
X165424195Y-125486695D03*
X165424195Y-125986695D03*
D18*
X166099195Y-126661695D03*
X166599195Y-126661695D03*
X167099195Y-126661695D03*
X167599195Y-126661695D03*
X168099195Y-126661695D03*
X168599195Y-126661695D03*
D19*
X167349195Y-124736695D03*
%TD*%
D14*
%TO.C,C10*%
X149349195Y-123374195D03*
X149349195Y-125099195D03*
%TD*%
D13*
%TO.C,C1*%
X125349195Y-129099195D03*
X125349195Y-127374195D03*
%TD*%
D20*
%TO.C,S2*%
X175200500Y-110581000D03*
X166100500Y-110581000D03*
X175200500Y-106081000D03*
X166100500Y-106081000D03*
%TD*%
D15*
%TO.C,R12*%
X163261695Y-129236695D03*
X161436695Y-129236695D03*
%TD*%
D21*
%TO.C,R1*%
X131920500Y-75311000D03*
X133745500Y-75311000D03*
%TD*%
D15*
%TO.C,R9*%
X139261695Y-129236695D03*
X137436695Y-129236695D03*
%TD*%
%TO.C,R5*%
X120261695Y-117236695D03*
X118436695Y-117236695D03*
%TD*%
%TO.C,R8*%
X144261695Y-117236695D03*
X142436695Y-117236695D03*
%TD*%
D17*
%TO.C,IC1*%
X121274195Y-126486695D03*
X121274195Y-125986695D03*
X121274195Y-125486695D03*
X121274195Y-124986695D03*
X121274195Y-124486695D03*
X121274195Y-123986695D03*
D18*
X120599195Y-123311695D03*
X120099195Y-123311695D03*
X119599195Y-123311695D03*
X119099195Y-123311695D03*
X118599195Y-123311695D03*
X118099195Y-123311695D03*
D17*
X117424195Y-123986695D03*
X117424195Y-124486695D03*
X117424195Y-124986695D03*
X117424195Y-125486695D03*
X117424195Y-125986695D03*
X117424195Y-126486695D03*
D18*
X118099195Y-127161695D03*
X118599195Y-127161695D03*
X119099195Y-127161695D03*
X119599195Y-127161695D03*
X120099195Y-127161695D03*
X120599195Y-127161695D03*
D19*
X119349195Y-125236695D03*
%TD*%
D13*
%TO.C,C7*%
X128349195Y-125099195D03*
X128349195Y-123374195D03*
%TD*%
D17*
%TO.C,IC2*%
X145274195Y-125986695D03*
X145274195Y-125486695D03*
X145274195Y-124986695D03*
X145274195Y-124486695D03*
X145274195Y-123986695D03*
X145274195Y-123486695D03*
D18*
X144599195Y-122811695D03*
X144099195Y-122811695D03*
X143599195Y-122811695D03*
X143099195Y-122811695D03*
X142599195Y-122811695D03*
X142099195Y-122811695D03*
D17*
X141424195Y-123486695D03*
X141424195Y-123986695D03*
X141424195Y-124486695D03*
X141424195Y-124986695D03*
X141424195Y-125486695D03*
X141424195Y-125986695D03*
D18*
X142099195Y-126661695D03*
X142599195Y-126661695D03*
X143099195Y-126661695D03*
X143599195Y-126661695D03*
X144099195Y-126661695D03*
X144599195Y-126661695D03*
D19*
X143349195Y-124736695D03*
%TD*%
D14*
%TO.C,C8*%
X125349195Y-123374195D03*
X125349195Y-125099195D03*
%TD*%
D15*
%TO.C,R4*%
X120261695Y-115236695D03*
X118436695Y-115236695D03*
%TD*%
D14*
%TO.C,C13*%
X173349195Y-123374195D03*
X173349195Y-125099195D03*
%TD*%
D20*
%TO.C,S3*%
X166175500Y-97953000D03*
X175275500Y-97953000D03*
X166175500Y-102453000D03*
X175275500Y-102453000D03*
%TD*%
D22*
%TO.C,C22*%
X134011500Y-142113000D03*
X135736500Y-142113000D03*
%TD*%
D23*
%TO.C,D2*%
X137922000Y-75311000D03*
X135872000Y-75311000D03*
%TD*%
D16*
%TO.C,C17*%
X132434500Y-142113000D03*
X130709500Y-142113000D03*
%TD*%
D15*
%TO.C,R11*%
X167761695Y-117236695D03*
X165936695Y-117236695D03*
%TD*%
D16*
%TO.C,C12*%
X167711695Y-119236695D03*
X165986695Y-119236695D03*
%TD*%
D11*
%TO.C,U3*%
X176174000Y-77075000D03*
D24*
X182474000Y-79375000D03*
D11*
X176174000Y-79375000D03*
X176174000Y-81675000D03*
%TD*%
D15*
%TO.C,R6*%
X113261695Y-130236695D03*
X111436695Y-130236695D03*
%TD*%
D25*
%TO.C,D3*%
X159168000Y-76911000D03*
X159168000Y-73711000D03*
X154268000Y-73711000D03*
X154268000Y-76911000D03*
%TD*%
D16*
%TO.C,C9*%
X144211695Y-119236695D03*
X142486695Y-119236695D03*
%TD*%
%TO.C,C5*%
X151484500Y-75311000D03*
X149759500Y-75311000D03*
%TD*%
D14*
%TO.C,C14*%
X171849195Y-123374195D03*
X171849195Y-125099195D03*
%TD*%
M02*
