%TF.GenerationSoftware,KiCad,Pcbnew,(6.0.6)*%
%TF.CreationDate,2022-08-28T18:07:26+02:00*%
%TF.ProjectId,PCAP04_Interface,50434150-3034-45f4-996e-746572666163,rev?*%
%TF.SameCoordinates,Original*%
%TF.FileFunction,Legend,Top*%
%TF.FilePolarity,Positive*%
%FSLAX46Y46*%
G04 Gerber Fmt 4.6, Leading zero omitted, Abs format (unit mm)*
G04 Created by KiCad (PCBNEW (6.0.6)) date 2022-08-28 18:07:26*
%MOMM*%
%LPD*%
G01*
G04 APERTURE LIST*
%ADD10C,0.125000*%
%ADD11C,0.150000*%
%ADD12C,0.254000*%
%ADD13C,0.120000*%
%ADD14C,0.100000*%
%ADD15C,0.127000*%
%ADD16C,0.200000*%
%ADD17C,0.507214*%
G04 APERTURE END LIST*
D10*
X143160809Y-65837570D02*
X143137000Y-65861379D01*
X143065571Y-65885189D01*
X143017952Y-65885189D01*
X142946523Y-65861379D01*
X142898904Y-65813760D01*
X142875095Y-65766141D01*
X142851285Y-65670903D01*
X142851285Y-65599475D01*
X142875095Y-65504237D01*
X142898904Y-65456618D01*
X142946523Y-65408999D01*
X143017952Y-65385189D01*
X143065571Y-65385189D01*
X143137000Y-65408999D01*
X143160809Y-65432808D01*
X143375095Y-65885189D02*
X143375095Y-65385189D01*
X143613190Y-65885189D02*
X143613190Y-65385189D01*
X143803666Y-65385189D01*
X143851285Y-65408999D01*
X143875095Y-65432808D01*
X143898904Y-65480427D01*
X143898904Y-65551856D01*
X143875095Y-65599475D01*
X143851285Y-65623284D01*
X143803666Y-65647094D01*
X143613190Y-65647094D01*
X144208428Y-65385189D02*
X144303666Y-65385189D01*
X144351285Y-65408999D01*
X144398904Y-65456618D01*
X144422714Y-65551856D01*
X144422714Y-65718522D01*
X144398904Y-65813760D01*
X144351285Y-65861379D01*
X144303666Y-65885189D01*
X144208428Y-65885189D01*
X144160809Y-65861379D01*
X144113190Y-65813760D01*
X144089380Y-65718522D01*
X144089380Y-65551856D01*
X144113190Y-65456618D01*
X144160809Y-65408999D01*
X144208428Y-65385189D01*
X140614178Y-65885189D02*
X140614178Y-65385189D01*
X140804654Y-65385189D02*
X141114178Y-65385189D01*
X140947511Y-65575665D01*
X141018940Y-65575665D01*
X141066559Y-65599475D01*
X141090369Y-65623284D01*
X141114178Y-65670903D01*
X141114178Y-65789951D01*
X141090369Y-65837570D01*
X141066559Y-65861379D01*
X141018940Y-65885189D01*
X140876083Y-65885189D01*
X140828464Y-65861379D01*
X140804654Y-65837570D01*
X141566559Y-65385189D02*
X141328464Y-65385189D01*
X141304654Y-65623284D01*
X141328464Y-65599475D01*
X141376083Y-65575665D01*
X141495130Y-65575665D01*
X141542749Y-65599475D01*
X141566559Y-65623284D01*
X141590369Y-65670903D01*
X141590369Y-65789951D01*
X141566559Y-65837570D01*
X141542749Y-65861379D01*
X141495130Y-65885189D01*
X141376083Y-65885189D01*
X141328464Y-65861379D01*
X141304654Y-65837570D01*
X145331761Y-72211380D02*
X145403190Y-72235190D01*
X145522238Y-72235190D01*
X145569857Y-72211380D01*
X145593666Y-72187571D01*
X145617476Y-72139952D01*
X145617476Y-72092333D01*
X145593666Y-72044714D01*
X145569857Y-72020904D01*
X145522238Y-71997095D01*
X145427000Y-71973285D01*
X145379380Y-71949476D01*
X145355571Y-71925666D01*
X145331761Y-71878047D01*
X145331761Y-71830428D01*
X145355571Y-71782809D01*
X145379380Y-71759000D01*
X145427000Y-71735190D01*
X145546047Y-71735190D01*
X145617476Y-71759000D01*
X146117476Y-72187571D02*
X146093666Y-72211380D01*
X146022238Y-72235190D01*
X145974619Y-72235190D01*
X145903190Y-72211380D01*
X145855571Y-72163761D01*
X145831761Y-72116142D01*
X145807952Y-72020904D01*
X145807952Y-71949476D01*
X145831761Y-71854238D01*
X145855571Y-71806619D01*
X145903190Y-71759000D01*
X145974619Y-71735190D01*
X146022238Y-71735190D01*
X146093666Y-71759000D01*
X146117476Y-71782809D01*
X146569857Y-72235190D02*
X146331761Y-72235190D01*
X146331761Y-71735190D01*
X146736523Y-72235190D02*
X146736523Y-71735190D01*
X147022238Y-72235190D02*
X146807952Y-71949476D01*
X147022238Y-71735190D02*
X146736523Y-72020904D01*
X140358904Y-72235190D02*
X140358904Y-71735190D01*
X140692238Y-71735190D02*
X140787476Y-71735190D01*
X140835095Y-71759000D01*
X140882714Y-71806619D01*
X140906523Y-71901857D01*
X140906523Y-72068523D01*
X140882714Y-72163761D01*
X140835095Y-72211380D01*
X140787476Y-72235190D01*
X140692238Y-72235190D01*
X140644619Y-72211380D01*
X140597000Y-72163761D01*
X140573190Y-72068523D01*
X140573190Y-71901857D01*
X140597000Y-71806619D01*
X140644619Y-71759000D01*
X140692238Y-71735190D01*
X141073190Y-71735190D02*
X141382714Y-71735190D01*
X141216047Y-71925666D01*
X141287476Y-71925666D01*
X141335095Y-71949476D01*
X141358904Y-71973285D01*
X141382714Y-72020904D01*
X141382714Y-72139952D01*
X141358904Y-72187571D01*
X141335095Y-72211380D01*
X141287476Y-72235190D01*
X141144619Y-72235190D01*
X141097000Y-72211380D01*
X141073190Y-72187571D01*
X141573190Y-71782809D02*
X141597000Y-71759000D01*
X141644619Y-71735190D01*
X141763666Y-71735190D01*
X141811285Y-71759000D01*
X141835095Y-71782809D01*
X141858904Y-71830428D01*
X141858904Y-71878047D01*
X141835095Y-71949476D01*
X141549380Y-72235190D01*
X141858904Y-72235190D01*
X137818904Y-65885190D02*
X137818904Y-65385190D01*
X138152238Y-65385190D02*
X138247476Y-65385190D01*
X138295095Y-65409000D01*
X138342714Y-65456619D01*
X138366523Y-65551857D01*
X138366523Y-65718523D01*
X138342714Y-65813761D01*
X138295095Y-65861380D01*
X138247476Y-65885190D01*
X138152238Y-65885190D01*
X138104619Y-65861380D01*
X138057000Y-65813761D01*
X138033190Y-65718523D01*
X138033190Y-65551857D01*
X138057000Y-65456619D01*
X138104619Y-65409000D01*
X138152238Y-65385190D01*
X138533190Y-65385190D02*
X138842714Y-65385190D01*
X138676047Y-65575666D01*
X138747476Y-65575666D01*
X138795095Y-65599476D01*
X138818904Y-65623285D01*
X138842714Y-65670904D01*
X138842714Y-65789952D01*
X138818904Y-65837571D01*
X138795095Y-65861380D01*
X138747476Y-65885190D01*
X138604619Y-65885190D01*
X138557000Y-65861380D01*
X138533190Y-65837571D01*
X139009380Y-65385190D02*
X139318904Y-65385190D01*
X139152238Y-65575666D01*
X139223666Y-65575666D01*
X139271285Y-65599476D01*
X139295095Y-65623285D01*
X139318904Y-65670904D01*
X139318904Y-65789952D01*
X139295095Y-65837571D01*
X139271285Y-65861380D01*
X139223666Y-65885190D01*
X139080809Y-65885190D01*
X139033190Y-65861380D01*
X139009380Y-65837571D01*
X135270952Y-65385190D02*
X135580476Y-65385190D01*
X135413809Y-65575666D01*
X135485238Y-65575666D01*
X135532857Y-65599476D01*
X135556666Y-65623285D01*
X135580476Y-65670904D01*
X135580476Y-65789952D01*
X135556666Y-65837571D01*
X135532857Y-65861380D01*
X135485238Y-65885190D01*
X135342380Y-65885190D01*
X135294761Y-65861380D01*
X135270952Y-65837571D01*
X135723333Y-65385190D02*
X135890000Y-65885190D01*
X136056666Y-65385190D01*
X136175714Y-65385190D02*
X136485238Y-65385190D01*
X136318571Y-65575666D01*
X136390000Y-65575666D01*
X136437619Y-65599476D01*
X136461428Y-65623285D01*
X136485238Y-65670904D01*
X136485238Y-65789952D01*
X136461428Y-65837571D01*
X136437619Y-65861380D01*
X136390000Y-65885190D01*
X136247142Y-65885190D01*
X136199523Y-65861380D01*
X136175714Y-65837571D01*
X145569857Y-65861380D02*
X145641285Y-65885190D01*
X145760333Y-65885190D01*
X145807952Y-65861380D01*
X145831761Y-65837571D01*
X145855571Y-65789952D01*
X145855571Y-65742333D01*
X145831761Y-65694714D01*
X145807952Y-65670904D01*
X145760333Y-65647095D01*
X145665095Y-65623285D01*
X145617476Y-65599476D01*
X145593666Y-65575666D01*
X145569857Y-65528047D01*
X145569857Y-65480428D01*
X145593666Y-65432809D01*
X145617476Y-65409000D01*
X145665095Y-65385190D01*
X145784142Y-65385190D01*
X145855571Y-65409000D01*
X146069857Y-65885190D02*
X146069857Y-65385190D01*
X146188904Y-65385190D01*
X146260333Y-65409000D01*
X146307952Y-65456619D01*
X146331761Y-65504238D01*
X146355571Y-65599476D01*
X146355571Y-65670904D01*
X146331761Y-65766142D01*
X146307952Y-65813761D01*
X146260333Y-65861380D01*
X146188904Y-65885190D01*
X146069857Y-65885190D01*
X146546047Y-65742333D02*
X146784142Y-65742333D01*
X146498428Y-65885190D02*
X146665095Y-65385190D01*
X146831761Y-65885190D01*
X135636047Y-71759000D02*
X135588428Y-71735190D01*
X135517000Y-71735190D01*
X135445571Y-71759000D01*
X135397952Y-71806619D01*
X135374142Y-71854238D01*
X135350333Y-71949476D01*
X135350333Y-72020904D01*
X135374142Y-72116142D01*
X135397952Y-72163761D01*
X135445571Y-72211380D01*
X135517000Y-72235190D01*
X135564619Y-72235190D01*
X135636047Y-72211380D01*
X135659857Y-72187571D01*
X135659857Y-72020904D01*
X135564619Y-72020904D01*
X135874142Y-72235190D02*
X135874142Y-71735190D01*
X136159857Y-72235190D01*
X136159857Y-71735190D01*
X136397952Y-72235190D02*
X136397952Y-71735190D01*
X136517000Y-71735190D01*
X136588428Y-71759000D01*
X136636047Y-71806619D01*
X136659857Y-71854238D01*
X136683666Y-71949476D01*
X136683666Y-72020904D01*
X136659857Y-72116142D01*
X136636047Y-72163761D01*
X136588428Y-72211380D01*
X136517000Y-72235190D01*
X136397952Y-72235190D01*
D11*
X116475523Y-66501714D02*
X115713619Y-66787428D01*
X116475523Y-67073142D01*
X116951714Y-66787428D02*
X117713619Y-66787428D01*
X119142190Y-66168380D02*
X119332666Y-66168380D01*
X119427904Y-66216000D01*
X119523142Y-66311238D01*
X119570761Y-66501714D01*
X119570761Y-66835047D01*
X119523142Y-67025523D01*
X119427904Y-67120761D01*
X119332666Y-67168380D01*
X119142190Y-67168380D01*
X119046952Y-67120761D01*
X118951714Y-67025523D01*
X118904095Y-66835047D01*
X118904095Y-66501714D01*
X118951714Y-66311238D01*
X119046952Y-66216000D01*
X119142190Y-66168380D01*
X120332666Y-66644571D02*
X119999333Y-66644571D01*
X119999333Y-67168380D02*
X119999333Y-66168380D01*
X120475523Y-66168380D01*
X121189809Y-66644571D02*
X120856476Y-66644571D01*
X120856476Y-67168380D02*
X120856476Y-66168380D01*
X121332666Y-66168380D01*
X122427904Y-66120761D02*
X121570761Y-67406476D01*
X122951714Y-66168380D02*
X123142190Y-66168380D01*
X123237428Y-66216000D01*
X123332666Y-66311238D01*
X123380285Y-66501714D01*
X123380285Y-66835047D01*
X123332666Y-67025523D01*
X123237428Y-67120761D01*
X123142190Y-67168380D01*
X122951714Y-67168380D01*
X122856476Y-67120761D01*
X122761238Y-67025523D01*
X122713619Y-66835047D01*
X122713619Y-66501714D01*
X122761238Y-66311238D01*
X122856476Y-66216000D01*
X122951714Y-66168380D01*
X123808857Y-67168380D02*
X123808857Y-66168380D01*
X124380285Y-67168380D01*
X124380285Y-66168380D01*
X125618380Y-66787428D02*
X126380285Y-66787428D01*
X126856476Y-66501714D02*
X127618380Y-66787428D01*
X126856476Y-67073142D01*
X113808857Y-67778380D02*
X114380285Y-67778380D01*
X114094571Y-68778380D02*
X114094571Y-67778380D01*
X115142190Y-68111714D02*
X115142190Y-68778380D01*
X114713619Y-68111714D02*
X114713619Y-68635523D01*
X114761238Y-68730761D01*
X114856476Y-68778380D01*
X114999333Y-68778380D01*
X115094571Y-68730761D01*
X115142190Y-68683142D01*
X115618380Y-68778380D02*
X115618380Y-68111714D01*
X115618380Y-68302190D02*
X115666000Y-68206952D01*
X115713619Y-68159333D01*
X115808857Y-68111714D01*
X115904095Y-68111714D01*
X116237428Y-68111714D02*
X116237428Y-68778380D01*
X116237428Y-68206952D02*
X116285047Y-68159333D01*
X116380285Y-68111714D01*
X116523142Y-68111714D01*
X116618380Y-68159333D01*
X116666000Y-68254571D01*
X116666000Y-68778380D01*
X118094571Y-67778380D02*
X118285047Y-67778380D01*
X118380285Y-67826000D01*
X118475523Y-67921238D01*
X118523142Y-68111714D01*
X118523142Y-68445047D01*
X118475523Y-68635523D01*
X118380285Y-68730761D01*
X118285047Y-68778380D01*
X118094571Y-68778380D01*
X117999333Y-68730761D01*
X117904095Y-68635523D01*
X117856476Y-68445047D01*
X117856476Y-68111714D01*
X117904095Y-67921238D01*
X117999333Y-67826000D01*
X118094571Y-67778380D01*
X119285047Y-68254571D02*
X118951714Y-68254571D01*
X118951714Y-68778380D02*
X118951714Y-67778380D01*
X119427904Y-67778380D01*
X120142190Y-68254571D02*
X119808857Y-68254571D01*
X119808857Y-68778380D02*
X119808857Y-67778380D01*
X120285047Y-67778380D01*
X121427904Y-68778380D02*
X121427904Y-68111714D01*
X121427904Y-67778380D02*
X121380285Y-67826000D01*
X121427904Y-67873619D01*
X121475523Y-67826000D01*
X121427904Y-67778380D01*
X121427904Y-67873619D01*
X121761238Y-68111714D02*
X122142190Y-68111714D01*
X121904095Y-68778380D02*
X121904095Y-67921238D01*
X121951714Y-67826000D01*
X122046952Y-67778380D01*
X122142190Y-67778380D01*
X123237428Y-68111714D02*
X123237428Y-69111714D01*
X123237428Y-68159333D02*
X123332666Y-68111714D01*
X123523142Y-68111714D01*
X123618380Y-68159333D01*
X123666000Y-68206952D01*
X123713619Y-68302190D01*
X123713619Y-68587904D01*
X123666000Y-68683142D01*
X123618380Y-68730761D01*
X123523142Y-68778380D01*
X123332666Y-68778380D01*
X123237428Y-68730761D01*
X124285047Y-68778380D02*
X124189809Y-68730761D01*
X124142190Y-68683142D01*
X124094571Y-68587904D01*
X124094571Y-68302190D01*
X124142190Y-68206952D01*
X124189809Y-68159333D01*
X124285047Y-68111714D01*
X124427904Y-68111714D01*
X124523142Y-68159333D01*
X124570761Y-68206952D01*
X124618380Y-68302190D01*
X124618380Y-68587904D01*
X124570761Y-68683142D01*
X124523142Y-68730761D01*
X124427904Y-68778380D01*
X124285047Y-68778380D01*
X124951714Y-68111714D02*
X125142190Y-68778380D01*
X125332666Y-68302190D01*
X125523142Y-68778380D01*
X125713619Y-68111714D01*
X126475523Y-68730761D02*
X126380285Y-68778380D01*
X126189809Y-68778380D01*
X126094571Y-68730761D01*
X126046952Y-68635523D01*
X126046952Y-68254571D01*
X126094571Y-68159333D01*
X126189809Y-68111714D01*
X126380285Y-68111714D01*
X126475523Y-68159333D01*
X126523142Y-68254571D01*
X126523142Y-68349809D01*
X126046952Y-68445047D01*
X126951714Y-68778380D02*
X126951714Y-68111714D01*
X126951714Y-68302190D02*
X126999333Y-68206952D01*
X127046952Y-68159333D01*
X127142190Y-68111714D01*
X127237428Y-68111714D01*
X127570761Y-68778380D02*
X127570761Y-68111714D01*
X127570761Y-67778380D02*
X127523142Y-67826000D01*
X127570761Y-67873619D01*
X127618380Y-67826000D01*
X127570761Y-67778380D01*
X127570761Y-67873619D01*
X128046952Y-68111714D02*
X128046952Y-68778380D01*
X128046952Y-68206952D02*
X128094571Y-68159333D01*
X128189809Y-68111714D01*
X128332666Y-68111714D01*
X128427904Y-68159333D01*
X128475523Y-68254571D01*
X128475523Y-68778380D01*
X129380285Y-68111714D02*
X129380285Y-68921238D01*
X129332666Y-69016476D01*
X129285047Y-69064095D01*
X129189809Y-69111714D01*
X129046952Y-69111714D01*
X128951714Y-69064095D01*
X129380285Y-68730761D02*
X129285047Y-68778380D01*
X129094571Y-68778380D01*
X128999333Y-68730761D01*
X128951714Y-68683142D01*
X128904095Y-68587904D01*
X128904095Y-68302190D01*
X128951714Y-68206952D01*
X128999333Y-68159333D01*
X129094571Y-68111714D01*
X129285047Y-68111714D01*
X129380285Y-68159333D01*
X115618380Y-69721714D02*
X115856476Y-70388380D01*
X116094571Y-69721714D01*
X116475523Y-70388380D02*
X116475523Y-69721714D01*
X116475523Y-69388380D02*
X116427904Y-69436000D01*
X116475523Y-69483619D01*
X116523142Y-69436000D01*
X116475523Y-69388380D01*
X116475523Y-69483619D01*
X117380285Y-70388380D02*
X117380285Y-69864571D01*
X117332666Y-69769333D01*
X117237428Y-69721714D01*
X117046952Y-69721714D01*
X116951714Y-69769333D01*
X117380285Y-70340761D02*
X117285047Y-70388380D01*
X117046952Y-70388380D01*
X116951714Y-70340761D01*
X116904095Y-70245523D01*
X116904095Y-70150285D01*
X116951714Y-70055047D01*
X117046952Y-70007428D01*
X117285047Y-70007428D01*
X117380285Y-69959809D01*
X118618380Y-69864571D02*
X118951714Y-69864571D01*
X119094571Y-70388380D02*
X118618380Y-70388380D01*
X118618380Y-69388380D01*
X119094571Y-69388380D01*
X119475523Y-70340761D02*
X119618380Y-70388380D01*
X119856476Y-70388380D01*
X119951714Y-70340761D01*
X119999333Y-70293142D01*
X120046952Y-70197904D01*
X120046952Y-70102666D01*
X119999333Y-70007428D01*
X119951714Y-69959809D01*
X119856476Y-69912190D01*
X119666000Y-69864571D01*
X119570761Y-69816952D01*
X119523142Y-69769333D01*
X119475523Y-69674095D01*
X119475523Y-69578857D01*
X119523142Y-69483619D01*
X119570761Y-69436000D01*
X119666000Y-69388380D01*
X119904095Y-69388380D01*
X120046952Y-69436000D01*
X120475523Y-70388380D02*
X120475523Y-69388380D01*
X120856476Y-69388380D01*
X120951714Y-69436000D01*
X120999333Y-69483619D01*
X121046952Y-69578857D01*
X121046952Y-69721714D01*
X120999333Y-69816952D01*
X120951714Y-69864571D01*
X120856476Y-69912190D01*
X120475523Y-69912190D01*
X121380285Y-69388380D02*
X121999333Y-69388380D01*
X121666000Y-69769333D01*
X121808857Y-69769333D01*
X121904095Y-69816952D01*
X121951714Y-69864571D01*
X121999333Y-69959809D01*
X121999333Y-70197904D01*
X121951714Y-70293142D01*
X121904095Y-70340761D01*
X121808857Y-70388380D01*
X121523142Y-70388380D01*
X121427904Y-70340761D01*
X121380285Y-70293142D01*
X122380285Y-69483619D02*
X122427904Y-69436000D01*
X122523142Y-69388380D01*
X122761238Y-69388380D01*
X122856476Y-69436000D01*
X122904095Y-69483619D01*
X122951714Y-69578857D01*
X122951714Y-69674095D01*
X122904095Y-69816952D01*
X122332666Y-70388380D01*
X122951714Y-70388380D01*
X124142190Y-69388380D02*
X124142190Y-70197904D01*
X124189809Y-70293142D01*
X124237428Y-70340761D01*
X124332666Y-70388380D01*
X124523142Y-70388380D01*
X124618380Y-70340761D01*
X124666000Y-70293142D01*
X124713619Y-70197904D01*
X124713619Y-69388380D01*
X125142190Y-70340761D02*
X125285047Y-70388380D01*
X125523142Y-70388380D01*
X125618380Y-70340761D01*
X125666000Y-70293142D01*
X125713619Y-70197904D01*
X125713619Y-70102666D01*
X125666000Y-70007428D01*
X125618380Y-69959809D01*
X125523142Y-69912190D01*
X125332666Y-69864571D01*
X125237428Y-69816952D01*
X125189809Y-69769333D01*
X125142190Y-69674095D01*
X125142190Y-69578857D01*
X125189809Y-69483619D01*
X125237428Y-69436000D01*
X125332666Y-69388380D01*
X125570761Y-69388380D01*
X125713619Y-69436000D01*
X126475523Y-69864571D02*
X126618380Y-69912190D01*
X126666000Y-69959809D01*
X126713619Y-70055047D01*
X126713619Y-70197904D01*
X126666000Y-70293142D01*
X126618380Y-70340761D01*
X126523142Y-70388380D01*
X126142190Y-70388380D01*
X126142190Y-69388380D01*
X126475523Y-69388380D01*
X126570761Y-69436000D01*
X126618380Y-69483619D01*
X126666000Y-69578857D01*
X126666000Y-69674095D01*
X126618380Y-69769333D01*
X126570761Y-69816952D01*
X126475523Y-69864571D01*
X126142190Y-69864571D01*
X127142190Y-70293142D02*
X127189809Y-70340761D01*
X127142190Y-70388380D01*
X127094571Y-70340761D01*
X127142190Y-70293142D01*
X127142190Y-70388380D01*
X127142190Y-70007428D02*
X127094571Y-69436000D01*
X127142190Y-69388380D01*
X127189809Y-69436000D01*
X127142190Y-70007428D01*
X127142190Y-69388380D01*
X127618380Y-70293142D02*
X127666000Y-70340761D01*
X127618380Y-70388380D01*
X127570761Y-70340761D01*
X127618380Y-70293142D01*
X127618380Y-70388380D01*
X127618380Y-70007428D02*
X127570761Y-69436000D01*
X127618380Y-69388380D01*
X127666000Y-69436000D01*
X127618380Y-70007428D01*
X127618380Y-69388380D01*
D10*
X148336047Y-71759000D02*
X148288428Y-71735190D01*
X148217000Y-71735190D01*
X148145571Y-71759000D01*
X148097952Y-71806619D01*
X148074142Y-71854238D01*
X148050333Y-71949476D01*
X148050333Y-72020904D01*
X148074142Y-72116142D01*
X148097952Y-72163761D01*
X148145571Y-72211380D01*
X148217000Y-72235190D01*
X148264619Y-72235190D01*
X148336047Y-72211380D01*
X148359857Y-72187571D01*
X148359857Y-72020904D01*
X148264619Y-72020904D01*
X148574142Y-72235190D02*
X148574142Y-71735190D01*
X148859857Y-72235190D01*
X148859857Y-71735190D01*
X149097952Y-72235190D02*
X149097952Y-71735190D01*
X149217000Y-71735190D01*
X149288428Y-71759000D01*
X149336047Y-71806619D01*
X149359857Y-71854238D01*
X149383666Y-71949476D01*
X149383666Y-72020904D01*
X149359857Y-72116142D01*
X149336047Y-72163761D01*
X149288428Y-72211380D01*
X149217000Y-72235190D01*
X149097952Y-72235190D01*
X148121761Y-65861380D02*
X148193190Y-65885190D01*
X148312238Y-65885190D01*
X148359857Y-65861380D01*
X148383666Y-65837571D01*
X148407476Y-65789952D01*
X148407476Y-65742333D01*
X148383666Y-65694714D01*
X148359857Y-65670904D01*
X148312238Y-65647095D01*
X148217000Y-65623285D01*
X148169380Y-65599476D01*
X148145571Y-65575666D01*
X148121761Y-65528047D01*
X148121761Y-65480428D01*
X148145571Y-65432809D01*
X148169380Y-65409000D01*
X148217000Y-65385190D01*
X148336047Y-65385190D01*
X148407476Y-65409000D01*
X148907476Y-65837571D02*
X148883666Y-65861380D01*
X148812238Y-65885190D01*
X148764619Y-65885190D01*
X148693190Y-65861380D01*
X148645571Y-65813761D01*
X148621761Y-65766142D01*
X148597952Y-65670904D01*
X148597952Y-65599476D01*
X148621761Y-65504238D01*
X148645571Y-65456619D01*
X148693190Y-65409000D01*
X148764619Y-65385190D01*
X148812238Y-65385190D01*
X148883666Y-65409000D01*
X148907476Y-65432809D01*
X149359857Y-65885190D02*
X149121761Y-65885190D01*
X149121761Y-65385190D01*
X138461761Y-71735190D02*
X138223666Y-71735190D01*
X138199857Y-71973285D01*
X138223666Y-71949476D01*
X138271285Y-71925666D01*
X138390333Y-71925666D01*
X138437952Y-71949476D01*
X138461761Y-71973285D01*
X138485571Y-72020904D01*
X138485571Y-72139952D01*
X138461761Y-72187571D01*
X138437952Y-72211380D01*
X138390333Y-72235190D01*
X138271285Y-72235190D01*
X138223666Y-72211380D01*
X138199857Y-72187571D01*
X138628428Y-71735190D02*
X138795095Y-72235190D01*
X138961761Y-71735190D01*
D11*
X116094619Y-139842142D02*
X116047000Y-139889761D01*
X115904142Y-139937380D01*
X115808904Y-139937380D01*
X115666047Y-139889761D01*
X115570809Y-139794523D01*
X115523190Y-139699285D01*
X115475571Y-139508809D01*
X115475571Y-139365952D01*
X115523190Y-139175476D01*
X115570809Y-139080238D01*
X115666047Y-138985000D01*
X115808904Y-138937380D01*
X115904142Y-138937380D01*
X116047000Y-138985000D01*
X116094619Y-139032619D01*
X116951761Y-139937380D02*
X116951761Y-139413571D01*
X116904142Y-139318333D01*
X116808904Y-139270714D01*
X116618428Y-139270714D01*
X116523190Y-139318333D01*
X116951761Y-139889761D02*
X116856523Y-139937380D01*
X116618428Y-139937380D01*
X116523190Y-139889761D01*
X116475571Y-139794523D01*
X116475571Y-139699285D01*
X116523190Y-139604047D01*
X116618428Y-139556428D01*
X116856523Y-139556428D01*
X116951761Y-139508809D01*
X117427952Y-139270714D02*
X117427952Y-140270714D01*
X117427952Y-139318333D02*
X117523190Y-139270714D01*
X117713666Y-139270714D01*
X117808904Y-139318333D01*
X117856523Y-139365952D01*
X117904142Y-139461190D01*
X117904142Y-139746904D01*
X117856523Y-139842142D01*
X117808904Y-139889761D01*
X117713666Y-139937380D01*
X117523190Y-139937380D01*
X117427952Y-139889761D01*
X118761285Y-139937380D02*
X118761285Y-139413571D01*
X118713666Y-139318333D01*
X118618428Y-139270714D01*
X118427952Y-139270714D01*
X118332714Y-139318333D01*
X118761285Y-139889761D02*
X118666047Y-139937380D01*
X118427952Y-139937380D01*
X118332714Y-139889761D01*
X118285095Y-139794523D01*
X118285095Y-139699285D01*
X118332714Y-139604047D01*
X118427952Y-139556428D01*
X118666047Y-139556428D01*
X118761285Y-139508809D01*
X119666047Y-139889761D02*
X119570809Y-139937380D01*
X119380333Y-139937380D01*
X119285095Y-139889761D01*
X119237476Y-139842142D01*
X119189857Y-139746904D01*
X119189857Y-139461190D01*
X119237476Y-139365952D01*
X119285095Y-139318333D01*
X119380333Y-139270714D01*
X119570809Y-139270714D01*
X119666047Y-139318333D01*
X120094619Y-139937380D02*
X120094619Y-139270714D01*
X120094619Y-138937380D02*
X120047000Y-138985000D01*
X120094619Y-139032619D01*
X120142238Y-138985000D01*
X120094619Y-138937380D01*
X120094619Y-139032619D01*
X120427952Y-139270714D02*
X120808904Y-139270714D01*
X120570809Y-138937380D02*
X120570809Y-139794523D01*
X120618428Y-139889761D01*
X120713666Y-139937380D01*
X120808904Y-139937380D01*
X121142238Y-139937380D02*
X121142238Y-139270714D01*
X121142238Y-138937380D02*
X121094619Y-138985000D01*
X121142238Y-139032619D01*
X121189857Y-138985000D01*
X121142238Y-138937380D01*
X121142238Y-139032619D01*
X121523190Y-139270714D02*
X121761285Y-139937380D01*
X121999380Y-139270714D01*
X122761285Y-139889761D02*
X122666047Y-139937380D01*
X122475571Y-139937380D01*
X122380333Y-139889761D01*
X122332714Y-139794523D01*
X122332714Y-139413571D01*
X122380333Y-139318333D01*
X122475571Y-139270714D01*
X122666047Y-139270714D01*
X122761285Y-139318333D01*
X122808904Y-139413571D01*
X122808904Y-139508809D01*
X122332714Y-139604047D01*
X123951761Y-139889761D02*
X124094619Y-139937380D01*
X124332714Y-139937380D01*
X124427952Y-139889761D01*
X124475571Y-139842142D01*
X124523190Y-139746904D01*
X124523190Y-139651666D01*
X124475571Y-139556428D01*
X124427952Y-139508809D01*
X124332714Y-139461190D01*
X124142238Y-139413571D01*
X124047000Y-139365952D01*
X123999380Y-139318333D01*
X123951761Y-139223095D01*
X123951761Y-139127857D01*
X123999380Y-139032619D01*
X124047000Y-138985000D01*
X124142238Y-138937380D01*
X124380333Y-138937380D01*
X124523190Y-138985000D01*
X125332714Y-139889761D02*
X125237476Y-139937380D01*
X125047000Y-139937380D01*
X124951761Y-139889761D01*
X124904142Y-139794523D01*
X124904142Y-139413571D01*
X124951761Y-139318333D01*
X125047000Y-139270714D01*
X125237476Y-139270714D01*
X125332714Y-139318333D01*
X125380333Y-139413571D01*
X125380333Y-139508809D01*
X124904142Y-139604047D01*
X125808904Y-139270714D02*
X125808904Y-139937380D01*
X125808904Y-139365952D02*
X125856523Y-139318333D01*
X125951761Y-139270714D01*
X126094619Y-139270714D01*
X126189857Y-139318333D01*
X126237476Y-139413571D01*
X126237476Y-139937380D01*
X126666047Y-139889761D02*
X126761285Y-139937380D01*
X126951761Y-139937380D01*
X127047000Y-139889761D01*
X127094619Y-139794523D01*
X127094619Y-139746904D01*
X127047000Y-139651666D01*
X126951761Y-139604047D01*
X126808904Y-139604047D01*
X126713666Y-139556428D01*
X126666047Y-139461190D01*
X126666047Y-139413571D01*
X126713666Y-139318333D01*
X126808904Y-139270714D01*
X126951761Y-139270714D01*
X127047000Y-139318333D01*
X127666047Y-139937380D02*
X127570809Y-139889761D01*
X127523190Y-139842142D01*
X127475571Y-139746904D01*
X127475571Y-139461190D01*
X127523190Y-139365952D01*
X127570809Y-139318333D01*
X127666047Y-139270714D01*
X127808904Y-139270714D01*
X127904142Y-139318333D01*
X127951761Y-139365952D01*
X127999380Y-139461190D01*
X127999380Y-139746904D01*
X127951761Y-139842142D01*
X127904142Y-139889761D01*
X127808904Y-139937380D01*
X127666047Y-139937380D01*
X128427952Y-139937380D02*
X128427952Y-139270714D01*
X128427952Y-139461190D02*
X128475571Y-139365952D01*
X128523190Y-139318333D01*
X128618428Y-139270714D01*
X128713666Y-139270714D01*
X115523190Y-141547380D02*
X115523190Y-140547380D01*
X115856523Y-141261666D01*
X116189857Y-140547380D01*
X116189857Y-141547380D01*
X117047000Y-141499761D02*
X116951761Y-141547380D01*
X116761285Y-141547380D01*
X116666047Y-141499761D01*
X116618428Y-141404523D01*
X116618428Y-141023571D01*
X116666047Y-140928333D01*
X116761285Y-140880714D01*
X116951761Y-140880714D01*
X117047000Y-140928333D01*
X117094619Y-141023571D01*
X117094619Y-141118809D01*
X116618428Y-141214047D01*
X117951761Y-141547380D02*
X117951761Y-141023571D01*
X117904142Y-140928333D01*
X117808904Y-140880714D01*
X117618428Y-140880714D01*
X117523190Y-140928333D01*
X117951761Y-141499761D02*
X117856523Y-141547380D01*
X117618428Y-141547380D01*
X117523190Y-141499761D01*
X117475571Y-141404523D01*
X117475571Y-141309285D01*
X117523190Y-141214047D01*
X117618428Y-141166428D01*
X117856523Y-141166428D01*
X117951761Y-141118809D01*
X118380333Y-141499761D02*
X118475571Y-141547380D01*
X118666047Y-141547380D01*
X118761285Y-141499761D01*
X118808904Y-141404523D01*
X118808904Y-141356904D01*
X118761285Y-141261666D01*
X118666047Y-141214047D01*
X118523190Y-141214047D01*
X118427952Y-141166428D01*
X118380333Y-141071190D01*
X118380333Y-141023571D01*
X118427952Y-140928333D01*
X118523190Y-140880714D01*
X118666047Y-140880714D01*
X118761285Y-140928333D01*
X119666047Y-140880714D02*
X119666047Y-141547380D01*
X119237476Y-140880714D02*
X119237476Y-141404523D01*
X119285095Y-141499761D01*
X119380333Y-141547380D01*
X119523190Y-141547380D01*
X119618428Y-141499761D01*
X119666047Y-141452142D01*
X120142238Y-141547380D02*
X120142238Y-140880714D01*
X120142238Y-141071190D02*
X120189857Y-140975952D01*
X120237476Y-140928333D01*
X120332714Y-140880714D01*
X120427952Y-140880714D01*
X121142238Y-141499761D02*
X121047000Y-141547380D01*
X120856523Y-141547380D01*
X120761285Y-141499761D01*
X120713666Y-141404523D01*
X120713666Y-141023571D01*
X120761285Y-140928333D01*
X120856523Y-140880714D01*
X121047000Y-140880714D01*
X121142238Y-140928333D01*
X121189857Y-141023571D01*
X121189857Y-141118809D01*
X120713666Y-141214047D01*
X121618428Y-141547380D02*
X121618428Y-140880714D01*
X121618428Y-140975952D02*
X121666047Y-140928333D01*
X121761285Y-140880714D01*
X121904142Y-140880714D01*
X121999380Y-140928333D01*
X122047000Y-141023571D01*
X122047000Y-141547380D01*
X122047000Y-141023571D02*
X122094619Y-140928333D01*
X122189857Y-140880714D01*
X122332714Y-140880714D01*
X122427952Y-140928333D01*
X122475571Y-141023571D01*
X122475571Y-141547380D01*
X123332714Y-141499761D02*
X123237476Y-141547380D01*
X123047000Y-141547380D01*
X122951761Y-141499761D01*
X122904142Y-141404523D01*
X122904142Y-141023571D01*
X122951761Y-140928333D01*
X123047000Y-140880714D01*
X123237476Y-140880714D01*
X123332714Y-140928333D01*
X123380333Y-141023571D01*
X123380333Y-141118809D01*
X122904142Y-141214047D01*
X123808904Y-140880714D02*
X123808904Y-141547380D01*
X123808904Y-140975952D02*
X123856523Y-140928333D01*
X123951761Y-140880714D01*
X124094619Y-140880714D01*
X124189857Y-140928333D01*
X124237476Y-141023571D01*
X124237476Y-141547380D01*
X124570809Y-140880714D02*
X124951761Y-140880714D01*
X124713666Y-140547380D02*
X124713666Y-141404523D01*
X124761285Y-141499761D01*
X124856523Y-141547380D01*
X124951761Y-141547380D01*
X126047000Y-141547380D02*
X126047000Y-140547380D01*
X126427952Y-140547380D01*
X126523190Y-140595000D01*
X126570809Y-140642619D01*
X126618428Y-140737857D01*
X126618428Y-140880714D01*
X126570809Y-140975952D01*
X126523190Y-141023571D01*
X126427952Y-141071190D01*
X126047000Y-141071190D01*
X127618428Y-141452142D02*
X127570809Y-141499761D01*
X127427952Y-141547380D01*
X127332714Y-141547380D01*
X127189857Y-141499761D01*
X127094619Y-141404523D01*
X127047000Y-141309285D01*
X126999380Y-141118809D01*
X126999380Y-140975952D01*
X127047000Y-140785476D01*
X127094619Y-140690238D01*
X127189857Y-140595000D01*
X127332714Y-140547380D01*
X127427952Y-140547380D01*
X127570809Y-140595000D01*
X127618428Y-140642619D01*
X128380333Y-141023571D02*
X128523190Y-141071190D01*
X128570809Y-141118809D01*
X128618428Y-141214047D01*
X128618428Y-141356904D01*
X128570809Y-141452142D01*
X128523190Y-141499761D01*
X128427952Y-141547380D01*
X128047000Y-141547380D01*
X128047000Y-140547380D01*
X128380333Y-140547380D01*
X128475571Y-140595000D01*
X128523190Y-140642619D01*
X128570809Y-140737857D01*
X128570809Y-140833095D01*
X128523190Y-140928333D01*
X128475571Y-140975952D01*
X128380333Y-141023571D01*
X128047000Y-141023571D01*
X117737476Y-143767380D02*
X118308904Y-143767380D01*
X118023190Y-144767380D02*
X118023190Y-143767380D01*
X118785095Y-144767380D02*
X118689857Y-144719761D01*
X118642238Y-144672142D01*
X118594619Y-144576904D01*
X118594619Y-144291190D01*
X118642238Y-144195952D01*
X118689857Y-144148333D01*
X118785095Y-144100714D01*
X118927952Y-144100714D01*
X119023190Y-144148333D01*
X119070809Y-144195952D01*
X119118428Y-144291190D01*
X119118428Y-144576904D01*
X119070809Y-144672142D01*
X119023190Y-144719761D01*
X118927952Y-144767380D01*
X118785095Y-144767380D01*
X119547000Y-144767380D02*
X119547000Y-144100714D01*
X119547000Y-144195952D02*
X119594619Y-144148333D01*
X119689857Y-144100714D01*
X119832714Y-144100714D01*
X119927952Y-144148333D01*
X119975571Y-144243571D01*
X119975571Y-144767380D01*
X119975571Y-144243571D02*
X120023190Y-144148333D01*
X120118428Y-144100714D01*
X120261285Y-144100714D01*
X120356523Y-144148333D01*
X120404142Y-144243571D01*
X120404142Y-144767380D01*
X121594619Y-144719761D02*
X121737476Y-144767380D01*
X121975571Y-144767380D01*
X122070809Y-144719761D01*
X122118428Y-144672142D01*
X122166047Y-144576904D01*
X122166047Y-144481666D01*
X122118428Y-144386428D01*
X122070809Y-144338809D01*
X121975571Y-144291190D01*
X121785095Y-144243571D01*
X121689857Y-144195952D01*
X121642238Y-144148333D01*
X121594619Y-144053095D01*
X121594619Y-143957857D01*
X121642238Y-143862619D01*
X121689857Y-143815000D01*
X121785095Y-143767380D01*
X122023190Y-143767380D01*
X122166047Y-143815000D01*
X123023190Y-144767380D02*
X123023190Y-144243571D01*
X122975571Y-144148333D01*
X122880333Y-144100714D01*
X122689857Y-144100714D01*
X122594619Y-144148333D01*
X123023190Y-144719761D02*
X122927952Y-144767380D01*
X122689857Y-144767380D01*
X122594619Y-144719761D01*
X122547000Y-144624523D01*
X122547000Y-144529285D01*
X122594619Y-144434047D01*
X122689857Y-144386428D01*
X122927952Y-144386428D01*
X123023190Y-144338809D01*
X123642238Y-144767380D02*
X123547000Y-144719761D01*
X123499380Y-144624523D01*
X123499380Y-143767380D01*
X124451761Y-144767380D02*
X124451761Y-143767380D01*
X124451761Y-144719761D02*
X124356523Y-144767380D01*
X124166047Y-144767380D01*
X124070809Y-144719761D01*
X124023190Y-144672142D01*
X123975571Y-144576904D01*
X123975571Y-144291190D01*
X124023190Y-144195952D01*
X124070809Y-144148333D01*
X124166047Y-144100714D01*
X124356523Y-144100714D01*
X124451761Y-144148333D01*
X125308904Y-144719761D02*
X125213666Y-144767380D01*
X125023190Y-144767380D01*
X124927952Y-144719761D01*
X124880333Y-144624523D01*
X124880333Y-144243571D01*
X124927952Y-144148333D01*
X125023190Y-144100714D01*
X125213666Y-144100714D01*
X125308904Y-144148333D01*
X125356523Y-144243571D01*
X125356523Y-144338809D01*
X124880333Y-144434047D01*
X125785095Y-144100714D02*
X125785095Y-144767380D01*
X125785095Y-144195952D02*
X125832714Y-144148333D01*
X125927952Y-144100714D01*
X126070809Y-144100714D01*
X126166047Y-144148333D01*
X126213666Y-144243571D01*
X126213666Y-144767380D01*
X117475571Y-146091666D02*
X117951761Y-146091666D01*
X117380333Y-146377380D02*
X117713666Y-145377380D01*
X118047000Y-146377380D01*
X118808904Y-145710714D02*
X118808904Y-146377380D01*
X118380333Y-145710714D02*
X118380333Y-146234523D01*
X118427952Y-146329761D01*
X118523190Y-146377380D01*
X118666047Y-146377380D01*
X118761285Y-146329761D01*
X118808904Y-146282142D01*
X119713666Y-145710714D02*
X119713666Y-146520238D01*
X119666047Y-146615476D01*
X119618428Y-146663095D01*
X119523190Y-146710714D01*
X119380333Y-146710714D01*
X119285095Y-146663095D01*
X119713666Y-146329761D02*
X119618428Y-146377380D01*
X119427952Y-146377380D01*
X119332714Y-146329761D01*
X119285095Y-146282142D01*
X119237476Y-146186904D01*
X119237476Y-145901190D01*
X119285095Y-145805952D01*
X119332714Y-145758333D01*
X119427952Y-145710714D01*
X119618428Y-145710714D01*
X119713666Y-145758333D01*
X120618428Y-145710714D02*
X120618428Y-146377380D01*
X120189857Y-145710714D02*
X120189857Y-146234523D01*
X120237476Y-146329761D01*
X120332714Y-146377380D01*
X120475571Y-146377380D01*
X120570809Y-146329761D01*
X120618428Y-146282142D01*
X121047000Y-146329761D02*
X121142238Y-146377380D01*
X121332714Y-146377380D01*
X121427952Y-146329761D01*
X121475571Y-146234523D01*
X121475571Y-146186904D01*
X121427952Y-146091666D01*
X121332714Y-146044047D01*
X121189857Y-146044047D01*
X121094619Y-145996428D01*
X121047000Y-145901190D01*
X121047000Y-145853571D01*
X121094619Y-145758333D01*
X121189857Y-145710714D01*
X121332714Y-145710714D01*
X121427952Y-145758333D01*
X121761285Y-145710714D02*
X122142238Y-145710714D01*
X121904142Y-145377380D02*
X121904142Y-146234523D01*
X121951761Y-146329761D01*
X122047000Y-146377380D01*
X122142238Y-146377380D01*
X123189857Y-145472619D02*
X123237476Y-145425000D01*
X123332714Y-145377380D01*
X123570809Y-145377380D01*
X123666047Y-145425000D01*
X123713666Y-145472619D01*
X123761285Y-145567857D01*
X123761285Y-145663095D01*
X123713666Y-145805952D01*
X123142238Y-146377380D01*
X123761285Y-146377380D01*
X124380333Y-145377380D02*
X124475571Y-145377380D01*
X124570809Y-145425000D01*
X124618428Y-145472619D01*
X124666047Y-145567857D01*
X124713666Y-145758333D01*
X124713666Y-145996428D01*
X124666047Y-146186904D01*
X124618428Y-146282142D01*
X124570809Y-146329761D01*
X124475571Y-146377380D01*
X124380333Y-146377380D01*
X124285095Y-146329761D01*
X124237476Y-146282142D01*
X124189857Y-146186904D01*
X124142238Y-145996428D01*
X124142238Y-145758333D01*
X124189857Y-145567857D01*
X124237476Y-145472619D01*
X124285095Y-145425000D01*
X124380333Y-145377380D01*
X125094619Y-145472619D02*
X125142238Y-145425000D01*
X125237476Y-145377380D01*
X125475571Y-145377380D01*
X125570809Y-145425000D01*
X125618428Y-145472619D01*
X125666047Y-145567857D01*
X125666047Y-145663095D01*
X125618428Y-145805952D01*
X125047000Y-146377380D01*
X125666047Y-146377380D01*
X126047000Y-145472619D02*
X126094619Y-145425000D01*
X126189857Y-145377380D01*
X126427952Y-145377380D01*
X126523190Y-145425000D01*
X126570809Y-145472619D01*
X126618428Y-145567857D01*
X126618428Y-145663095D01*
X126570809Y-145805952D01*
X125999380Y-146377380D01*
X126618428Y-146377380D01*
X118904142Y-147987380D02*
X118570809Y-147511190D01*
X118332714Y-147987380D02*
X118332714Y-146987380D01*
X118713666Y-146987380D01*
X118808904Y-147035000D01*
X118856523Y-147082619D01*
X118904142Y-147177857D01*
X118904142Y-147320714D01*
X118856523Y-147415952D01*
X118808904Y-147463571D01*
X118713666Y-147511190D01*
X118332714Y-147511190D01*
X119713666Y-147939761D02*
X119618428Y-147987380D01*
X119427952Y-147987380D01*
X119332714Y-147939761D01*
X119285095Y-147844523D01*
X119285095Y-147463571D01*
X119332714Y-147368333D01*
X119427952Y-147320714D01*
X119618428Y-147320714D01*
X119713666Y-147368333D01*
X119761285Y-147463571D01*
X119761285Y-147558809D01*
X119285095Y-147654047D01*
X120094619Y-147320714D02*
X120332714Y-147987380D01*
X120570809Y-147320714D01*
X120951761Y-147987380D02*
X120951761Y-147320714D01*
X120951761Y-146987380D02*
X120904142Y-147035000D01*
X120951761Y-147082619D01*
X120999380Y-147035000D01*
X120951761Y-146987380D01*
X120951761Y-147082619D01*
X121380333Y-147939761D02*
X121475571Y-147987380D01*
X121666047Y-147987380D01*
X121761285Y-147939761D01*
X121808904Y-147844523D01*
X121808904Y-147796904D01*
X121761285Y-147701666D01*
X121666047Y-147654047D01*
X121523190Y-147654047D01*
X121427952Y-147606428D01*
X121380333Y-147511190D01*
X121380333Y-147463571D01*
X121427952Y-147368333D01*
X121523190Y-147320714D01*
X121666047Y-147320714D01*
X121761285Y-147368333D01*
X122237476Y-147987380D02*
X122237476Y-147320714D01*
X122237476Y-146987380D02*
X122189857Y-147035000D01*
X122237476Y-147082619D01*
X122285095Y-147035000D01*
X122237476Y-146987380D01*
X122237476Y-147082619D01*
X122856523Y-147987380D02*
X122761285Y-147939761D01*
X122713666Y-147892142D01*
X122666047Y-147796904D01*
X122666047Y-147511190D01*
X122713666Y-147415952D01*
X122761285Y-147368333D01*
X122856523Y-147320714D01*
X122999380Y-147320714D01*
X123094619Y-147368333D01*
X123142238Y-147415952D01*
X123189857Y-147511190D01*
X123189857Y-147796904D01*
X123142238Y-147892142D01*
X123094619Y-147939761D01*
X122999380Y-147987380D01*
X122856523Y-147987380D01*
X123618428Y-147320714D02*
X123618428Y-147987380D01*
X123618428Y-147415952D02*
X123666047Y-147368333D01*
X123761285Y-147320714D01*
X123904142Y-147320714D01*
X123999380Y-147368333D01*
X124047000Y-147463571D01*
X124047000Y-147987380D01*
X125808904Y-147987380D02*
X125237476Y-147987380D01*
X125523190Y-147987380D02*
X125523190Y-146987380D01*
X125427952Y-147130238D01*
X125332714Y-147225476D01*
X125237476Y-147273095D01*
D10*
X143160809Y-72187571D02*
X143137000Y-72211380D01*
X143065571Y-72235190D01*
X143017952Y-72235190D01*
X142946523Y-72211380D01*
X142898904Y-72163761D01*
X142875095Y-72116142D01*
X142851285Y-72020904D01*
X142851285Y-71949476D01*
X142875095Y-71854238D01*
X142898904Y-71806619D01*
X142946523Y-71759000D01*
X143017952Y-71735190D01*
X143065571Y-71735190D01*
X143137000Y-71759000D01*
X143160809Y-71782809D01*
X143470333Y-71735190D02*
X143565571Y-71735190D01*
X143613190Y-71759000D01*
X143660809Y-71806619D01*
X143684619Y-71901857D01*
X143684619Y-72068523D01*
X143660809Y-72163761D01*
X143613190Y-72211380D01*
X143565571Y-72235190D01*
X143470333Y-72235190D01*
X143422714Y-72211380D01*
X143375095Y-72163761D01*
X143351285Y-72068523D01*
X143351285Y-71901857D01*
X143375095Y-71806619D01*
X143422714Y-71759000D01*
X143470333Y-71735190D01*
X143898904Y-72235190D02*
X143898904Y-71735190D01*
X144089380Y-71735190D01*
X144137000Y-71759000D01*
X144160809Y-71782809D01*
X144184619Y-71830428D01*
X144184619Y-71901857D01*
X144160809Y-71949476D01*
X144137000Y-71973285D01*
X144089380Y-71997095D01*
X143898904Y-71997095D01*
X144398904Y-72235190D02*
X144398904Y-71735190D01*
D11*
%TO.C,IC4*%
X111037809Y-78811380D02*
X111037809Y-77811380D01*
X112085428Y-78716142D02*
X112037809Y-78763761D01*
X111894952Y-78811380D01*
X111799714Y-78811380D01*
X111656857Y-78763761D01*
X111561619Y-78668523D01*
X111514000Y-78573285D01*
X111466380Y-78382809D01*
X111466380Y-78239952D01*
X111514000Y-78049476D01*
X111561619Y-77954238D01*
X111656857Y-77859000D01*
X111799714Y-77811380D01*
X111894952Y-77811380D01*
X112037809Y-77859000D01*
X112085428Y-77906619D01*
X112942571Y-78144714D02*
X112942571Y-78811380D01*
X112704476Y-77763761D02*
X112466380Y-78478047D01*
X113085428Y-78478047D01*
%TO.C,C30*%
X178681142Y-86336142D02*
X178633523Y-86383761D01*
X178490666Y-86431380D01*
X178395428Y-86431380D01*
X178252571Y-86383761D01*
X178157333Y-86288523D01*
X178109714Y-86193285D01*
X178062095Y-86002809D01*
X178062095Y-85859952D01*
X178109714Y-85669476D01*
X178157333Y-85574238D01*
X178252571Y-85479000D01*
X178395428Y-85431380D01*
X178490666Y-85431380D01*
X178633523Y-85479000D01*
X178681142Y-85526619D01*
X179014476Y-85431380D02*
X179633523Y-85431380D01*
X179300190Y-85812333D01*
X179443047Y-85812333D01*
X179538285Y-85859952D01*
X179585904Y-85907571D01*
X179633523Y-86002809D01*
X179633523Y-86240904D01*
X179585904Y-86336142D01*
X179538285Y-86383761D01*
X179443047Y-86431380D01*
X179157333Y-86431380D01*
X179062095Y-86383761D01*
X179014476Y-86336142D01*
X180252571Y-85431380D02*
X180347809Y-85431380D01*
X180443047Y-85479000D01*
X180490666Y-85526619D01*
X180538285Y-85621857D01*
X180585904Y-85812333D01*
X180585904Y-86050428D01*
X180538285Y-86240904D01*
X180490666Y-86336142D01*
X180443047Y-86383761D01*
X180347809Y-86431380D01*
X180252571Y-86431380D01*
X180157333Y-86383761D01*
X180109714Y-86336142D01*
X180062095Y-86240904D01*
X180014476Y-86050428D01*
X180014476Y-85812333D01*
X180062095Y-85621857D01*
X180109714Y-85526619D01*
X180157333Y-85479000D01*
X180252571Y-85431380D01*
%TO.C,TP10*%
X161111099Y-117741075D02*
X161682528Y-117741075D01*
X161396814Y-118741075D02*
X161396814Y-117741075D01*
X162015861Y-118741075D02*
X162015861Y-117741075D01*
X162396814Y-117741075D01*
X162492052Y-117788695D01*
X162539671Y-117836314D01*
X162587290Y-117931552D01*
X162587290Y-118074409D01*
X162539671Y-118169647D01*
X162492052Y-118217266D01*
X162396814Y-118264885D01*
X162015861Y-118264885D01*
X163539671Y-118741075D02*
X162968242Y-118741075D01*
X163253956Y-118741075D02*
X163253956Y-117741075D01*
X163158718Y-117883933D01*
X163063480Y-117979171D01*
X162968242Y-118026790D01*
X164158718Y-117741075D02*
X164253956Y-117741075D01*
X164349195Y-117788695D01*
X164396814Y-117836314D01*
X164444433Y-117931552D01*
X164492052Y-118122028D01*
X164492052Y-118360123D01*
X164444433Y-118550599D01*
X164396814Y-118645837D01*
X164349195Y-118693456D01*
X164253956Y-118741075D01*
X164158718Y-118741075D01*
X164063480Y-118693456D01*
X164015861Y-118645837D01*
X163968242Y-118550599D01*
X163920623Y-118360123D01*
X163920623Y-118122028D01*
X163968242Y-117931552D01*
X164015861Y-117836314D01*
X164063480Y-117788695D01*
X164158718Y-117741075D01*
D12*
%TO.C,J3*%
X130749523Y-94784333D02*
X131656666Y-94784333D01*
X131838095Y-94844809D01*
X131959047Y-94965761D01*
X132019523Y-95147190D01*
X132019523Y-95268142D01*
X130749523Y-94300523D02*
X130749523Y-93514333D01*
X131233333Y-93937666D01*
X131233333Y-93756238D01*
X131293809Y-93635285D01*
X131354285Y-93574809D01*
X131475238Y-93514333D01*
X131777619Y-93514333D01*
X131898571Y-93574809D01*
X131959047Y-93635285D01*
X132019523Y-93756238D01*
X132019523Y-94119095D01*
X131959047Y-94240047D01*
X131898571Y-94300523D01*
%TO.C,J2*%
X174074666Y-136591523D02*
X174074666Y-137498666D01*
X174014190Y-137680095D01*
X173893238Y-137801047D01*
X173711809Y-137861523D01*
X173590857Y-137861523D01*
X174618952Y-136712476D02*
X174679428Y-136652000D01*
X174800380Y-136591523D01*
X175102761Y-136591523D01*
X175223714Y-136652000D01*
X175284190Y-136712476D01*
X175344666Y-136833428D01*
X175344666Y-136954380D01*
X175284190Y-137135809D01*
X174558476Y-137861523D01*
X175344666Y-137861523D01*
D11*
%TO.C,C4*%
X172276337Y-128403361D02*
X172323956Y-128450980D01*
X172371575Y-128593837D01*
X172371575Y-128689075D01*
X172323956Y-128831933D01*
X172228718Y-128927171D01*
X172133480Y-128974790D01*
X171943004Y-129022409D01*
X171800147Y-129022409D01*
X171609671Y-128974790D01*
X171514433Y-128927171D01*
X171419195Y-128831933D01*
X171371575Y-128689075D01*
X171371575Y-128593837D01*
X171419195Y-128450980D01*
X171466814Y-128403361D01*
X171704909Y-127546218D02*
X172371575Y-127546218D01*
X171323956Y-127784314D02*
X172038242Y-128022409D01*
X172038242Y-127403361D01*
%TO.C,C11*%
X148206337Y-127879552D02*
X148253956Y-127927171D01*
X148301575Y-128070028D01*
X148301575Y-128165266D01*
X148253956Y-128308123D01*
X148158718Y-128403361D01*
X148063480Y-128450980D01*
X147873004Y-128498599D01*
X147730147Y-128498599D01*
X147539671Y-128450980D01*
X147444433Y-128403361D01*
X147349195Y-128308123D01*
X147301575Y-128165266D01*
X147301575Y-128070028D01*
X147349195Y-127927171D01*
X147396814Y-127879552D01*
X148301575Y-126927171D02*
X148301575Y-127498599D01*
X148301575Y-127212885D02*
X147301575Y-127212885D01*
X147444433Y-127308123D01*
X147539671Y-127403361D01*
X147587290Y-127498599D01*
X148301575Y-125974790D02*
X148301575Y-126546218D01*
X148301575Y-126260504D02*
X147301575Y-126260504D01*
X147444433Y-126355742D01*
X147539671Y-126450980D01*
X147587290Y-126546218D01*
%TO.C,TP7*%
X135087290Y-126189075D02*
X135658718Y-126189075D01*
X135373004Y-127189075D02*
X135373004Y-126189075D01*
X135992052Y-127189075D02*
X135992052Y-126189075D01*
X136373004Y-126189075D01*
X136468242Y-126236695D01*
X136515861Y-126284314D01*
X136563480Y-126379552D01*
X136563480Y-126522409D01*
X136515861Y-126617647D01*
X136468242Y-126665266D01*
X136373004Y-126712885D01*
X135992052Y-126712885D01*
X136896814Y-126189075D02*
X137563480Y-126189075D01*
X137134909Y-127189075D01*
%TO.C,R7*%
X146182528Y-115689075D02*
X145849195Y-115212885D01*
X145611099Y-115689075D02*
X145611099Y-114689075D01*
X145992052Y-114689075D01*
X146087290Y-114736695D01*
X146134909Y-114784314D01*
X146182528Y-114879552D01*
X146182528Y-115022409D01*
X146134909Y-115117647D01*
X146087290Y-115165266D01*
X145992052Y-115212885D01*
X145611099Y-115212885D01*
X146515861Y-114689075D02*
X147182528Y-114689075D01*
X146753956Y-115689075D01*
%TO.C,H2*%
X176137900Y-69215185D02*
X176137900Y-68215185D01*
X176137900Y-68691376D02*
X176709328Y-68691376D01*
X176709328Y-69215185D02*
X176709328Y-68215185D01*
X177137900Y-68310424D02*
X177185519Y-68262805D01*
X177280757Y-68215185D01*
X177518852Y-68215185D01*
X177614090Y-68262805D01*
X177661709Y-68310424D01*
X177709328Y-68405662D01*
X177709328Y-68500900D01*
X177661709Y-68643757D01*
X177090281Y-69215185D01*
X177709328Y-69215185D01*
%TO.C,C2*%
X151206337Y-128549628D02*
X151253956Y-128597247D01*
X151301575Y-128740104D01*
X151301575Y-128835342D01*
X151253956Y-128978200D01*
X151158718Y-129073438D01*
X151063480Y-129121057D01*
X150873004Y-129168676D01*
X150730147Y-129168676D01*
X150539671Y-129121057D01*
X150444433Y-129073438D01*
X150349195Y-128978200D01*
X150301575Y-128835342D01*
X150301575Y-128740104D01*
X150349195Y-128597247D01*
X150396814Y-128549628D01*
X150396814Y-128168676D02*
X150349195Y-128121057D01*
X150301575Y-128025819D01*
X150301575Y-127787723D01*
X150349195Y-127692485D01*
X150396814Y-127644866D01*
X150492052Y-127597247D01*
X150587290Y-127597247D01*
X150730147Y-127644866D01*
X151301575Y-128216295D01*
X151301575Y-127597247D01*
%TO.C,C6*%
X122182528Y-119593837D02*
X122134909Y-119641456D01*
X121992052Y-119689075D01*
X121896814Y-119689075D01*
X121753956Y-119641456D01*
X121658718Y-119546218D01*
X121611099Y-119450980D01*
X121563480Y-119260504D01*
X121563480Y-119117647D01*
X121611099Y-118927171D01*
X121658718Y-118831933D01*
X121753956Y-118736695D01*
X121896814Y-118689075D01*
X121992052Y-118689075D01*
X122134909Y-118736695D01*
X122182528Y-118784314D01*
X123039671Y-118689075D02*
X122849195Y-118689075D01*
X122753956Y-118736695D01*
X122706337Y-118784314D01*
X122611099Y-118927171D01*
X122563480Y-119117647D01*
X122563480Y-119498599D01*
X122611099Y-119593837D01*
X122658718Y-119641456D01*
X122753956Y-119689075D01*
X122944433Y-119689075D01*
X123039671Y-119641456D01*
X123087290Y-119593837D01*
X123134909Y-119498599D01*
X123134909Y-119260504D01*
X123087290Y-119165266D01*
X123039671Y-119117647D01*
X122944433Y-119070028D01*
X122753956Y-119070028D01*
X122658718Y-119117647D01*
X122611099Y-119165266D01*
X122563480Y-119260504D01*
%TO.C,R10*%
X169706337Y-115689075D02*
X169373004Y-115212885D01*
X169134909Y-115689075D02*
X169134909Y-114689075D01*
X169515861Y-114689075D01*
X169611099Y-114736695D01*
X169658718Y-114784314D01*
X169706337Y-114879552D01*
X169706337Y-115022409D01*
X169658718Y-115117647D01*
X169611099Y-115165266D01*
X169515861Y-115212885D01*
X169134909Y-115212885D01*
X170658718Y-115689075D02*
X170087290Y-115689075D01*
X170373004Y-115689075D02*
X170373004Y-114689075D01*
X170277766Y-114831933D01*
X170182528Y-114927171D01*
X170087290Y-114974790D01*
X171277766Y-114689075D02*
X171373004Y-114689075D01*
X171468242Y-114736695D01*
X171515861Y-114784314D01*
X171563480Y-114879552D01*
X171611099Y-115070028D01*
X171611099Y-115308123D01*
X171563480Y-115498599D01*
X171515861Y-115593837D01*
X171468242Y-115641456D01*
X171373004Y-115689075D01*
X171277766Y-115689075D01*
X171182528Y-115641456D01*
X171134909Y-115593837D01*
X171087290Y-115498599D01*
X171039671Y-115308123D01*
X171039671Y-115070028D01*
X171087290Y-114879552D01*
X171134909Y-114784314D01*
X171182528Y-114736695D01*
X171277766Y-114689075D01*
D12*
%TO.C,IC3*%
X166109433Y-129711218D02*
X166109433Y-128441218D01*
X167439909Y-129590266D02*
X167379433Y-129650742D01*
X167198004Y-129711218D01*
X167077052Y-129711218D01*
X166895623Y-129650742D01*
X166774671Y-129529790D01*
X166714195Y-129408837D01*
X166653718Y-129166933D01*
X166653718Y-128985504D01*
X166714195Y-128743599D01*
X166774671Y-128622647D01*
X166895623Y-128501695D01*
X167077052Y-128441218D01*
X167198004Y-128441218D01*
X167379433Y-128501695D01*
X167439909Y-128562171D01*
X167863242Y-128441218D02*
X168649433Y-128441218D01*
X168226099Y-128925028D01*
X168407528Y-128925028D01*
X168528480Y-128985504D01*
X168588956Y-129045980D01*
X168649433Y-129166933D01*
X168649433Y-129469314D01*
X168588956Y-129590266D01*
X168528480Y-129650742D01*
X168407528Y-129711218D01*
X168044671Y-129711218D01*
X167923718Y-129650742D01*
X167863242Y-129590266D01*
D11*
%TO.C,C10*%
X151136337Y-124879552D02*
X151183956Y-124927171D01*
X151231575Y-125070028D01*
X151231575Y-125165266D01*
X151183956Y-125308123D01*
X151088718Y-125403361D01*
X150993480Y-125450980D01*
X150803004Y-125498599D01*
X150660147Y-125498599D01*
X150469671Y-125450980D01*
X150374433Y-125403361D01*
X150279195Y-125308123D01*
X150231575Y-125165266D01*
X150231575Y-125070028D01*
X150279195Y-124927171D01*
X150326814Y-124879552D01*
X151231575Y-123927171D02*
X151231575Y-124498599D01*
X151231575Y-124212885D02*
X150231575Y-124212885D01*
X150374433Y-124308123D01*
X150469671Y-124403361D01*
X150517290Y-124498599D01*
X150231575Y-123308123D02*
X150231575Y-123212885D01*
X150279195Y-123117647D01*
X150326814Y-123070028D01*
X150422052Y-123022409D01*
X150612528Y-122974790D01*
X150850623Y-122974790D01*
X151041099Y-123022409D01*
X151136337Y-123070028D01*
X151183956Y-123117647D01*
X151231575Y-123212885D01*
X151231575Y-123308123D01*
X151183956Y-123403361D01*
X151136337Y-123450980D01*
X151041099Y-123498599D01*
X150850623Y-123546218D01*
X150612528Y-123546218D01*
X150422052Y-123498599D01*
X150326814Y-123450980D01*
X150279195Y-123403361D01*
X150231575Y-123308123D01*
%TO.C,C1*%
X124276337Y-128403361D02*
X124323956Y-128450980D01*
X124371575Y-128593837D01*
X124371575Y-128689075D01*
X124323956Y-128831933D01*
X124228718Y-128927171D01*
X124133480Y-128974790D01*
X123943004Y-129022409D01*
X123800147Y-129022409D01*
X123609671Y-128974790D01*
X123514433Y-128927171D01*
X123419195Y-128831933D01*
X123371575Y-128689075D01*
X123371575Y-128593837D01*
X123419195Y-128450980D01*
X123466814Y-128403361D01*
X124371575Y-127450980D02*
X124371575Y-128022409D01*
X124371575Y-127736695D02*
X123371575Y-127736695D01*
X123514433Y-127831933D01*
X123609671Y-127927171D01*
X123657290Y-128022409D01*
D12*
%TO.C,S2*%
X171142547Y-109005619D02*
X171203023Y-108824190D01*
X171203023Y-108521809D01*
X171142547Y-108400857D01*
X171082071Y-108340380D01*
X170961119Y-108279904D01*
X170840166Y-108279904D01*
X170719214Y-108340380D01*
X170658738Y-108400857D01*
X170598261Y-108521809D01*
X170537785Y-108763714D01*
X170477309Y-108884666D01*
X170416833Y-108945142D01*
X170295880Y-109005619D01*
X170174928Y-109005619D01*
X170053976Y-108945142D01*
X169993500Y-108884666D01*
X169933023Y-108763714D01*
X169933023Y-108461333D01*
X169993500Y-108279904D01*
X170053976Y-107796095D02*
X169993500Y-107735619D01*
X169933023Y-107614666D01*
X169933023Y-107312285D01*
X169993500Y-107191333D01*
X170053976Y-107130857D01*
X170174928Y-107070380D01*
X170295880Y-107070380D01*
X170477309Y-107130857D01*
X171203023Y-107856571D01*
X171203023Y-107070380D01*
D11*
%TO.C,R2*%
X171918333Y-79573380D02*
X171585000Y-79097190D01*
X171346904Y-79573380D02*
X171346904Y-78573380D01*
X171727857Y-78573380D01*
X171823095Y-78621000D01*
X171870714Y-78668619D01*
X171918333Y-78763857D01*
X171918333Y-78906714D01*
X171870714Y-79001952D01*
X171823095Y-79049571D01*
X171727857Y-79097190D01*
X171346904Y-79097190D01*
X172299285Y-78668619D02*
X172346904Y-78621000D01*
X172442142Y-78573380D01*
X172680238Y-78573380D01*
X172775476Y-78621000D01*
X172823095Y-78668619D01*
X172870714Y-78763857D01*
X172870714Y-78859095D01*
X172823095Y-79001952D01*
X172251666Y-79573380D01*
X172870714Y-79573380D01*
%TO.C,R12*%
X161706337Y-131119075D02*
X161373004Y-130642885D01*
X161134909Y-131119075D02*
X161134909Y-130119075D01*
X161515861Y-130119075D01*
X161611099Y-130166695D01*
X161658718Y-130214314D01*
X161706337Y-130309552D01*
X161706337Y-130452409D01*
X161658718Y-130547647D01*
X161611099Y-130595266D01*
X161515861Y-130642885D01*
X161134909Y-130642885D01*
X162658718Y-131119075D02*
X162087290Y-131119075D01*
X162373004Y-131119075D02*
X162373004Y-130119075D01*
X162277766Y-130261933D01*
X162182528Y-130357171D01*
X162087290Y-130404790D01*
X163039671Y-130214314D02*
X163087290Y-130166695D01*
X163182528Y-130119075D01*
X163420623Y-130119075D01*
X163515861Y-130166695D01*
X163563480Y-130214314D01*
X163611099Y-130309552D01*
X163611099Y-130404790D01*
X163563480Y-130547647D01*
X162992052Y-131119075D01*
X163611099Y-131119075D01*
%TO.C,R1*%
X129872333Y-75763380D02*
X129539000Y-75287190D01*
X129300904Y-75763380D02*
X129300904Y-74763380D01*
X129681857Y-74763380D01*
X129777095Y-74811000D01*
X129824714Y-74858619D01*
X129872333Y-74953857D01*
X129872333Y-75096714D01*
X129824714Y-75191952D01*
X129777095Y-75239571D01*
X129681857Y-75287190D01*
X129300904Y-75287190D01*
X130824714Y-75763380D02*
X130253285Y-75763380D01*
X130539000Y-75763380D02*
X130539000Y-74763380D01*
X130443761Y-74906238D01*
X130348523Y-75001476D01*
X130253285Y-75049095D01*
%TO.C,R9*%
X138182528Y-131119075D02*
X137849195Y-130642885D01*
X137611099Y-131119075D02*
X137611099Y-130119075D01*
X137992052Y-130119075D01*
X138087290Y-130166695D01*
X138134909Y-130214314D01*
X138182528Y-130309552D01*
X138182528Y-130452409D01*
X138134909Y-130547647D01*
X138087290Y-130595266D01*
X137992052Y-130642885D01*
X137611099Y-130642885D01*
X138658718Y-131119075D02*
X138849195Y-131119075D01*
X138944433Y-131071456D01*
X138992052Y-131023837D01*
X139087290Y-130880980D01*
X139134909Y-130690504D01*
X139134909Y-130309552D01*
X139087290Y-130214314D01*
X139039671Y-130166695D01*
X138944433Y-130119075D01*
X138753956Y-130119075D01*
X138658718Y-130166695D01*
X138611099Y-130214314D01*
X138563480Y-130309552D01*
X138563480Y-130547647D01*
X138611099Y-130642885D01*
X138658718Y-130690504D01*
X138753956Y-130738123D01*
X138944433Y-130738123D01*
X139039671Y-130690504D01*
X139087290Y-130642885D01*
X139134909Y-130547647D01*
%TO.C,R5*%
X122182528Y-117689075D02*
X121849195Y-117212885D01*
X121611099Y-117689075D02*
X121611099Y-116689075D01*
X121992052Y-116689075D01*
X122087290Y-116736695D01*
X122134909Y-116784314D01*
X122182528Y-116879552D01*
X122182528Y-117022409D01*
X122134909Y-117117647D01*
X122087290Y-117165266D01*
X121992052Y-117212885D01*
X121611099Y-117212885D01*
X123087290Y-116689075D02*
X122611099Y-116689075D01*
X122563480Y-117165266D01*
X122611099Y-117117647D01*
X122706337Y-117070028D01*
X122944433Y-117070028D01*
X123039671Y-117117647D01*
X123087290Y-117165266D01*
X123134909Y-117260504D01*
X123134909Y-117498599D01*
X123087290Y-117593837D01*
X123039671Y-117641456D01*
X122944433Y-117689075D01*
X122706337Y-117689075D01*
X122611099Y-117641456D01*
X122563480Y-117593837D01*
%TO.C,TP1*%
X127587290Y-114689075D02*
X128158718Y-114689075D01*
X127873004Y-115689075D02*
X127873004Y-114689075D01*
X128492052Y-115689075D02*
X128492052Y-114689075D01*
X128873004Y-114689075D01*
X128968242Y-114736695D01*
X129015861Y-114784314D01*
X129063480Y-114879552D01*
X129063480Y-115022409D01*
X129015861Y-115117647D01*
X128968242Y-115165266D01*
X128873004Y-115212885D01*
X128492052Y-115212885D01*
X130015861Y-115689075D02*
X129444433Y-115689075D01*
X129730147Y-115689075D02*
X129730147Y-114689075D01*
X129634909Y-114831933D01*
X129539671Y-114927171D01*
X129444433Y-114974790D01*
%TO.C,U1*%
X112337290Y-114026575D02*
X112337290Y-114836099D01*
X112384909Y-114931337D01*
X112432528Y-114978956D01*
X112527766Y-115026575D01*
X112718242Y-115026575D01*
X112813480Y-114978956D01*
X112861099Y-114931337D01*
X112908718Y-114836099D01*
X112908718Y-114026575D01*
X113908718Y-115026575D02*
X113337290Y-115026575D01*
X113623004Y-115026575D02*
X113623004Y-114026575D01*
X113527766Y-114169433D01*
X113432528Y-114264671D01*
X113337290Y-114312290D01*
X121754361Y-136074790D02*
X120754361Y-136074790D01*
X120754361Y-135693837D01*
X120801981Y-135598599D01*
X120849600Y-135550980D01*
X120944838Y-135503361D01*
X121087695Y-135503361D01*
X121182933Y-135550980D01*
X121230552Y-135598599D01*
X121278171Y-135693837D01*
X121278171Y-136074790D01*
X121659123Y-134503361D02*
X121706742Y-134550980D01*
X121754361Y-134693837D01*
X121754361Y-134789075D01*
X121706742Y-134931933D01*
X121611504Y-135027171D01*
X121516266Y-135074790D01*
X121325790Y-135122409D01*
X121182933Y-135122409D01*
X120992457Y-135074790D01*
X120897219Y-135027171D01*
X120801981Y-134931933D01*
X120754361Y-134789075D01*
X120754361Y-134693837D01*
X120801981Y-134550980D01*
X120849600Y-134503361D01*
X121754361Y-133550980D02*
X121754361Y-134122409D01*
X121754361Y-133836695D02*
X120754361Y-133836695D01*
X120897219Y-133931933D01*
X120992457Y-134027171D01*
X121040076Y-134122409D01*
X131249195Y-135598599D02*
X131201575Y-135693837D01*
X131201575Y-135836695D01*
X131249195Y-135979552D01*
X131344433Y-136074790D01*
X131439671Y-136122409D01*
X131630147Y-136170028D01*
X131773004Y-136170028D01*
X131963480Y-136122409D01*
X132058718Y-136074790D01*
X132153956Y-135979552D01*
X132201575Y-135836695D01*
X132201575Y-135741456D01*
X132153956Y-135598599D01*
X132106337Y-135550980D01*
X131773004Y-135550980D01*
X131773004Y-135741456D01*
X132201575Y-135122409D02*
X131201575Y-135122409D01*
X132201575Y-134550980D01*
X131201575Y-134550980D01*
X132201575Y-134074790D02*
X131201575Y-134074790D01*
X131201575Y-133836695D01*
X131249195Y-133693837D01*
X131344433Y-133598599D01*
X131439671Y-133550980D01*
X131630147Y-133503361D01*
X131773004Y-133503361D01*
X131963480Y-133550980D01*
X132058718Y-133598599D01*
X132153956Y-133693837D01*
X132201575Y-133836695D01*
X132201575Y-134074790D01*
X109668647Y-136074790D02*
X109668647Y-135598599D01*
X109954361Y-136170028D02*
X108954361Y-135836695D01*
X109954361Y-135503361D01*
X108954361Y-135170028D02*
X109763885Y-135170028D01*
X109859123Y-135122409D01*
X109906742Y-135074790D01*
X109954361Y-134979552D01*
X109954361Y-134789075D01*
X109906742Y-134693837D01*
X109859123Y-134646218D01*
X109763885Y-134598599D01*
X108954361Y-134598599D01*
X108954361Y-134217647D02*
X109954361Y-133550980D01*
X108954361Y-133550980D02*
X109954361Y-134217647D01*
X119754361Y-136074790D02*
X118754361Y-136074790D01*
X118754361Y-135693837D01*
X118801981Y-135598599D01*
X118849600Y-135550980D01*
X118944838Y-135503361D01*
X119087695Y-135503361D01*
X119182933Y-135550980D01*
X119230552Y-135598599D01*
X119278171Y-135693837D01*
X119278171Y-136074790D01*
X119659123Y-134503361D02*
X119706742Y-134550980D01*
X119754361Y-134693837D01*
X119754361Y-134789075D01*
X119706742Y-134931933D01*
X119611504Y-135027171D01*
X119516266Y-135074790D01*
X119325790Y-135122409D01*
X119182933Y-135122409D01*
X118992457Y-135074790D01*
X118897219Y-135027171D01*
X118801981Y-134931933D01*
X118754361Y-134789075D01*
X118754361Y-134693837D01*
X118801981Y-134550980D01*
X118849600Y-134503361D01*
X118754361Y-133884314D02*
X118754361Y-133789075D01*
X118801981Y-133693837D01*
X118849600Y-133646218D01*
X118944838Y-133598599D01*
X119135314Y-133550980D01*
X119373409Y-133550980D01*
X119563885Y-133598599D01*
X119659123Y-133646218D01*
X119706742Y-133693837D01*
X119754361Y-133789075D01*
X119754361Y-133884314D01*
X119706742Y-133979552D01*
X119659123Y-134027171D01*
X119563885Y-134074790D01*
X119373409Y-134122409D01*
X119135314Y-134122409D01*
X118944838Y-134074790D01*
X118849600Y-134027171D01*
X118801981Y-133979552D01*
X118754361Y-133884314D01*
X113954361Y-136074790D02*
X112954361Y-136074790D01*
X112954361Y-135693837D01*
X113001981Y-135598599D01*
X113049600Y-135550980D01*
X113144838Y-135503361D01*
X113287695Y-135503361D01*
X113382933Y-135550980D01*
X113430552Y-135598599D01*
X113478171Y-135693837D01*
X113478171Y-136074790D01*
X113859123Y-134503361D02*
X113906742Y-134550980D01*
X113954361Y-134693837D01*
X113954361Y-134789075D01*
X113906742Y-134931933D01*
X113811504Y-135027171D01*
X113716266Y-135074790D01*
X113525790Y-135122409D01*
X113382933Y-135122409D01*
X113192457Y-135074790D01*
X113097219Y-135027171D01*
X113001981Y-134931933D01*
X112954361Y-134789075D01*
X112954361Y-134693837D01*
X113001981Y-134550980D01*
X113049600Y-134503361D01*
X113287695Y-133646218D02*
X113954361Y-133646218D01*
X112906742Y-133884314D02*
X113621028Y-134122409D01*
X113621028Y-133503361D01*
X106449195Y-135598599D02*
X106401575Y-135693837D01*
X106401575Y-135836695D01*
X106449195Y-135979552D01*
X106544433Y-136074790D01*
X106639671Y-136122409D01*
X106830147Y-136170028D01*
X106973004Y-136170028D01*
X107163480Y-136122409D01*
X107258718Y-136074790D01*
X107353956Y-135979552D01*
X107401575Y-135836695D01*
X107401575Y-135741456D01*
X107353956Y-135598599D01*
X107306337Y-135550980D01*
X106973004Y-135550980D01*
X106973004Y-135741456D01*
X107401575Y-135122409D02*
X106401575Y-135122409D01*
X107401575Y-134550980D01*
X106401575Y-134550980D01*
X107401575Y-134074790D02*
X106401575Y-134074790D01*
X106401575Y-133836695D01*
X106449195Y-133693837D01*
X106544433Y-133598599D01*
X106639671Y-133550980D01*
X106830147Y-133503361D01*
X106973004Y-133503361D01*
X107163480Y-133550980D01*
X107258718Y-133598599D01*
X107353956Y-133693837D01*
X107401575Y-133836695D01*
X107401575Y-134074790D01*
X127954361Y-136074790D02*
X126954361Y-136074790D01*
X126954361Y-135693837D01*
X127001981Y-135598599D01*
X127049600Y-135550980D01*
X127144838Y-135503361D01*
X127287695Y-135503361D01*
X127382933Y-135550980D01*
X127430552Y-135598599D01*
X127478171Y-135693837D01*
X127478171Y-136074790D01*
X127859123Y-134503361D02*
X127906742Y-134550980D01*
X127954361Y-134693837D01*
X127954361Y-134789075D01*
X127906742Y-134931933D01*
X127811504Y-135027171D01*
X127716266Y-135074790D01*
X127525790Y-135122409D01*
X127382933Y-135122409D01*
X127192457Y-135074790D01*
X127097219Y-135027171D01*
X127001981Y-134931933D01*
X126954361Y-134789075D01*
X126954361Y-134693837D01*
X127001981Y-134550980D01*
X127049600Y-134503361D01*
X126954361Y-134170028D02*
X126954361Y-133550980D01*
X127335314Y-133884314D01*
X127335314Y-133741456D01*
X127382933Y-133646218D01*
X127430552Y-133598599D01*
X127525790Y-133550980D01*
X127763885Y-133550980D01*
X127859123Y-133598599D01*
X127906742Y-133646218D01*
X127954361Y-133741456D01*
X127954361Y-134027171D01*
X127906742Y-134122409D01*
X127859123Y-134170028D01*
X125954361Y-136074790D02*
X124954361Y-136074790D01*
X124954361Y-135693837D01*
X125001981Y-135598599D01*
X125049600Y-135550980D01*
X125144838Y-135503361D01*
X125287695Y-135503361D01*
X125382933Y-135550980D01*
X125430552Y-135598599D01*
X125478171Y-135693837D01*
X125478171Y-136074790D01*
X125859123Y-134503361D02*
X125906742Y-134550980D01*
X125954361Y-134693837D01*
X125954361Y-134789075D01*
X125906742Y-134931933D01*
X125811504Y-135027171D01*
X125716266Y-135074790D01*
X125525790Y-135122409D01*
X125382933Y-135122409D01*
X125192457Y-135074790D01*
X125097219Y-135027171D01*
X125001981Y-134931933D01*
X124954361Y-134789075D01*
X124954361Y-134693837D01*
X125001981Y-134550980D01*
X125049600Y-134503361D01*
X125049600Y-134122409D02*
X125001981Y-134074790D01*
X124954361Y-133979552D01*
X124954361Y-133741456D01*
X125001981Y-133646218D01*
X125049600Y-133598599D01*
X125144838Y-133550980D01*
X125240076Y-133550980D01*
X125382933Y-133598599D01*
X125954361Y-134170028D01*
X125954361Y-133550980D01*
X115954361Y-136074790D02*
X114954361Y-136074790D01*
X114954361Y-135693837D01*
X115001981Y-135598599D01*
X115049600Y-135550980D01*
X115144838Y-135503361D01*
X115287695Y-135503361D01*
X115382933Y-135550980D01*
X115430552Y-135598599D01*
X115478171Y-135693837D01*
X115478171Y-136074790D01*
X115859123Y-134503361D02*
X115906742Y-134550980D01*
X115954361Y-134693837D01*
X115954361Y-134789075D01*
X115906742Y-134931933D01*
X115811504Y-135027171D01*
X115716266Y-135074790D01*
X115525790Y-135122409D01*
X115382933Y-135122409D01*
X115192457Y-135074790D01*
X115097219Y-135027171D01*
X115001981Y-134931933D01*
X114954361Y-134789075D01*
X114954361Y-134693837D01*
X115001981Y-134550980D01*
X115049600Y-134503361D01*
X114954361Y-133598599D02*
X114954361Y-134074790D01*
X115430552Y-134122409D01*
X115382933Y-134074790D01*
X115335314Y-133979552D01*
X115335314Y-133741456D01*
X115382933Y-133646218D01*
X115430552Y-133598599D01*
X115525790Y-133550980D01*
X115763885Y-133550980D01*
X115859123Y-133598599D01*
X115906742Y-133646218D01*
X115954361Y-133741456D01*
X115954361Y-133979552D01*
X115906742Y-134074790D01*
X115859123Y-134122409D01*
%TO.C,R8*%
X146182528Y-117689075D02*
X145849195Y-117212885D01*
X145611099Y-117689075D02*
X145611099Y-116689075D01*
X145992052Y-116689075D01*
X146087290Y-116736695D01*
X146134909Y-116784314D01*
X146182528Y-116879552D01*
X146182528Y-117022409D01*
X146134909Y-117117647D01*
X146087290Y-117165266D01*
X145992052Y-117212885D01*
X145611099Y-117212885D01*
X146753956Y-117117647D02*
X146658718Y-117070028D01*
X146611099Y-117022409D01*
X146563480Y-116927171D01*
X146563480Y-116879552D01*
X146611099Y-116784314D01*
X146658718Y-116736695D01*
X146753956Y-116689075D01*
X146944433Y-116689075D01*
X147039671Y-116736695D01*
X147087290Y-116784314D01*
X147134909Y-116879552D01*
X147134909Y-116927171D01*
X147087290Y-117022409D01*
X147039671Y-117070028D01*
X146944433Y-117117647D01*
X146753956Y-117117647D01*
X146658718Y-117165266D01*
X146611099Y-117212885D01*
X146563480Y-117308123D01*
X146563480Y-117498599D01*
X146611099Y-117593837D01*
X146658718Y-117641456D01*
X146753956Y-117689075D01*
X146944433Y-117689075D01*
X147039671Y-117641456D01*
X147087290Y-117593837D01*
X147134909Y-117498599D01*
X147134909Y-117308123D01*
X147087290Y-117212885D01*
X147039671Y-117165266D01*
X146944433Y-117117647D01*
%TO.C,TP2*%
X109087290Y-118689075D02*
X109658718Y-118689075D01*
X109373004Y-119689075D02*
X109373004Y-118689075D01*
X109992052Y-119689075D02*
X109992052Y-118689075D01*
X110373004Y-118689075D01*
X110468242Y-118736695D01*
X110515861Y-118784314D01*
X110563480Y-118879552D01*
X110563480Y-119022409D01*
X110515861Y-119117647D01*
X110468242Y-119165266D01*
X110373004Y-119212885D01*
X109992052Y-119212885D01*
X110944433Y-118784314D02*
X110992052Y-118736695D01*
X111087290Y-118689075D01*
X111325385Y-118689075D01*
X111420623Y-118736695D01*
X111468242Y-118784314D01*
X111515861Y-118879552D01*
X111515861Y-118974790D01*
X111468242Y-119117647D01*
X110896814Y-119689075D01*
X111515861Y-119689075D01*
%TO.C,J4*%
X132762666Y-147407380D02*
X132762666Y-148121666D01*
X132715047Y-148264523D01*
X132619809Y-148359761D01*
X132476952Y-148407380D01*
X132381714Y-148407380D01*
X133667428Y-147740714D02*
X133667428Y-148407380D01*
X133429333Y-147359761D02*
X133191238Y-148074047D01*
X133810285Y-148074047D01*
%TO.C,TP8*%
X152087290Y-119189075D02*
X152658718Y-119189075D01*
X152373004Y-120189075D02*
X152373004Y-119189075D01*
X152992052Y-120189075D02*
X152992052Y-119189075D01*
X153373004Y-119189075D01*
X153468242Y-119236695D01*
X153515861Y-119284314D01*
X153563480Y-119379552D01*
X153563480Y-119522409D01*
X153515861Y-119617647D01*
X153468242Y-119665266D01*
X153373004Y-119712885D01*
X152992052Y-119712885D01*
X154134909Y-119617647D02*
X154039671Y-119570028D01*
X153992052Y-119522409D01*
X153944433Y-119427171D01*
X153944433Y-119379552D01*
X153992052Y-119284314D01*
X154039671Y-119236695D01*
X154134909Y-119189075D01*
X154325385Y-119189075D01*
X154420623Y-119236695D01*
X154468242Y-119284314D01*
X154515861Y-119379552D01*
X154515861Y-119427171D01*
X154468242Y-119522409D01*
X154420623Y-119570028D01*
X154325385Y-119617647D01*
X154134909Y-119617647D01*
X154039671Y-119665266D01*
X153992052Y-119712885D01*
X153944433Y-119808123D01*
X153944433Y-119998599D01*
X153992052Y-120093837D01*
X154039671Y-120141456D01*
X154134909Y-120189075D01*
X154325385Y-120189075D01*
X154420623Y-120141456D01*
X154468242Y-120093837D01*
X154515861Y-119998599D01*
X154515861Y-119808123D01*
X154468242Y-119712885D01*
X154420623Y-119665266D01*
X154325385Y-119617647D01*
%TO.C,H4*%
X176137900Y-146812185D02*
X176137900Y-145812185D01*
X176137900Y-146288376D02*
X176709328Y-146288376D01*
X176709328Y-146812185D02*
X176709328Y-145812185D01*
X177614090Y-146145519D02*
X177614090Y-146812185D01*
X177375995Y-145764566D02*
X177137900Y-146478852D01*
X177756947Y-146478852D01*
D12*
%TO.C,IC1*%
X115109433Y-130411218D02*
X115109433Y-129141218D01*
X116439909Y-130290266D02*
X116379433Y-130350742D01*
X116198004Y-130411218D01*
X116077052Y-130411218D01*
X115895623Y-130350742D01*
X115774671Y-130229790D01*
X115714195Y-130108837D01*
X115653718Y-129866933D01*
X115653718Y-129685504D01*
X115714195Y-129443599D01*
X115774671Y-129322647D01*
X115895623Y-129201695D01*
X116077052Y-129141218D01*
X116198004Y-129141218D01*
X116379433Y-129201695D01*
X116439909Y-129262171D01*
X117649433Y-130411218D02*
X116923718Y-130411218D01*
X117286575Y-130411218D02*
X117286575Y-129141218D01*
X117165623Y-129322647D01*
X117044671Y-129443599D01*
X116923718Y-129504075D01*
D11*
%TO.C,J5*%
X133139380Y-69063333D02*
X133853666Y-69063333D01*
X133996523Y-69110952D01*
X134091761Y-69206190D01*
X134139380Y-69349047D01*
X134139380Y-69444285D01*
X133139380Y-68110952D02*
X133139380Y-68587142D01*
X133615571Y-68634761D01*
X133567952Y-68587142D01*
X133520333Y-68491904D01*
X133520333Y-68253809D01*
X133567952Y-68158571D01*
X133615571Y-68110952D01*
X133710809Y-68063333D01*
X133948904Y-68063333D01*
X134044142Y-68110952D01*
X134091761Y-68158571D01*
X134139380Y-68253809D01*
X134139380Y-68491904D01*
X134091761Y-68587142D01*
X134044142Y-68634761D01*
%TO.C,TP12*%
X172611099Y-117741075D02*
X173182528Y-117741075D01*
X172896814Y-118741075D02*
X172896814Y-117741075D01*
X173515861Y-118741075D02*
X173515861Y-117741075D01*
X173896814Y-117741075D01*
X173992052Y-117788695D01*
X174039671Y-117836314D01*
X174087290Y-117931552D01*
X174087290Y-118074409D01*
X174039671Y-118169647D01*
X173992052Y-118217266D01*
X173896814Y-118264885D01*
X173515861Y-118264885D01*
X175039671Y-118741075D02*
X174468242Y-118741075D01*
X174753956Y-118741075D02*
X174753956Y-117741075D01*
X174658718Y-117883933D01*
X174563480Y-117979171D01*
X174468242Y-118026790D01*
X175420623Y-117836314D02*
X175468242Y-117788695D01*
X175563480Y-117741075D01*
X175801575Y-117741075D01*
X175896814Y-117788695D01*
X175944433Y-117836314D01*
X175992052Y-117931552D01*
X175992052Y-118026790D01*
X175944433Y-118169647D01*
X175373004Y-118741075D01*
X175992052Y-118741075D01*
%TO.C,TP11*%
X161111099Y-124741075D02*
X161682528Y-124741075D01*
X161396814Y-125741075D02*
X161396814Y-124741075D01*
X162015861Y-125741075D02*
X162015861Y-124741075D01*
X162396814Y-124741075D01*
X162492052Y-124788695D01*
X162539671Y-124836314D01*
X162587290Y-124931552D01*
X162587290Y-125074409D01*
X162539671Y-125169647D01*
X162492052Y-125217266D01*
X162396814Y-125264885D01*
X162015861Y-125264885D01*
X163539671Y-125741075D02*
X162968242Y-125741075D01*
X163253956Y-125741075D02*
X163253956Y-124741075D01*
X163158718Y-124883933D01*
X163063480Y-124979171D01*
X162968242Y-125026790D01*
X164492052Y-125741075D02*
X163920623Y-125741075D01*
X164206337Y-125741075D02*
X164206337Y-124741075D01*
X164111099Y-124883933D01*
X164015861Y-124979171D01*
X163920623Y-125026790D01*
%TO.C,C7*%
X130206337Y-124549628D02*
X130253956Y-124597247D01*
X130301575Y-124740104D01*
X130301575Y-124835342D01*
X130253956Y-124978200D01*
X130158718Y-125073438D01*
X130063480Y-125121057D01*
X129873004Y-125168676D01*
X129730147Y-125168676D01*
X129539671Y-125121057D01*
X129444433Y-125073438D01*
X129349195Y-124978200D01*
X129301575Y-124835342D01*
X129301575Y-124740104D01*
X129349195Y-124597247D01*
X129396814Y-124549628D01*
X129301575Y-124216295D02*
X129301575Y-123549628D01*
X130301575Y-123978200D01*
%TO.C,H3*%
X107303900Y-146913785D02*
X107303900Y-145913785D01*
X107303900Y-146389976D02*
X107875328Y-146389976D01*
X107875328Y-146913785D02*
X107875328Y-145913785D01*
X108256281Y-145913785D02*
X108875328Y-145913785D01*
X108541995Y-146294738D01*
X108684852Y-146294738D01*
X108780090Y-146342357D01*
X108827709Y-146389976D01*
X108875328Y-146485214D01*
X108875328Y-146723309D01*
X108827709Y-146818547D01*
X108780090Y-146866166D01*
X108684852Y-146913785D01*
X108399138Y-146913785D01*
X108303900Y-146866166D01*
X108256281Y-146818547D01*
D12*
%TO.C,IC2*%
X144048238Y-129606523D02*
X144048238Y-128336523D01*
X145378714Y-129485571D02*
X145318238Y-129546047D01*
X145136809Y-129606523D01*
X145015857Y-129606523D01*
X144834428Y-129546047D01*
X144713476Y-129425095D01*
X144653000Y-129304142D01*
X144592523Y-129062238D01*
X144592523Y-128880809D01*
X144653000Y-128638904D01*
X144713476Y-128517952D01*
X144834428Y-128397000D01*
X145015857Y-128336523D01*
X145136809Y-128336523D01*
X145318238Y-128397000D01*
X145378714Y-128457476D01*
X145862523Y-128457476D02*
X145923000Y-128397000D01*
X146043952Y-128336523D01*
X146346333Y-128336523D01*
X146467285Y-128397000D01*
X146527761Y-128457476D01*
X146588238Y-128578428D01*
X146588238Y-128699380D01*
X146527761Y-128880809D01*
X145802047Y-129606523D01*
X146588238Y-129606523D01*
D11*
%TO.C,C8*%
X127136337Y-124403361D02*
X127183956Y-124450980D01*
X127231575Y-124593837D01*
X127231575Y-124689075D01*
X127183956Y-124831933D01*
X127088718Y-124927171D01*
X126993480Y-124974790D01*
X126803004Y-125022409D01*
X126660147Y-125022409D01*
X126469671Y-124974790D01*
X126374433Y-124927171D01*
X126279195Y-124831933D01*
X126231575Y-124689075D01*
X126231575Y-124593837D01*
X126279195Y-124450980D01*
X126326814Y-124403361D01*
X126660147Y-123831933D02*
X126612528Y-123927171D01*
X126564909Y-123974790D01*
X126469671Y-124022409D01*
X126422052Y-124022409D01*
X126326814Y-123974790D01*
X126279195Y-123927171D01*
X126231575Y-123831933D01*
X126231575Y-123641456D01*
X126279195Y-123546218D01*
X126326814Y-123498599D01*
X126422052Y-123450980D01*
X126469671Y-123450980D01*
X126564909Y-123498599D01*
X126612528Y-123546218D01*
X126660147Y-123641456D01*
X126660147Y-123831933D01*
X126707766Y-123927171D01*
X126755385Y-123974790D01*
X126850623Y-124022409D01*
X127041099Y-124022409D01*
X127136337Y-123974790D01*
X127183956Y-123927171D01*
X127231575Y-123831933D01*
X127231575Y-123641456D01*
X127183956Y-123546218D01*
X127136337Y-123498599D01*
X127041099Y-123450980D01*
X126850623Y-123450980D01*
X126755385Y-123498599D01*
X126707766Y-123546218D01*
X126660147Y-123641456D01*
%TO.C,R4*%
X122182528Y-115689075D02*
X121849195Y-115212885D01*
X121611099Y-115689075D02*
X121611099Y-114689075D01*
X121992052Y-114689075D01*
X122087290Y-114736695D01*
X122134909Y-114784314D01*
X122182528Y-114879552D01*
X122182528Y-115022409D01*
X122134909Y-115117647D01*
X122087290Y-115165266D01*
X121992052Y-115212885D01*
X121611099Y-115212885D01*
X123039671Y-115022409D02*
X123039671Y-115689075D01*
X122801575Y-114641456D02*
X122563480Y-115355742D01*
X123182528Y-115355742D01*
%TO.C,U2*%
X154543075Y-94622599D02*
X155352599Y-94622599D01*
X155447837Y-94574980D01*
X155495456Y-94527361D01*
X155543075Y-94432123D01*
X155543075Y-94241647D01*
X155495456Y-94146409D01*
X155447837Y-94098790D01*
X155352599Y-94051171D01*
X154543075Y-94051171D01*
X154638314Y-93622599D02*
X154590695Y-93574980D01*
X154543075Y-93479742D01*
X154543075Y-93241647D01*
X154590695Y-93146409D01*
X154638314Y-93098790D01*
X154733552Y-93051171D01*
X154828790Y-93051171D01*
X154971647Y-93098790D01*
X155543075Y-93670218D01*
X155543075Y-93051171D01*
X141406571Y-100432428D02*
X141406571Y-100099095D01*
X141930380Y-99956238D02*
X141930380Y-100432428D01*
X140930380Y-100432428D01*
X140930380Y-99956238D01*
X141882761Y-99575285D02*
X141930380Y-99432428D01*
X141930380Y-99194333D01*
X141882761Y-99099095D01*
X141835142Y-99051476D01*
X141739904Y-99003857D01*
X141644666Y-99003857D01*
X141549428Y-99051476D01*
X141501809Y-99099095D01*
X141454190Y-99194333D01*
X141406571Y-99384809D01*
X141358952Y-99480047D01*
X141311333Y-99527666D01*
X141216095Y-99575285D01*
X141120857Y-99575285D01*
X141025619Y-99527666D01*
X140978000Y-99480047D01*
X140930380Y-99384809D01*
X140930380Y-99146714D01*
X140978000Y-99003857D01*
X141930380Y-98575285D02*
X140930380Y-98575285D01*
X140930380Y-98194333D01*
X140978000Y-98099095D01*
X141025619Y-98051476D01*
X141120857Y-98003857D01*
X141263714Y-98003857D01*
X141358952Y-98051476D01*
X141406571Y-98099095D01*
X141454190Y-98194333D01*
X141454190Y-98575285D01*
X141549428Y-97575285D02*
X141549428Y-96813380D01*
X140930380Y-96432428D02*
X141930380Y-96194333D01*
X141216095Y-96003857D01*
X141930380Y-95813380D01*
X140930380Y-95575285D01*
X141930380Y-94622904D02*
X141454190Y-94956238D01*
X141930380Y-95194333D02*
X140930380Y-95194333D01*
X140930380Y-94813380D01*
X140978000Y-94718142D01*
X141025619Y-94670523D01*
X141120857Y-94622904D01*
X141263714Y-94622904D01*
X141358952Y-94670523D01*
X141406571Y-94718142D01*
X141454190Y-94813380D01*
X141454190Y-95194333D01*
X140930380Y-94003857D02*
X140930380Y-93813380D01*
X140978000Y-93718142D01*
X141073238Y-93622904D01*
X141263714Y-93575285D01*
X141597047Y-93575285D01*
X141787523Y-93622904D01*
X141882761Y-93718142D01*
X141930380Y-93813380D01*
X141930380Y-94003857D01*
X141882761Y-94099095D01*
X141787523Y-94194333D01*
X141597047Y-94241952D01*
X141263714Y-94241952D01*
X141073238Y-94194333D01*
X140978000Y-94099095D01*
X140930380Y-94003857D01*
X140930380Y-92956238D02*
X140930380Y-92765761D01*
X140978000Y-92670523D01*
X141073238Y-92575285D01*
X141263714Y-92527666D01*
X141597047Y-92527666D01*
X141787523Y-92575285D01*
X141882761Y-92670523D01*
X141930380Y-92765761D01*
X141930380Y-92956238D01*
X141882761Y-93051476D01*
X141787523Y-93146714D01*
X141597047Y-93194333D01*
X141263714Y-93194333D01*
X141073238Y-93146714D01*
X140978000Y-93051476D01*
X140930380Y-92956238D01*
X141930380Y-92099095D02*
X140930380Y-92099095D01*
X141644666Y-91765761D01*
X140930380Y-91432428D01*
X141930380Y-91432428D01*
X141549428Y-90956238D02*
X141549428Y-90194333D01*
X140930380Y-89813380D02*
X140930380Y-89194333D01*
X141311333Y-89527666D01*
X141311333Y-89384809D01*
X141358952Y-89289571D01*
X141406571Y-89241952D01*
X141501809Y-89194333D01*
X141739904Y-89194333D01*
X141835142Y-89241952D01*
X141882761Y-89289571D01*
X141930380Y-89384809D01*
X141930380Y-89670523D01*
X141882761Y-89765761D01*
X141835142Y-89813380D01*
X141025619Y-88813380D02*
X140978000Y-88765761D01*
X140930380Y-88670523D01*
X140930380Y-88432428D01*
X140978000Y-88337190D01*
X141025619Y-88289571D01*
X141120857Y-88241952D01*
X141216095Y-88241952D01*
X141358952Y-88289571D01*
X141930380Y-88861000D01*
X141930380Y-88241952D01*
%TO.C,C13*%
X175136337Y-124879552D02*
X175183956Y-124927171D01*
X175231575Y-125070028D01*
X175231575Y-125165266D01*
X175183956Y-125308123D01*
X175088718Y-125403361D01*
X174993480Y-125450980D01*
X174803004Y-125498599D01*
X174660147Y-125498599D01*
X174469671Y-125450980D01*
X174374433Y-125403361D01*
X174279195Y-125308123D01*
X174231575Y-125165266D01*
X174231575Y-125070028D01*
X174279195Y-124927171D01*
X174326814Y-124879552D01*
X175231575Y-123927171D02*
X175231575Y-124498599D01*
X175231575Y-124212885D02*
X174231575Y-124212885D01*
X174374433Y-124308123D01*
X174469671Y-124403361D01*
X174517290Y-124498599D01*
X174231575Y-123593837D02*
X174231575Y-122974790D01*
X174612528Y-123308123D01*
X174612528Y-123165266D01*
X174660147Y-123070028D01*
X174707766Y-123022409D01*
X174803004Y-122974790D01*
X175041099Y-122974790D01*
X175136337Y-123022409D01*
X175183956Y-123070028D01*
X175231575Y-123165266D01*
X175231575Y-123450980D01*
X175183956Y-123546218D01*
X175136337Y-123593837D01*
%TO.C,R3*%
X167727333Y-79573380D02*
X167394000Y-79097190D01*
X167155904Y-79573380D02*
X167155904Y-78573380D01*
X167536857Y-78573380D01*
X167632095Y-78621000D01*
X167679714Y-78668619D01*
X167727333Y-78763857D01*
X167727333Y-78906714D01*
X167679714Y-79001952D01*
X167632095Y-79049571D01*
X167536857Y-79097190D01*
X167155904Y-79097190D01*
X168060666Y-78573380D02*
X168679714Y-78573380D01*
X168346380Y-78954333D01*
X168489238Y-78954333D01*
X168584476Y-79001952D01*
X168632095Y-79049571D01*
X168679714Y-79144809D01*
X168679714Y-79382904D01*
X168632095Y-79478142D01*
X168584476Y-79525761D01*
X168489238Y-79573380D01*
X168203523Y-79573380D01*
X168108285Y-79525761D01*
X168060666Y-79478142D01*
D12*
%TO.C,S3*%
X171261547Y-101463619D02*
X171322023Y-101282190D01*
X171322023Y-100979809D01*
X171261547Y-100858857D01*
X171201071Y-100798380D01*
X171080119Y-100737904D01*
X170959166Y-100737904D01*
X170838214Y-100798380D01*
X170777738Y-100858857D01*
X170717261Y-100979809D01*
X170656785Y-101221714D01*
X170596309Y-101342666D01*
X170535833Y-101403142D01*
X170414880Y-101463619D01*
X170293928Y-101463619D01*
X170172976Y-101403142D01*
X170112500Y-101342666D01*
X170052023Y-101221714D01*
X170052023Y-100919333D01*
X170112500Y-100737904D01*
X170052023Y-100314571D02*
X170052023Y-99528380D01*
X170535833Y-99951714D01*
X170535833Y-99770285D01*
X170596309Y-99649333D01*
X170656785Y-99588857D01*
X170777738Y-99528380D01*
X171080119Y-99528380D01*
X171201071Y-99588857D01*
X171261547Y-99649333D01*
X171322023Y-99770285D01*
X171322023Y-100133142D01*
X171261547Y-100254095D01*
X171201071Y-100314571D01*
D11*
%TO.C,C22*%
X134231142Y-140946142D02*
X134183523Y-140993761D01*
X134040666Y-141041380D01*
X133945428Y-141041380D01*
X133802571Y-140993761D01*
X133707333Y-140898523D01*
X133659714Y-140803285D01*
X133612095Y-140612809D01*
X133612095Y-140469952D01*
X133659714Y-140279476D01*
X133707333Y-140184238D01*
X133802571Y-140089000D01*
X133945428Y-140041380D01*
X134040666Y-140041380D01*
X134183523Y-140089000D01*
X134231142Y-140136619D01*
X134612095Y-140136619D02*
X134659714Y-140089000D01*
X134754952Y-140041380D01*
X134993047Y-140041380D01*
X135088285Y-140089000D01*
X135135904Y-140136619D01*
X135183523Y-140231857D01*
X135183523Y-140327095D01*
X135135904Y-140469952D01*
X134564476Y-141041380D01*
X135183523Y-141041380D01*
X135564476Y-140136619D02*
X135612095Y-140089000D01*
X135707333Y-140041380D01*
X135945428Y-140041380D01*
X136040666Y-140089000D01*
X136088285Y-140136619D01*
X136135904Y-140231857D01*
X136135904Y-140327095D01*
X136088285Y-140469952D01*
X135516857Y-141041380D01*
X136135904Y-141041380D01*
%TO.C,D2*%
X139215904Y-75255380D02*
X139215904Y-74255380D01*
X139454000Y-74255380D01*
X139596857Y-74303000D01*
X139692095Y-74398238D01*
X139739714Y-74493476D01*
X139787333Y-74683952D01*
X139787333Y-74826809D01*
X139739714Y-75017285D01*
X139692095Y-75112523D01*
X139596857Y-75207761D01*
X139454000Y-75255380D01*
X139215904Y-75255380D01*
X140168285Y-74350619D02*
X140215904Y-74303000D01*
X140311142Y-74255380D01*
X140549238Y-74255380D01*
X140644476Y-74303000D01*
X140692095Y-74350619D01*
X140739714Y-74445857D01*
X140739714Y-74541095D01*
X140692095Y-74683952D01*
X140120666Y-75255380D01*
X140739714Y-75255380D01*
%TO.C,TP6*%
X135087290Y-119191075D02*
X135658718Y-119191075D01*
X135373004Y-120191075D02*
X135373004Y-119191075D01*
X135992052Y-120191075D02*
X135992052Y-119191075D01*
X136373004Y-119191075D01*
X136468242Y-119238695D01*
X136515861Y-119286314D01*
X136563480Y-119381552D01*
X136563480Y-119524409D01*
X136515861Y-119619647D01*
X136468242Y-119667266D01*
X136373004Y-119714885D01*
X135992052Y-119714885D01*
X137420623Y-119191075D02*
X137230147Y-119191075D01*
X137134909Y-119238695D01*
X137087290Y-119286314D01*
X136992052Y-119429171D01*
X136944433Y-119619647D01*
X136944433Y-120000599D01*
X136992052Y-120095837D01*
X137039671Y-120143456D01*
X137134909Y-120191075D01*
X137325385Y-120191075D01*
X137420623Y-120143456D01*
X137468242Y-120095837D01*
X137515861Y-120000599D01*
X137515861Y-119762504D01*
X137468242Y-119667266D01*
X137420623Y-119619647D01*
X137325385Y-119572028D01*
X137134909Y-119572028D01*
X137039671Y-119619647D01*
X136992052Y-119667266D01*
X136944433Y-119762504D01*
D12*
%TO.C,S1*%
X127926047Y-76278619D02*
X127986523Y-76097190D01*
X127986523Y-75794809D01*
X127926047Y-75673857D01*
X127865571Y-75613380D01*
X127744619Y-75552904D01*
X127623666Y-75552904D01*
X127502714Y-75613380D01*
X127442238Y-75673857D01*
X127381761Y-75794809D01*
X127321285Y-76036714D01*
X127260809Y-76157666D01*
X127200333Y-76218142D01*
X127079380Y-76278619D01*
X126958428Y-76278619D01*
X126837476Y-76218142D01*
X126777000Y-76157666D01*
X126716523Y-76036714D01*
X126716523Y-75734333D01*
X126777000Y-75552904D01*
X127986523Y-74343380D02*
X127986523Y-75069095D01*
X127986523Y-74706238D02*
X126716523Y-74706238D01*
X126897952Y-74827190D01*
X127018904Y-74948142D01*
X127079380Y-75069095D01*
D11*
%TO.C,C17*%
X130929142Y-140946142D02*
X130881523Y-140993761D01*
X130738666Y-141041380D01*
X130643428Y-141041380D01*
X130500571Y-140993761D01*
X130405333Y-140898523D01*
X130357714Y-140803285D01*
X130310095Y-140612809D01*
X130310095Y-140469952D01*
X130357714Y-140279476D01*
X130405333Y-140184238D01*
X130500571Y-140089000D01*
X130643428Y-140041380D01*
X130738666Y-140041380D01*
X130881523Y-140089000D01*
X130929142Y-140136619D01*
X131881523Y-141041380D02*
X131310095Y-141041380D01*
X131595809Y-141041380D02*
X131595809Y-140041380D01*
X131500571Y-140184238D01*
X131405333Y-140279476D01*
X131310095Y-140327095D01*
X132214857Y-140041380D02*
X132881523Y-140041380D01*
X132452952Y-141041380D01*
%TO.C,R11*%
X169706337Y-117689075D02*
X169373004Y-117212885D01*
X169134909Y-117689075D02*
X169134909Y-116689075D01*
X169515861Y-116689075D01*
X169611099Y-116736695D01*
X169658718Y-116784314D01*
X169706337Y-116879552D01*
X169706337Y-117022409D01*
X169658718Y-117117647D01*
X169611099Y-117165266D01*
X169515861Y-117212885D01*
X169134909Y-117212885D01*
X170658718Y-117689075D02*
X170087290Y-117689075D01*
X170373004Y-117689075D02*
X170373004Y-116689075D01*
X170277766Y-116831933D01*
X170182528Y-116927171D01*
X170087290Y-116974790D01*
X171611099Y-117689075D02*
X171039671Y-117689075D01*
X171325385Y-117689075D02*
X171325385Y-116689075D01*
X171230147Y-116831933D01*
X171134909Y-116927171D01*
X171039671Y-116974790D01*
%TO.C,TP9*%
X173087290Y-113241075D02*
X173658718Y-113241075D01*
X173373004Y-114241075D02*
X173373004Y-113241075D01*
X173992052Y-114241075D02*
X173992052Y-113241075D01*
X174373004Y-113241075D01*
X174468242Y-113288695D01*
X174515861Y-113336314D01*
X174563480Y-113431552D01*
X174563480Y-113574409D01*
X174515861Y-113669647D01*
X174468242Y-113717266D01*
X174373004Y-113764885D01*
X173992052Y-113764885D01*
X175039671Y-114241075D02*
X175230147Y-114241075D01*
X175325385Y-114193456D01*
X175373004Y-114145837D01*
X175468242Y-114002980D01*
X175515861Y-113812504D01*
X175515861Y-113431552D01*
X175468242Y-113336314D01*
X175420623Y-113288695D01*
X175325385Y-113241075D01*
X175134909Y-113241075D01*
X175039671Y-113288695D01*
X174992052Y-113336314D01*
X174944433Y-113431552D01*
X174944433Y-113669647D01*
X174992052Y-113764885D01*
X175039671Y-113812504D01*
X175134909Y-113860123D01*
X175325385Y-113860123D01*
X175420623Y-113812504D01*
X175468242Y-113764885D01*
X175515861Y-113669647D01*
%TO.C,C12*%
X169706337Y-119593837D02*
X169658718Y-119641456D01*
X169515861Y-119689075D01*
X169420623Y-119689075D01*
X169277766Y-119641456D01*
X169182528Y-119546218D01*
X169134909Y-119450980D01*
X169087290Y-119260504D01*
X169087290Y-119117647D01*
X169134909Y-118927171D01*
X169182528Y-118831933D01*
X169277766Y-118736695D01*
X169420623Y-118689075D01*
X169515861Y-118689075D01*
X169658718Y-118736695D01*
X169706337Y-118784314D01*
X170658718Y-119689075D02*
X170087290Y-119689075D01*
X170373004Y-119689075D02*
X170373004Y-118689075D01*
X170277766Y-118831933D01*
X170182528Y-118927171D01*
X170087290Y-118974790D01*
X171039671Y-118784314D02*
X171087290Y-118736695D01*
X171182528Y-118689075D01*
X171420623Y-118689075D01*
X171515861Y-118736695D01*
X171563480Y-118784314D01*
X171611099Y-118879552D01*
X171611099Y-118974790D01*
X171563480Y-119117647D01*
X170992052Y-119689075D01*
X171611099Y-119689075D01*
%TO.C,U3*%
X178562095Y-74327380D02*
X178562095Y-75136904D01*
X178609714Y-75232142D01*
X178657333Y-75279761D01*
X178752571Y-75327380D01*
X178943047Y-75327380D01*
X179038285Y-75279761D01*
X179085904Y-75232142D01*
X179133523Y-75136904D01*
X179133523Y-74327380D01*
X179514476Y-74327380D02*
X180133523Y-74327380D01*
X179800190Y-74708333D01*
X179943047Y-74708333D01*
X180038285Y-74755952D01*
X180085904Y-74803571D01*
X180133523Y-74898809D01*
X180133523Y-75136904D01*
X180085904Y-75232142D01*
X180038285Y-75279761D01*
X179943047Y-75327380D01*
X179657333Y-75327380D01*
X179562095Y-75279761D01*
X179514476Y-75232142D01*
%TO.C,H1*%
X107315095Y-69032380D02*
X107315095Y-68032380D01*
X107315095Y-68508571D02*
X107886523Y-68508571D01*
X107886523Y-69032380D02*
X107886523Y-68032380D01*
X108886523Y-69032380D02*
X108315095Y-69032380D01*
X108600809Y-69032380D02*
X108600809Y-68032380D01*
X108505571Y-68175238D01*
X108410333Y-68270476D01*
X108315095Y-68318095D01*
%TO.C,R6*%
X112182528Y-132119075D02*
X111849195Y-131642885D01*
X111611099Y-132119075D02*
X111611099Y-131119075D01*
X111992052Y-131119075D01*
X112087290Y-131166695D01*
X112134909Y-131214314D01*
X112182528Y-131309552D01*
X112182528Y-131452409D01*
X112134909Y-131547647D01*
X112087290Y-131595266D01*
X111992052Y-131642885D01*
X111611099Y-131642885D01*
X113039671Y-131119075D02*
X112849195Y-131119075D01*
X112753956Y-131166695D01*
X112706337Y-131214314D01*
X112611099Y-131357171D01*
X112563480Y-131547647D01*
X112563480Y-131928599D01*
X112611099Y-132023837D01*
X112658718Y-132071456D01*
X112753956Y-132119075D01*
X112944433Y-132119075D01*
X113039671Y-132071456D01*
X113087290Y-132023837D01*
X113134909Y-131928599D01*
X113134909Y-131690504D01*
X113087290Y-131595266D01*
X113039671Y-131547647D01*
X112944433Y-131500028D01*
X112753956Y-131500028D01*
X112658718Y-131547647D01*
X112611099Y-131595266D01*
X112563480Y-131690504D01*
%TO.C,TP3*%
X109087290Y-126689075D02*
X109658718Y-126689075D01*
X109373004Y-127689075D02*
X109373004Y-126689075D01*
X109992052Y-127689075D02*
X109992052Y-126689075D01*
X110373004Y-126689075D01*
X110468242Y-126736695D01*
X110515861Y-126784314D01*
X110563480Y-126879552D01*
X110563480Y-127022409D01*
X110515861Y-127117647D01*
X110468242Y-127165266D01*
X110373004Y-127212885D01*
X109992052Y-127212885D01*
X110896814Y-126689075D02*
X111515861Y-126689075D01*
X111182528Y-127070028D01*
X111325385Y-127070028D01*
X111420623Y-127117647D01*
X111468242Y-127165266D01*
X111515861Y-127260504D01*
X111515861Y-127498599D01*
X111468242Y-127593837D01*
X111420623Y-127641456D01*
X111325385Y-127689075D01*
X111039671Y-127689075D01*
X110944433Y-127641456D01*
X110896814Y-127593837D01*
%TO.C,D3*%
X160424904Y-75636380D02*
X160424904Y-74636380D01*
X160663000Y-74636380D01*
X160805857Y-74684000D01*
X160901095Y-74779238D01*
X160948714Y-74874476D01*
X160996333Y-75064952D01*
X160996333Y-75207809D01*
X160948714Y-75398285D01*
X160901095Y-75493523D01*
X160805857Y-75588761D01*
X160663000Y-75636380D01*
X160424904Y-75636380D01*
X161329666Y-74636380D02*
X161948714Y-74636380D01*
X161615380Y-75017333D01*
X161758238Y-75017333D01*
X161853476Y-75064952D01*
X161901095Y-75112571D01*
X161948714Y-75207809D01*
X161948714Y-75445904D01*
X161901095Y-75541142D01*
X161853476Y-75588761D01*
X161758238Y-75636380D01*
X161472523Y-75636380D01*
X161377285Y-75588761D01*
X161329666Y-75541142D01*
X161153714Y-77363380D02*
X160582285Y-77363380D01*
X160868000Y-77363380D02*
X160868000Y-76363380D01*
X160772761Y-76506238D01*
X160677523Y-76601476D01*
X160582285Y-76649095D01*
%TO.C,TP4*%
X127587290Y-118689075D02*
X128158718Y-118689075D01*
X127873004Y-119689075D02*
X127873004Y-118689075D01*
X128492052Y-119689075D02*
X128492052Y-118689075D01*
X128873004Y-118689075D01*
X128968242Y-118736695D01*
X129015861Y-118784314D01*
X129063480Y-118879552D01*
X129063480Y-119022409D01*
X129015861Y-119117647D01*
X128968242Y-119165266D01*
X128873004Y-119212885D01*
X128492052Y-119212885D01*
X129920623Y-119022409D02*
X129920623Y-119689075D01*
X129682528Y-118641456D02*
X129444433Y-119355742D01*
X130063480Y-119355742D01*
%TO.C,TP5*%
X152087290Y-114689075D02*
X152658718Y-114689075D01*
X152373004Y-115689075D02*
X152373004Y-114689075D01*
X152992052Y-115689075D02*
X152992052Y-114689075D01*
X153373004Y-114689075D01*
X153468242Y-114736695D01*
X153515861Y-114784314D01*
X153563480Y-114879552D01*
X153563480Y-115022409D01*
X153515861Y-115117647D01*
X153468242Y-115165266D01*
X153373004Y-115212885D01*
X152992052Y-115212885D01*
X154468242Y-114689075D02*
X153992052Y-114689075D01*
X153944433Y-115165266D01*
X153992052Y-115117647D01*
X154087290Y-115070028D01*
X154325385Y-115070028D01*
X154420623Y-115117647D01*
X154468242Y-115165266D01*
X154515861Y-115260504D01*
X154515861Y-115498599D01*
X154468242Y-115593837D01*
X154420623Y-115641456D01*
X154325385Y-115689075D01*
X154087290Y-115689075D01*
X153992052Y-115641456D01*
X153944433Y-115593837D01*
%TO.C,C9*%
X146182528Y-119593837D02*
X146134909Y-119641456D01*
X145992052Y-119689075D01*
X145896814Y-119689075D01*
X145753956Y-119641456D01*
X145658718Y-119546218D01*
X145611099Y-119450980D01*
X145563480Y-119260504D01*
X145563480Y-119117647D01*
X145611099Y-118927171D01*
X145658718Y-118831933D01*
X145753956Y-118736695D01*
X145896814Y-118689075D01*
X145992052Y-118689075D01*
X146134909Y-118736695D01*
X146182528Y-118784314D01*
X146658718Y-119689075D02*
X146849195Y-119689075D01*
X146944433Y-119641456D01*
X146992052Y-119593837D01*
X147087290Y-119450980D01*
X147134909Y-119260504D01*
X147134909Y-118879552D01*
X147087290Y-118784314D01*
X147039671Y-118736695D01*
X146944433Y-118689075D01*
X146753956Y-118689075D01*
X146658718Y-118736695D01*
X146611099Y-118784314D01*
X146563480Y-118879552D01*
X146563480Y-119117647D01*
X146611099Y-119212885D01*
X146658718Y-119260504D01*
X146753956Y-119308123D01*
X146944433Y-119308123D01*
X147039671Y-119260504D01*
X147087290Y-119212885D01*
X147134909Y-119117647D01*
%TO.C,C5*%
X147507833Y-75668142D02*
X147460214Y-75715761D01*
X147317357Y-75763380D01*
X147222119Y-75763380D01*
X147079261Y-75715761D01*
X146984023Y-75620523D01*
X146936404Y-75525285D01*
X146888785Y-75334809D01*
X146888785Y-75191952D01*
X146936404Y-75001476D01*
X146984023Y-74906238D01*
X147079261Y-74811000D01*
X147222119Y-74763380D01*
X147317357Y-74763380D01*
X147460214Y-74811000D01*
X147507833Y-74858619D01*
X148412595Y-74763380D02*
X147936404Y-74763380D01*
X147888785Y-75239571D01*
X147936404Y-75191952D01*
X148031642Y-75144333D01*
X148269738Y-75144333D01*
X148364976Y-75191952D01*
X148412595Y-75239571D01*
X148460214Y-75334809D01*
X148460214Y-75572904D01*
X148412595Y-75668142D01*
X148364976Y-75715761D01*
X148269738Y-75763380D01*
X148031642Y-75763380D01*
X147936404Y-75715761D01*
X147888785Y-75668142D01*
%TO.C,C14*%
X171045142Y-124975857D02*
X171092761Y-125023476D01*
X171140380Y-125166333D01*
X171140380Y-125261571D01*
X171092761Y-125404428D01*
X170997523Y-125499666D01*
X170902285Y-125547285D01*
X170711809Y-125594904D01*
X170568952Y-125594904D01*
X170378476Y-125547285D01*
X170283238Y-125499666D01*
X170188000Y-125404428D01*
X170140380Y-125261571D01*
X170140380Y-125166333D01*
X170188000Y-125023476D01*
X170235619Y-124975857D01*
X171140380Y-124023476D02*
X171140380Y-124594904D01*
X171140380Y-124309190D02*
X170140380Y-124309190D01*
X170283238Y-124404428D01*
X170378476Y-124499666D01*
X170426095Y-124594904D01*
X170473714Y-123166333D02*
X171140380Y-123166333D01*
X170092761Y-123404428D02*
X170807047Y-123642523D01*
X170807047Y-123023476D01*
D13*
%TO.C,IC4*%
X110214000Y-77415000D02*
X113814000Y-77415000D01*
X112014000Y-72964999D02*
G75*
G03*
X110175522Y-77403478I0J-2600001D01*
G01*
X113852478Y-77403478D02*
G75*
G03*
X112014000Y-72965000I-1838478J1838478D01*
G01*
%TO.C,C30*%
X180124000Y-83670000D02*
X177639000Y-83670000D01*
X177639000Y-83670000D02*
X177639000Y-85240000D01*
X177639000Y-85240000D02*
X180124000Y-85240000D01*
%TO.C,TP10*%
X163549195Y-119736695D02*
G75*
G03*
X163549195Y-119736695I-700000J0D01*
G01*
D14*
%TO.C,J3*%
X133190000Y-101136000D02*
X133190000Y-101136000D01*
X140390000Y-87561000D02*
X143115000Y-87561000D01*
X133290000Y-101136000D02*
X133290000Y-101136000D01*
X128665000Y-87561000D02*
X128665000Y-101161000D01*
X128665000Y-101161000D02*
X129790000Y-101161000D01*
X129790000Y-87561000D02*
X128665000Y-87561000D01*
X138090000Y-101161000D02*
X132290000Y-101161000D01*
X143115000Y-101161000D02*
X140490000Y-101161000D01*
X143115000Y-87561000D02*
X143115000Y-101161000D01*
X138090000Y-87561000D02*
X132290000Y-87561000D01*
X133190000Y-101136000D02*
G75*
G03*
X133290000Y-101136000I50000J0D01*
G01*
X133290000Y-101136000D02*
G75*
G03*
X133190000Y-101136000I-50000J0D01*
G01*
D15*
%TO.C,J2*%
X173614045Y-139932795D02*
X174614045Y-139432795D01*
X174614045Y-139432795D02*
X174614045Y-140432795D01*
X174614045Y-140432795D02*
X173614045Y-139932795D01*
X172939045Y-148652795D02*
X139289045Y-148652795D01*
D13*
%TO.C,C4*%
X173859195Y-128382962D02*
X173859195Y-128090428D01*
X172839195Y-128382962D02*
X172839195Y-128090428D01*
%TO.C,C11*%
X147339195Y-124090428D02*
X147339195Y-124382962D01*
X148359195Y-124090428D02*
X148359195Y-124382962D01*
%TO.C,TP7*%
X139549195Y-126736695D02*
G75*
G03*
X139549195Y-126736695I-700000J0D01*
G01*
%TO.C,R7*%
X143603919Y-115759195D02*
X143094471Y-115759195D01*
X143603919Y-114714195D02*
X143094471Y-114714195D01*
%TO.C,C2*%
X148839195Y-128382962D02*
X148839195Y-128090428D01*
X149859195Y-128382962D02*
X149859195Y-128090428D01*
%TO.C,C6*%
X119495462Y-119746695D02*
X119202928Y-119746695D01*
X119495462Y-118726695D02*
X119202928Y-118726695D01*
%TO.C,R10*%
X167103919Y-115759195D02*
X166594471Y-115759195D01*
X167103919Y-114714195D02*
X166594471Y-114714195D01*
D14*
%TO.C,IC3*%
X170049195Y-125936695D02*
X170049195Y-125936695D01*
X170049195Y-126036695D02*
X170049195Y-126036695D01*
X170049195Y-125936695D02*
G75*
G03*
X170049195Y-126036695I0J-50000D01*
G01*
X170049195Y-126036695D02*
G75*
G03*
X170049195Y-125936695I0J50000D01*
G01*
D13*
%TO.C,C10*%
X149859195Y-124090428D02*
X149859195Y-124382962D01*
X148839195Y-124090428D02*
X148839195Y-124382962D01*
%TO.C,C1*%
X125859195Y-128382962D02*
X125859195Y-128090428D01*
X124839195Y-128382962D02*
X124839195Y-128090428D01*
D16*
%TO.C,S2*%
X173650500Y-105331000D02*
X167650500Y-105331000D01*
X167650500Y-111331000D02*
X173650500Y-111331000D01*
X167650500Y-105331000D02*
X167650500Y-111331000D01*
X173650500Y-111331000D02*
X173650500Y-105331000D01*
X177241500Y-110581000D02*
G75*
G03*
X177241500Y-110581000I-52000J0D01*
G01*
D13*
%TO.C,R2*%
X171983000Y-72731000D02*
X173313000Y-72731000D01*
X170653000Y-75331000D02*
X170653000Y-77931000D01*
X170653000Y-77931000D02*
X173313000Y-77931000D01*
X173313000Y-75331000D02*
X173313000Y-77931000D01*
X170653000Y-75331000D02*
X173313000Y-75331000D01*
X173313000Y-72731000D02*
X173313000Y-74061000D01*
%TO.C,R12*%
X162603919Y-129759195D02*
X162094471Y-129759195D01*
X162603919Y-128714195D02*
X162094471Y-128714195D01*
%TO.C,R1*%
X132578276Y-75833500D02*
X133087724Y-75833500D01*
X132578276Y-74788500D02*
X133087724Y-74788500D01*
%TO.C,R9*%
X138603919Y-129759195D02*
X138094471Y-129759195D01*
X138603919Y-128714195D02*
X138094471Y-128714195D01*
%TO.C,R5*%
X119603919Y-117759195D02*
X119094471Y-117759195D01*
X119603919Y-116714195D02*
X119094471Y-116714195D01*
%TO.C,TP1*%
X127049195Y-115236695D02*
G75*
G03*
X127049195Y-115236695I-700000J0D01*
G01*
%TO.C,U1*%
X105349195Y-138236695D02*
X133349195Y-138236695D01*
X105349195Y-113236695D02*
X133349195Y-113236695D01*
X105349195Y-138236695D02*
X105349195Y-113236695D01*
X133349195Y-113236695D02*
X133349195Y-138236695D01*
D17*
X119555588Y-137236695D02*
G75*
G03*
X119555588Y-137236695I-253607J0D01*
G01*
X109755588Y-137236695D02*
G75*
G03*
X109755588Y-137236695I-253607J0D01*
G01*
X121555588Y-137236695D02*
G75*
G03*
X121555588Y-137236695I-253607J0D01*
G01*
X107202802Y-137236695D02*
G75*
G03*
X107202802Y-137236695I-253607J0D01*
G01*
X127755588Y-137236695D02*
G75*
G03*
X127755588Y-137236695I-253607J0D01*
G01*
X113755588Y-137236695D02*
G75*
G03*
X113755588Y-137236695I-253607J0D01*
G01*
X115755588Y-137236695D02*
G75*
G03*
X115755588Y-137236695I-253607J0D01*
G01*
X132002802Y-137236695D02*
G75*
G03*
X132002802Y-137236695I-253607J0D01*
G01*
X125755588Y-137236695D02*
G75*
G03*
X125755588Y-137236695I-253607J0D01*
G01*
D13*
%TO.C,R8*%
X143603919Y-117759195D02*
X143094471Y-117759195D01*
X143603919Y-116714195D02*
X143094471Y-116714195D01*
%TO.C,TP2*%
X114049195Y-119236695D02*
G75*
G03*
X114049195Y-119236695I-700000J0D01*
G01*
%TO.C,J4*%
X135823000Y-146491000D02*
X135823000Y-143831000D01*
X130623000Y-145161000D02*
X130623000Y-143831000D01*
X133223000Y-143831000D02*
X135823000Y-143831000D01*
X133223000Y-146491000D02*
X133223000Y-143831000D01*
X133223000Y-146491000D02*
X135823000Y-146491000D01*
X130623000Y-143831000D02*
X131953000Y-143831000D01*
%TO.C,TP8*%
X151549195Y-119736695D02*
G75*
G03*
X151549195Y-119736695I-700000J0D01*
G01*
D14*
%TO.C,IC1*%
X122049195Y-126436695D02*
X122049195Y-126436695D01*
X122049195Y-126536695D02*
X122049195Y-126536695D01*
X122049195Y-126436695D02*
G75*
G03*
X122049195Y-126536695I0J-50000D01*
G01*
X122049195Y-126536695D02*
G75*
G03*
X122049195Y-126436695I0J50000D01*
G01*
D13*
%TO.C,J5*%
X134687000Y-66130000D02*
X150047000Y-66130000D01*
X137287000Y-71330000D02*
X137287000Y-68730000D01*
X137287000Y-68730000D02*
X134687000Y-68730000D01*
X136017000Y-71330000D02*
X134687000Y-71330000D01*
X150047000Y-71330000D02*
X150047000Y-66130000D01*
X137287000Y-71330000D02*
X150047000Y-71330000D01*
X134687000Y-68730000D02*
X134687000Y-66130000D01*
X134687000Y-71330000D02*
X134687000Y-70000000D01*
%TO.C,TP12*%
X175049195Y-119736695D02*
G75*
G03*
X175049195Y-119736695I-700000J0D01*
G01*
%TO.C,TP11*%
X163549195Y-126736695D02*
G75*
G03*
X163549195Y-126736695I-700000J0D01*
G01*
%TO.C,C7*%
X128859195Y-124382962D02*
X128859195Y-124090428D01*
X127839195Y-124382962D02*
X127839195Y-124090428D01*
D14*
%TO.C,IC2*%
X146049195Y-126036695D02*
X146049195Y-126036695D01*
X146049195Y-125936695D02*
X146049195Y-125936695D01*
X146049195Y-126036695D02*
G75*
G03*
X146049195Y-125936695I0J50000D01*
G01*
X146049195Y-125936695D02*
G75*
G03*
X146049195Y-126036695I0J-50000D01*
G01*
D13*
%TO.C,C8*%
X124839195Y-124090428D02*
X124839195Y-124382962D01*
X125859195Y-124090428D02*
X125859195Y-124382962D01*
%TO.C,R4*%
X119603919Y-115759195D02*
X119094471Y-115759195D01*
X119603919Y-114714195D02*
X119094471Y-114714195D01*
%TO.C,U2*%
X148740695Y-91320695D02*
X148740695Y-93860695D01*
X135650695Y-103385695D02*
X135650695Y-84970695D01*
X147470695Y-84970695D02*
X147470695Y-103385695D01*
X151788695Y-81160695D02*
X151788695Y-106560695D01*
X148740695Y-103385695D02*
X148740695Y-104020695D01*
X150645695Y-83700695D02*
X150645695Y-86240695D01*
X148740695Y-86240695D02*
X148740695Y-88780695D01*
X150645695Y-96400695D02*
X148740695Y-96400695D01*
X150645695Y-86240695D02*
X148740695Y-86240695D01*
X150645695Y-93860695D02*
X150645695Y-96400695D01*
X112926695Y-106560695D02*
X112926695Y-81160695D01*
X150645695Y-98940695D02*
X150645695Y-101480695D01*
X150645695Y-91320695D02*
X148740695Y-91320695D01*
X148740695Y-93860695D02*
X150645695Y-93860695D01*
X147470695Y-103385695D02*
X135650695Y-103385695D01*
X148740695Y-101480695D02*
X148740695Y-103385695D01*
X148740695Y-104020695D02*
X150645695Y-104020695D01*
X148740695Y-98940695D02*
X150645695Y-98940695D01*
X135650695Y-84970695D02*
X147470695Y-84970695D01*
X150645695Y-101480695D02*
X148740695Y-101480695D01*
X148740695Y-96400695D02*
X148740695Y-98940695D01*
X148740695Y-83700695D02*
X150645695Y-83700695D01*
X150645695Y-88780695D02*
X150645695Y-91320695D01*
X148740695Y-88780695D02*
X150645695Y-88780695D01*
%TO.C,C13*%
X173859195Y-124090428D02*
X173859195Y-124382962D01*
X172839195Y-124090428D02*
X172839195Y-124382962D01*
%TO.C,R3*%
X169249000Y-75331000D02*
X169249000Y-77931000D01*
X167919000Y-72731000D02*
X169249000Y-72731000D01*
X166589000Y-75331000D02*
X166589000Y-77931000D01*
X166589000Y-77931000D02*
X169249000Y-77931000D01*
X169249000Y-72731000D02*
X169249000Y-74061000D01*
X166589000Y-75331000D02*
X169249000Y-75331000D01*
D16*
%TO.C,S3*%
X167725500Y-97203000D02*
X167725500Y-103203000D01*
X167725500Y-103203000D02*
X173725500Y-103203000D01*
X173725500Y-97203000D02*
X167725500Y-97203000D01*
X173725500Y-103203000D02*
X173725500Y-97203000D01*
X164238500Y-97953000D02*
G75*
G03*
X164238500Y-97953000I-52000J0D01*
G01*
D13*
%TO.C,C22*%
X134727733Y-141603000D02*
X135020267Y-141603000D01*
X134727733Y-142623000D02*
X135020267Y-142623000D01*
%TO.C,D2*%
X138757000Y-76271000D02*
X138757000Y-74351000D01*
X138757000Y-74351000D02*
X135897000Y-74351000D01*
X135897000Y-76271000D02*
X138757000Y-76271000D01*
%TO.C,TP6*%
X139549195Y-119736695D02*
G75*
G03*
X139549195Y-119736695I-700000J0D01*
G01*
D16*
%TO.C,S1*%
X126152000Y-75311000D02*
X126152000Y-75311000D01*
X125477000Y-72771000D02*
X125477000Y-77851000D01*
X126152000Y-75311000D02*
X126152000Y-75311000D01*
X125477000Y-77851000D02*
X117347000Y-77851000D01*
X117347000Y-77851000D02*
X117347000Y-72771000D01*
X126052000Y-75311000D02*
X126052000Y-75311000D01*
X117347000Y-72771000D02*
X125477000Y-72771000D01*
X126152000Y-75311000D02*
G75*
G03*
X126052000Y-75311000I-50000J0D01*
G01*
X126052000Y-75311000D02*
G75*
G03*
X126152000Y-75311000I50000J0D01*
G01*
X126152000Y-75311000D02*
G75*
G03*
X126052000Y-75311000I-50000J0D01*
G01*
D13*
%TO.C,C17*%
X131718267Y-142623000D02*
X131425733Y-142623000D01*
X131718267Y-141603000D02*
X131425733Y-141603000D01*
%TO.C,R11*%
X167103919Y-117759195D02*
X166594471Y-117759195D01*
X167103919Y-116714195D02*
X166594471Y-116714195D01*
%TO.C,TP9*%
X175049195Y-115236695D02*
G75*
G03*
X175049195Y-115236695I-700000J0D01*
G01*
%TO.C,C12*%
X166995462Y-119746695D02*
X166702928Y-119746695D01*
X166995462Y-118726695D02*
X166702928Y-118726695D01*
%TO.C,U3*%
X181234000Y-82785000D02*
X181234000Y-81525000D01*
X181234000Y-75965000D02*
X181234000Y-77225000D01*
X177474000Y-82785000D02*
X181234000Y-82785000D01*
X175224000Y-75965000D02*
X181234000Y-75965000D01*
%TO.C,R6*%
X112603919Y-129714195D02*
X112094471Y-129714195D01*
X112603919Y-130759195D02*
X112094471Y-130759195D01*
%TO.C,TP3*%
X114049195Y-127236695D02*
G75*
G03*
X114049195Y-127236695I-700000J0D01*
G01*
%TO.C,D3*%
X160368000Y-72561000D02*
X153068000Y-72561000D01*
X160368000Y-78061000D02*
X153068000Y-78061000D01*
X153068000Y-72561000D02*
X153068000Y-73711000D01*
%TO.C,TP4*%
X127049195Y-119236695D02*
G75*
G03*
X127049195Y-119236695I-700000J0D01*
G01*
%TO.C,TP5*%
X151549195Y-115236695D02*
G75*
G03*
X151549195Y-115236695I-700000J0D01*
G01*
%TO.C,C9*%
X143495462Y-118726695D02*
X143202928Y-118726695D01*
X143495462Y-119746695D02*
X143202928Y-119746695D01*
%TO.C,C5*%
X150768267Y-74801000D02*
X150475733Y-74801000D01*
X150768267Y-75821000D02*
X150475733Y-75821000D01*
%TO.C,C14*%
X172359195Y-124090428D02*
X172359195Y-124382962D01*
X171339195Y-124090428D02*
X171339195Y-124382962D01*
%TD*%
M02*
