M48
; DRILL file {KiCad (6.0.6)} date Sun Aug 28 18:07:28 2022
; FORMAT={-:-/ absolute / inch / decimal}
; #@! TF.CreationDate,2022-08-28T18:07:28+02:00
; #@! TF.GenerationSoftware,Kicad,Pcbnew,(6.0.6)
; #@! TF.FileFunction,Plated,1,2,PTH
FMAT,2
INCH
; #@! TA.AperFunction,Plated,PTH,ViaDrill
T1C0.0157
; #@! TA.AperFunction,Plated,PTH,ComponentDrill
T2C0.0295
; #@! TA.AperFunction,Plated,PTH,ComponentDrill
T3C0.0300
; #@! TA.AperFunction,Plated,PTH,ComponentDrill
T4C0.0394
; #@! TA.AperFunction,Plated,PTH,ComponentDrill
T5C0.0402
; #@! TA.AperFunction,Plated,PTH,ComponentDrill
T6C0.0429
; #@! TA.AperFunction,Plated,PTH,ComponentDrill
T7C0.0949
; #@! TA.AperFunction,Plated,PTH,ComponentDrill
T8C0.1260
%
G90
G05
T1
X4.0Y-3.275
X4.19Y-4.105
X4.235Y-3.395
X4.28Y-4.885
X4.28Y-5.015
X4.325Y-2.66
X4.36Y-4.715
X4.36Y-4.825
X4.36Y-5.065
X4.3641Y-4.933
X4.3872Y-4.9649
X4.4125Y-3.2225
X4.42Y-3.7
X4.4207Y-4.5157
X4.45Y-4.08
X4.5Y-4.825
X4.555Y-2.655
X4.555Y-3.0
X4.585Y-4.075
X4.585Y-4.575
X4.67Y-4.765
X4.6988Y-4.9306
X4.705Y-5.15
X4.77Y-5.165
X4.8Y-3.435
X4.83Y-3.035
X4.876Y-4.8518
X4.91Y-4.645
X4.955Y-2.935
X4.97Y-3.47
X4.995Y-3.83
X5.0104Y-5.0878
X5.06Y-4.605
X5.07Y-2.825
X5.07Y-2.96
X5.07Y-4.065
X5.07Y-4.775
X5.125Y-3.255
X5.275Y-2.89
X5.28Y-4.495
X5.29Y-4.985
X5.335Y-3.585
X5.335Y-3.67
X5.375Y-3.49
X5.4Y-4.4385
X5.43Y-4.775
X5.44Y-4.575
X5.455Y-3.755
X5.47Y-4.785
X5.4727Y-2.855
X5.4763Y-4.8578
X5.49Y-3.895
X5.5Y-2.985
X5.5Y-3.57
X5.59Y-2.985
X5.605Y-2.84
X5.62Y-4.755
X5.625Y-3.785
X5.6448Y-4.9098
X5.65Y-4.485
X5.65Y-5.11
X5.67Y-4.045
X5.7096Y-5.1286
X5.72Y-5.815
X5.755Y-2.87
X5.765Y-3.565
X5.78Y-3.675
X5.8213Y-4.813
X5.8799Y-4.714
X5.9504Y-5.1178
X6.01Y-4.045
X6.03Y-4.945
X6.04Y-3.675
X6.055Y-2.715
X6.055Y-3.37
X6.06Y-4.485
X6.06Y-4.645
X6.1456Y-4.763
X6.16Y-3.19
X6.215Y-4.09
X6.23Y-4.625
X6.25Y-4.165
X6.3Y-4.2
X6.3031Y-4.4124
X6.3031Y-4.5305
X6.32Y-4.995
X6.34Y-3.775
X6.34Y-4.295
X6.39Y-4.795
X6.425Y-2.87
X6.425Y-4.095
X6.44Y-4.515
X6.4409Y-4.8454
X6.47Y-3.005
X6.47Y-4.985
X6.51Y-4.735
X6.53Y-3.185
X6.5922Y-4.9072
X6.5984Y-5.1274
X6.66Y-2.685
X6.685Y-3.28
X6.725Y-3.95
X6.74Y-4.745
X6.7657Y-4.8125
X6.78Y-4.485
X6.79Y-4.595
X6.8248Y-5.1471
X6.86Y-4.775
X6.895Y-4.855
X6.92Y-4.445
X7.1Y-3.96
T2
X4.36Y-2.975
X4.41Y-2.975
X4.46Y-2.975
T3
X4.2106Y-4.5369
X4.2106Y-4.6156
X4.2106Y-4.6944
X4.2106Y-4.7731
X4.2106Y-4.8518
X4.2106Y-4.9306
X4.2106Y-5.0093
X4.2106Y-5.0881
X4.2106Y-5.1668
X5.187Y-4.5369
X5.187Y-4.6156
X5.187Y-4.6944
X5.187Y-4.7731
X5.187Y-4.8518
X5.187Y-4.9306
X5.187Y-5.0093
X5.187Y-5.0881
X5.187Y-5.1668
T4
X4.5059Y-3.1953
X4.5059Y-4.1953
X4.6059Y-3.1953
X4.6059Y-4.1953
X4.7059Y-3.1953
X4.7059Y-4.1953
X4.8059Y-3.1953
X4.8059Y-4.1953
X4.9059Y-3.1953
X4.9059Y-4.1953
X5.0059Y-3.1953
X5.0059Y-4.1953
X5.1059Y-3.1953
X5.1059Y-4.1953
X5.195Y-5.715
X5.2059Y-3.1953
X5.2059Y-4.1953
X5.295Y-5.715
X5.3059Y-3.1953
X5.3059Y-4.1953
X5.355Y-2.6559
X5.355Y-2.7559
X5.4059Y-3.1953
X5.4059Y-4.1953
X5.455Y-2.6559
X5.455Y-2.7559
X5.5059Y-3.1953
X5.5059Y-4.1953
X5.555Y-2.6559
X5.555Y-2.7559
X5.6059Y-3.1953
X5.6059Y-4.1953
X5.655Y-2.6559
X5.655Y-2.7559
X5.7059Y-3.1953
X5.7059Y-4.1953
X5.755Y-2.6559
X5.755Y-2.7559
X5.8059Y-3.1953
X5.8059Y-4.1953
X5.855Y-2.6559
X5.855Y-2.7559
X5.9059Y-3.1953
X5.9059Y-4.1953
X6.611Y-2.9158
X6.611Y-3.0158
X6.771Y-2.9158
X6.771Y-3.0158
X7.105Y-4.595
X7.105Y-4.695
X7.105Y-4.795
X7.105Y-4.895
X7.105Y-4.995
X7.105Y-5.095
X7.106Y-4.2508
X7.106Y-4.3508
T5
X5.6147Y-5.3911
X5.6147Y-5.5092
X5.7328Y-5.3911
X5.7328Y-5.5092
X5.8509Y-5.3911
X5.8509Y-5.5092
X5.9691Y-5.3911
X5.9691Y-5.5092
X6.0872Y-5.3911
X6.0872Y-5.5092
X6.2053Y-5.3911
X6.2053Y-5.5092
X6.3234Y-5.3911
X6.3234Y-5.5092
X6.4415Y-5.3911
X6.4415Y-5.5092
X6.5596Y-5.3911
X6.5596Y-5.5092
X6.6777Y-5.3911
X6.6777Y-5.5092
T6
X4.68Y-2.965
X4.78Y-2.965
X4.88Y-2.965
T7
X5.5301Y-5.6792
X6.7624Y-5.6792
T8
X7.09Y-3.7
T8
G00X4.2199Y-3.7
M15
G01X4.2199Y-3.7
M16
G05
T0
M30
