%TF.GenerationSoftware,KiCad,Pcbnew,(6.0.6)*%
%TF.CreationDate,2022-08-03T15:13:17+02:00*%
%TF.ProjectId,PCAP04_Interface,50434150-3034-45f4-996e-746572666163,rev?*%
%TF.SameCoordinates,Original*%
%TF.FileFunction,Legend,Bot*%
%TF.FilePolarity,Positive*%
%FSLAX46Y46*%
G04 Gerber Fmt 4.6, Leading zero omitted, Abs format (unit mm)*
G04 Created by KiCad (PCBNEW (6.0.6)) date 2022-08-03 15:13:17*
%MOMM*%
%LPD*%
G01*
G04 APERTURE LIST*
%ADD10C,0.150000*%
%ADD11C,0.120000*%
G04 APERTURE END LIST*
D10*
X134459761Y-133027142D02*
X134507380Y-133074761D01*
X134650238Y-133122380D01*
X134745476Y-133122380D01*
X134888333Y-133074761D01*
X134983571Y-132979523D01*
X135031190Y-132884285D01*
X135078809Y-132693809D01*
X135078809Y-132550952D01*
X135031190Y-132360476D01*
X134983571Y-132265238D01*
X134888333Y-132170000D01*
X134745476Y-132122380D01*
X134650238Y-132122380D01*
X134507380Y-132170000D01*
X134459761Y-132217619D01*
X133602619Y-133122380D02*
X133602619Y-132598571D01*
X133650238Y-132503333D01*
X133745476Y-132455714D01*
X133935952Y-132455714D01*
X134031190Y-132503333D01*
X133602619Y-133074761D02*
X133697857Y-133122380D01*
X133935952Y-133122380D01*
X134031190Y-133074761D01*
X134078809Y-132979523D01*
X134078809Y-132884285D01*
X134031190Y-132789047D01*
X133935952Y-132741428D01*
X133697857Y-132741428D01*
X133602619Y-132693809D01*
X133126428Y-132455714D02*
X133126428Y-133455714D01*
X133126428Y-132503333D02*
X133031190Y-132455714D01*
X132840714Y-132455714D01*
X132745476Y-132503333D01*
X132697857Y-132550952D01*
X132650238Y-132646190D01*
X132650238Y-132931904D01*
X132697857Y-133027142D01*
X132745476Y-133074761D01*
X132840714Y-133122380D01*
X133031190Y-133122380D01*
X133126428Y-133074761D01*
X131793095Y-133122380D02*
X131793095Y-132598571D01*
X131840714Y-132503333D01*
X131935952Y-132455714D01*
X132126428Y-132455714D01*
X132221666Y-132503333D01*
X131793095Y-133074761D02*
X131888333Y-133122380D01*
X132126428Y-133122380D01*
X132221666Y-133074761D01*
X132269285Y-132979523D01*
X132269285Y-132884285D01*
X132221666Y-132789047D01*
X132126428Y-132741428D01*
X131888333Y-132741428D01*
X131793095Y-132693809D01*
X130888333Y-133074761D02*
X130983571Y-133122380D01*
X131174047Y-133122380D01*
X131269285Y-133074761D01*
X131316904Y-133027142D01*
X131364523Y-132931904D01*
X131364523Y-132646190D01*
X131316904Y-132550952D01*
X131269285Y-132503333D01*
X131174047Y-132455714D01*
X130983571Y-132455714D01*
X130888333Y-132503333D01*
X130459761Y-133122380D02*
X130459761Y-132455714D01*
X130459761Y-132122380D02*
X130507380Y-132170000D01*
X130459761Y-132217619D01*
X130412142Y-132170000D01*
X130459761Y-132122380D01*
X130459761Y-132217619D01*
X130126428Y-132455714D02*
X129745476Y-132455714D01*
X129983571Y-132122380D02*
X129983571Y-132979523D01*
X129935952Y-133074761D01*
X129840714Y-133122380D01*
X129745476Y-133122380D01*
X129412142Y-133122380D02*
X129412142Y-132455714D01*
X129412142Y-132122380D02*
X129459761Y-132170000D01*
X129412142Y-132217619D01*
X129364523Y-132170000D01*
X129412142Y-132122380D01*
X129412142Y-132217619D01*
X129031190Y-132455714D02*
X128793095Y-133122380D01*
X128555000Y-132455714D01*
X127793095Y-133074761D02*
X127888333Y-133122380D01*
X128078809Y-133122380D01*
X128174047Y-133074761D01*
X128221666Y-132979523D01*
X128221666Y-132598571D01*
X128174047Y-132503333D01*
X128078809Y-132455714D01*
X127888333Y-132455714D01*
X127793095Y-132503333D01*
X127745476Y-132598571D01*
X127745476Y-132693809D01*
X128221666Y-132789047D01*
X126602619Y-133074761D02*
X126459761Y-133122380D01*
X126221666Y-133122380D01*
X126126428Y-133074761D01*
X126078809Y-133027142D01*
X126031190Y-132931904D01*
X126031190Y-132836666D01*
X126078809Y-132741428D01*
X126126428Y-132693809D01*
X126221666Y-132646190D01*
X126412142Y-132598571D01*
X126507380Y-132550952D01*
X126555000Y-132503333D01*
X126602619Y-132408095D01*
X126602619Y-132312857D01*
X126555000Y-132217619D01*
X126507380Y-132170000D01*
X126412142Y-132122380D01*
X126174047Y-132122380D01*
X126031190Y-132170000D01*
X125221666Y-133074761D02*
X125316904Y-133122380D01*
X125507380Y-133122380D01*
X125602619Y-133074761D01*
X125650238Y-132979523D01*
X125650238Y-132598571D01*
X125602619Y-132503333D01*
X125507380Y-132455714D01*
X125316904Y-132455714D01*
X125221666Y-132503333D01*
X125174047Y-132598571D01*
X125174047Y-132693809D01*
X125650238Y-132789047D01*
X124745476Y-132455714D02*
X124745476Y-133122380D01*
X124745476Y-132550952D02*
X124697857Y-132503333D01*
X124602619Y-132455714D01*
X124459761Y-132455714D01*
X124364523Y-132503333D01*
X124316904Y-132598571D01*
X124316904Y-133122380D01*
X123888333Y-133074761D02*
X123793095Y-133122380D01*
X123602619Y-133122380D01*
X123507380Y-133074761D01*
X123459761Y-132979523D01*
X123459761Y-132931904D01*
X123507380Y-132836666D01*
X123602619Y-132789047D01*
X123745476Y-132789047D01*
X123840714Y-132741428D01*
X123888333Y-132646190D01*
X123888333Y-132598571D01*
X123840714Y-132503333D01*
X123745476Y-132455714D01*
X123602619Y-132455714D01*
X123507380Y-132503333D01*
X122888333Y-133122380D02*
X122983571Y-133074761D01*
X123031190Y-133027142D01*
X123078809Y-132931904D01*
X123078809Y-132646190D01*
X123031190Y-132550952D01*
X122983571Y-132503333D01*
X122888333Y-132455714D01*
X122745476Y-132455714D01*
X122650238Y-132503333D01*
X122602619Y-132550952D01*
X122555000Y-132646190D01*
X122555000Y-132931904D01*
X122602619Y-133027142D01*
X122650238Y-133074761D01*
X122745476Y-133122380D01*
X122888333Y-133122380D01*
X122126428Y-133122380D02*
X122126428Y-132455714D01*
X122126428Y-132646190D02*
X122078809Y-132550952D01*
X122031190Y-132503333D01*
X121935952Y-132455714D01*
X121840714Y-132455714D01*
X120174047Y-133122380D02*
X120507380Y-132646190D01*
X120745476Y-133122380D02*
X120745476Y-132122380D01*
X120364523Y-132122380D01*
X120269285Y-132170000D01*
X120221666Y-132217619D01*
X120174047Y-132312857D01*
X120174047Y-132455714D01*
X120221666Y-132550952D01*
X120269285Y-132598571D01*
X120364523Y-132646190D01*
X120745476Y-132646190D01*
X119364523Y-133074761D02*
X119459761Y-133122380D01*
X119650238Y-133122380D01*
X119745476Y-133074761D01*
X119793095Y-132979523D01*
X119793095Y-132598571D01*
X119745476Y-132503333D01*
X119650238Y-132455714D01*
X119459761Y-132455714D01*
X119364523Y-132503333D01*
X119316904Y-132598571D01*
X119316904Y-132693809D01*
X119793095Y-132789047D01*
X118459761Y-133122380D02*
X118459761Y-132598571D01*
X118507380Y-132503333D01*
X118602619Y-132455714D01*
X118793095Y-132455714D01*
X118888333Y-132503333D01*
X118459761Y-133074761D02*
X118555000Y-133122380D01*
X118793095Y-133122380D01*
X118888333Y-133074761D01*
X118935952Y-132979523D01*
X118935952Y-132884285D01*
X118888333Y-132789047D01*
X118793095Y-132741428D01*
X118555000Y-132741428D01*
X118459761Y-132693809D01*
X117555000Y-133122380D02*
X117555000Y-132122380D01*
X117555000Y-133074761D02*
X117650238Y-133122380D01*
X117840714Y-133122380D01*
X117935952Y-133074761D01*
X117983571Y-133027142D01*
X118031190Y-132931904D01*
X118031190Y-132646190D01*
X117983571Y-132550952D01*
X117935952Y-132503333D01*
X117840714Y-132455714D01*
X117650238Y-132455714D01*
X117555000Y-132503333D01*
X116935952Y-133122380D02*
X117031190Y-133074761D01*
X117078809Y-133027142D01*
X117126428Y-132931904D01*
X117126428Y-132646190D01*
X117078809Y-132550952D01*
X117031190Y-132503333D01*
X116935952Y-132455714D01*
X116793095Y-132455714D01*
X116697857Y-132503333D01*
X116650238Y-132550952D01*
X116602619Y-132646190D01*
X116602619Y-132931904D01*
X116650238Y-133027142D01*
X116697857Y-133074761D01*
X116793095Y-133122380D01*
X116935952Y-133122380D01*
X115745476Y-132455714D02*
X115745476Y-133122380D01*
X116174047Y-132455714D02*
X116174047Y-132979523D01*
X116126428Y-133074761D01*
X116031190Y-133122380D01*
X115888333Y-133122380D01*
X115793095Y-133074761D01*
X115745476Y-133027142D01*
X115412142Y-132455714D02*
X115031190Y-132455714D01*
X115269285Y-132122380D02*
X115269285Y-132979523D01*
X115221666Y-133074761D01*
X115126428Y-133122380D01*
X115031190Y-133122380D01*
X113602619Y-132598571D02*
X113459761Y-132646190D01*
X113412142Y-132693809D01*
X113364523Y-132789047D01*
X113364523Y-132931904D01*
X113412142Y-133027142D01*
X113459761Y-133074761D01*
X113555000Y-133122380D01*
X113935952Y-133122380D01*
X113935952Y-132122380D01*
X113602619Y-132122380D01*
X113507380Y-132170000D01*
X113459761Y-132217619D01*
X113412142Y-132312857D01*
X113412142Y-132408095D01*
X113459761Y-132503333D01*
X113507380Y-132550952D01*
X113602619Y-132598571D01*
X113935952Y-132598571D01*
X112793095Y-133122380D02*
X112888333Y-133074761D01*
X112935952Y-133027142D01*
X112983571Y-132931904D01*
X112983571Y-132646190D01*
X112935952Y-132550952D01*
X112888333Y-132503333D01*
X112793095Y-132455714D01*
X112650238Y-132455714D01*
X112555000Y-132503333D01*
X112507380Y-132550952D01*
X112459761Y-132646190D01*
X112459761Y-132931904D01*
X112507380Y-133027142D01*
X112555000Y-133074761D01*
X112650238Y-133122380D01*
X112793095Y-133122380D01*
X111602619Y-133122380D02*
X111602619Y-132598571D01*
X111650238Y-132503333D01*
X111745476Y-132455714D01*
X111935952Y-132455714D01*
X112031190Y-132503333D01*
X111602619Y-133074761D02*
X111697857Y-133122380D01*
X111935952Y-133122380D01*
X112031190Y-133074761D01*
X112078809Y-132979523D01*
X112078809Y-132884285D01*
X112031190Y-132789047D01*
X111935952Y-132741428D01*
X111697857Y-132741428D01*
X111602619Y-132693809D01*
X111126428Y-133122380D02*
X111126428Y-132455714D01*
X111126428Y-132646190D02*
X111078809Y-132550952D01*
X111031190Y-132503333D01*
X110935952Y-132455714D01*
X110840714Y-132455714D01*
X110078809Y-133122380D02*
X110078809Y-132122380D01*
X110078809Y-133074761D02*
X110174047Y-133122380D01*
X110364523Y-133122380D01*
X110459761Y-133074761D01*
X110507380Y-133027142D01*
X110555000Y-132931904D01*
X110555000Y-132646190D01*
X110507380Y-132550952D01*
X110459761Y-132503333D01*
X110364523Y-132455714D01*
X110174047Y-132455714D01*
X110078809Y-132503333D01*
X131293095Y-134208571D02*
X131150238Y-134256190D01*
X131102619Y-134303809D01*
X131055000Y-134399047D01*
X131055000Y-134541904D01*
X131102619Y-134637142D01*
X131150238Y-134684761D01*
X131245476Y-134732380D01*
X131626428Y-134732380D01*
X131626428Y-133732380D01*
X131293095Y-133732380D01*
X131197857Y-133780000D01*
X131150238Y-133827619D01*
X131102619Y-133922857D01*
X131102619Y-134018095D01*
X131150238Y-134113333D01*
X131197857Y-134160952D01*
X131293095Y-134208571D01*
X131626428Y-134208571D01*
X130197857Y-134732380D02*
X130197857Y-134208571D01*
X130245476Y-134113333D01*
X130340714Y-134065714D01*
X130531190Y-134065714D01*
X130626428Y-134113333D01*
X130197857Y-134684761D02*
X130293095Y-134732380D01*
X130531190Y-134732380D01*
X130626428Y-134684761D01*
X130674047Y-134589523D01*
X130674047Y-134494285D01*
X130626428Y-134399047D01*
X130531190Y-134351428D01*
X130293095Y-134351428D01*
X130197857Y-134303809D01*
X129769285Y-134684761D02*
X129674047Y-134732380D01*
X129483571Y-134732380D01*
X129388333Y-134684761D01*
X129340714Y-134589523D01*
X129340714Y-134541904D01*
X129388333Y-134446666D01*
X129483571Y-134399047D01*
X129626428Y-134399047D01*
X129721666Y-134351428D01*
X129769285Y-134256190D01*
X129769285Y-134208571D01*
X129721666Y-134113333D01*
X129626428Y-134065714D01*
X129483571Y-134065714D01*
X129388333Y-134113333D01*
X128531190Y-134684761D02*
X128626428Y-134732380D01*
X128816904Y-134732380D01*
X128912142Y-134684761D01*
X128959761Y-134589523D01*
X128959761Y-134208571D01*
X128912142Y-134113333D01*
X128816904Y-134065714D01*
X128626428Y-134065714D01*
X128531190Y-134113333D01*
X128483571Y-134208571D01*
X128483571Y-134303809D01*
X128959761Y-134399047D01*
X127626428Y-134732380D02*
X127626428Y-133732380D01*
X127626428Y-134684761D02*
X127721666Y-134732380D01*
X127912142Y-134732380D01*
X128007380Y-134684761D01*
X128055000Y-134637142D01*
X128102619Y-134541904D01*
X128102619Y-134256190D01*
X128055000Y-134160952D01*
X128007380Y-134113333D01*
X127912142Y-134065714D01*
X127721666Y-134065714D01*
X127626428Y-134113333D01*
X126245476Y-134732380D02*
X126340714Y-134684761D01*
X126388333Y-134637142D01*
X126435952Y-134541904D01*
X126435952Y-134256190D01*
X126388333Y-134160952D01*
X126340714Y-134113333D01*
X126245476Y-134065714D01*
X126102619Y-134065714D01*
X126007380Y-134113333D01*
X125959761Y-134160952D01*
X125912142Y-134256190D01*
X125912142Y-134541904D01*
X125959761Y-134637142D01*
X126007380Y-134684761D01*
X126102619Y-134732380D01*
X126245476Y-134732380D01*
X125483571Y-134065714D02*
X125483571Y-134732380D01*
X125483571Y-134160952D02*
X125435952Y-134113333D01*
X125340714Y-134065714D01*
X125197857Y-134065714D01*
X125102619Y-134113333D01*
X125055000Y-134208571D01*
X125055000Y-134732380D01*
X123816904Y-134732380D02*
X123816904Y-133732380D01*
X123435952Y-133732380D01*
X123340714Y-133780000D01*
X123293095Y-133827619D01*
X123245476Y-133922857D01*
X123245476Y-134065714D01*
X123293095Y-134160952D01*
X123340714Y-134208571D01*
X123435952Y-134256190D01*
X123816904Y-134256190D01*
X122245476Y-134637142D02*
X122293095Y-134684761D01*
X122435952Y-134732380D01*
X122531190Y-134732380D01*
X122674047Y-134684761D01*
X122769285Y-134589523D01*
X122816904Y-134494285D01*
X122864523Y-134303809D01*
X122864523Y-134160952D01*
X122816904Y-133970476D01*
X122769285Y-133875238D01*
X122674047Y-133780000D01*
X122531190Y-133732380D01*
X122435952Y-133732380D01*
X122293095Y-133780000D01*
X122245476Y-133827619D01*
X121864523Y-134446666D02*
X121388333Y-134446666D01*
X121959761Y-134732380D02*
X121626428Y-133732380D01*
X121293095Y-134732380D01*
X120959761Y-134732380D02*
X120959761Y-133732380D01*
X120578809Y-133732380D01*
X120483571Y-133780000D01*
X120435952Y-133827619D01*
X120388333Y-133922857D01*
X120388333Y-134065714D01*
X120435952Y-134160952D01*
X120483571Y-134208571D01*
X120578809Y-134256190D01*
X120959761Y-134256190D01*
X119769285Y-133732380D02*
X119674047Y-133732380D01*
X119578809Y-133780000D01*
X119531190Y-133827619D01*
X119483571Y-133922857D01*
X119435952Y-134113333D01*
X119435952Y-134351428D01*
X119483571Y-134541904D01*
X119531190Y-134637142D01*
X119578809Y-134684761D01*
X119674047Y-134732380D01*
X119769285Y-134732380D01*
X119864523Y-134684761D01*
X119912142Y-134637142D01*
X119959761Y-134541904D01*
X120007380Y-134351428D01*
X120007380Y-134113333D01*
X119959761Y-133922857D01*
X119912142Y-133827619D01*
X119864523Y-133780000D01*
X119769285Y-133732380D01*
X118578809Y-134065714D02*
X118578809Y-134732380D01*
X118816904Y-133684761D02*
X119055000Y-134399047D01*
X118435952Y-134399047D01*
X116721666Y-134637142D02*
X116769285Y-134684761D01*
X116912142Y-134732380D01*
X117007380Y-134732380D01*
X117150238Y-134684761D01*
X117245476Y-134589523D01*
X117293095Y-134494285D01*
X117340714Y-134303809D01*
X117340714Y-134160952D01*
X117293095Y-133970476D01*
X117245476Y-133875238D01*
X117150238Y-133780000D01*
X117007380Y-133732380D01*
X116912142Y-133732380D01*
X116769285Y-133780000D01*
X116721666Y-133827619D01*
X116293095Y-134732380D02*
X116293095Y-133732380D01*
X116055000Y-133732380D01*
X115912142Y-133780000D01*
X115816904Y-133875238D01*
X115769285Y-133970476D01*
X115721666Y-134160952D01*
X115721666Y-134303809D01*
X115769285Y-134494285D01*
X115816904Y-134589523D01*
X115912142Y-134684761D01*
X116055000Y-134732380D01*
X116293095Y-134732380D01*
X114721666Y-134637142D02*
X114769285Y-134684761D01*
X114912142Y-134732380D01*
X115007380Y-134732380D01*
X115150238Y-134684761D01*
X115245476Y-134589523D01*
X115293095Y-134494285D01*
X115340714Y-134303809D01*
X115340714Y-134160952D01*
X115293095Y-133970476D01*
X115245476Y-133875238D01*
X115150238Y-133780000D01*
X115007380Y-133732380D01*
X114912142Y-133732380D01*
X114769285Y-133780000D01*
X114721666Y-133827619D01*
X114245476Y-133732380D02*
X114340714Y-133922857D01*
X113864523Y-134684761D02*
X113769285Y-134732380D01*
X113578809Y-134732380D01*
X113483571Y-134684761D01*
X113435952Y-134589523D01*
X113435952Y-134541904D01*
X113483571Y-134446666D01*
X113578809Y-134399047D01*
X113721666Y-134399047D01*
X113816904Y-134351428D01*
X113864523Y-134256190D01*
X113864523Y-134208571D01*
X113816904Y-134113333D01*
X113721666Y-134065714D01*
X113578809Y-134065714D01*
X113483571Y-134113333D01*
X136293095Y-135342380D02*
X136293095Y-136151904D01*
X136245476Y-136247142D01*
X136197857Y-136294761D01*
X136102619Y-136342380D01*
X135912142Y-136342380D01*
X135816904Y-136294761D01*
X135769285Y-136247142D01*
X135721666Y-136151904D01*
X135721666Y-135342380D01*
X135293095Y-136294761D02*
X135197857Y-136342380D01*
X135007380Y-136342380D01*
X134912142Y-136294761D01*
X134864523Y-136199523D01*
X134864523Y-136151904D01*
X134912142Y-136056666D01*
X135007380Y-136009047D01*
X135150238Y-136009047D01*
X135245476Y-135961428D01*
X135293095Y-135866190D01*
X135293095Y-135818571D01*
X135245476Y-135723333D01*
X135150238Y-135675714D01*
X135007380Y-135675714D01*
X134912142Y-135723333D01*
X134435952Y-136342380D02*
X134435952Y-135675714D01*
X134435952Y-135342380D02*
X134483571Y-135390000D01*
X134435952Y-135437619D01*
X134388333Y-135390000D01*
X134435952Y-135342380D01*
X134435952Y-135437619D01*
X133959761Y-135675714D02*
X133959761Y-136342380D01*
X133959761Y-135770952D02*
X133912142Y-135723333D01*
X133816904Y-135675714D01*
X133674047Y-135675714D01*
X133578809Y-135723333D01*
X133531190Y-135818571D01*
X133531190Y-136342380D01*
X132626428Y-135675714D02*
X132626428Y-136485238D01*
X132674047Y-136580476D01*
X132721666Y-136628095D01*
X132816904Y-136675714D01*
X132959761Y-136675714D01*
X133055000Y-136628095D01*
X132626428Y-136294761D02*
X132721666Y-136342380D01*
X132912142Y-136342380D01*
X133007380Y-136294761D01*
X133055000Y-136247142D01*
X133102619Y-136151904D01*
X133102619Y-135866190D01*
X133055000Y-135770952D01*
X133007380Y-135723333D01*
X132912142Y-135675714D01*
X132721666Y-135675714D01*
X132626428Y-135723333D01*
X131388333Y-135818571D02*
X131055000Y-135818571D01*
X130912142Y-136342380D02*
X131388333Y-136342380D01*
X131388333Y-135342380D01*
X130912142Y-135342380D01*
X130531190Y-136294761D02*
X130388333Y-136342380D01*
X130150238Y-136342380D01*
X130055000Y-136294761D01*
X130007380Y-136247142D01*
X129959761Y-136151904D01*
X129959761Y-136056666D01*
X130007380Y-135961428D01*
X130055000Y-135913809D01*
X130150238Y-135866190D01*
X130340714Y-135818571D01*
X130435952Y-135770952D01*
X130483571Y-135723333D01*
X130531190Y-135628095D01*
X130531190Y-135532857D01*
X130483571Y-135437619D01*
X130435952Y-135390000D01*
X130340714Y-135342380D01*
X130102619Y-135342380D01*
X129959761Y-135390000D01*
X129531190Y-136342380D02*
X129531190Y-135342380D01*
X129150238Y-135342380D01*
X129055000Y-135390000D01*
X129007380Y-135437619D01*
X128959761Y-135532857D01*
X128959761Y-135675714D01*
X129007380Y-135770952D01*
X129055000Y-135818571D01*
X129150238Y-135866190D01*
X129531190Y-135866190D01*
X128626428Y-135342380D02*
X128007380Y-135342380D01*
X128340714Y-135723333D01*
X128197857Y-135723333D01*
X128102619Y-135770952D01*
X128055000Y-135818571D01*
X128007380Y-135913809D01*
X128007380Y-136151904D01*
X128055000Y-136247142D01*
X128102619Y-136294761D01*
X128197857Y-136342380D01*
X128483571Y-136342380D01*
X128578809Y-136294761D01*
X128626428Y-136247142D01*
X127626428Y-135437619D02*
X127578809Y-135390000D01*
X127483571Y-135342380D01*
X127245476Y-135342380D01*
X127150238Y-135390000D01*
X127102619Y-135437619D01*
X127055000Y-135532857D01*
X127055000Y-135628095D01*
X127102619Y-135770952D01*
X127674047Y-136342380D01*
X127055000Y-136342380D01*
X126626428Y-135961428D02*
X125864523Y-135961428D01*
X125483571Y-135342380D02*
X125245476Y-136342380D01*
X125055000Y-135628095D01*
X124864523Y-136342380D01*
X124626428Y-135342380D01*
X123674047Y-136342380D02*
X124007380Y-135866190D01*
X124245476Y-136342380D02*
X124245476Y-135342380D01*
X123864523Y-135342380D01*
X123769285Y-135390000D01*
X123721666Y-135437619D01*
X123674047Y-135532857D01*
X123674047Y-135675714D01*
X123721666Y-135770952D01*
X123769285Y-135818571D01*
X123864523Y-135866190D01*
X124245476Y-135866190D01*
X123055000Y-135342380D02*
X122864523Y-135342380D01*
X122769285Y-135390000D01*
X122674047Y-135485238D01*
X122626428Y-135675714D01*
X122626428Y-136009047D01*
X122674047Y-136199523D01*
X122769285Y-136294761D01*
X122864523Y-136342380D01*
X123055000Y-136342380D01*
X123150238Y-136294761D01*
X123245476Y-136199523D01*
X123293095Y-136009047D01*
X123293095Y-135675714D01*
X123245476Y-135485238D01*
X123150238Y-135390000D01*
X123055000Y-135342380D01*
X122007380Y-135342380D02*
X121816904Y-135342380D01*
X121721666Y-135390000D01*
X121626428Y-135485238D01*
X121578809Y-135675714D01*
X121578809Y-136009047D01*
X121626428Y-136199523D01*
X121721666Y-136294761D01*
X121816904Y-136342380D01*
X122007380Y-136342380D01*
X122102619Y-136294761D01*
X122197857Y-136199523D01*
X122245476Y-136009047D01*
X122245476Y-135675714D01*
X122197857Y-135485238D01*
X122102619Y-135390000D01*
X122007380Y-135342380D01*
X121150238Y-136342380D02*
X121150238Y-135342380D01*
X120816904Y-136056666D01*
X120483571Y-135342380D01*
X120483571Y-136342380D01*
X119388333Y-135675714D02*
X119007380Y-135675714D01*
X119245476Y-136342380D02*
X119245476Y-135485238D01*
X119197857Y-135390000D01*
X119102619Y-135342380D01*
X119007380Y-135342380D01*
X118531190Y-136342380D02*
X118626428Y-136294761D01*
X118674047Y-136247142D01*
X118721666Y-136151904D01*
X118721666Y-135866190D01*
X118674047Y-135770952D01*
X118626428Y-135723333D01*
X118531190Y-135675714D01*
X118388333Y-135675714D01*
X118293095Y-135723333D01*
X118245476Y-135770952D01*
X118197857Y-135866190D01*
X118197857Y-136151904D01*
X118245476Y-136247142D01*
X118293095Y-136294761D01*
X118388333Y-136342380D01*
X118531190Y-136342380D01*
X117769285Y-136342380D02*
X117769285Y-135675714D01*
X117769285Y-135866190D02*
X117721666Y-135770952D01*
X117674047Y-135723333D01*
X117578809Y-135675714D01*
X117483571Y-135675714D01*
X116388333Y-135675714D02*
X116388333Y-136675714D01*
X116388333Y-135723333D02*
X116293095Y-135675714D01*
X116102619Y-135675714D01*
X116007380Y-135723333D01*
X115959761Y-135770952D01*
X115912142Y-135866190D01*
X115912142Y-136151904D01*
X115959761Y-136247142D01*
X116007380Y-136294761D01*
X116102619Y-136342380D01*
X116293095Y-136342380D01*
X116388333Y-136294761D01*
X115483571Y-136342380D02*
X115483571Y-135675714D01*
X115483571Y-135866190D02*
X115435952Y-135770952D01*
X115388333Y-135723333D01*
X115293095Y-135675714D01*
X115197857Y-135675714D01*
X114721666Y-136342380D02*
X114816904Y-136294761D01*
X114864523Y-136247142D01*
X114912142Y-136151904D01*
X114912142Y-135866190D01*
X114864523Y-135770952D01*
X114816904Y-135723333D01*
X114721666Y-135675714D01*
X114578809Y-135675714D01*
X114483571Y-135723333D01*
X114435952Y-135770952D01*
X114388333Y-135866190D01*
X114388333Y-136151904D01*
X114435952Y-136247142D01*
X114483571Y-136294761D01*
X114578809Y-136342380D01*
X114721666Y-136342380D01*
X113531190Y-136294761D02*
X113626428Y-136342380D01*
X113816904Y-136342380D01*
X113912142Y-136294761D01*
X113959761Y-136247142D01*
X114007380Y-136151904D01*
X114007380Y-135866190D01*
X113959761Y-135770952D01*
X113912142Y-135723333D01*
X113816904Y-135675714D01*
X113626428Y-135675714D01*
X113531190Y-135723333D01*
X112721666Y-136294761D02*
X112816904Y-136342380D01*
X113007380Y-136342380D01*
X113102619Y-136294761D01*
X113150238Y-136199523D01*
X113150238Y-135818571D01*
X113102619Y-135723333D01*
X113007380Y-135675714D01*
X112816904Y-135675714D01*
X112721666Y-135723333D01*
X112674047Y-135818571D01*
X112674047Y-135913809D01*
X113150238Y-136009047D01*
X112293095Y-136294761D02*
X112197857Y-136342380D01*
X112007380Y-136342380D01*
X111912142Y-136294761D01*
X111864523Y-136199523D01*
X111864523Y-136151904D01*
X111912142Y-136056666D01*
X112007380Y-136009047D01*
X112150238Y-136009047D01*
X112245476Y-135961428D01*
X112293095Y-135866190D01*
X112293095Y-135818571D01*
X112245476Y-135723333D01*
X112150238Y-135675714D01*
X112007380Y-135675714D01*
X111912142Y-135723333D01*
X111483571Y-136294761D02*
X111388333Y-136342380D01*
X111197857Y-136342380D01*
X111102619Y-136294761D01*
X111055000Y-136199523D01*
X111055000Y-136151904D01*
X111102619Y-136056666D01*
X111197857Y-136009047D01*
X111340714Y-136009047D01*
X111435952Y-135961428D01*
X111483571Y-135866190D01*
X111483571Y-135818571D01*
X111435952Y-135723333D01*
X111340714Y-135675714D01*
X111197857Y-135675714D01*
X111102619Y-135723333D01*
X110626428Y-136342380D02*
X110626428Y-135675714D01*
X110626428Y-135342380D02*
X110674047Y-135390000D01*
X110626428Y-135437619D01*
X110578809Y-135390000D01*
X110626428Y-135342380D01*
X110626428Y-135437619D01*
X110150238Y-135675714D02*
X110150238Y-136342380D01*
X110150238Y-135770952D02*
X110102619Y-135723333D01*
X110007380Y-135675714D01*
X109864523Y-135675714D01*
X109769285Y-135723333D01*
X109721666Y-135818571D01*
X109721666Y-136342380D01*
X108816904Y-135675714D02*
X108816904Y-136485238D01*
X108864523Y-136580476D01*
X108912142Y-136628095D01*
X109007380Y-136675714D01*
X109150238Y-136675714D01*
X109245476Y-136628095D01*
X108816904Y-136294761D02*
X108912142Y-136342380D01*
X109102619Y-136342380D01*
X109197857Y-136294761D01*
X109245476Y-136247142D01*
X109293095Y-136151904D01*
X109293095Y-135866190D01*
X109245476Y-135770952D01*
X109197857Y-135723333D01*
X109102619Y-135675714D01*
X108912142Y-135675714D01*
X108816904Y-135723333D01*
X139174047Y-138562380D02*
X139174047Y-139371904D01*
X139126428Y-139467142D01*
X139078809Y-139514761D01*
X138983571Y-139562380D01*
X138793095Y-139562380D01*
X138697857Y-139514761D01*
X138650238Y-139467142D01*
X138602619Y-139371904D01*
X138602619Y-138562380D01*
X138174047Y-139514761D02*
X138078809Y-139562380D01*
X137888333Y-139562380D01*
X137793095Y-139514761D01*
X137745476Y-139419523D01*
X137745476Y-139371904D01*
X137793095Y-139276666D01*
X137888333Y-139229047D01*
X138031190Y-139229047D01*
X138126428Y-139181428D01*
X138174047Y-139086190D01*
X138174047Y-139038571D01*
X138126428Y-138943333D01*
X138031190Y-138895714D01*
X137888333Y-138895714D01*
X137793095Y-138943333D01*
X136935952Y-139514761D02*
X137031190Y-139562380D01*
X137221666Y-139562380D01*
X137316904Y-139514761D01*
X137364523Y-139419523D01*
X137364523Y-139038571D01*
X137316904Y-138943333D01*
X137221666Y-138895714D01*
X137031190Y-138895714D01*
X136935952Y-138943333D01*
X136888333Y-139038571D01*
X136888333Y-139133809D01*
X137364523Y-139229047D01*
X136031190Y-139562380D02*
X136031190Y-138562380D01*
X136031190Y-139514761D02*
X136126428Y-139562380D01*
X136316904Y-139562380D01*
X136412142Y-139514761D01*
X136459761Y-139467142D01*
X136507380Y-139371904D01*
X136507380Y-139086190D01*
X136459761Y-138990952D01*
X136412142Y-138943333D01*
X136316904Y-138895714D01*
X136126428Y-138895714D01*
X136031190Y-138943333D01*
X134935952Y-138895714D02*
X134555000Y-138895714D01*
X134793095Y-139562380D02*
X134793095Y-138705238D01*
X134745476Y-138610000D01*
X134650238Y-138562380D01*
X134555000Y-138562380D01*
X134078809Y-139562380D02*
X134174047Y-139514761D01*
X134221666Y-139467142D01*
X134269285Y-139371904D01*
X134269285Y-139086190D01*
X134221666Y-138990952D01*
X134174047Y-138943333D01*
X134078809Y-138895714D01*
X133935952Y-138895714D01*
X133840714Y-138943333D01*
X133793095Y-138990952D01*
X133745476Y-139086190D01*
X133745476Y-139371904D01*
X133793095Y-139467142D01*
X133840714Y-139514761D01*
X133935952Y-139562380D01*
X134078809Y-139562380D01*
X133316904Y-139562380D02*
X133316904Y-138895714D01*
X133316904Y-139086190D02*
X133269285Y-138990952D01*
X133221666Y-138943333D01*
X133126428Y-138895714D01*
X133031190Y-138895714D01*
X131935952Y-139562380D02*
X131935952Y-138562380D01*
X131602619Y-139276666D01*
X131269285Y-138562380D01*
X131269285Y-139562380D01*
X130793095Y-139038571D02*
X130459761Y-139038571D01*
X130316904Y-139562380D02*
X130793095Y-139562380D01*
X130793095Y-138562380D01*
X130316904Y-138562380D01*
X129888333Y-139562380D02*
X129888333Y-138562380D01*
X129555000Y-139276666D01*
X129221666Y-138562380D01*
X129221666Y-139562380D01*
X128793095Y-139514761D02*
X128650238Y-139562380D01*
X128412142Y-139562380D01*
X128316904Y-139514761D01*
X128269285Y-139467142D01*
X128221666Y-139371904D01*
X128221666Y-139276666D01*
X128269285Y-139181428D01*
X128316904Y-139133809D01*
X128412142Y-139086190D01*
X128602619Y-139038571D01*
X128697857Y-138990952D01*
X128745476Y-138943333D01*
X128793095Y-138848095D01*
X128793095Y-138752857D01*
X128745476Y-138657619D01*
X128697857Y-138610000D01*
X128602619Y-138562380D01*
X128364523Y-138562380D01*
X128221666Y-138610000D01*
X126459761Y-139467142D02*
X126507380Y-139514761D01*
X126650238Y-139562380D01*
X126745476Y-139562380D01*
X126888333Y-139514761D01*
X126983571Y-139419523D01*
X127031190Y-139324285D01*
X127078809Y-139133809D01*
X127078809Y-138990952D01*
X127031190Y-138800476D01*
X126983571Y-138705238D01*
X126888333Y-138610000D01*
X126745476Y-138562380D01*
X126650238Y-138562380D01*
X126507380Y-138610000D01*
X126459761Y-138657619D01*
X125602619Y-139562380D02*
X125602619Y-139038571D01*
X125650238Y-138943333D01*
X125745476Y-138895714D01*
X125935952Y-138895714D01*
X126031190Y-138943333D01*
X125602619Y-139514761D02*
X125697857Y-139562380D01*
X125935952Y-139562380D01*
X126031190Y-139514761D01*
X126078809Y-139419523D01*
X126078809Y-139324285D01*
X126031190Y-139229047D01*
X125935952Y-139181428D01*
X125697857Y-139181428D01*
X125602619Y-139133809D01*
X125126428Y-138895714D02*
X125126428Y-139895714D01*
X125126428Y-138943333D02*
X125031190Y-138895714D01*
X124840714Y-138895714D01*
X124745476Y-138943333D01*
X124697857Y-138990952D01*
X124650238Y-139086190D01*
X124650238Y-139371904D01*
X124697857Y-139467142D01*
X124745476Y-139514761D01*
X124840714Y-139562380D01*
X125031190Y-139562380D01*
X125126428Y-139514761D01*
X123793095Y-139562380D02*
X123793095Y-139038571D01*
X123840714Y-138943333D01*
X123935952Y-138895714D01*
X124126428Y-138895714D01*
X124221666Y-138943333D01*
X123793095Y-139514761D02*
X123888333Y-139562380D01*
X124126428Y-139562380D01*
X124221666Y-139514761D01*
X124269285Y-139419523D01*
X124269285Y-139324285D01*
X124221666Y-139229047D01*
X124126428Y-139181428D01*
X123888333Y-139181428D01*
X123793095Y-139133809D01*
X122888333Y-139514761D02*
X122983571Y-139562380D01*
X123174047Y-139562380D01*
X123269285Y-139514761D01*
X123316904Y-139467142D01*
X123364523Y-139371904D01*
X123364523Y-139086190D01*
X123316904Y-138990952D01*
X123269285Y-138943333D01*
X123174047Y-138895714D01*
X122983571Y-138895714D01*
X122888333Y-138943333D01*
X122459761Y-139562380D02*
X122459761Y-138895714D01*
X122459761Y-138562380D02*
X122507380Y-138610000D01*
X122459761Y-138657619D01*
X122412142Y-138610000D01*
X122459761Y-138562380D01*
X122459761Y-138657619D01*
X122126428Y-138895714D02*
X121745476Y-138895714D01*
X121983571Y-138562380D02*
X121983571Y-139419523D01*
X121935952Y-139514761D01*
X121840714Y-139562380D01*
X121745476Y-139562380D01*
X121412142Y-139562380D02*
X121412142Y-138895714D01*
X121412142Y-138562380D02*
X121459761Y-138610000D01*
X121412142Y-138657619D01*
X121364523Y-138610000D01*
X121412142Y-138562380D01*
X121412142Y-138657619D01*
X121031190Y-138895714D02*
X120793095Y-139562380D01*
X120555000Y-138895714D01*
X119793095Y-139514761D02*
X119888333Y-139562380D01*
X120078809Y-139562380D01*
X120174047Y-139514761D01*
X120221666Y-139419523D01*
X120221666Y-139038571D01*
X120174047Y-138943333D01*
X120078809Y-138895714D01*
X119888333Y-138895714D01*
X119793095Y-138943333D01*
X119745476Y-139038571D01*
X119745476Y-139133809D01*
X120221666Y-139229047D01*
X118555000Y-139562380D02*
X118555000Y-138562380D01*
X118174047Y-138562380D01*
X118078809Y-138610000D01*
X118031190Y-138657619D01*
X117983571Y-138752857D01*
X117983571Y-138895714D01*
X118031190Y-138990952D01*
X118078809Y-139038571D01*
X118174047Y-139086190D01*
X118555000Y-139086190D01*
X117555000Y-139562380D02*
X117555000Y-138895714D01*
X117555000Y-139086190D02*
X117507380Y-138990952D01*
X117459761Y-138943333D01*
X117364523Y-138895714D01*
X117269285Y-138895714D01*
X116555000Y-139514761D02*
X116650238Y-139562380D01*
X116840714Y-139562380D01*
X116935952Y-139514761D01*
X116983571Y-139419523D01*
X116983571Y-139038571D01*
X116935952Y-138943333D01*
X116840714Y-138895714D01*
X116650238Y-138895714D01*
X116555000Y-138943333D01*
X116507380Y-139038571D01*
X116507380Y-139133809D01*
X116983571Y-139229047D01*
X116126428Y-139514761D02*
X116031190Y-139562380D01*
X115840714Y-139562380D01*
X115745476Y-139514761D01*
X115697857Y-139419523D01*
X115697857Y-139371904D01*
X115745476Y-139276666D01*
X115840714Y-139229047D01*
X115983571Y-139229047D01*
X116078809Y-139181428D01*
X116126428Y-139086190D01*
X116126428Y-139038571D01*
X116078809Y-138943333D01*
X115983571Y-138895714D01*
X115840714Y-138895714D01*
X115745476Y-138943333D01*
X115316904Y-139514761D02*
X115221666Y-139562380D01*
X115031190Y-139562380D01*
X114935952Y-139514761D01*
X114888333Y-139419523D01*
X114888333Y-139371904D01*
X114935952Y-139276666D01*
X115031190Y-139229047D01*
X115174047Y-139229047D01*
X115269285Y-139181428D01*
X115316904Y-139086190D01*
X115316904Y-139038571D01*
X115269285Y-138943333D01*
X115174047Y-138895714D01*
X115031190Y-138895714D01*
X114935952Y-138943333D01*
X114031190Y-138895714D02*
X114031190Y-139562380D01*
X114459761Y-138895714D02*
X114459761Y-139419523D01*
X114412142Y-139514761D01*
X114316904Y-139562380D01*
X114174047Y-139562380D01*
X114078809Y-139514761D01*
X114031190Y-139467142D01*
X113555000Y-139562380D02*
X113555000Y-138895714D01*
X113555000Y-139086190D02*
X113507380Y-138990952D01*
X113459761Y-138943333D01*
X113364523Y-138895714D01*
X113269285Y-138895714D01*
X112555000Y-139514761D02*
X112650238Y-139562380D01*
X112840714Y-139562380D01*
X112935952Y-139514761D01*
X112983571Y-139419523D01*
X112983571Y-139038571D01*
X112935952Y-138943333D01*
X112840714Y-138895714D01*
X112650238Y-138895714D01*
X112555000Y-138943333D01*
X112507380Y-139038571D01*
X112507380Y-139133809D01*
X112983571Y-139229047D01*
X111364523Y-139514761D02*
X111221666Y-139562380D01*
X110983571Y-139562380D01*
X110888333Y-139514761D01*
X110840714Y-139467142D01*
X110793095Y-139371904D01*
X110793095Y-139276666D01*
X110840714Y-139181428D01*
X110888333Y-139133809D01*
X110983571Y-139086190D01*
X111174047Y-139038571D01*
X111269285Y-138990952D01*
X111316904Y-138943333D01*
X111364523Y-138848095D01*
X111364523Y-138752857D01*
X111316904Y-138657619D01*
X111269285Y-138610000D01*
X111174047Y-138562380D01*
X110935952Y-138562380D01*
X110793095Y-138610000D01*
X109983571Y-139514761D02*
X110078809Y-139562380D01*
X110269285Y-139562380D01*
X110364523Y-139514761D01*
X110412142Y-139419523D01*
X110412142Y-139038571D01*
X110364523Y-138943333D01*
X110269285Y-138895714D01*
X110078809Y-138895714D01*
X109983571Y-138943333D01*
X109935952Y-139038571D01*
X109935952Y-139133809D01*
X110412142Y-139229047D01*
X109507380Y-138895714D02*
X109507380Y-139562380D01*
X109507380Y-138990952D02*
X109459761Y-138943333D01*
X109364523Y-138895714D01*
X109221666Y-138895714D01*
X109126428Y-138943333D01*
X109078809Y-139038571D01*
X109078809Y-139562380D01*
X108650238Y-139514761D02*
X108555000Y-139562380D01*
X108364523Y-139562380D01*
X108269285Y-139514761D01*
X108221666Y-139419523D01*
X108221666Y-139371904D01*
X108269285Y-139276666D01*
X108364523Y-139229047D01*
X108507380Y-139229047D01*
X108602619Y-139181428D01*
X108650238Y-139086190D01*
X108650238Y-139038571D01*
X108602619Y-138943333D01*
X108507380Y-138895714D01*
X108364523Y-138895714D01*
X108269285Y-138943333D01*
X107650238Y-139562380D02*
X107745476Y-139514761D01*
X107793095Y-139467142D01*
X107840714Y-139371904D01*
X107840714Y-139086190D01*
X107793095Y-138990952D01*
X107745476Y-138943333D01*
X107650238Y-138895714D01*
X107507380Y-138895714D01*
X107412142Y-138943333D01*
X107364523Y-138990952D01*
X107316904Y-139086190D01*
X107316904Y-139371904D01*
X107364523Y-139467142D01*
X107412142Y-139514761D01*
X107507380Y-139562380D01*
X107650238Y-139562380D01*
X106888333Y-139562380D02*
X106888333Y-138895714D01*
X106888333Y-139086190D02*
X106840714Y-138990952D01*
X106793095Y-138943333D01*
X106697857Y-138895714D01*
X106602619Y-138895714D01*
X106316904Y-139514761D02*
X106221666Y-139562380D01*
X106031190Y-139562380D01*
X105935952Y-139514761D01*
X105888333Y-139419523D01*
X105888333Y-139371904D01*
X105935952Y-139276666D01*
X106031190Y-139229047D01*
X106174047Y-139229047D01*
X106269285Y-139181428D01*
X106316904Y-139086190D01*
X106316904Y-139038571D01*
X106269285Y-138943333D01*
X106174047Y-138895714D01*
X106031190Y-138895714D01*
X105935952Y-138943333D01*
%TO.C,C29*%
X160901142Y-142851142D02*
X160853523Y-142898761D01*
X160710666Y-142946380D01*
X160615428Y-142946380D01*
X160472571Y-142898761D01*
X160377333Y-142803523D01*
X160329714Y-142708285D01*
X160282095Y-142517809D01*
X160282095Y-142374952D01*
X160329714Y-142184476D01*
X160377333Y-142089238D01*
X160472571Y-141994000D01*
X160615428Y-141946380D01*
X160710666Y-141946380D01*
X160853523Y-141994000D01*
X160901142Y-142041619D01*
X161282095Y-142041619D02*
X161329714Y-141994000D01*
X161424952Y-141946380D01*
X161663047Y-141946380D01*
X161758285Y-141994000D01*
X161805904Y-142041619D01*
X161853523Y-142136857D01*
X161853523Y-142232095D01*
X161805904Y-142374952D01*
X161234476Y-142946380D01*
X161853523Y-142946380D01*
X162329714Y-142946380D02*
X162520190Y-142946380D01*
X162615428Y-142898761D01*
X162663047Y-142851142D01*
X162758285Y-142708285D01*
X162805904Y-142517809D01*
X162805904Y-142136857D01*
X162758285Y-142041619D01*
X162710666Y-141994000D01*
X162615428Y-141946380D01*
X162424952Y-141946380D01*
X162329714Y-141994000D01*
X162282095Y-142041619D01*
X162234476Y-142136857D01*
X162234476Y-142374952D01*
X162282095Y-142470190D01*
X162329714Y-142517809D01*
X162424952Y-142565428D01*
X162615428Y-142565428D01*
X162710666Y-142517809D01*
X162758285Y-142470190D01*
X162805904Y-142374952D01*
%TO.C,C28*%
X164965142Y-145899142D02*
X164917523Y-145946761D01*
X164774666Y-145994380D01*
X164679428Y-145994380D01*
X164536571Y-145946761D01*
X164441333Y-145851523D01*
X164393714Y-145756285D01*
X164346095Y-145565809D01*
X164346095Y-145422952D01*
X164393714Y-145232476D01*
X164441333Y-145137238D01*
X164536571Y-145042000D01*
X164679428Y-144994380D01*
X164774666Y-144994380D01*
X164917523Y-145042000D01*
X164965142Y-145089619D01*
X165346095Y-145089619D02*
X165393714Y-145042000D01*
X165488952Y-144994380D01*
X165727047Y-144994380D01*
X165822285Y-145042000D01*
X165869904Y-145089619D01*
X165917523Y-145184857D01*
X165917523Y-145280095D01*
X165869904Y-145422952D01*
X165298476Y-145994380D01*
X165917523Y-145994380D01*
X166488952Y-145422952D02*
X166393714Y-145375333D01*
X166346095Y-145327714D01*
X166298476Y-145232476D01*
X166298476Y-145184857D01*
X166346095Y-145089619D01*
X166393714Y-145042000D01*
X166488952Y-144994380D01*
X166679428Y-144994380D01*
X166774666Y-145042000D01*
X166822285Y-145089619D01*
X166869904Y-145184857D01*
X166869904Y-145232476D01*
X166822285Y-145327714D01*
X166774666Y-145375333D01*
X166679428Y-145422952D01*
X166488952Y-145422952D01*
X166393714Y-145470571D01*
X166346095Y-145518190D01*
X166298476Y-145613428D01*
X166298476Y-145803904D01*
X166346095Y-145899142D01*
X166393714Y-145946761D01*
X166488952Y-145994380D01*
X166679428Y-145994380D01*
X166774666Y-145946761D01*
X166822285Y-145899142D01*
X166869904Y-145803904D01*
X166869904Y-145613428D01*
X166822285Y-145518190D01*
X166774666Y-145470571D01*
X166679428Y-145422952D01*
%TO.C,C27*%
X160901142Y-145899142D02*
X160853523Y-145946761D01*
X160710666Y-145994380D01*
X160615428Y-145994380D01*
X160472571Y-145946761D01*
X160377333Y-145851523D01*
X160329714Y-145756285D01*
X160282095Y-145565809D01*
X160282095Y-145422952D01*
X160329714Y-145232476D01*
X160377333Y-145137238D01*
X160472571Y-145042000D01*
X160615428Y-144994380D01*
X160710666Y-144994380D01*
X160853523Y-145042000D01*
X160901142Y-145089619D01*
X161282095Y-145089619D02*
X161329714Y-145042000D01*
X161424952Y-144994380D01*
X161663047Y-144994380D01*
X161758285Y-145042000D01*
X161805904Y-145089619D01*
X161853523Y-145184857D01*
X161853523Y-145280095D01*
X161805904Y-145422952D01*
X161234476Y-145994380D01*
X161853523Y-145994380D01*
X162186857Y-144994380D02*
X162853523Y-144994380D01*
X162424952Y-145994380D01*
%TO.C,C26*%
X168521142Y-145645142D02*
X168473523Y-145692761D01*
X168330666Y-145740380D01*
X168235428Y-145740380D01*
X168092571Y-145692761D01*
X167997333Y-145597523D01*
X167949714Y-145502285D01*
X167902095Y-145311809D01*
X167902095Y-145168952D01*
X167949714Y-144978476D01*
X167997333Y-144883238D01*
X168092571Y-144788000D01*
X168235428Y-144740380D01*
X168330666Y-144740380D01*
X168473523Y-144788000D01*
X168521142Y-144835619D01*
X168902095Y-144835619D02*
X168949714Y-144788000D01*
X169044952Y-144740380D01*
X169283047Y-144740380D01*
X169378285Y-144788000D01*
X169425904Y-144835619D01*
X169473523Y-144930857D01*
X169473523Y-145026095D01*
X169425904Y-145168952D01*
X168854476Y-145740380D01*
X169473523Y-145740380D01*
X170330666Y-144740380D02*
X170140190Y-144740380D01*
X170044952Y-144788000D01*
X169997333Y-144835619D01*
X169902095Y-144978476D01*
X169854476Y-145168952D01*
X169854476Y-145549904D01*
X169902095Y-145645142D01*
X169949714Y-145692761D01*
X170044952Y-145740380D01*
X170235428Y-145740380D01*
X170330666Y-145692761D01*
X170378285Y-145645142D01*
X170425904Y-145549904D01*
X170425904Y-145311809D01*
X170378285Y-145216571D01*
X170330666Y-145168952D01*
X170235428Y-145121333D01*
X170044952Y-145121333D01*
X169949714Y-145168952D01*
X169902095Y-145216571D01*
X169854476Y-145311809D01*
%TO.C,C25*%
X164965142Y-142851142D02*
X164917523Y-142898761D01*
X164774666Y-142946380D01*
X164679428Y-142946380D01*
X164536571Y-142898761D01*
X164441333Y-142803523D01*
X164393714Y-142708285D01*
X164346095Y-142517809D01*
X164346095Y-142374952D01*
X164393714Y-142184476D01*
X164441333Y-142089238D01*
X164536571Y-141994000D01*
X164679428Y-141946380D01*
X164774666Y-141946380D01*
X164917523Y-141994000D01*
X164965142Y-142041619D01*
X165346095Y-142041619D02*
X165393714Y-141994000D01*
X165488952Y-141946380D01*
X165727047Y-141946380D01*
X165822285Y-141994000D01*
X165869904Y-142041619D01*
X165917523Y-142136857D01*
X165917523Y-142232095D01*
X165869904Y-142374952D01*
X165298476Y-142946380D01*
X165917523Y-142946380D01*
X166822285Y-141946380D02*
X166346095Y-141946380D01*
X166298476Y-142422571D01*
X166346095Y-142374952D01*
X166441333Y-142327333D01*
X166679428Y-142327333D01*
X166774666Y-142374952D01*
X166822285Y-142422571D01*
X166869904Y-142517809D01*
X166869904Y-142755904D01*
X166822285Y-142851142D01*
X166774666Y-142898761D01*
X166679428Y-142946380D01*
X166441333Y-142946380D01*
X166346095Y-142898761D01*
X166298476Y-142851142D01*
%TO.C,C24*%
X151757142Y-145805142D02*
X151709523Y-145852761D01*
X151566666Y-145900380D01*
X151471428Y-145900380D01*
X151328571Y-145852761D01*
X151233333Y-145757523D01*
X151185714Y-145662285D01*
X151138095Y-145471809D01*
X151138095Y-145328952D01*
X151185714Y-145138476D01*
X151233333Y-145043238D01*
X151328571Y-144948000D01*
X151471428Y-144900380D01*
X151566666Y-144900380D01*
X151709523Y-144948000D01*
X151757142Y-144995619D01*
X152138095Y-144995619D02*
X152185714Y-144948000D01*
X152280952Y-144900380D01*
X152519047Y-144900380D01*
X152614285Y-144948000D01*
X152661904Y-144995619D01*
X152709523Y-145090857D01*
X152709523Y-145186095D01*
X152661904Y-145328952D01*
X152090476Y-145900380D01*
X152709523Y-145900380D01*
X153566666Y-145233714D02*
X153566666Y-145900380D01*
X153328571Y-144852761D02*
X153090476Y-145567047D01*
X153709523Y-145567047D01*
%TO.C,C23*%
X156837142Y-145899142D02*
X156789523Y-145946761D01*
X156646666Y-145994380D01*
X156551428Y-145994380D01*
X156408571Y-145946761D01*
X156313333Y-145851523D01*
X156265714Y-145756285D01*
X156218095Y-145565809D01*
X156218095Y-145422952D01*
X156265714Y-145232476D01*
X156313333Y-145137238D01*
X156408571Y-145042000D01*
X156551428Y-144994380D01*
X156646666Y-144994380D01*
X156789523Y-145042000D01*
X156837142Y-145089619D01*
X157218095Y-145089619D02*
X157265714Y-145042000D01*
X157360952Y-144994380D01*
X157599047Y-144994380D01*
X157694285Y-145042000D01*
X157741904Y-145089619D01*
X157789523Y-145184857D01*
X157789523Y-145280095D01*
X157741904Y-145422952D01*
X157170476Y-145994380D01*
X157789523Y-145994380D01*
X158122857Y-144994380D02*
X158741904Y-144994380D01*
X158408571Y-145375333D01*
X158551428Y-145375333D01*
X158646666Y-145422952D01*
X158694285Y-145470571D01*
X158741904Y-145565809D01*
X158741904Y-145803904D01*
X158694285Y-145899142D01*
X158646666Y-145946761D01*
X158551428Y-145994380D01*
X158265714Y-145994380D01*
X158170476Y-145946761D01*
X158122857Y-145899142D01*
%TO.C,C21*%
X156837142Y-142851142D02*
X156789523Y-142898761D01*
X156646666Y-142946380D01*
X156551428Y-142946380D01*
X156408571Y-142898761D01*
X156313333Y-142803523D01*
X156265714Y-142708285D01*
X156218095Y-142517809D01*
X156218095Y-142374952D01*
X156265714Y-142184476D01*
X156313333Y-142089238D01*
X156408571Y-141994000D01*
X156551428Y-141946380D01*
X156646666Y-141946380D01*
X156789523Y-141994000D01*
X156837142Y-142041619D01*
X157218095Y-142041619D02*
X157265714Y-141994000D01*
X157360952Y-141946380D01*
X157599047Y-141946380D01*
X157694285Y-141994000D01*
X157741904Y-142041619D01*
X157789523Y-142136857D01*
X157789523Y-142232095D01*
X157741904Y-142374952D01*
X157170476Y-142946380D01*
X157789523Y-142946380D01*
X158741904Y-142946380D02*
X158170476Y-142946380D01*
X158456190Y-142946380D02*
X158456190Y-141946380D01*
X158360952Y-142089238D01*
X158265714Y-142184476D01*
X158170476Y-142232095D01*
%TO.C,C20*%
X151757142Y-142757142D02*
X151709523Y-142804761D01*
X151566666Y-142852380D01*
X151471428Y-142852380D01*
X151328571Y-142804761D01*
X151233333Y-142709523D01*
X151185714Y-142614285D01*
X151138095Y-142423809D01*
X151138095Y-142280952D01*
X151185714Y-142090476D01*
X151233333Y-141995238D01*
X151328571Y-141900000D01*
X151471428Y-141852380D01*
X151566666Y-141852380D01*
X151709523Y-141900000D01*
X151757142Y-141947619D01*
X152138095Y-141947619D02*
X152185714Y-141900000D01*
X152280952Y-141852380D01*
X152519047Y-141852380D01*
X152614285Y-141900000D01*
X152661904Y-141947619D01*
X152709523Y-142042857D01*
X152709523Y-142138095D01*
X152661904Y-142280952D01*
X152090476Y-142852380D01*
X152709523Y-142852380D01*
X153328571Y-141852380D02*
X153423809Y-141852380D01*
X153519047Y-141900000D01*
X153566666Y-141947619D01*
X153614285Y-142042857D01*
X153661904Y-142233333D01*
X153661904Y-142471428D01*
X153614285Y-142661904D01*
X153566666Y-142757142D01*
X153519047Y-142804761D01*
X153423809Y-142852380D01*
X153328571Y-142852380D01*
X153233333Y-142804761D01*
X153185714Y-142757142D01*
X153138095Y-142661904D01*
X153090476Y-142471428D01*
X153090476Y-142233333D01*
X153138095Y-142042857D01*
X153185714Y-141947619D01*
X153233333Y-141900000D01*
X153328571Y-141852380D01*
%TO.C,C19*%
X143629142Y-145805142D02*
X143581523Y-145852761D01*
X143438666Y-145900380D01*
X143343428Y-145900380D01*
X143200571Y-145852761D01*
X143105333Y-145757523D01*
X143057714Y-145662285D01*
X143010095Y-145471809D01*
X143010095Y-145328952D01*
X143057714Y-145138476D01*
X143105333Y-145043238D01*
X143200571Y-144948000D01*
X143343428Y-144900380D01*
X143438666Y-144900380D01*
X143581523Y-144948000D01*
X143629142Y-144995619D01*
X144581523Y-145900380D02*
X144010095Y-145900380D01*
X144295809Y-145900380D02*
X144295809Y-144900380D01*
X144200571Y-145043238D01*
X144105333Y-145138476D01*
X144010095Y-145186095D01*
X145057714Y-145900380D02*
X145248190Y-145900380D01*
X145343428Y-145852761D01*
X145391047Y-145805142D01*
X145486285Y-145662285D01*
X145533904Y-145471809D01*
X145533904Y-145090857D01*
X145486285Y-144995619D01*
X145438666Y-144948000D01*
X145343428Y-144900380D01*
X145152952Y-144900380D01*
X145057714Y-144948000D01*
X145010095Y-144995619D01*
X144962476Y-145090857D01*
X144962476Y-145328952D01*
X145010095Y-145424190D01*
X145057714Y-145471809D01*
X145152952Y-145519428D01*
X145343428Y-145519428D01*
X145438666Y-145471809D01*
X145486285Y-145424190D01*
X145533904Y-145328952D01*
%TO.C,C18*%
X147693142Y-145805142D02*
X147645523Y-145852761D01*
X147502666Y-145900380D01*
X147407428Y-145900380D01*
X147264571Y-145852761D01*
X147169333Y-145757523D01*
X147121714Y-145662285D01*
X147074095Y-145471809D01*
X147074095Y-145328952D01*
X147121714Y-145138476D01*
X147169333Y-145043238D01*
X147264571Y-144948000D01*
X147407428Y-144900380D01*
X147502666Y-144900380D01*
X147645523Y-144948000D01*
X147693142Y-144995619D01*
X148645523Y-145900380D02*
X148074095Y-145900380D01*
X148359809Y-145900380D02*
X148359809Y-144900380D01*
X148264571Y-145043238D01*
X148169333Y-145138476D01*
X148074095Y-145186095D01*
X149216952Y-145328952D02*
X149121714Y-145281333D01*
X149074095Y-145233714D01*
X149026476Y-145138476D01*
X149026476Y-145090857D01*
X149074095Y-144995619D01*
X149121714Y-144948000D01*
X149216952Y-144900380D01*
X149407428Y-144900380D01*
X149502666Y-144948000D01*
X149550285Y-144995619D01*
X149597904Y-145090857D01*
X149597904Y-145138476D01*
X149550285Y-145233714D01*
X149502666Y-145281333D01*
X149407428Y-145328952D01*
X149216952Y-145328952D01*
X149121714Y-145376571D01*
X149074095Y-145424190D01*
X149026476Y-145519428D01*
X149026476Y-145709904D01*
X149074095Y-145805142D01*
X149121714Y-145852761D01*
X149216952Y-145900380D01*
X149407428Y-145900380D01*
X149502666Y-145852761D01*
X149550285Y-145805142D01*
X149597904Y-145709904D01*
X149597904Y-145519428D01*
X149550285Y-145424190D01*
X149502666Y-145376571D01*
X149407428Y-145328952D01*
%TO.C,C16*%
X147693142Y-142757142D02*
X147645523Y-142804761D01*
X147502666Y-142852380D01*
X147407428Y-142852380D01*
X147264571Y-142804761D01*
X147169333Y-142709523D01*
X147121714Y-142614285D01*
X147074095Y-142423809D01*
X147074095Y-142280952D01*
X147121714Y-142090476D01*
X147169333Y-141995238D01*
X147264571Y-141900000D01*
X147407428Y-141852380D01*
X147502666Y-141852380D01*
X147645523Y-141900000D01*
X147693142Y-141947619D01*
X148645523Y-142852380D02*
X148074095Y-142852380D01*
X148359809Y-142852380D02*
X148359809Y-141852380D01*
X148264571Y-141995238D01*
X148169333Y-142090476D01*
X148074095Y-142138095D01*
X149502666Y-141852380D02*
X149312190Y-141852380D01*
X149216952Y-141900000D01*
X149169333Y-141947619D01*
X149074095Y-142090476D01*
X149026476Y-142280952D01*
X149026476Y-142661904D01*
X149074095Y-142757142D01*
X149121714Y-142804761D01*
X149216952Y-142852380D01*
X149407428Y-142852380D01*
X149502666Y-142804761D01*
X149550285Y-142757142D01*
X149597904Y-142661904D01*
X149597904Y-142423809D01*
X149550285Y-142328571D01*
X149502666Y-142280952D01*
X149407428Y-142233333D01*
X149216952Y-142233333D01*
X149121714Y-142280952D01*
X149074095Y-142328571D01*
X149026476Y-142423809D01*
%TO.C,C15*%
X143629142Y-142757142D02*
X143581523Y-142804761D01*
X143438666Y-142852380D01*
X143343428Y-142852380D01*
X143200571Y-142804761D01*
X143105333Y-142709523D01*
X143057714Y-142614285D01*
X143010095Y-142423809D01*
X143010095Y-142280952D01*
X143057714Y-142090476D01*
X143105333Y-141995238D01*
X143200571Y-141900000D01*
X143343428Y-141852380D01*
X143438666Y-141852380D01*
X143581523Y-141900000D01*
X143629142Y-141947619D01*
X144581523Y-142852380D02*
X144010095Y-142852380D01*
X144295809Y-142852380D02*
X144295809Y-141852380D01*
X144200571Y-141995238D01*
X144105333Y-142090476D01*
X144010095Y-142138095D01*
X145486285Y-141852380D02*
X145010095Y-141852380D01*
X144962476Y-142328571D01*
X145010095Y-142280952D01*
X145105333Y-142233333D01*
X145343428Y-142233333D01*
X145438666Y-142280952D01*
X145486285Y-142328571D01*
X145533904Y-142423809D01*
X145533904Y-142661904D01*
X145486285Y-142757142D01*
X145438666Y-142804761D01*
X145343428Y-142852380D01*
X145105333Y-142852380D01*
X145010095Y-142804761D01*
X144962476Y-142757142D01*
%TO.C,J1*%
X144021723Y-80205185D02*
X144021723Y-80919471D01*
X144069342Y-81062328D01*
X144164580Y-81157566D01*
X144307437Y-81205185D01*
X144402675Y-81205185D01*
X143021723Y-81205185D02*
X143593151Y-81205185D01*
X143307437Y-81205185D02*
X143307437Y-80205185D01*
X143402675Y-80348043D01*
X143497913Y-80443281D01*
X143593151Y-80490900D01*
D11*
%TO.C,C29*%
X161690267Y-141480000D02*
X161397733Y-141480000D01*
X161690267Y-140460000D02*
X161397733Y-140460000D01*
%TO.C,C28*%
X165754267Y-143508000D02*
X165461733Y-143508000D01*
X165754267Y-144528000D02*
X165461733Y-144528000D01*
%TO.C,C27*%
X161690267Y-143508000D02*
X161397733Y-143508000D01*
X161690267Y-144528000D02*
X161397733Y-144528000D01*
%TO.C,C26*%
X169420000Y-142640267D02*
X169420000Y-142347733D01*
X168400000Y-142640267D02*
X168400000Y-142347733D01*
%TO.C,C25*%
X165754267Y-141480000D02*
X165461733Y-141480000D01*
X165754267Y-140460000D02*
X165461733Y-140460000D01*
%TO.C,C24*%
X152253733Y-144528000D02*
X152546267Y-144528000D01*
X152253733Y-143508000D02*
X152546267Y-143508000D01*
%TO.C,C23*%
X157626267Y-143508000D02*
X157333733Y-143508000D01*
X157626267Y-144528000D02*
X157333733Y-144528000D01*
%TO.C,C21*%
X157626267Y-141480000D02*
X157333733Y-141480000D01*
X157626267Y-140460000D02*
X157333733Y-140460000D01*
%TO.C,C20*%
X152253733Y-141480000D02*
X152546267Y-141480000D01*
X152253733Y-140460000D02*
X152546267Y-140460000D01*
%TO.C,C19*%
X144125733Y-144528000D02*
X144418267Y-144528000D01*
X144125733Y-143508000D02*
X144418267Y-143508000D01*
%TO.C,C18*%
X148189733Y-144528000D02*
X148482267Y-144528000D01*
X148189733Y-143508000D02*
X148482267Y-143508000D01*
%TO.C,C16*%
X148189733Y-141480000D02*
X148482267Y-141480000D01*
X148189733Y-140460000D02*
X148482267Y-140460000D01*
%TO.C,C15*%
X144125733Y-141480000D02*
X144418267Y-141480000D01*
X144125733Y-140460000D02*
X144418267Y-140460000D01*
%TO.C,J1*%
X182449195Y-78447000D02*
X104749195Y-78447000D01*
X104749195Y-78447000D02*
X104749195Y-118657000D01*
X104749195Y-118657000D02*
X182449195Y-118657000D01*
X182449195Y-118657000D02*
X182449195Y-78447000D01*
%TO.C,G\u002A\u002A\u002A*%
G36*
X114817262Y-125517022D02*
G01*
X113613251Y-125517022D01*
X113613251Y-125258468D01*
X114523977Y-125258468D01*
X114523977Y-123826775D01*
X114817262Y-123826775D01*
X114817262Y-125517022D01*
G37*
G36*
X110295472Y-124408521D02*
G01*
X110296635Y-124990267D01*
X110305342Y-125023068D01*
X110309333Y-125036961D01*
X110327452Y-125083114D01*
X110351720Y-125124731D01*
X110381924Y-125161616D01*
X110417853Y-125193570D01*
X110459296Y-125220398D01*
X110506040Y-125241902D01*
X110557873Y-125257886D01*
X110565678Y-125259716D01*
X110628695Y-125270231D01*
X110692546Y-125273571D01*
X110755654Y-125269643D01*
X110793260Y-125263737D01*
X110847418Y-125249946D01*
X110896415Y-125230653D01*
X110940095Y-125206011D01*
X110978299Y-125176170D01*
X111010871Y-125141284D01*
X111037652Y-125101505D01*
X111058486Y-125056985D01*
X111073215Y-125007876D01*
X111081682Y-124954330D01*
X111081883Y-124951738D01*
X111082441Y-124939105D01*
X111082959Y-124919100D01*
X111083437Y-124891977D01*
X111083871Y-124857994D01*
X111084261Y-124817408D01*
X111084605Y-124770473D01*
X111084900Y-124717448D01*
X111085146Y-124658588D01*
X111085340Y-124594150D01*
X111085481Y-124524390D01*
X111085567Y-124449565D01*
X111085596Y-124369931D01*
X111085600Y-123826775D01*
X111375212Y-123826775D01*
X111374095Y-124425887D01*
X111374002Y-124477996D01*
X111373872Y-124554432D01*
X111373751Y-124623792D01*
X111373624Y-124686469D01*
X111373474Y-124742857D01*
X111373286Y-124793349D01*
X111373044Y-124838338D01*
X111372732Y-124878219D01*
X111372335Y-124913383D01*
X111371837Y-124944225D01*
X111371223Y-124971137D01*
X111370475Y-124994514D01*
X111369580Y-125014749D01*
X111368520Y-125032235D01*
X111367281Y-125047365D01*
X111365846Y-125060532D01*
X111364200Y-125072131D01*
X111362327Y-125082555D01*
X111360212Y-125092196D01*
X111357838Y-125101449D01*
X111355190Y-125110706D01*
X111352252Y-125120361D01*
X111349009Y-125130807D01*
X111345444Y-125142439D01*
X111333733Y-125177643D01*
X111313090Y-125226145D01*
X111288109Y-125270186D01*
X111257796Y-125311441D01*
X111221156Y-125351581D01*
X111189404Y-125381206D01*
X111154303Y-125408683D01*
X111116343Y-125432776D01*
X111073094Y-125455185D01*
X111039368Y-125470145D01*
X110974536Y-125493383D01*
X110906399Y-125510728D01*
X110833769Y-125522515D01*
X110816481Y-125524222D01*
X110787430Y-125526060D01*
X110753717Y-125527327D01*
X110717097Y-125528019D01*
X110679322Y-125528136D01*
X110642145Y-125527675D01*
X110607320Y-125526634D01*
X110576600Y-125525012D01*
X110551739Y-125522807D01*
X110502405Y-125515773D01*
X110430465Y-125500493D01*
X110363659Y-125479924D01*
X110302123Y-125454166D01*
X110245991Y-125423317D01*
X110195398Y-125387478D01*
X110150477Y-125346748D01*
X110111364Y-125301226D01*
X110078193Y-125251013D01*
X110051098Y-125196207D01*
X110030214Y-125136909D01*
X110028742Y-125131845D01*
X110025920Y-125122304D01*
X110023359Y-125113590D01*
X110021045Y-125105314D01*
X110018965Y-125097086D01*
X110017105Y-125088520D01*
X110015452Y-125079226D01*
X110013992Y-125068816D01*
X110012714Y-125056902D01*
X110011602Y-125043095D01*
X110010645Y-125027008D01*
X110009828Y-125008251D01*
X110009139Y-124986437D01*
X110008563Y-124961177D01*
X110008089Y-124932082D01*
X110007702Y-124898765D01*
X110007389Y-124860836D01*
X110007138Y-124817908D01*
X110006934Y-124769593D01*
X110006765Y-124715501D01*
X110006616Y-124655244D01*
X110006476Y-124588435D01*
X110006330Y-124514685D01*
X110006166Y-124433605D01*
X110004892Y-123826775D01*
X110294310Y-123826775D01*
X110295472Y-124408521D01*
G37*
G36*
X117436910Y-123812878D02*
G01*
X117491974Y-123816575D01*
X117543382Y-123823061D01*
X117589946Y-123832318D01*
X117630480Y-123844327D01*
X117637800Y-123847044D01*
X117683011Y-123867169D01*
X117727252Y-123892325D01*
X117769174Y-123921495D01*
X117807428Y-123953663D01*
X117840664Y-123987811D01*
X117867531Y-124022922D01*
X117892820Y-124067447D01*
X117913903Y-124118561D01*
X117929368Y-124173434D01*
X117939060Y-124231127D01*
X117942824Y-124290698D01*
X117940503Y-124351207D01*
X117931941Y-124411715D01*
X117923451Y-124447651D01*
X117905043Y-124499980D01*
X117880379Y-124547820D01*
X117849524Y-124591095D01*
X117812546Y-124629729D01*
X117769510Y-124663646D01*
X117720484Y-124692768D01*
X117665535Y-124717020D01*
X117635518Y-124727147D01*
X117596067Y-124738004D01*
X117549610Y-124748642D01*
X117496007Y-124759086D01*
X117435114Y-124769366D01*
X117366788Y-124779507D01*
X117290887Y-124789539D01*
X117269692Y-124792230D01*
X117232722Y-124797187D01*
X117201831Y-124801811D01*
X117175947Y-124806343D01*
X117154000Y-124811024D01*
X117134919Y-124816095D01*
X117117634Y-124821797D01*
X117101073Y-124828371D01*
X117084166Y-124836057D01*
X117068611Y-124844010D01*
X117038663Y-124863447D01*
X117015499Y-124885281D01*
X116998611Y-124909951D01*
X116988045Y-124931773D01*
X116980607Y-124952438D01*
X116975896Y-124974019D01*
X116973427Y-124998748D01*
X116972712Y-125028857D01*
X116972973Y-125050456D01*
X116974103Y-125071391D01*
X116976290Y-125088013D01*
X116979711Y-125102178D01*
X116983482Y-125113642D01*
X116999976Y-125149360D01*
X117022214Y-125179965D01*
X117050389Y-125205687D01*
X117084693Y-125226754D01*
X117110463Y-125238613D01*
X117145987Y-125251319D01*
X117183584Y-125260461D01*
X117224549Y-125266270D01*
X117270176Y-125268974D01*
X117321759Y-125268803D01*
X117327692Y-125268624D01*
X117385818Y-125265088D01*
X117437526Y-125258371D01*
X117483467Y-125248257D01*
X117524293Y-125234531D01*
X117560656Y-125216978D01*
X117593209Y-125195382D01*
X117622603Y-125169529D01*
X117633666Y-125157893D01*
X117661645Y-125121575D01*
X117682445Y-125082458D01*
X117696113Y-125040433D01*
X117702702Y-124995390D01*
X117703144Y-124989217D01*
X117704498Y-124974578D01*
X117705947Y-124963636D01*
X117707247Y-124958396D01*
X117707278Y-124958362D01*
X117711801Y-124957841D01*
X117722960Y-124957778D01*
X117739732Y-124958117D01*
X117761098Y-124958806D01*
X117786036Y-124959791D01*
X117813526Y-124961019D01*
X117842546Y-124962436D01*
X117872077Y-124963988D01*
X117901097Y-124965621D01*
X117928586Y-124967283D01*
X117953522Y-124968920D01*
X117974886Y-124970478D01*
X117991655Y-124971903D01*
X118002811Y-124973142D01*
X118007331Y-124974142D01*
X118008062Y-124978813D01*
X118007489Y-124989731D01*
X118005763Y-125005411D01*
X118003101Y-125024426D01*
X117999719Y-125045349D01*
X117995834Y-125066752D01*
X117991663Y-125087209D01*
X117987422Y-125105291D01*
X117970076Y-125162321D01*
X117947096Y-125216927D01*
X117918619Y-125267221D01*
X117884035Y-125314280D01*
X117842731Y-125359176D01*
X117835795Y-125365878D01*
X117794519Y-125400981D01*
X117749354Y-125431510D01*
X117699785Y-125457675D01*
X117645299Y-125479692D01*
X117585378Y-125497773D01*
X117519509Y-125512131D01*
X117447177Y-125522980D01*
X117439987Y-125523763D01*
X117414659Y-125525579D01*
X117382527Y-125526711D01*
X117343298Y-125527169D01*
X117296675Y-125526960D01*
X117270495Y-125526643D01*
X117242011Y-125526139D01*
X117218784Y-125525446D01*
X117199419Y-125524470D01*
X117182519Y-125523116D01*
X117166691Y-125521290D01*
X117150539Y-125518897D01*
X117132667Y-125515842D01*
X117101100Y-125509765D01*
X117042029Y-125495400D01*
X116988887Y-125477953D01*
X116940736Y-125456989D01*
X116896641Y-125432070D01*
X116855664Y-125402760D01*
X116816870Y-125368622D01*
X116808625Y-125360507D01*
X116771532Y-125319138D01*
X116741019Y-125275808D01*
X116716698Y-125229674D01*
X116698179Y-125179896D01*
X116685072Y-125125629D01*
X116676988Y-125066032D01*
X116675837Y-125051723D01*
X116674387Y-124989932D01*
X116678631Y-124929924D01*
X116688409Y-124872711D01*
X116703559Y-124819308D01*
X116723920Y-124770728D01*
X116727167Y-124764363D01*
X116753590Y-124720437D01*
X116784922Y-124680985D01*
X116821424Y-124645857D01*
X116863356Y-124614904D01*
X116910976Y-124587977D01*
X116964544Y-124564926D01*
X117024321Y-124545601D01*
X117090567Y-124529853D01*
X117163539Y-124517532D01*
X117177857Y-124515529D01*
X117238149Y-124506945D01*
X117291429Y-124499068D01*
X117338237Y-124491793D01*
X117379113Y-124485014D01*
X117414598Y-124478622D01*
X117445232Y-124472513D01*
X117471557Y-124466580D01*
X117494111Y-124460716D01*
X117513436Y-124454815D01*
X117530072Y-124448770D01*
X117544560Y-124442475D01*
X117567144Y-124429744D01*
X117593241Y-124409462D01*
X117614950Y-124386016D01*
X117630606Y-124360983D01*
X117639506Y-124338331D01*
X117647042Y-124301649D01*
X117647659Y-124261665D01*
X117641352Y-124218465D01*
X117631528Y-124189134D01*
X117614355Y-124160487D01*
X117590718Y-124134904D01*
X117561091Y-124112805D01*
X117525950Y-124094609D01*
X117485767Y-124080736D01*
X117479577Y-124079111D01*
X117468206Y-124076573D01*
X117456407Y-124074739D01*
X117442724Y-124073495D01*
X117425698Y-124072727D01*
X117403871Y-124072322D01*
X117375785Y-124072166D01*
X117371826Y-124072159D01*
X117343644Y-124072254D01*
X117321394Y-124072695D01*
X117303489Y-124073591D01*
X117288340Y-124075051D01*
X117274361Y-124077183D01*
X117259963Y-124080097D01*
X117230133Y-124087761D01*
X117189041Y-124102220D01*
X117152302Y-124119970D01*
X117120977Y-124140473D01*
X117096125Y-124163193D01*
X117083561Y-124178953D01*
X117064919Y-124210531D01*
X117050049Y-124247051D01*
X117039468Y-124287136D01*
X117033694Y-124329411D01*
X117031177Y-124363178D01*
X117011495Y-124363232D01*
X117011320Y-124363232D01*
X117003501Y-124363053D01*
X116989632Y-124362558D01*
X116970771Y-124361797D01*
X116947976Y-124360819D01*
X116922306Y-124359676D01*
X116894819Y-124358417D01*
X116866575Y-124357092D01*
X116838631Y-124355752D01*
X116812046Y-124354447D01*
X116787880Y-124353227D01*
X116767189Y-124352142D01*
X116751034Y-124351242D01*
X116740472Y-124350578D01*
X116736562Y-124350199D01*
X116736528Y-124350150D01*
X116736620Y-124345638D01*
X116737744Y-124335235D01*
X116739662Y-124320558D01*
X116742136Y-124303225D01*
X116744928Y-124284854D01*
X116747799Y-124267063D01*
X116750511Y-124251469D01*
X116752827Y-124239689D01*
X116762459Y-124201218D01*
X116783600Y-124139549D01*
X116810588Y-124082751D01*
X116843242Y-124031006D01*
X116881383Y-123984498D01*
X116924831Y-123943408D01*
X116973407Y-123907922D01*
X117026931Y-123878220D01*
X117085223Y-123854488D01*
X117148103Y-123836907D01*
X117148286Y-123836866D01*
X117203828Y-123826345D01*
X117261649Y-123818703D01*
X117320560Y-123813924D01*
X117379377Y-123811988D01*
X117436910Y-123812878D01*
G37*
G36*
X128432237Y-125682944D02*
G01*
X128364623Y-125747591D01*
X128298136Y-125811139D01*
X128232998Y-125873376D01*
X128169430Y-125934090D01*
X128107655Y-125993068D01*
X128047894Y-126050098D01*
X127990370Y-126104966D01*
X127935303Y-126157462D01*
X127882917Y-126207371D01*
X127833432Y-126254483D01*
X127787072Y-126298583D01*
X127744057Y-126339461D01*
X127704610Y-126376903D01*
X127668953Y-126410696D01*
X127637307Y-126440629D01*
X127609894Y-126466489D01*
X127586937Y-126488063D01*
X127568658Y-126505140D01*
X127555277Y-126517506D01*
X127547017Y-126524949D01*
X127544101Y-126527256D01*
X127543968Y-126526977D01*
X127542053Y-126520310D01*
X127539579Y-126508575D01*
X127537048Y-126494123D01*
X127532561Y-126465953D01*
X127596410Y-126403865D01*
X127607136Y-126393385D01*
X127624044Y-126376645D01*
X127638385Y-126362168D01*
X127649408Y-126350724D01*
X127656364Y-126343086D01*
X127658504Y-126340022D01*
X127657296Y-126339629D01*
X127649705Y-126338144D01*
X127636133Y-126335872D01*
X127617687Y-126332988D01*
X127595475Y-126329668D01*
X127570605Y-126326088D01*
X127484460Y-126313907D01*
X127443430Y-126232961D01*
X127402400Y-126152016D01*
X127362924Y-126231032D01*
X127356635Y-126243603D01*
X127345856Y-126265065D01*
X127336501Y-126283587D01*
X127329073Y-126298177D01*
X127324076Y-126307843D01*
X127322014Y-126311591D01*
X127321322Y-126311814D01*
X127314777Y-126313086D01*
X127302410Y-126315202D01*
X127285530Y-126317959D01*
X127265442Y-126321157D01*
X127243456Y-126324593D01*
X127220877Y-126328066D01*
X127199014Y-126331374D01*
X127179175Y-126334315D01*
X127162665Y-126336689D01*
X127150794Y-126338292D01*
X127144867Y-126338923D01*
X127145311Y-126340069D01*
X127150172Y-126345743D01*
X127159447Y-126355515D01*
X127172419Y-126368651D01*
X127188375Y-126384422D01*
X127206599Y-126402095D01*
X127272190Y-126465147D01*
X127257310Y-126552792D01*
X127254876Y-126567268D01*
X127251010Y-126590899D01*
X127247815Y-126611260D01*
X127245455Y-126627270D01*
X127244092Y-126637843D01*
X127243889Y-126641897D01*
X127244883Y-126641691D01*
X127251502Y-126638802D01*
X127263459Y-126633002D01*
X127279766Y-126624787D01*
X127299435Y-126614650D01*
X127321480Y-126603084D01*
X127332010Y-126597534D01*
X127353346Y-126586417D01*
X127372001Y-126576868D01*
X127386943Y-126569405D01*
X127397142Y-126564548D01*
X127401567Y-126562813D01*
X127404215Y-126563603D01*
X127412571Y-126567188D01*
X127424535Y-126572815D01*
X127438201Y-126579540D01*
X127451662Y-126586418D01*
X127463012Y-126592507D01*
X127470343Y-126596861D01*
X127470229Y-126597558D01*
X127468947Y-126599398D01*
X127466347Y-126602472D01*
X127462315Y-126606891D01*
X127456735Y-126612767D01*
X127449492Y-126620211D01*
X127440471Y-126629332D01*
X127429557Y-126640243D01*
X127416634Y-126653053D01*
X127401588Y-126667874D01*
X127384303Y-126684816D01*
X127364665Y-126703990D01*
X127342558Y-126725507D01*
X127317867Y-126749479D01*
X127309950Y-126757149D01*
X127290476Y-126776015D01*
X127260272Y-126805226D01*
X127227139Y-126837223D01*
X127190961Y-126872118D01*
X127151623Y-126910021D01*
X127109011Y-126951042D01*
X127063009Y-126995293D01*
X127013502Y-127042885D01*
X126960375Y-127093928D01*
X126903513Y-127148532D01*
X126842801Y-127206810D01*
X126778123Y-127268871D01*
X126709365Y-127334827D01*
X126636411Y-127404788D01*
X126559147Y-127478865D01*
X126477456Y-127557169D01*
X126391225Y-127639811D01*
X126300337Y-127726902D01*
X126204678Y-127818552D01*
X126104133Y-127914872D01*
X125998587Y-128015974D01*
X125887924Y-128121967D01*
X125772029Y-128232963D01*
X125650787Y-128349072D01*
X125524083Y-128470406D01*
X125482181Y-128510526D01*
X125426851Y-128563487D01*
X125373192Y-128614831D01*
X125321464Y-128664308D01*
X125271928Y-128711671D01*
X125224844Y-128756671D01*
X125180471Y-128799061D01*
X125139069Y-128838592D01*
X125100900Y-128875017D01*
X125066222Y-128908086D01*
X125035296Y-128937552D01*
X125008382Y-128963167D01*
X124985739Y-128984682D01*
X124967629Y-129001850D01*
X124954311Y-129014422D01*
X124946045Y-129022150D01*
X124943091Y-129024786D01*
X124942769Y-129024093D01*
X124939876Y-129017485D01*
X124934038Y-129004023D01*
X124925324Y-128983869D01*
X124913806Y-128957188D01*
X124899554Y-128924144D01*
X124882638Y-128884899D01*
X124863129Y-128839619D01*
X124841097Y-128788466D01*
X124816612Y-128731604D01*
X124789745Y-128669197D01*
X124760566Y-128601409D01*
X124729146Y-128528404D01*
X124695554Y-128450345D01*
X124659862Y-128367395D01*
X124622139Y-128279720D01*
X124582456Y-128187482D01*
X124540884Y-128090845D01*
X124497493Y-127989972D01*
X124452353Y-127885029D01*
X124405534Y-127776178D01*
X124357107Y-127663583D01*
X124307143Y-127547407D01*
X124255711Y-127427816D01*
X124202882Y-127304971D01*
X124148727Y-127179038D01*
X124093316Y-127050179D01*
X124036719Y-126918559D01*
X123979006Y-126784341D01*
X123920249Y-126647689D01*
X123860516Y-126508767D01*
X123799880Y-126367738D01*
X123738410Y-126224766D01*
X123676176Y-126080015D01*
X123613249Y-125933649D01*
X123549699Y-125785831D01*
X123485597Y-125636725D01*
X123421013Y-125486495D01*
X123356017Y-125335305D01*
X123290680Y-125183318D01*
X123225073Y-125030697D01*
X123159264Y-124877608D01*
X123093326Y-124724213D01*
X123027328Y-124570676D01*
X122961341Y-124417161D01*
X122895435Y-124263832D01*
X122829680Y-124110852D01*
X122764147Y-123958386D01*
X122698906Y-123806596D01*
X122634028Y-123655647D01*
X122569583Y-123505702D01*
X122505641Y-123356925D01*
X122442273Y-123209480D01*
X122379549Y-123063531D01*
X122317540Y-122919241D01*
X122256315Y-122776773D01*
X122195946Y-122636293D01*
X122136502Y-122497963D01*
X122078054Y-122361947D01*
X122020673Y-122228409D01*
X121964428Y-122097513D01*
X121909390Y-121969422D01*
X121855630Y-121844301D01*
X121803218Y-121722312D01*
X121752225Y-121603619D01*
X121702720Y-121488388D01*
X121654774Y-121376780D01*
X121608457Y-121268960D01*
X121563840Y-121165091D01*
X121520993Y-121065338D01*
X121479987Y-120969863D01*
X121440892Y-120878832D01*
X121403779Y-120792407D01*
X121368716Y-120710752D01*
X121335776Y-120634031D01*
X121305029Y-120562407D01*
X121276544Y-120496045D01*
X121250393Y-120435108D01*
X121226645Y-120379760D01*
X121205371Y-120330165D01*
X121186642Y-120286486D01*
X121170527Y-120248887D01*
X121157098Y-120217531D01*
X121146423Y-120192583D01*
X121138575Y-120174207D01*
X121136452Y-120169215D01*
X121147890Y-120169215D01*
X121148626Y-120170396D01*
X121153219Y-120177431D01*
X121161943Y-120190689D01*
X121174713Y-120210040D01*
X121191442Y-120235354D01*
X121212045Y-120266502D01*
X121236436Y-120303354D01*
X121264529Y-120345780D01*
X121296238Y-120393650D01*
X121331476Y-120446836D01*
X121370159Y-120505208D01*
X121412199Y-120568635D01*
X121457511Y-120636989D01*
X121506010Y-120710139D01*
X121557608Y-120787957D01*
X121612220Y-120870312D01*
X121669760Y-120957075D01*
X121730142Y-121048116D01*
X121793281Y-121143306D01*
X121859089Y-121242515D01*
X121927481Y-121345613D01*
X121998372Y-121452471D01*
X122071675Y-121562960D01*
X122147304Y-121676949D01*
X122225173Y-121794309D01*
X122305197Y-121914910D01*
X122387289Y-122038624D01*
X122471363Y-122165319D01*
X122557333Y-122294867D01*
X122645114Y-122427138D01*
X122734619Y-122562002D01*
X122825762Y-122699330D01*
X122918458Y-122838992D01*
X123012621Y-122980859D01*
X123108163Y-123124800D01*
X123205001Y-123270687D01*
X123303046Y-123418390D01*
X123402215Y-123567778D01*
X123502420Y-123718723D01*
X123553151Y-123795142D01*
X123653188Y-123945831D01*
X123752235Y-124095028D01*
X123850204Y-124242600D01*
X123947005Y-124388413D01*
X124042550Y-124532334D01*
X124136751Y-124674228D01*
X124229518Y-124813964D01*
X124320764Y-124951407D01*
X124410400Y-125086423D01*
X124498336Y-125218880D01*
X124584485Y-125348643D01*
X124668758Y-125475580D01*
X124751065Y-125599557D01*
X124831320Y-125720441D01*
X124909433Y-125838097D01*
X124985314Y-125952393D01*
X125058877Y-126063195D01*
X125130032Y-126170369D01*
X125198690Y-126273783D01*
X125264764Y-126373302D01*
X125328163Y-126468794D01*
X125388801Y-126560124D01*
X125446587Y-126647160D01*
X125501434Y-126729767D01*
X125553253Y-126807813D01*
X125601955Y-126881164D01*
X125647452Y-126949686D01*
X125689655Y-127013246D01*
X125728475Y-127071710D01*
X125763825Y-127124946D01*
X125795614Y-127172819D01*
X125823755Y-127215196D01*
X125848160Y-127251944D01*
X125868738Y-127282929D01*
X125885403Y-127308018D01*
X125898064Y-127327077D01*
X125906634Y-127339973D01*
X125911024Y-127346572D01*
X125964010Y-127426062D01*
X126351310Y-126757107D01*
X126401189Y-126757107D01*
X126467136Y-126821074D01*
X126533083Y-126885040D01*
X126517789Y-126971622D01*
X126515410Y-126985222D01*
X126511408Y-127008782D01*
X126508108Y-127029114D01*
X126505679Y-127045125D01*
X126504290Y-127055725D01*
X126504111Y-127059822D01*
X126505299Y-127059577D01*
X126512230Y-127056584D01*
X126524461Y-127050692D01*
X126541013Y-127042392D01*
X126560904Y-127032169D01*
X126583152Y-127020512D01*
X126595017Y-127014254D01*
X126616231Y-127003135D01*
X126634601Y-126993598D01*
X126649135Y-126986154D01*
X126658839Y-126981313D01*
X126662723Y-126979586D01*
X126663841Y-126980014D01*
X126670706Y-126983336D01*
X126682895Y-126989520D01*
X126699409Y-126998053D01*
X126719250Y-127008419D01*
X126741421Y-127020106D01*
X126752497Y-127025954D01*
X126773691Y-127037064D01*
X126792090Y-127046600D01*
X126806691Y-127054049D01*
X126816489Y-127058895D01*
X126820481Y-127060625D01*
X126820704Y-127060572D01*
X126821603Y-127056547D01*
X126820758Y-127048084D01*
X126820701Y-127047765D01*
X126819262Y-127039619D01*
X126816755Y-127025387D01*
X126813429Y-127006480D01*
X126809533Y-126984311D01*
X126805314Y-126960291D01*
X126792103Y-126885040D01*
X126858099Y-126821095D01*
X126924094Y-126757149D01*
X126833182Y-126744313D01*
X126742269Y-126731476D01*
X126702675Y-126650039D01*
X126663082Y-126568602D01*
X126622656Y-126650073D01*
X126582231Y-126731545D01*
X126401189Y-126757107D01*
X126351310Y-126757107D01*
X126765979Y-126040879D01*
X126802842Y-125977205D01*
X126857666Y-125882494D01*
X126911414Y-125789629D01*
X126963959Y-125698829D01*
X127015173Y-125610314D01*
X127030494Y-125583831D01*
X127623513Y-125583831D01*
X127754591Y-125709455D01*
X127739711Y-125796775D01*
X127737315Y-125810970D01*
X127733438Y-125834581D01*
X127730236Y-125854932D01*
X127727871Y-125870939D01*
X127726507Y-125881515D01*
X127726309Y-125885575D01*
X127727406Y-125885339D01*
X127734204Y-125882399D01*
X127746334Y-125876584D01*
X127762811Y-125868380D01*
X127782649Y-125858276D01*
X127804863Y-125846758D01*
X127816202Y-125840846D01*
X127837518Y-125829825D01*
X127856048Y-125820366D01*
X127870781Y-125812979D01*
X127880707Y-125808172D01*
X127884816Y-125806455D01*
X127886059Y-125806887D01*
X127893162Y-125810215D01*
X127905572Y-125816400D01*
X127922279Y-125824929D01*
X127942273Y-125835288D01*
X127964546Y-125846967D01*
X127975833Y-125852904D01*
X127997064Y-125863988D01*
X128015493Y-125873500D01*
X128030116Y-125880929D01*
X128039930Y-125885762D01*
X128043932Y-125887486D01*
X128044995Y-125886351D01*
X128044450Y-125880733D01*
X128044197Y-125879730D01*
X128042623Y-125871930D01*
X128040066Y-125858129D01*
X128036747Y-125839557D01*
X128032887Y-125817447D01*
X128028707Y-125793028D01*
X128014982Y-125712077D01*
X128143180Y-125583711D01*
X128103246Y-125577546D01*
X128088252Y-125575275D01*
X128064023Y-125571713D01*
X128038322Y-125568029D01*
X128014687Y-125564736D01*
X127966063Y-125558091D01*
X127925463Y-125476783D01*
X127884862Y-125395475D01*
X127844259Y-125476610D01*
X127803657Y-125557745D01*
X127742463Y-125566574D01*
X127733137Y-125567920D01*
X127709263Y-125571370D01*
X127686368Y-125574684D01*
X127666670Y-125577540D01*
X127652392Y-125579617D01*
X127623513Y-125583831D01*
X127030494Y-125583831D01*
X127064931Y-125524303D01*
X127113104Y-125441016D01*
X127159567Y-125360674D01*
X127204191Y-125283494D01*
X127246851Y-125209698D01*
X127287420Y-125139504D01*
X127325770Y-125073133D01*
X127361774Y-125010805D01*
X127395306Y-124952738D01*
X127426239Y-124899153D01*
X127454445Y-124850269D01*
X127479799Y-124806307D01*
X127502172Y-124767484D01*
X127521438Y-124734023D01*
X127535144Y-124710188D01*
X127631925Y-124710188D01*
X127632514Y-124713171D01*
X127636020Y-124718360D01*
X127642978Y-124726379D01*
X127653923Y-124737851D01*
X127669389Y-124753397D01*
X127689911Y-124773642D01*
X127754181Y-124836731D01*
X127739433Y-124924273D01*
X127737029Y-124938678D01*
X127733195Y-124962275D01*
X127730026Y-124982590D01*
X127727685Y-124998542D01*
X127726333Y-125009051D01*
X127726132Y-125013035D01*
X127727514Y-125012640D01*
X127734718Y-125009366D01*
X127747194Y-125003232D01*
X127763974Y-124994726D01*
X127784087Y-124984336D01*
X127806563Y-124972551D01*
X127885548Y-124930847D01*
X127904968Y-124941745D01*
X127911569Y-124945374D01*
X127925473Y-124952851D01*
X127943470Y-124962413D01*
X127963959Y-124973209D01*
X127985339Y-124984390D01*
X127999014Y-124991490D01*
X128017169Y-125000754D01*
X128029911Y-125006902D01*
X128038114Y-125010271D01*
X128042648Y-125011197D01*
X128044385Y-125010016D01*
X128044197Y-125007062D01*
X128043952Y-125005915D01*
X128042359Y-124997508D01*
X128039769Y-124983141D01*
X128036409Y-124964087D01*
X128032503Y-124941624D01*
X128028277Y-124917025D01*
X128014451Y-124836066D01*
X128079401Y-124773673D01*
X128094019Y-124759602D01*
X128111105Y-124742993D01*
X128123509Y-124730593D01*
X128131786Y-124721756D01*
X128136490Y-124715833D01*
X128138175Y-124712179D01*
X128137395Y-124710147D01*
X128134703Y-124709088D01*
X128129067Y-124708051D01*
X128116698Y-124706052D01*
X128099375Y-124703392D01*
X128078529Y-124700292D01*
X128055594Y-124696971D01*
X128035519Y-124694079D01*
X128014133Y-124690943D01*
X127996008Y-124688225D01*
X127982606Y-124686146D01*
X127975386Y-124684925D01*
X127971173Y-124683569D01*
X127966195Y-124679856D01*
X127960780Y-124672772D01*
X127954027Y-124661090D01*
X127945035Y-124643585D01*
X127937892Y-124629380D01*
X127931088Y-124616036D01*
X127926226Y-124606716D01*
X127924050Y-124602864D01*
X127920993Y-124602761D01*
X127911682Y-124603674D01*
X127897717Y-124605523D01*
X127880699Y-124608114D01*
X127838729Y-124614866D01*
X127821987Y-124649023D01*
X127820678Y-124651681D01*
X127819052Y-124654809D01*
X127812528Y-124667357D01*
X127806212Y-124677316D01*
X127800798Y-124682819D01*
X127795354Y-124685133D01*
X127789041Y-124686182D01*
X127776237Y-124688114D01*
X127758531Y-124690689D01*
X127737338Y-124693701D01*
X127714071Y-124696944D01*
X127691966Y-124700029D01*
X127670875Y-124703039D01*
X127653291Y-124705619D01*
X127640592Y-124707566D01*
X127634161Y-124708677D01*
X127633719Y-124708789D01*
X127631925Y-124710188D01*
X127535144Y-124710188D01*
X127537471Y-124706141D01*
X127550143Y-124684059D01*
X127559327Y-124667997D01*
X127564896Y-124658174D01*
X127566724Y-124654809D01*
X127563771Y-124652711D01*
X127554346Y-124646078D01*
X127538922Y-124635253D01*
X127517662Y-124620351D01*
X127490727Y-124601484D01*
X127458280Y-124578767D01*
X127420482Y-124552312D01*
X127377497Y-124522234D01*
X127329485Y-124488644D01*
X127276610Y-124451656D01*
X127219034Y-124411385D01*
X127156918Y-124367942D01*
X127090425Y-124321442D01*
X127019717Y-124271998D01*
X126944956Y-124219722D01*
X126866305Y-124164729D01*
X126783925Y-124107132D01*
X126697978Y-124047044D01*
X126608628Y-123984578D01*
X126516035Y-123919848D01*
X126420363Y-123852967D01*
X126321773Y-123784048D01*
X126220427Y-123713205D01*
X126116488Y-123640551D01*
X126010118Y-123566199D01*
X125901479Y-123490263D01*
X125790733Y-123412855D01*
X125678042Y-123334090D01*
X125563569Y-123254081D01*
X125447475Y-123172941D01*
X125329923Y-123090782D01*
X125211076Y-123007720D01*
X125091094Y-122923866D01*
X124970140Y-122839335D01*
X124848378Y-122754239D01*
X124725967Y-122668691D01*
X124603072Y-122582807D01*
X124479853Y-122496697D01*
X124356474Y-122410477D01*
X124233096Y-122324258D01*
X124109881Y-122238156D01*
X123986992Y-122152282D01*
X123864591Y-122066750D01*
X123742840Y-121981673D01*
X123621901Y-121897166D01*
X123501936Y-121813340D01*
X123383107Y-121730310D01*
X123265578Y-121648189D01*
X123149509Y-121567090D01*
X123035063Y-121487126D01*
X122922402Y-121408411D01*
X122811688Y-121331058D01*
X122703084Y-121255180D01*
X122596752Y-121180891D01*
X122492853Y-121108304D01*
X122391550Y-121037533D01*
X122293006Y-120968690D01*
X122197381Y-120901889D01*
X122104840Y-120837244D01*
X122015542Y-120774867D01*
X121929652Y-120714872D01*
X121847330Y-120657373D01*
X121768740Y-120602482D01*
X121694043Y-120550313D01*
X121623401Y-120500979D01*
X121556977Y-120454594D01*
X121494933Y-120411271D01*
X121437430Y-120371123D01*
X121384632Y-120334264D01*
X121336700Y-120300807D01*
X121293796Y-120270864D01*
X121256083Y-120244551D01*
X121223723Y-120221979D01*
X121196878Y-120203263D01*
X121175710Y-120188515D01*
X121160381Y-120177848D01*
X121151054Y-120171377D01*
X121147890Y-120169215D01*
X121136452Y-120169215D01*
X121133623Y-120162565D01*
X121131638Y-120157822D01*
X121131247Y-120155718D01*
X121133958Y-120152999D01*
X121135760Y-120153771D01*
X121144159Y-120157625D01*
X121159262Y-120164648D01*
X121180908Y-120174762D01*
X121208937Y-120187892D01*
X121243187Y-120203962D01*
X121283497Y-120222897D01*
X121329706Y-120244619D01*
X121381653Y-120269053D01*
X121439177Y-120296123D01*
X121502118Y-120325753D01*
X121570314Y-120357867D01*
X121643604Y-120392389D01*
X121721828Y-120429242D01*
X121804823Y-120468352D01*
X121892430Y-120509641D01*
X121984487Y-120553034D01*
X122080834Y-120598455D01*
X122181308Y-120645828D01*
X122285750Y-120695077D01*
X122393998Y-120746125D01*
X122505892Y-120798897D01*
X122621270Y-120853317D01*
X122739971Y-120909309D01*
X122861834Y-120966796D01*
X122986699Y-121025704D01*
X123114404Y-121085954D01*
X123244789Y-121147473D01*
X123377692Y-121210183D01*
X123512952Y-121274009D01*
X123650408Y-121338875D01*
X123789900Y-121404704D01*
X123931267Y-121471421D01*
X124074346Y-121538949D01*
X124218978Y-121607213D01*
X124365002Y-121676137D01*
X124512256Y-121745644D01*
X124660579Y-121815659D01*
X124809811Y-121886105D01*
X124959790Y-121956907D01*
X125110355Y-122027989D01*
X125261346Y-122099274D01*
X125412602Y-122170686D01*
X125563961Y-122242150D01*
X125715262Y-122313590D01*
X125866345Y-122384928D01*
X126017048Y-122456091D01*
X126167211Y-122527001D01*
X126316672Y-122597582D01*
X126465271Y-122667758D01*
X126612846Y-122737454D01*
X126759237Y-122806594D01*
X126904283Y-122875100D01*
X127047822Y-122942899D01*
X127189693Y-123009912D01*
X127329736Y-123076065D01*
X127467789Y-123141281D01*
X127603693Y-123205484D01*
X127737284Y-123268599D01*
X127868403Y-123330549D01*
X127996889Y-123391258D01*
X128122581Y-123450651D01*
X128245317Y-123508651D01*
X128364936Y-123565182D01*
X128481279Y-123620168D01*
X128594182Y-123673534D01*
X128703487Y-123725202D01*
X128809031Y-123775098D01*
X128910654Y-123823145D01*
X129008194Y-123869267D01*
X129101491Y-123913388D01*
X129190384Y-123955433D01*
X129274711Y-123995324D01*
X129354312Y-124032987D01*
X129429026Y-124068345D01*
X129498692Y-124101321D01*
X129563148Y-124131841D01*
X129622234Y-124159828D01*
X129675788Y-124185206D01*
X129723651Y-124207899D01*
X129765660Y-124227831D01*
X129801654Y-124244926D01*
X129831474Y-124259108D01*
X129854957Y-124270301D01*
X129871943Y-124278429D01*
X129882271Y-124283415D01*
X129885780Y-124285185D01*
X129885685Y-124285378D01*
X129881926Y-124289458D01*
X129872859Y-124298601D01*
X129858704Y-124312595D01*
X129839685Y-124331226D01*
X129816024Y-124354284D01*
X129787941Y-124381554D01*
X129755659Y-124412826D01*
X129719400Y-124447885D01*
X129679386Y-124486521D01*
X129635838Y-124528519D01*
X129588979Y-124573669D01*
X129539030Y-124621757D01*
X129486214Y-124672571D01*
X129445020Y-124712179D01*
X129430752Y-124725898D01*
X129372867Y-124781526D01*
X129312779Y-124839243D01*
X129250711Y-124898836D01*
X129186886Y-124960093D01*
X129121524Y-125022800D01*
X129054848Y-125086746D01*
X128987080Y-125151719D01*
X128918441Y-125217505D01*
X128849154Y-125283892D01*
X128779440Y-125350668D01*
X128709521Y-125417621D01*
X128639619Y-125484537D01*
X128569957Y-125551204D01*
X128535980Y-125583711D01*
X128500756Y-125617411D01*
X128432237Y-125682944D01*
G37*
G36*
X118929279Y-123814711D02*
G01*
X118994521Y-123819358D01*
X119057681Y-123827914D01*
X119117360Y-123840416D01*
X119186778Y-123861520D01*
X119251617Y-123888704D01*
X119311599Y-123921870D01*
X119366675Y-123960979D01*
X119416793Y-124005988D01*
X119461902Y-124056858D01*
X119501951Y-124113547D01*
X119536890Y-124176016D01*
X119547163Y-124197320D01*
X119572852Y-124257272D01*
X119593604Y-124317508D01*
X119610152Y-124380339D01*
X119623230Y-124448076D01*
X119627043Y-124473447D01*
X119634281Y-124538739D01*
X119638677Y-124607746D01*
X119640211Y-124678299D01*
X119638862Y-124748227D01*
X119634609Y-124815361D01*
X119627429Y-124877532D01*
X119616438Y-124939012D01*
X119599799Y-125006656D01*
X119578971Y-125072149D01*
X119554376Y-125134435D01*
X119526435Y-125192457D01*
X119495570Y-125245159D01*
X119462202Y-125291486D01*
X119442792Y-125314219D01*
X119397181Y-125359194D01*
X119345923Y-125399658D01*
X119289661Y-125435268D01*
X119229038Y-125465683D01*
X119164698Y-125490561D01*
X119097285Y-125509560D01*
X119027441Y-125522340D01*
X119018300Y-125523384D01*
X118996020Y-125525086D01*
X118968482Y-125526431D01*
X118937288Y-125527404D01*
X118904042Y-125527992D01*
X118870345Y-125528180D01*
X118837800Y-125527954D01*
X118808009Y-125527301D01*
X118782574Y-125526205D01*
X118763099Y-125524654D01*
X118729220Y-125520149D01*
X118656556Y-125505281D01*
X118587686Y-125483762D01*
X118522705Y-125455638D01*
X118461712Y-125420954D01*
X118404805Y-125379757D01*
X118352081Y-125332093D01*
X118333608Y-125312902D01*
X118299991Y-125273739D01*
X118271419Y-125233595D01*
X118246881Y-125190803D01*
X118225368Y-125143694D01*
X118205869Y-125090601D01*
X118199283Y-125069717D01*
X118192978Y-125047692D01*
X118187436Y-125026379D01*
X118182966Y-125007109D01*
X118179876Y-124991212D01*
X118178474Y-124980021D01*
X118179068Y-124974865D01*
X118180934Y-124974457D01*
X118189513Y-124973527D01*
X118204074Y-124972295D01*
X118223568Y-124970827D01*
X118246944Y-124969188D01*
X118273151Y-124967443D01*
X118301140Y-124965657D01*
X118329859Y-124963896D01*
X118358258Y-124962225D01*
X118385288Y-124960709D01*
X118409896Y-124959413D01*
X118431034Y-124958402D01*
X118447649Y-124957743D01*
X118458693Y-124957500D01*
X118478445Y-124957465D01*
X118485199Y-124981584D01*
X118486369Y-124985667D01*
X118501695Y-125028319D01*
X118522169Y-125070597D01*
X118546806Y-125111033D01*
X118574625Y-125148157D01*
X118604642Y-125180503D01*
X118635875Y-125206603D01*
X118647315Y-125214368D01*
X118689778Y-125237375D01*
X118737057Y-125254847D01*
X118788576Y-125266642D01*
X118843757Y-125272615D01*
X118902023Y-125272623D01*
X118907805Y-125272308D01*
X118964472Y-125266529D01*
X119015826Y-125255963D01*
X119062762Y-125240319D01*
X119106176Y-125219305D01*
X119146963Y-125192627D01*
X119156263Y-125185492D01*
X119197654Y-125147869D01*
X119234119Y-125104346D01*
X119265623Y-125054989D01*
X119292126Y-124999863D01*
X119313591Y-124939033D01*
X119329981Y-124872567D01*
X119331040Y-124867215D01*
X119337852Y-124828864D01*
X119342769Y-124792292D01*
X119346005Y-124755143D01*
X119347772Y-124715059D01*
X119348282Y-124669685D01*
X119347703Y-124630114D01*
X119343027Y-124552342D01*
X119333623Y-124480553D01*
X119319445Y-124414636D01*
X119300446Y-124354475D01*
X119276581Y-124299958D01*
X119247804Y-124250971D01*
X119214067Y-124207399D01*
X119175326Y-124169130D01*
X119131534Y-124136049D01*
X119129216Y-124134533D01*
X119089139Y-124111738D01*
X119046360Y-124093984D01*
X118998728Y-124080366D01*
X118995607Y-124079649D01*
X118982221Y-124076916D01*
X118968855Y-124074930D01*
X118953963Y-124073583D01*
X118935998Y-124072765D01*
X118913412Y-124072365D01*
X118884658Y-124072274D01*
X118878796Y-124072283D01*
X118851026Y-124072478D01*
X118829009Y-124073013D01*
X118811089Y-124074010D01*
X118795607Y-124075588D01*
X118780905Y-124077869D01*
X118765327Y-124080973D01*
X118734148Y-124088618D01*
X118686165Y-124104992D01*
X118643897Y-124125945D01*
X118606799Y-124151823D01*
X118574325Y-124182969D01*
X118545929Y-124219730D01*
X118542458Y-124225041D01*
X118520733Y-124264283D01*
X118502555Y-124307704D01*
X118488932Y-124352565D01*
X118480876Y-124396127D01*
X118478575Y-124415703D01*
X118456829Y-124414211D01*
X118453110Y-124413957D01*
X118440486Y-124413103D01*
X118421849Y-124411848D01*
X118398324Y-124410265D01*
X118371036Y-124408432D01*
X118341108Y-124406424D01*
X118309665Y-124404317D01*
X118184247Y-124395914D01*
X118185463Y-124382440D01*
X118186215Y-124375552D01*
X118190558Y-124349827D01*
X118197478Y-124319448D01*
X118206445Y-124286187D01*
X118216927Y-124251819D01*
X118228394Y-124218115D01*
X118240314Y-124186848D01*
X118252157Y-124159791D01*
X118259286Y-124145422D01*
X118291793Y-124090580D01*
X118330711Y-124039412D01*
X118375518Y-123992372D01*
X118425690Y-123949915D01*
X118480704Y-123912496D01*
X118540038Y-123880570D01*
X118603169Y-123854591D01*
X118620772Y-123848751D01*
X118675452Y-123834435D01*
X118735041Y-123823834D01*
X118798141Y-123816987D01*
X118863353Y-123813934D01*
X118929279Y-123814711D01*
G37*
G36*
X121022549Y-125517022D02*
G01*
X119806961Y-125517022D01*
X119806961Y-125258468D01*
X120733123Y-125258468D01*
X120733123Y-124795387D01*
X119938167Y-124795387D01*
X119938167Y-124540692D01*
X120733123Y-124540692D01*
X120733123Y-124085329D01*
X119818538Y-124085329D01*
X119818538Y-123826775D01*
X121022549Y-123826775D01*
X121022549Y-125517022D01*
G37*
G36*
X116353147Y-125517022D02*
G01*
X115137559Y-125517022D01*
X115137559Y-125258468D01*
X116063722Y-125258468D01*
X116063722Y-124795387D01*
X115268766Y-124795387D01*
X115268766Y-124540692D01*
X116063722Y-124540692D01*
X116063722Y-124085329D01*
X115149137Y-124085329D01*
X115149137Y-123826775D01*
X116353147Y-123826775D01*
X116353147Y-125517022D01*
G37*
G36*
X111904591Y-124420098D02*
G01*
X111905662Y-125013421D01*
X111916159Y-125051513D01*
X111920350Y-125065820D01*
X111935752Y-125106773D01*
X111954701Y-125141677D01*
X111977610Y-125171341D01*
X111991604Y-125185492D01*
X112027120Y-125213681D01*
X112067768Y-125236673D01*
X112112979Y-125254269D01*
X112162186Y-125266275D01*
X112214821Y-125272493D01*
X112270315Y-125272726D01*
X112325268Y-125267259D01*
X112376715Y-125256221D01*
X112422901Y-125239753D01*
X112463733Y-125217916D01*
X112499118Y-125190769D01*
X112528961Y-125158372D01*
X112553171Y-125120787D01*
X112571653Y-125078073D01*
X112572886Y-125074309D01*
X112577949Y-125055383D01*
X112582741Y-125032704D01*
X112586771Y-125009058D01*
X112589553Y-124987230D01*
X112590598Y-124970007D01*
X112590630Y-124967687D01*
X112592056Y-124957236D01*
X112595437Y-124953555D01*
X112599385Y-124953715D01*
X112610502Y-124954415D01*
X112627343Y-124955592D01*
X112648792Y-124957160D01*
X112673733Y-124959030D01*
X112701052Y-124961116D01*
X112729633Y-124963331D01*
X112758361Y-124965587D01*
X112786120Y-124967797D01*
X112811796Y-124969875D01*
X112834273Y-124971733D01*
X112852435Y-124973283D01*
X112865168Y-124974439D01*
X112871356Y-124975114D01*
X112872393Y-124975280D01*
X112879011Y-124976798D01*
X112882430Y-124979941D01*
X112883707Y-124986740D01*
X112883898Y-124999226D01*
X112882894Y-125026773D01*
X112877876Y-125071695D01*
X112869136Y-125118783D01*
X112857229Y-125165642D01*
X112842708Y-125209872D01*
X112826130Y-125249077D01*
X112817817Y-125265356D01*
X112787169Y-125314464D01*
X112750548Y-125358859D01*
X112708161Y-125398404D01*
X112660213Y-125432963D01*
X112606911Y-125462400D01*
X112548464Y-125486578D01*
X112485077Y-125505361D01*
X112416958Y-125518613D01*
X112405300Y-125520305D01*
X112387024Y-125522824D01*
X112371434Y-125524817D01*
X112361002Y-125525961D01*
X112357045Y-125526197D01*
X112344923Y-125526611D01*
X112327149Y-125527017D01*
X112305023Y-125527392D01*
X112279848Y-125527711D01*
X112252926Y-125527950D01*
X112234307Y-125527995D01*
X112171306Y-125526648D01*
X112114348Y-125522787D01*
X112062388Y-125516216D01*
X112014380Y-125506739D01*
X111969279Y-125494161D01*
X111926038Y-125478287D01*
X111883612Y-125458922D01*
X111882794Y-125458512D01*
X111829467Y-125428074D01*
X111782455Y-125393339D01*
X111741570Y-125354072D01*
X111706623Y-125310035D01*
X111677426Y-125260992D01*
X111653790Y-125206705D01*
X111635526Y-125146937D01*
X111634913Y-125144488D01*
X111632016Y-125133032D01*
X111629383Y-125122551D01*
X111627000Y-125112649D01*
X111624854Y-125102932D01*
X111622931Y-125093004D01*
X111621218Y-125082470D01*
X111619702Y-125070934D01*
X111618369Y-125058003D01*
X111617207Y-125043280D01*
X111616202Y-125026371D01*
X111615342Y-125006881D01*
X111614611Y-124984414D01*
X111613999Y-124958575D01*
X111613490Y-124928969D01*
X111613072Y-124895201D01*
X111612733Y-124856877D01*
X111612457Y-124813600D01*
X111612233Y-124764976D01*
X111612046Y-124710609D01*
X111611885Y-124650105D01*
X111611734Y-124583068D01*
X111611582Y-124509104D01*
X111611415Y-124427816D01*
X111610150Y-123826775D01*
X111903521Y-123826775D01*
X111904591Y-124420098D01*
G37*
%TD*%
M02*
