%TF.GenerationSoftware,KiCad,Pcbnew,(6.0.6)*%
%TF.CreationDate,2022-08-28T18:07:26+02:00*%
%TF.ProjectId,PCAP04_Interface,50434150-3034-45f4-996e-746572666163,rev?*%
%TF.SameCoordinates,Original*%
%TF.FileFunction,Legend,Bot*%
%TF.FilePolarity,Positive*%
%FSLAX46Y46*%
G04 Gerber Fmt 4.6, Leading zero omitted, Abs format (unit mm)*
G04 Created by KiCad (PCBNEW (6.0.6)) date 2022-08-28 18:07:26*
%MOMM*%
%LPD*%
G01*
G04 APERTURE LIST*
%ADD10C,0.150000*%
%ADD11C,0.120000*%
G04 APERTURE END LIST*
D10*
X178307904Y-126373000D02*
X178403142Y-126325380D01*
X178546000Y-126325380D01*
X178688857Y-126373000D01*
X178784095Y-126468238D01*
X178831714Y-126563476D01*
X178879333Y-126753952D01*
X178879333Y-126896809D01*
X178831714Y-127087285D01*
X178784095Y-127182523D01*
X178688857Y-127277761D01*
X178546000Y-127325380D01*
X178450761Y-127325380D01*
X178307904Y-127277761D01*
X178260285Y-127230142D01*
X178260285Y-126896809D01*
X178450761Y-126896809D01*
X177831714Y-127325380D02*
X177831714Y-126325380D01*
X177260285Y-127325380D01*
X177260285Y-126325380D01*
X176784095Y-127325380D02*
X176784095Y-126325380D01*
X176546000Y-126325380D01*
X176403142Y-126373000D01*
X176307904Y-126468238D01*
X176260285Y-126563476D01*
X176212666Y-126753952D01*
X176212666Y-126896809D01*
X176260285Y-127087285D01*
X176307904Y-127182523D01*
X176403142Y-127277761D01*
X176546000Y-127325380D01*
X176784095Y-127325380D01*
X178815809Y-128992380D02*
X178482476Y-129992380D01*
X178149142Y-128992380D01*
X177815809Y-129992380D02*
X177815809Y-128992380D01*
X177815809Y-129373333D02*
X177720571Y-129325714D01*
X177530095Y-129325714D01*
X177434857Y-129373333D01*
X177387238Y-129420952D01*
X177339619Y-129516190D01*
X177339619Y-129801904D01*
X177387238Y-129897142D01*
X177434857Y-129944761D01*
X177530095Y-129992380D01*
X177720571Y-129992380D01*
X177815809Y-129944761D01*
X176482476Y-129992380D02*
X176482476Y-129468571D01*
X176530095Y-129373333D01*
X176625333Y-129325714D01*
X176815809Y-129325714D01*
X176911047Y-129373333D01*
X176482476Y-129944761D02*
X176577714Y-129992380D01*
X176815809Y-129992380D01*
X176911047Y-129944761D01*
X176958666Y-129849523D01*
X176958666Y-129754285D01*
X176911047Y-129659047D01*
X176815809Y-129611428D01*
X176577714Y-129611428D01*
X176482476Y-129563809D01*
X176149142Y-129325714D02*
X175768190Y-129325714D01*
X176006285Y-128992380D02*
X176006285Y-129849523D01*
X175958666Y-129944761D01*
X175863428Y-129992380D01*
X175768190Y-129992380D01*
X178434904Y-107450000D02*
X178530142Y-107402380D01*
X178673000Y-107402380D01*
X178815857Y-107450000D01*
X178911095Y-107545238D01*
X178958714Y-107640476D01*
X179006333Y-107830952D01*
X179006333Y-107973809D01*
X178958714Y-108164285D01*
X178911095Y-108259523D01*
X178815857Y-108354761D01*
X178673000Y-108402380D01*
X178577761Y-108402380D01*
X178434904Y-108354761D01*
X178387285Y-108307142D01*
X178387285Y-107973809D01*
X178577761Y-107973809D01*
X177958714Y-108402380D02*
X177958714Y-107402380D01*
X177387285Y-108402380D01*
X177387285Y-107402380D01*
X176911095Y-108402380D02*
X176911095Y-107402380D01*
X176673000Y-107402380D01*
X176530142Y-107450000D01*
X176434904Y-107545238D01*
X176387285Y-107640476D01*
X176339666Y-107830952D01*
X176339666Y-107973809D01*
X176387285Y-108164285D01*
X176434904Y-108259523D01*
X176530142Y-108354761D01*
X176673000Y-108402380D01*
X176911095Y-108402380D01*
X178299971Y-118607735D02*
X178395209Y-118560115D01*
X178538067Y-118560115D01*
X178680924Y-118607735D01*
X178776162Y-118702973D01*
X178823781Y-118798211D01*
X178871400Y-118988687D01*
X178871400Y-119131544D01*
X178823781Y-119322020D01*
X178776162Y-119417258D01*
X178680924Y-119512496D01*
X178538067Y-119560115D01*
X178442828Y-119560115D01*
X178299971Y-119512496D01*
X178252352Y-119464877D01*
X178252352Y-119131544D01*
X178442828Y-119131544D01*
X177823781Y-119560115D02*
X177823781Y-118560115D01*
X177252352Y-119560115D01*
X177252352Y-118560115D01*
X176776162Y-119560115D02*
X176776162Y-118560115D01*
X176538067Y-118560115D01*
X176395209Y-118607735D01*
X176299971Y-118702973D01*
X176252352Y-118798211D01*
X176204733Y-118988687D01*
X176204733Y-119131544D01*
X176252352Y-119322020D01*
X176299971Y-119417258D01*
X176395209Y-119512496D01*
X176538067Y-119560115D01*
X176776162Y-119560115D01*
X134459761Y-134678142D02*
X134507380Y-134725761D01*
X134650238Y-134773380D01*
X134745476Y-134773380D01*
X134888333Y-134725761D01*
X134983571Y-134630523D01*
X135031190Y-134535285D01*
X135078809Y-134344809D01*
X135078809Y-134201952D01*
X135031190Y-134011476D01*
X134983571Y-133916238D01*
X134888333Y-133821000D01*
X134745476Y-133773380D01*
X134650238Y-133773380D01*
X134507380Y-133821000D01*
X134459761Y-133868619D01*
X133602619Y-134773380D02*
X133602619Y-134249571D01*
X133650238Y-134154333D01*
X133745476Y-134106714D01*
X133935952Y-134106714D01*
X134031190Y-134154333D01*
X133602619Y-134725761D02*
X133697857Y-134773380D01*
X133935952Y-134773380D01*
X134031190Y-134725761D01*
X134078809Y-134630523D01*
X134078809Y-134535285D01*
X134031190Y-134440047D01*
X133935952Y-134392428D01*
X133697857Y-134392428D01*
X133602619Y-134344809D01*
X133126428Y-134106714D02*
X133126428Y-135106714D01*
X133126428Y-134154333D02*
X133031190Y-134106714D01*
X132840714Y-134106714D01*
X132745476Y-134154333D01*
X132697857Y-134201952D01*
X132650238Y-134297190D01*
X132650238Y-134582904D01*
X132697857Y-134678142D01*
X132745476Y-134725761D01*
X132840714Y-134773380D01*
X133031190Y-134773380D01*
X133126428Y-134725761D01*
X131793095Y-134773380D02*
X131793095Y-134249571D01*
X131840714Y-134154333D01*
X131935952Y-134106714D01*
X132126428Y-134106714D01*
X132221666Y-134154333D01*
X131793095Y-134725761D02*
X131888333Y-134773380D01*
X132126428Y-134773380D01*
X132221666Y-134725761D01*
X132269285Y-134630523D01*
X132269285Y-134535285D01*
X132221666Y-134440047D01*
X132126428Y-134392428D01*
X131888333Y-134392428D01*
X131793095Y-134344809D01*
X130888333Y-134725761D02*
X130983571Y-134773380D01*
X131174047Y-134773380D01*
X131269285Y-134725761D01*
X131316904Y-134678142D01*
X131364523Y-134582904D01*
X131364523Y-134297190D01*
X131316904Y-134201952D01*
X131269285Y-134154333D01*
X131174047Y-134106714D01*
X130983571Y-134106714D01*
X130888333Y-134154333D01*
X130459761Y-134773380D02*
X130459761Y-134106714D01*
X130459761Y-133773380D02*
X130507380Y-133821000D01*
X130459761Y-133868619D01*
X130412142Y-133821000D01*
X130459761Y-133773380D01*
X130459761Y-133868619D01*
X130126428Y-134106714D02*
X129745476Y-134106714D01*
X129983571Y-133773380D02*
X129983571Y-134630523D01*
X129935952Y-134725761D01*
X129840714Y-134773380D01*
X129745476Y-134773380D01*
X129412142Y-134773380D02*
X129412142Y-134106714D01*
X129412142Y-133773380D02*
X129459761Y-133821000D01*
X129412142Y-133868619D01*
X129364523Y-133821000D01*
X129412142Y-133773380D01*
X129412142Y-133868619D01*
X129031190Y-134106714D02*
X128793095Y-134773380D01*
X128555000Y-134106714D01*
X127793095Y-134725761D02*
X127888333Y-134773380D01*
X128078809Y-134773380D01*
X128174047Y-134725761D01*
X128221666Y-134630523D01*
X128221666Y-134249571D01*
X128174047Y-134154333D01*
X128078809Y-134106714D01*
X127888333Y-134106714D01*
X127793095Y-134154333D01*
X127745476Y-134249571D01*
X127745476Y-134344809D01*
X128221666Y-134440047D01*
X126602619Y-134725761D02*
X126459761Y-134773380D01*
X126221666Y-134773380D01*
X126126428Y-134725761D01*
X126078809Y-134678142D01*
X126031190Y-134582904D01*
X126031190Y-134487666D01*
X126078809Y-134392428D01*
X126126428Y-134344809D01*
X126221666Y-134297190D01*
X126412142Y-134249571D01*
X126507380Y-134201952D01*
X126555000Y-134154333D01*
X126602619Y-134059095D01*
X126602619Y-133963857D01*
X126555000Y-133868619D01*
X126507380Y-133821000D01*
X126412142Y-133773380D01*
X126174047Y-133773380D01*
X126031190Y-133821000D01*
X125221666Y-134725761D02*
X125316904Y-134773380D01*
X125507380Y-134773380D01*
X125602619Y-134725761D01*
X125650238Y-134630523D01*
X125650238Y-134249571D01*
X125602619Y-134154333D01*
X125507380Y-134106714D01*
X125316904Y-134106714D01*
X125221666Y-134154333D01*
X125174047Y-134249571D01*
X125174047Y-134344809D01*
X125650238Y-134440047D01*
X124745476Y-134106714D02*
X124745476Y-134773380D01*
X124745476Y-134201952D02*
X124697857Y-134154333D01*
X124602619Y-134106714D01*
X124459761Y-134106714D01*
X124364523Y-134154333D01*
X124316904Y-134249571D01*
X124316904Y-134773380D01*
X123888333Y-134725761D02*
X123793095Y-134773380D01*
X123602619Y-134773380D01*
X123507380Y-134725761D01*
X123459761Y-134630523D01*
X123459761Y-134582904D01*
X123507380Y-134487666D01*
X123602619Y-134440047D01*
X123745476Y-134440047D01*
X123840714Y-134392428D01*
X123888333Y-134297190D01*
X123888333Y-134249571D01*
X123840714Y-134154333D01*
X123745476Y-134106714D01*
X123602619Y-134106714D01*
X123507380Y-134154333D01*
X122888333Y-134773380D02*
X122983571Y-134725761D01*
X123031190Y-134678142D01*
X123078809Y-134582904D01*
X123078809Y-134297190D01*
X123031190Y-134201952D01*
X122983571Y-134154333D01*
X122888333Y-134106714D01*
X122745476Y-134106714D01*
X122650238Y-134154333D01*
X122602619Y-134201952D01*
X122555000Y-134297190D01*
X122555000Y-134582904D01*
X122602619Y-134678142D01*
X122650238Y-134725761D01*
X122745476Y-134773380D01*
X122888333Y-134773380D01*
X122126428Y-134773380D02*
X122126428Y-134106714D01*
X122126428Y-134297190D02*
X122078809Y-134201952D01*
X122031190Y-134154333D01*
X121935952Y-134106714D01*
X121840714Y-134106714D01*
X120174047Y-134773380D02*
X120507380Y-134297190D01*
X120745476Y-134773380D02*
X120745476Y-133773380D01*
X120364523Y-133773380D01*
X120269285Y-133821000D01*
X120221666Y-133868619D01*
X120174047Y-133963857D01*
X120174047Y-134106714D01*
X120221666Y-134201952D01*
X120269285Y-134249571D01*
X120364523Y-134297190D01*
X120745476Y-134297190D01*
X119364523Y-134725761D02*
X119459761Y-134773380D01*
X119650238Y-134773380D01*
X119745476Y-134725761D01*
X119793095Y-134630523D01*
X119793095Y-134249571D01*
X119745476Y-134154333D01*
X119650238Y-134106714D01*
X119459761Y-134106714D01*
X119364523Y-134154333D01*
X119316904Y-134249571D01*
X119316904Y-134344809D01*
X119793095Y-134440047D01*
X118459761Y-134773380D02*
X118459761Y-134249571D01*
X118507380Y-134154333D01*
X118602619Y-134106714D01*
X118793095Y-134106714D01*
X118888333Y-134154333D01*
X118459761Y-134725761D02*
X118555000Y-134773380D01*
X118793095Y-134773380D01*
X118888333Y-134725761D01*
X118935952Y-134630523D01*
X118935952Y-134535285D01*
X118888333Y-134440047D01*
X118793095Y-134392428D01*
X118555000Y-134392428D01*
X118459761Y-134344809D01*
X117555000Y-134773380D02*
X117555000Y-133773380D01*
X117555000Y-134725761D02*
X117650238Y-134773380D01*
X117840714Y-134773380D01*
X117935952Y-134725761D01*
X117983571Y-134678142D01*
X118031190Y-134582904D01*
X118031190Y-134297190D01*
X117983571Y-134201952D01*
X117935952Y-134154333D01*
X117840714Y-134106714D01*
X117650238Y-134106714D01*
X117555000Y-134154333D01*
X116935952Y-134773380D02*
X117031190Y-134725761D01*
X117078809Y-134678142D01*
X117126428Y-134582904D01*
X117126428Y-134297190D01*
X117078809Y-134201952D01*
X117031190Y-134154333D01*
X116935952Y-134106714D01*
X116793095Y-134106714D01*
X116697857Y-134154333D01*
X116650238Y-134201952D01*
X116602619Y-134297190D01*
X116602619Y-134582904D01*
X116650238Y-134678142D01*
X116697857Y-134725761D01*
X116793095Y-134773380D01*
X116935952Y-134773380D01*
X115745476Y-134106714D02*
X115745476Y-134773380D01*
X116174047Y-134106714D02*
X116174047Y-134630523D01*
X116126428Y-134725761D01*
X116031190Y-134773380D01*
X115888333Y-134773380D01*
X115793095Y-134725761D01*
X115745476Y-134678142D01*
X115412142Y-134106714D02*
X115031190Y-134106714D01*
X115269285Y-133773380D02*
X115269285Y-134630523D01*
X115221666Y-134725761D01*
X115126428Y-134773380D01*
X115031190Y-134773380D01*
X113602619Y-134249571D02*
X113459761Y-134297190D01*
X113412142Y-134344809D01*
X113364523Y-134440047D01*
X113364523Y-134582904D01*
X113412142Y-134678142D01*
X113459761Y-134725761D01*
X113555000Y-134773380D01*
X113935952Y-134773380D01*
X113935952Y-133773380D01*
X113602619Y-133773380D01*
X113507380Y-133821000D01*
X113459761Y-133868619D01*
X113412142Y-133963857D01*
X113412142Y-134059095D01*
X113459761Y-134154333D01*
X113507380Y-134201952D01*
X113602619Y-134249571D01*
X113935952Y-134249571D01*
X112793095Y-134773380D02*
X112888333Y-134725761D01*
X112935952Y-134678142D01*
X112983571Y-134582904D01*
X112983571Y-134297190D01*
X112935952Y-134201952D01*
X112888333Y-134154333D01*
X112793095Y-134106714D01*
X112650238Y-134106714D01*
X112555000Y-134154333D01*
X112507380Y-134201952D01*
X112459761Y-134297190D01*
X112459761Y-134582904D01*
X112507380Y-134678142D01*
X112555000Y-134725761D01*
X112650238Y-134773380D01*
X112793095Y-134773380D01*
X111602619Y-134773380D02*
X111602619Y-134249571D01*
X111650238Y-134154333D01*
X111745476Y-134106714D01*
X111935952Y-134106714D01*
X112031190Y-134154333D01*
X111602619Y-134725761D02*
X111697857Y-134773380D01*
X111935952Y-134773380D01*
X112031190Y-134725761D01*
X112078809Y-134630523D01*
X112078809Y-134535285D01*
X112031190Y-134440047D01*
X111935952Y-134392428D01*
X111697857Y-134392428D01*
X111602619Y-134344809D01*
X111126428Y-134773380D02*
X111126428Y-134106714D01*
X111126428Y-134297190D02*
X111078809Y-134201952D01*
X111031190Y-134154333D01*
X110935952Y-134106714D01*
X110840714Y-134106714D01*
X110078809Y-134773380D02*
X110078809Y-133773380D01*
X110078809Y-134725761D02*
X110174047Y-134773380D01*
X110364523Y-134773380D01*
X110459761Y-134725761D01*
X110507380Y-134678142D01*
X110555000Y-134582904D01*
X110555000Y-134297190D01*
X110507380Y-134201952D01*
X110459761Y-134154333D01*
X110364523Y-134106714D01*
X110174047Y-134106714D01*
X110078809Y-134154333D01*
X131293095Y-135859571D02*
X131150238Y-135907190D01*
X131102619Y-135954809D01*
X131055000Y-136050047D01*
X131055000Y-136192904D01*
X131102619Y-136288142D01*
X131150238Y-136335761D01*
X131245476Y-136383380D01*
X131626428Y-136383380D01*
X131626428Y-135383380D01*
X131293095Y-135383380D01*
X131197857Y-135431000D01*
X131150238Y-135478619D01*
X131102619Y-135573857D01*
X131102619Y-135669095D01*
X131150238Y-135764333D01*
X131197857Y-135811952D01*
X131293095Y-135859571D01*
X131626428Y-135859571D01*
X130197857Y-136383380D02*
X130197857Y-135859571D01*
X130245476Y-135764333D01*
X130340714Y-135716714D01*
X130531190Y-135716714D01*
X130626428Y-135764333D01*
X130197857Y-136335761D02*
X130293095Y-136383380D01*
X130531190Y-136383380D01*
X130626428Y-136335761D01*
X130674047Y-136240523D01*
X130674047Y-136145285D01*
X130626428Y-136050047D01*
X130531190Y-136002428D01*
X130293095Y-136002428D01*
X130197857Y-135954809D01*
X129769285Y-136335761D02*
X129674047Y-136383380D01*
X129483571Y-136383380D01*
X129388333Y-136335761D01*
X129340714Y-136240523D01*
X129340714Y-136192904D01*
X129388333Y-136097666D01*
X129483571Y-136050047D01*
X129626428Y-136050047D01*
X129721666Y-136002428D01*
X129769285Y-135907190D01*
X129769285Y-135859571D01*
X129721666Y-135764333D01*
X129626428Y-135716714D01*
X129483571Y-135716714D01*
X129388333Y-135764333D01*
X128531190Y-136335761D02*
X128626428Y-136383380D01*
X128816904Y-136383380D01*
X128912142Y-136335761D01*
X128959761Y-136240523D01*
X128959761Y-135859571D01*
X128912142Y-135764333D01*
X128816904Y-135716714D01*
X128626428Y-135716714D01*
X128531190Y-135764333D01*
X128483571Y-135859571D01*
X128483571Y-135954809D01*
X128959761Y-136050047D01*
X127626428Y-136383380D02*
X127626428Y-135383380D01*
X127626428Y-136335761D02*
X127721666Y-136383380D01*
X127912142Y-136383380D01*
X128007380Y-136335761D01*
X128055000Y-136288142D01*
X128102619Y-136192904D01*
X128102619Y-135907190D01*
X128055000Y-135811952D01*
X128007380Y-135764333D01*
X127912142Y-135716714D01*
X127721666Y-135716714D01*
X127626428Y-135764333D01*
X126245476Y-136383380D02*
X126340714Y-136335761D01*
X126388333Y-136288142D01*
X126435952Y-136192904D01*
X126435952Y-135907190D01*
X126388333Y-135811952D01*
X126340714Y-135764333D01*
X126245476Y-135716714D01*
X126102619Y-135716714D01*
X126007380Y-135764333D01*
X125959761Y-135811952D01*
X125912142Y-135907190D01*
X125912142Y-136192904D01*
X125959761Y-136288142D01*
X126007380Y-136335761D01*
X126102619Y-136383380D01*
X126245476Y-136383380D01*
X125483571Y-135716714D02*
X125483571Y-136383380D01*
X125483571Y-135811952D02*
X125435952Y-135764333D01*
X125340714Y-135716714D01*
X125197857Y-135716714D01*
X125102619Y-135764333D01*
X125055000Y-135859571D01*
X125055000Y-136383380D01*
X123816904Y-136383380D02*
X123816904Y-135383380D01*
X123435952Y-135383380D01*
X123340714Y-135431000D01*
X123293095Y-135478619D01*
X123245476Y-135573857D01*
X123245476Y-135716714D01*
X123293095Y-135811952D01*
X123340714Y-135859571D01*
X123435952Y-135907190D01*
X123816904Y-135907190D01*
X122245476Y-136288142D02*
X122293095Y-136335761D01*
X122435952Y-136383380D01*
X122531190Y-136383380D01*
X122674047Y-136335761D01*
X122769285Y-136240523D01*
X122816904Y-136145285D01*
X122864523Y-135954809D01*
X122864523Y-135811952D01*
X122816904Y-135621476D01*
X122769285Y-135526238D01*
X122674047Y-135431000D01*
X122531190Y-135383380D01*
X122435952Y-135383380D01*
X122293095Y-135431000D01*
X122245476Y-135478619D01*
X121864523Y-136097666D02*
X121388333Y-136097666D01*
X121959761Y-136383380D02*
X121626428Y-135383380D01*
X121293095Y-136383380D01*
X120959761Y-136383380D02*
X120959761Y-135383380D01*
X120578809Y-135383380D01*
X120483571Y-135431000D01*
X120435952Y-135478619D01*
X120388333Y-135573857D01*
X120388333Y-135716714D01*
X120435952Y-135811952D01*
X120483571Y-135859571D01*
X120578809Y-135907190D01*
X120959761Y-135907190D01*
X119769285Y-135383380D02*
X119674047Y-135383380D01*
X119578809Y-135431000D01*
X119531190Y-135478619D01*
X119483571Y-135573857D01*
X119435952Y-135764333D01*
X119435952Y-136002428D01*
X119483571Y-136192904D01*
X119531190Y-136288142D01*
X119578809Y-136335761D01*
X119674047Y-136383380D01*
X119769285Y-136383380D01*
X119864523Y-136335761D01*
X119912142Y-136288142D01*
X119959761Y-136192904D01*
X120007380Y-136002428D01*
X120007380Y-135764333D01*
X119959761Y-135573857D01*
X119912142Y-135478619D01*
X119864523Y-135431000D01*
X119769285Y-135383380D01*
X118578809Y-135716714D02*
X118578809Y-136383380D01*
X118816904Y-135335761D02*
X119055000Y-136050047D01*
X118435952Y-136050047D01*
X116721666Y-136288142D02*
X116769285Y-136335761D01*
X116912142Y-136383380D01*
X117007380Y-136383380D01*
X117150238Y-136335761D01*
X117245476Y-136240523D01*
X117293095Y-136145285D01*
X117340714Y-135954809D01*
X117340714Y-135811952D01*
X117293095Y-135621476D01*
X117245476Y-135526238D01*
X117150238Y-135431000D01*
X117007380Y-135383380D01*
X116912142Y-135383380D01*
X116769285Y-135431000D01*
X116721666Y-135478619D01*
X116293095Y-136383380D02*
X116293095Y-135383380D01*
X116055000Y-135383380D01*
X115912142Y-135431000D01*
X115816904Y-135526238D01*
X115769285Y-135621476D01*
X115721666Y-135811952D01*
X115721666Y-135954809D01*
X115769285Y-136145285D01*
X115816904Y-136240523D01*
X115912142Y-136335761D01*
X116055000Y-136383380D01*
X116293095Y-136383380D01*
X114721666Y-136288142D02*
X114769285Y-136335761D01*
X114912142Y-136383380D01*
X115007380Y-136383380D01*
X115150238Y-136335761D01*
X115245476Y-136240523D01*
X115293095Y-136145285D01*
X115340714Y-135954809D01*
X115340714Y-135811952D01*
X115293095Y-135621476D01*
X115245476Y-135526238D01*
X115150238Y-135431000D01*
X115007380Y-135383380D01*
X114912142Y-135383380D01*
X114769285Y-135431000D01*
X114721666Y-135478619D01*
X114245476Y-135383380D02*
X114340714Y-135573857D01*
X113864523Y-136335761D02*
X113769285Y-136383380D01*
X113578809Y-136383380D01*
X113483571Y-136335761D01*
X113435952Y-136240523D01*
X113435952Y-136192904D01*
X113483571Y-136097666D01*
X113578809Y-136050047D01*
X113721666Y-136050047D01*
X113816904Y-136002428D01*
X113864523Y-135907190D01*
X113864523Y-135859571D01*
X113816904Y-135764333D01*
X113721666Y-135716714D01*
X113578809Y-135716714D01*
X113483571Y-135764333D01*
X136293095Y-136993380D02*
X136293095Y-137802904D01*
X136245476Y-137898142D01*
X136197857Y-137945761D01*
X136102619Y-137993380D01*
X135912142Y-137993380D01*
X135816904Y-137945761D01*
X135769285Y-137898142D01*
X135721666Y-137802904D01*
X135721666Y-136993380D01*
X135293095Y-137945761D02*
X135197857Y-137993380D01*
X135007380Y-137993380D01*
X134912142Y-137945761D01*
X134864523Y-137850523D01*
X134864523Y-137802904D01*
X134912142Y-137707666D01*
X135007380Y-137660047D01*
X135150238Y-137660047D01*
X135245476Y-137612428D01*
X135293095Y-137517190D01*
X135293095Y-137469571D01*
X135245476Y-137374333D01*
X135150238Y-137326714D01*
X135007380Y-137326714D01*
X134912142Y-137374333D01*
X134435952Y-137993380D02*
X134435952Y-137326714D01*
X134435952Y-136993380D02*
X134483571Y-137041000D01*
X134435952Y-137088619D01*
X134388333Y-137041000D01*
X134435952Y-136993380D01*
X134435952Y-137088619D01*
X133959761Y-137326714D02*
X133959761Y-137993380D01*
X133959761Y-137421952D02*
X133912142Y-137374333D01*
X133816904Y-137326714D01*
X133674047Y-137326714D01*
X133578809Y-137374333D01*
X133531190Y-137469571D01*
X133531190Y-137993380D01*
X132626428Y-137326714D02*
X132626428Y-138136238D01*
X132674047Y-138231476D01*
X132721666Y-138279095D01*
X132816904Y-138326714D01*
X132959761Y-138326714D01*
X133055000Y-138279095D01*
X132626428Y-137945761D02*
X132721666Y-137993380D01*
X132912142Y-137993380D01*
X133007380Y-137945761D01*
X133055000Y-137898142D01*
X133102619Y-137802904D01*
X133102619Y-137517190D01*
X133055000Y-137421952D01*
X133007380Y-137374333D01*
X132912142Y-137326714D01*
X132721666Y-137326714D01*
X132626428Y-137374333D01*
X131388333Y-137469571D02*
X131055000Y-137469571D01*
X130912142Y-137993380D02*
X131388333Y-137993380D01*
X131388333Y-136993380D01*
X130912142Y-136993380D01*
X130531190Y-137945761D02*
X130388333Y-137993380D01*
X130150238Y-137993380D01*
X130055000Y-137945761D01*
X130007380Y-137898142D01*
X129959761Y-137802904D01*
X129959761Y-137707666D01*
X130007380Y-137612428D01*
X130055000Y-137564809D01*
X130150238Y-137517190D01*
X130340714Y-137469571D01*
X130435952Y-137421952D01*
X130483571Y-137374333D01*
X130531190Y-137279095D01*
X130531190Y-137183857D01*
X130483571Y-137088619D01*
X130435952Y-137041000D01*
X130340714Y-136993380D01*
X130102619Y-136993380D01*
X129959761Y-137041000D01*
X129531190Y-137993380D02*
X129531190Y-136993380D01*
X129150238Y-136993380D01*
X129055000Y-137041000D01*
X129007380Y-137088619D01*
X128959761Y-137183857D01*
X128959761Y-137326714D01*
X129007380Y-137421952D01*
X129055000Y-137469571D01*
X129150238Y-137517190D01*
X129531190Y-137517190D01*
X128626428Y-136993380D02*
X128007380Y-136993380D01*
X128340714Y-137374333D01*
X128197857Y-137374333D01*
X128102619Y-137421952D01*
X128055000Y-137469571D01*
X128007380Y-137564809D01*
X128007380Y-137802904D01*
X128055000Y-137898142D01*
X128102619Y-137945761D01*
X128197857Y-137993380D01*
X128483571Y-137993380D01*
X128578809Y-137945761D01*
X128626428Y-137898142D01*
X127626428Y-137088619D02*
X127578809Y-137041000D01*
X127483571Y-136993380D01*
X127245476Y-136993380D01*
X127150238Y-137041000D01*
X127102619Y-137088619D01*
X127055000Y-137183857D01*
X127055000Y-137279095D01*
X127102619Y-137421952D01*
X127674047Y-137993380D01*
X127055000Y-137993380D01*
X126626428Y-137612428D02*
X125864523Y-137612428D01*
X125483571Y-136993380D02*
X125245476Y-137993380D01*
X125055000Y-137279095D01*
X124864523Y-137993380D01*
X124626428Y-136993380D01*
X123674047Y-137993380D02*
X124007380Y-137517190D01*
X124245476Y-137993380D02*
X124245476Y-136993380D01*
X123864523Y-136993380D01*
X123769285Y-137041000D01*
X123721666Y-137088619D01*
X123674047Y-137183857D01*
X123674047Y-137326714D01*
X123721666Y-137421952D01*
X123769285Y-137469571D01*
X123864523Y-137517190D01*
X124245476Y-137517190D01*
X123055000Y-136993380D02*
X122864523Y-136993380D01*
X122769285Y-137041000D01*
X122674047Y-137136238D01*
X122626428Y-137326714D01*
X122626428Y-137660047D01*
X122674047Y-137850523D01*
X122769285Y-137945761D01*
X122864523Y-137993380D01*
X123055000Y-137993380D01*
X123150238Y-137945761D01*
X123245476Y-137850523D01*
X123293095Y-137660047D01*
X123293095Y-137326714D01*
X123245476Y-137136238D01*
X123150238Y-137041000D01*
X123055000Y-136993380D01*
X122007380Y-136993380D02*
X121816904Y-136993380D01*
X121721666Y-137041000D01*
X121626428Y-137136238D01*
X121578809Y-137326714D01*
X121578809Y-137660047D01*
X121626428Y-137850523D01*
X121721666Y-137945761D01*
X121816904Y-137993380D01*
X122007380Y-137993380D01*
X122102619Y-137945761D01*
X122197857Y-137850523D01*
X122245476Y-137660047D01*
X122245476Y-137326714D01*
X122197857Y-137136238D01*
X122102619Y-137041000D01*
X122007380Y-136993380D01*
X121150238Y-137993380D02*
X121150238Y-136993380D01*
X120816904Y-137707666D01*
X120483571Y-136993380D01*
X120483571Y-137993380D01*
X119388333Y-137326714D02*
X119007380Y-137326714D01*
X119245476Y-137993380D02*
X119245476Y-137136238D01*
X119197857Y-137041000D01*
X119102619Y-136993380D01*
X119007380Y-136993380D01*
X118531190Y-137993380D02*
X118626428Y-137945761D01*
X118674047Y-137898142D01*
X118721666Y-137802904D01*
X118721666Y-137517190D01*
X118674047Y-137421952D01*
X118626428Y-137374333D01*
X118531190Y-137326714D01*
X118388333Y-137326714D01*
X118293095Y-137374333D01*
X118245476Y-137421952D01*
X118197857Y-137517190D01*
X118197857Y-137802904D01*
X118245476Y-137898142D01*
X118293095Y-137945761D01*
X118388333Y-137993380D01*
X118531190Y-137993380D01*
X117769285Y-137993380D02*
X117769285Y-137326714D01*
X117769285Y-137517190D02*
X117721666Y-137421952D01*
X117674047Y-137374333D01*
X117578809Y-137326714D01*
X117483571Y-137326714D01*
X116388333Y-137326714D02*
X116388333Y-138326714D01*
X116388333Y-137374333D02*
X116293095Y-137326714D01*
X116102619Y-137326714D01*
X116007380Y-137374333D01*
X115959761Y-137421952D01*
X115912142Y-137517190D01*
X115912142Y-137802904D01*
X115959761Y-137898142D01*
X116007380Y-137945761D01*
X116102619Y-137993380D01*
X116293095Y-137993380D01*
X116388333Y-137945761D01*
X115483571Y-137993380D02*
X115483571Y-137326714D01*
X115483571Y-137517190D02*
X115435952Y-137421952D01*
X115388333Y-137374333D01*
X115293095Y-137326714D01*
X115197857Y-137326714D01*
X114721666Y-137993380D02*
X114816904Y-137945761D01*
X114864523Y-137898142D01*
X114912142Y-137802904D01*
X114912142Y-137517190D01*
X114864523Y-137421952D01*
X114816904Y-137374333D01*
X114721666Y-137326714D01*
X114578809Y-137326714D01*
X114483571Y-137374333D01*
X114435952Y-137421952D01*
X114388333Y-137517190D01*
X114388333Y-137802904D01*
X114435952Y-137898142D01*
X114483571Y-137945761D01*
X114578809Y-137993380D01*
X114721666Y-137993380D01*
X113531190Y-137945761D02*
X113626428Y-137993380D01*
X113816904Y-137993380D01*
X113912142Y-137945761D01*
X113959761Y-137898142D01*
X114007380Y-137802904D01*
X114007380Y-137517190D01*
X113959761Y-137421952D01*
X113912142Y-137374333D01*
X113816904Y-137326714D01*
X113626428Y-137326714D01*
X113531190Y-137374333D01*
X112721666Y-137945761D02*
X112816904Y-137993380D01*
X113007380Y-137993380D01*
X113102619Y-137945761D01*
X113150238Y-137850523D01*
X113150238Y-137469571D01*
X113102619Y-137374333D01*
X113007380Y-137326714D01*
X112816904Y-137326714D01*
X112721666Y-137374333D01*
X112674047Y-137469571D01*
X112674047Y-137564809D01*
X113150238Y-137660047D01*
X112293095Y-137945761D02*
X112197857Y-137993380D01*
X112007380Y-137993380D01*
X111912142Y-137945761D01*
X111864523Y-137850523D01*
X111864523Y-137802904D01*
X111912142Y-137707666D01*
X112007380Y-137660047D01*
X112150238Y-137660047D01*
X112245476Y-137612428D01*
X112293095Y-137517190D01*
X112293095Y-137469571D01*
X112245476Y-137374333D01*
X112150238Y-137326714D01*
X112007380Y-137326714D01*
X111912142Y-137374333D01*
X111483571Y-137945761D02*
X111388333Y-137993380D01*
X111197857Y-137993380D01*
X111102619Y-137945761D01*
X111055000Y-137850523D01*
X111055000Y-137802904D01*
X111102619Y-137707666D01*
X111197857Y-137660047D01*
X111340714Y-137660047D01*
X111435952Y-137612428D01*
X111483571Y-137517190D01*
X111483571Y-137469571D01*
X111435952Y-137374333D01*
X111340714Y-137326714D01*
X111197857Y-137326714D01*
X111102619Y-137374333D01*
X110626428Y-137993380D02*
X110626428Y-137326714D01*
X110626428Y-136993380D02*
X110674047Y-137041000D01*
X110626428Y-137088619D01*
X110578809Y-137041000D01*
X110626428Y-136993380D01*
X110626428Y-137088619D01*
X110150238Y-137326714D02*
X110150238Y-137993380D01*
X110150238Y-137421952D02*
X110102619Y-137374333D01*
X110007380Y-137326714D01*
X109864523Y-137326714D01*
X109769285Y-137374333D01*
X109721666Y-137469571D01*
X109721666Y-137993380D01*
X108816904Y-137326714D02*
X108816904Y-138136238D01*
X108864523Y-138231476D01*
X108912142Y-138279095D01*
X109007380Y-138326714D01*
X109150238Y-138326714D01*
X109245476Y-138279095D01*
X108816904Y-137945761D02*
X108912142Y-137993380D01*
X109102619Y-137993380D01*
X109197857Y-137945761D01*
X109245476Y-137898142D01*
X109293095Y-137802904D01*
X109293095Y-137517190D01*
X109245476Y-137421952D01*
X109197857Y-137374333D01*
X109102619Y-137326714D01*
X108912142Y-137326714D01*
X108816904Y-137374333D01*
X139174047Y-140213380D02*
X139174047Y-141022904D01*
X139126428Y-141118142D01*
X139078809Y-141165761D01*
X138983571Y-141213380D01*
X138793095Y-141213380D01*
X138697857Y-141165761D01*
X138650238Y-141118142D01*
X138602619Y-141022904D01*
X138602619Y-140213380D01*
X138174047Y-141165761D02*
X138078809Y-141213380D01*
X137888333Y-141213380D01*
X137793095Y-141165761D01*
X137745476Y-141070523D01*
X137745476Y-141022904D01*
X137793095Y-140927666D01*
X137888333Y-140880047D01*
X138031190Y-140880047D01*
X138126428Y-140832428D01*
X138174047Y-140737190D01*
X138174047Y-140689571D01*
X138126428Y-140594333D01*
X138031190Y-140546714D01*
X137888333Y-140546714D01*
X137793095Y-140594333D01*
X136935952Y-141165761D02*
X137031190Y-141213380D01*
X137221666Y-141213380D01*
X137316904Y-141165761D01*
X137364523Y-141070523D01*
X137364523Y-140689571D01*
X137316904Y-140594333D01*
X137221666Y-140546714D01*
X137031190Y-140546714D01*
X136935952Y-140594333D01*
X136888333Y-140689571D01*
X136888333Y-140784809D01*
X137364523Y-140880047D01*
X136031190Y-141213380D02*
X136031190Y-140213380D01*
X136031190Y-141165761D02*
X136126428Y-141213380D01*
X136316904Y-141213380D01*
X136412142Y-141165761D01*
X136459761Y-141118142D01*
X136507380Y-141022904D01*
X136507380Y-140737190D01*
X136459761Y-140641952D01*
X136412142Y-140594333D01*
X136316904Y-140546714D01*
X136126428Y-140546714D01*
X136031190Y-140594333D01*
X134935952Y-140546714D02*
X134555000Y-140546714D01*
X134793095Y-141213380D02*
X134793095Y-140356238D01*
X134745476Y-140261000D01*
X134650238Y-140213380D01*
X134555000Y-140213380D01*
X134078809Y-141213380D02*
X134174047Y-141165761D01*
X134221666Y-141118142D01*
X134269285Y-141022904D01*
X134269285Y-140737190D01*
X134221666Y-140641952D01*
X134174047Y-140594333D01*
X134078809Y-140546714D01*
X133935952Y-140546714D01*
X133840714Y-140594333D01*
X133793095Y-140641952D01*
X133745476Y-140737190D01*
X133745476Y-141022904D01*
X133793095Y-141118142D01*
X133840714Y-141165761D01*
X133935952Y-141213380D01*
X134078809Y-141213380D01*
X133316904Y-141213380D02*
X133316904Y-140546714D01*
X133316904Y-140737190D02*
X133269285Y-140641952D01*
X133221666Y-140594333D01*
X133126428Y-140546714D01*
X133031190Y-140546714D01*
X131935952Y-141213380D02*
X131935952Y-140213380D01*
X131602619Y-140927666D01*
X131269285Y-140213380D01*
X131269285Y-141213380D01*
X130793095Y-140689571D02*
X130459761Y-140689571D01*
X130316904Y-141213380D02*
X130793095Y-141213380D01*
X130793095Y-140213380D01*
X130316904Y-140213380D01*
X129888333Y-141213380D02*
X129888333Y-140213380D01*
X129555000Y-140927666D01*
X129221666Y-140213380D01*
X129221666Y-141213380D01*
X128793095Y-141165761D02*
X128650238Y-141213380D01*
X128412142Y-141213380D01*
X128316904Y-141165761D01*
X128269285Y-141118142D01*
X128221666Y-141022904D01*
X128221666Y-140927666D01*
X128269285Y-140832428D01*
X128316904Y-140784809D01*
X128412142Y-140737190D01*
X128602619Y-140689571D01*
X128697857Y-140641952D01*
X128745476Y-140594333D01*
X128793095Y-140499095D01*
X128793095Y-140403857D01*
X128745476Y-140308619D01*
X128697857Y-140261000D01*
X128602619Y-140213380D01*
X128364523Y-140213380D01*
X128221666Y-140261000D01*
X126459761Y-141118142D02*
X126507380Y-141165761D01*
X126650238Y-141213380D01*
X126745476Y-141213380D01*
X126888333Y-141165761D01*
X126983571Y-141070523D01*
X127031190Y-140975285D01*
X127078809Y-140784809D01*
X127078809Y-140641952D01*
X127031190Y-140451476D01*
X126983571Y-140356238D01*
X126888333Y-140261000D01*
X126745476Y-140213380D01*
X126650238Y-140213380D01*
X126507380Y-140261000D01*
X126459761Y-140308619D01*
X125602619Y-141213380D02*
X125602619Y-140689571D01*
X125650238Y-140594333D01*
X125745476Y-140546714D01*
X125935952Y-140546714D01*
X126031190Y-140594333D01*
X125602619Y-141165761D02*
X125697857Y-141213380D01*
X125935952Y-141213380D01*
X126031190Y-141165761D01*
X126078809Y-141070523D01*
X126078809Y-140975285D01*
X126031190Y-140880047D01*
X125935952Y-140832428D01*
X125697857Y-140832428D01*
X125602619Y-140784809D01*
X125126428Y-140546714D02*
X125126428Y-141546714D01*
X125126428Y-140594333D02*
X125031190Y-140546714D01*
X124840714Y-140546714D01*
X124745476Y-140594333D01*
X124697857Y-140641952D01*
X124650238Y-140737190D01*
X124650238Y-141022904D01*
X124697857Y-141118142D01*
X124745476Y-141165761D01*
X124840714Y-141213380D01*
X125031190Y-141213380D01*
X125126428Y-141165761D01*
X123793095Y-141213380D02*
X123793095Y-140689571D01*
X123840714Y-140594333D01*
X123935952Y-140546714D01*
X124126428Y-140546714D01*
X124221666Y-140594333D01*
X123793095Y-141165761D02*
X123888333Y-141213380D01*
X124126428Y-141213380D01*
X124221666Y-141165761D01*
X124269285Y-141070523D01*
X124269285Y-140975285D01*
X124221666Y-140880047D01*
X124126428Y-140832428D01*
X123888333Y-140832428D01*
X123793095Y-140784809D01*
X122888333Y-141165761D02*
X122983571Y-141213380D01*
X123174047Y-141213380D01*
X123269285Y-141165761D01*
X123316904Y-141118142D01*
X123364523Y-141022904D01*
X123364523Y-140737190D01*
X123316904Y-140641952D01*
X123269285Y-140594333D01*
X123174047Y-140546714D01*
X122983571Y-140546714D01*
X122888333Y-140594333D01*
X122459761Y-141213380D02*
X122459761Y-140546714D01*
X122459761Y-140213380D02*
X122507380Y-140261000D01*
X122459761Y-140308619D01*
X122412142Y-140261000D01*
X122459761Y-140213380D01*
X122459761Y-140308619D01*
X122126428Y-140546714D02*
X121745476Y-140546714D01*
X121983571Y-140213380D02*
X121983571Y-141070523D01*
X121935952Y-141165761D01*
X121840714Y-141213380D01*
X121745476Y-141213380D01*
X121412142Y-141213380D02*
X121412142Y-140546714D01*
X121412142Y-140213380D02*
X121459761Y-140261000D01*
X121412142Y-140308619D01*
X121364523Y-140261000D01*
X121412142Y-140213380D01*
X121412142Y-140308619D01*
X121031190Y-140546714D02*
X120793095Y-141213380D01*
X120555000Y-140546714D01*
X119793095Y-141165761D02*
X119888333Y-141213380D01*
X120078809Y-141213380D01*
X120174047Y-141165761D01*
X120221666Y-141070523D01*
X120221666Y-140689571D01*
X120174047Y-140594333D01*
X120078809Y-140546714D01*
X119888333Y-140546714D01*
X119793095Y-140594333D01*
X119745476Y-140689571D01*
X119745476Y-140784809D01*
X120221666Y-140880047D01*
X118555000Y-141213380D02*
X118555000Y-140213380D01*
X118174047Y-140213380D01*
X118078809Y-140261000D01*
X118031190Y-140308619D01*
X117983571Y-140403857D01*
X117983571Y-140546714D01*
X118031190Y-140641952D01*
X118078809Y-140689571D01*
X118174047Y-140737190D01*
X118555000Y-140737190D01*
X117555000Y-141213380D02*
X117555000Y-140546714D01*
X117555000Y-140737190D02*
X117507380Y-140641952D01*
X117459761Y-140594333D01*
X117364523Y-140546714D01*
X117269285Y-140546714D01*
X116555000Y-141165761D02*
X116650238Y-141213380D01*
X116840714Y-141213380D01*
X116935952Y-141165761D01*
X116983571Y-141070523D01*
X116983571Y-140689571D01*
X116935952Y-140594333D01*
X116840714Y-140546714D01*
X116650238Y-140546714D01*
X116555000Y-140594333D01*
X116507380Y-140689571D01*
X116507380Y-140784809D01*
X116983571Y-140880047D01*
X116126428Y-141165761D02*
X116031190Y-141213380D01*
X115840714Y-141213380D01*
X115745476Y-141165761D01*
X115697857Y-141070523D01*
X115697857Y-141022904D01*
X115745476Y-140927666D01*
X115840714Y-140880047D01*
X115983571Y-140880047D01*
X116078809Y-140832428D01*
X116126428Y-140737190D01*
X116126428Y-140689571D01*
X116078809Y-140594333D01*
X115983571Y-140546714D01*
X115840714Y-140546714D01*
X115745476Y-140594333D01*
X115316904Y-141165761D02*
X115221666Y-141213380D01*
X115031190Y-141213380D01*
X114935952Y-141165761D01*
X114888333Y-141070523D01*
X114888333Y-141022904D01*
X114935952Y-140927666D01*
X115031190Y-140880047D01*
X115174047Y-140880047D01*
X115269285Y-140832428D01*
X115316904Y-140737190D01*
X115316904Y-140689571D01*
X115269285Y-140594333D01*
X115174047Y-140546714D01*
X115031190Y-140546714D01*
X114935952Y-140594333D01*
X114031190Y-140546714D02*
X114031190Y-141213380D01*
X114459761Y-140546714D02*
X114459761Y-141070523D01*
X114412142Y-141165761D01*
X114316904Y-141213380D01*
X114174047Y-141213380D01*
X114078809Y-141165761D01*
X114031190Y-141118142D01*
X113555000Y-141213380D02*
X113555000Y-140546714D01*
X113555000Y-140737190D02*
X113507380Y-140641952D01*
X113459761Y-140594333D01*
X113364523Y-140546714D01*
X113269285Y-140546714D01*
X112555000Y-141165761D02*
X112650238Y-141213380D01*
X112840714Y-141213380D01*
X112935952Y-141165761D01*
X112983571Y-141070523D01*
X112983571Y-140689571D01*
X112935952Y-140594333D01*
X112840714Y-140546714D01*
X112650238Y-140546714D01*
X112555000Y-140594333D01*
X112507380Y-140689571D01*
X112507380Y-140784809D01*
X112983571Y-140880047D01*
X111364523Y-141165761D02*
X111221666Y-141213380D01*
X110983571Y-141213380D01*
X110888333Y-141165761D01*
X110840714Y-141118142D01*
X110793095Y-141022904D01*
X110793095Y-140927666D01*
X110840714Y-140832428D01*
X110888333Y-140784809D01*
X110983571Y-140737190D01*
X111174047Y-140689571D01*
X111269285Y-140641952D01*
X111316904Y-140594333D01*
X111364523Y-140499095D01*
X111364523Y-140403857D01*
X111316904Y-140308619D01*
X111269285Y-140261000D01*
X111174047Y-140213380D01*
X110935952Y-140213380D01*
X110793095Y-140261000D01*
X109983571Y-141165761D02*
X110078809Y-141213380D01*
X110269285Y-141213380D01*
X110364523Y-141165761D01*
X110412142Y-141070523D01*
X110412142Y-140689571D01*
X110364523Y-140594333D01*
X110269285Y-140546714D01*
X110078809Y-140546714D01*
X109983571Y-140594333D01*
X109935952Y-140689571D01*
X109935952Y-140784809D01*
X110412142Y-140880047D01*
X109507380Y-140546714D02*
X109507380Y-141213380D01*
X109507380Y-140641952D02*
X109459761Y-140594333D01*
X109364523Y-140546714D01*
X109221666Y-140546714D01*
X109126428Y-140594333D01*
X109078809Y-140689571D01*
X109078809Y-141213380D01*
X108650238Y-141165761D02*
X108555000Y-141213380D01*
X108364523Y-141213380D01*
X108269285Y-141165761D01*
X108221666Y-141070523D01*
X108221666Y-141022904D01*
X108269285Y-140927666D01*
X108364523Y-140880047D01*
X108507380Y-140880047D01*
X108602619Y-140832428D01*
X108650238Y-140737190D01*
X108650238Y-140689571D01*
X108602619Y-140594333D01*
X108507380Y-140546714D01*
X108364523Y-140546714D01*
X108269285Y-140594333D01*
X107650238Y-141213380D02*
X107745476Y-141165761D01*
X107793095Y-141118142D01*
X107840714Y-141022904D01*
X107840714Y-140737190D01*
X107793095Y-140641952D01*
X107745476Y-140594333D01*
X107650238Y-140546714D01*
X107507380Y-140546714D01*
X107412142Y-140594333D01*
X107364523Y-140641952D01*
X107316904Y-140737190D01*
X107316904Y-141022904D01*
X107364523Y-141118142D01*
X107412142Y-141165761D01*
X107507380Y-141213380D01*
X107650238Y-141213380D01*
X106888333Y-141213380D02*
X106888333Y-140546714D01*
X106888333Y-140737190D02*
X106840714Y-140641952D01*
X106793095Y-140594333D01*
X106697857Y-140546714D01*
X106602619Y-140546714D01*
X106316904Y-141165761D02*
X106221666Y-141213380D01*
X106031190Y-141213380D01*
X105935952Y-141165761D01*
X105888333Y-141070523D01*
X105888333Y-141022904D01*
X105935952Y-140927666D01*
X106031190Y-140880047D01*
X106174047Y-140880047D01*
X106269285Y-140832428D01*
X106316904Y-140737190D01*
X106316904Y-140689571D01*
X106269285Y-140594333D01*
X106174047Y-140546714D01*
X106031190Y-140546714D01*
X105935952Y-140594333D01*
X178680952Y-124912380D02*
X178680952Y-123912380D01*
X178300000Y-123912380D01*
X178204761Y-123960000D01*
X178157142Y-124007619D01*
X178109523Y-124102857D01*
X178109523Y-124245714D01*
X178157142Y-124340952D01*
X178204761Y-124388571D01*
X178300000Y-124436190D01*
X178680952Y-124436190D01*
X177680952Y-124531428D02*
X176919047Y-124531428D01*
X177300000Y-124912380D02*
X177300000Y-124150476D01*
X178752142Y-116292380D02*
X178418809Y-117292380D01*
X178085476Y-116292380D01*
X177323571Y-117244761D02*
X177418809Y-117292380D01*
X177609285Y-117292380D01*
X177704523Y-117244761D01*
X177752142Y-117197142D01*
X177799761Y-117101904D01*
X177799761Y-116816190D01*
X177752142Y-116720952D01*
X177704523Y-116673333D01*
X177609285Y-116625714D01*
X177418809Y-116625714D01*
X177323571Y-116673333D01*
X176895000Y-117292380D02*
X176895000Y-116292380D01*
X176466428Y-117292380D02*
X176466428Y-116768571D01*
X176514047Y-116673333D01*
X176609285Y-116625714D01*
X176752142Y-116625714D01*
X176847380Y-116673333D01*
X176895000Y-116720952D01*
X175561666Y-117292380D02*
X175561666Y-116768571D01*
X175609285Y-116673333D01*
X175704523Y-116625714D01*
X175895000Y-116625714D01*
X175990238Y-116673333D01*
X175561666Y-117244761D02*
X175656904Y-117292380D01*
X175895000Y-117292380D01*
X175990238Y-117244761D01*
X176037857Y-117149523D01*
X176037857Y-117054285D01*
X175990238Y-116959047D01*
X175895000Y-116911428D01*
X175656904Y-116911428D01*
X175561666Y-116863809D01*
X175085476Y-117292380D02*
X175085476Y-116625714D01*
X175085476Y-116816190D02*
X175037857Y-116720952D01*
X174990238Y-116673333D01*
X174895000Y-116625714D01*
X174799761Y-116625714D01*
X174037857Y-116625714D02*
X174037857Y-117435238D01*
X174085476Y-117530476D01*
X174133095Y-117578095D01*
X174228333Y-117625714D01*
X174371190Y-117625714D01*
X174466428Y-117578095D01*
X174037857Y-117244761D02*
X174133095Y-117292380D01*
X174323571Y-117292380D01*
X174418809Y-117244761D01*
X174466428Y-117197142D01*
X174514047Y-117101904D01*
X174514047Y-116816190D01*
X174466428Y-116720952D01*
X174418809Y-116673333D01*
X174323571Y-116625714D01*
X174133095Y-116625714D01*
X174037857Y-116673333D01*
X173180714Y-117244761D02*
X173275952Y-117292380D01*
X173466428Y-117292380D01*
X173561666Y-117244761D01*
X173609285Y-117149523D01*
X173609285Y-116768571D01*
X173561666Y-116673333D01*
X173466428Y-116625714D01*
X173275952Y-116625714D01*
X173180714Y-116673333D01*
X173133095Y-116768571D01*
X173133095Y-116863809D01*
X173609285Y-116959047D01*
X178307904Y-121166000D02*
X178403142Y-121118380D01*
X178546000Y-121118380D01*
X178688857Y-121166000D01*
X178784095Y-121261238D01*
X178831714Y-121356476D01*
X178879333Y-121546952D01*
X178879333Y-121689809D01*
X178831714Y-121880285D01*
X178784095Y-121975523D01*
X178688857Y-122070761D01*
X178546000Y-122118380D01*
X178450761Y-122118380D01*
X178307904Y-122070761D01*
X178260285Y-122023142D01*
X178260285Y-121689809D01*
X178450761Y-121689809D01*
X177831714Y-122118380D02*
X177831714Y-121118380D01*
X177260285Y-122118380D01*
X177260285Y-121118380D01*
X176784095Y-122118380D02*
X176784095Y-121118380D01*
X176546000Y-121118380D01*
X176403142Y-121166000D01*
X176307904Y-121261238D01*
X176260285Y-121356476D01*
X176212666Y-121546952D01*
X176212666Y-121689809D01*
X176260285Y-121880285D01*
X176307904Y-121975523D01*
X176403142Y-122070761D01*
X176546000Y-122118380D01*
X176784095Y-122118380D01*
X178799523Y-110069380D02*
X178466190Y-111069380D01*
X178132857Y-110069380D01*
X177370952Y-111021761D02*
X177466190Y-111069380D01*
X177656666Y-111069380D01*
X177751904Y-111021761D01*
X177799523Y-110974142D01*
X177847142Y-110878904D01*
X177847142Y-110593190D01*
X177799523Y-110497952D01*
X177751904Y-110450333D01*
X177656666Y-110402714D01*
X177466190Y-110402714D01*
X177370952Y-110450333D01*
X176942380Y-111069380D02*
X176942380Y-110069380D01*
X176513809Y-111069380D02*
X176513809Y-110545571D01*
X176561428Y-110450333D01*
X176656666Y-110402714D01*
X176799523Y-110402714D01*
X176894761Y-110450333D01*
X176942380Y-110497952D01*
X175609047Y-111069380D02*
X175609047Y-110545571D01*
X175656666Y-110450333D01*
X175751904Y-110402714D01*
X175942380Y-110402714D01*
X176037619Y-110450333D01*
X175609047Y-111021761D02*
X175704285Y-111069380D01*
X175942380Y-111069380D01*
X176037619Y-111021761D01*
X176085238Y-110926523D01*
X176085238Y-110831285D01*
X176037619Y-110736047D01*
X175942380Y-110688428D01*
X175704285Y-110688428D01*
X175609047Y-110640809D01*
X175132857Y-111069380D02*
X175132857Y-110402714D01*
X175132857Y-110593190D02*
X175085238Y-110497952D01*
X175037619Y-110450333D01*
X174942380Y-110402714D01*
X174847142Y-110402714D01*
X174085238Y-110402714D02*
X174085238Y-111212238D01*
X174132857Y-111307476D01*
X174180476Y-111355095D01*
X174275714Y-111402714D01*
X174418571Y-111402714D01*
X174513809Y-111355095D01*
X174085238Y-111021761D02*
X174180476Y-111069380D01*
X174370952Y-111069380D01*
X174466190Y-111021761D01*
X174513809Y-110974142D01*
X174561428Y-110878904D01*
X174561428Y-110593190D01*
X174513809Y-110497952D01*
X174466190Y-110450333D01*
X174370952Y-110402714D01*
X174180476Y-110402714D01*
X174085238Y-110450333D01*
X173228095Y-111021761D02*
X173323333Y-111069380D01*
X173513809Y-111069380D01*
X173609047Y-111021761D01*
X173656666Y-110926523D01*
X173656666Y-110545571D01*
X173609047Y-110450333D01*
X173513809Y-110402714D01*
X173323333Y-110402714D01*
X173228095Y-110450333D01*
X173180476Y-110545571D01*
X173180476Y-110640809D01*
X173656666Y-110736047D01*
X171704285Y-111450333D02*
X171751904Y-111402714D01*
X171847142Y-111259857D01*
X171894761Y-111164619D01*
X171942380Y-111021761D01*
X171990000Y-110783666D01*
X171990000Y-110593190D01*
X171942380Y-110355095D01*
X171894761Y-110212238D01*
X171847142Y-110117000D01*
X171751904Y-109974142D01*
X171704285Y-109926523D01*
X170847142Y-110069380D02*
X171323333Y-110069380D01*
X171370952Y-110545571D01*
X171323333Y-110497952D01*
X171228095Y-110450333D01*
X170990000Y-110450333D01*
X170894761Y-110497952D01*
X170847142Y-110545571D01*
X170799523Y-110640809D01*
X170799523Y-110878904D01*
X170847142Y-110974142D01*
X170894761Y-111021761D01*
X170990000Y-111069380D01*
X171228095Y-111069380D01*
X171323333Y-111021761D01*
X171370952Y-110974142D01*
X170513809Y-110069380D02*
X170180476Y-111069380D01*
X169847142Y-110069380D01*
X169609047Y-111450333D02*
X169561428Y-111402714D01*
X169466190Y-111259857D01*
X169418571Y-111164619D01*
X169370952Y-111021761D01*
X169323333Y-110783666D01*
X169323333Y-110593190D01*
X169370952Y-110355095D01*
X169418571Y-110212238D01*
X169466190Y-110117000D01*
X169561428Y-109974142D01*
X169609047Y-109926523D01*
%TO.C,C28*%
X164965142Y-147550142D02*
X164917523Y-147597761D01*
X164774666Y-147645380D01*
X164679428Y-147645380D01*
X164536571Y-147597761D01*
X164441333Y-147502523D01*
X164393714Y-147407285D01*
X164346095Y-147216809D01*
X164346095Y-147073952D01*
X164393714Y-146883476D01*
X164441333Y-146788238D01*
X164536571Y-146693000D01*
X164679428Y-146645380D01*
X164774666Y-146645380D01*
X164917523Y-146693000D01*
X164965142Y-146740619D01*
X165346095Y-146740619D02*
X165393714Y-146693000D01*
X165488952Y-146645380D01*
X165727047Y-146645380D01*
X165822285Y-146693000D01*
X165869904Y-146740619D01*
X165917523Y-146835857D01*
X165917523Y-146931095D01*
X165869904Y-147073952D01*
X165298476Y-147645380D01*
X165917523Y-147645380D01*
X166488952Y-147073952D02*
X166393714Y-147026333D01*
X166346095Y-146978714D01*
X166298476Y-146883476D01*
X166298476Y-146835857D01*
X166346095Y-146740619D01*
X166393714Y-146693000D01*
X166488952Y-146645380D01*
X166679428Y-146645380D01*
X166774666Y-146693000D01*
X166822285Y-146740619D01*
X166869904Y-146835857D01*
X166869904Y-146883476D01*
X166822285Y-146978714D01*
X166774666Y-147026333D01*
X166679428Y-147073952D01*
X166488952Y-147073952D01*
X166393714Y-147121571D01*
X166346095Y-147169190D01*
X166298476Y-147264428D01*
X166298476Y-147454904D01*
X166346095Y-147550142D01*
X166393714Y-147597761D01*
X166488952Y-147645380D01*
X166679428Y-147645380D01*
X166774666Y-147597761D01*
X166822285Y-147550142D01*
X166869904Y-147454904D01*
X166869904Y-147264428D01*
X166822285Y-147169190D01*
X166774666Y-147121571D01*
X166679428Y-147073952D01*
%TO.C,J1*%
X143969333Y-79432380D02*
X143969333Y-80146666D01*
X144016952Y-80289523D01*
X144112190Y-80384761D01*
X144255047Y-80432380D01*
X144350285Y-80432380D01*
X142969333Y-80432380D02*
X143540761Y-80432380D01*
X143255047Y-80432380D02*
X143255047Y-79432380D01*
X143350285Y-79575238D01*
X143445523Y-79670476D01*
X143540761Y-79718095D01*
%TO.C,C25*%
X164965142Y-144502142D02*
X164917523Y-144549761D01*
X164774666Y-144597380D01*
X164679428Y-144597380D01*
X164536571Y-144549761D01*
X164441333Y-144454523D01*
X164393714Y-144359285D01*
X164346095Y-144168809D01*
X164346095Y-144025952D01*
X164393714Y-143835476D01*
X164441333Y-143740238D01*
X164536571Y-143645000D01*
X164679428Y-143597380D01*
X164774666Y-143597380D01*
X164917523Y-143645000D01*
X164965142Y-143692619D01*
X165346095Y-143692619D02*
X165393714Y-143645000D01*
X165488952Y-143597380D01*
X165727047Y-143597380D01*
X165822285Y-143645000D01*
X165869904Y-143692619D01*
X165917523Y-143787857D01*
X165917523Y-143883095D01*
X165869904Y-144025952D01*
X165298476Y-144597380D01*
X165917523Y-144597380D01*
X166822285Y-143597380D02*
X166346095Y-143597380D01*
X166298476Y-144073571D01*
X166346095Y-144025952D01*
X166441333Y-143978333D01*
X166679428Y-143978333D01*
X166774666Y-144025952D01*
X166822285Y-144073571D01*
X166869904Y-144168809D01*
X166869904Y-144406904D01*
X166822285Y-144502142D01*
X166774666Y-144549761D01*
X166679428Y-144597380D01*
X166441333Y-144597380D01*
X166346095Y-144549761D01*
X166298476Y-144502142D01*
%TO.C,C23*%
X156837142Y-147550142D02*
X156789523Y-147597761D01*
X156646666Y-147645380D01*
X156551428Y-147645380D01*
X156408571Y-147597761D01*
X156313333Y-147502523D01*
X156265714Y-147407285D01*
X156218095Y-147216809D01*
X156218095Y-147073952D01*
X156265714Y-146883476D01*
X156313333Y-146788238D01*
X156408571Y-146693000D01*
X156551428Y-146645380D01*
X156646666Y-146645380D01*
X156789523Y-146693000D01*
X156837142Y-146740619D01*
X157218095Y-146740619D02*
X157265714Y-146693000D01*
X157360952Y-146645380D01*
X157599047Y-146645380D01*
X157694285Y-146693000D01*
X157741904Y-146740619D01*
X157789523Y-146835857D01*
X157789523Y-146931095D01*
X157741904Y-147073952D01*
X157170476Y-147645380D01*
X157789523Y-147645380D01*
X158122857Y-146645380D02*
X158741904Y-146645380D01*
X158408571Y-147026333D01*
X158551428Y-147026333D01*
X158646666Y-147073952D01*
X158694285Y-147121571D01*
X158741904Y-147216809D01*
X158741904Y-147454904D01*
X158694285Y-147550142D01*
X158646666Y-147597761D01*
X158551428Y-147645380D01*
X158265714Y-147645380D01*
X158170476Y-147597761D01*
X158122857Y-147550142D01*
%TO.C,J6*%
X180800333Y-131195380D02*
X180800333Y-131909666D01*
X180847952Y-132052523D01*
X180943190Y-132147761D01*
X181086047Y-132195380D01*
X181181285Y-132195380D01*
X179895571Y-131195380D02*
X180086047Y-131195380D01*
X180181285Y-131243000D01*
X180228904Y-131290619D01*
X180324142Y-131433476D01*
X180371761Y-131623952D01*
X180371761Y-132004904D01*
X180324142Y-132100142D01*
X180276523Y-132147761D01*
X180181285Y-132195380D01*
X179990809Y-132195380D01*
X179895571Y-132147761D01*
X179847952Y-132100142D01*
X179800333Y-132004904D01*
X179800333Y-131766809D01*
X179847952Y-131671571D01*
X179895571Y-131623952D01*
X179990809Y-131576333D01*
X180181285Y-131576333D01*
X180276523Y-131623952D01*
X180324142Y-131671571D01*
X180371761Y-131766809D01*
%TO.C,C21*%
X156837142Y-144502142D02*
X156789523Y-144549761D01*
X156646666Y-144597380D01*
X156551428Y-144597380D01*
X156408571Y-144549761D01*
X156313333Y-144454523D01*
X156265714Y-144359285D01*
X156218095Y-144168809D01*
X156218095Y-144025952D01*
X156265714Y-143835476D01*
X156313333Y-143740238D01*
X156408571Y-143645000D01*
X156551428Y-143597380D01*
X156646666Y-143597380D01*
X156789523Y-143645000D01*
X156837142Y-143692619D01*
X157218095Y-143692619D02*
X157265714Y-143645000D01*
X157360952Y-143597380D01*
X157599047Y-143597380D01*
X157694285Y-143645000D01*
X157741904Y-143692619D01*
X157789523Y-143787857D01*
X157789523Y-143883095D01*
X157741904Y-144025952D01*
X157170476Y-144597380D01*
X157789523Y-144597380D01*
X158741904Y-144597380D02*
X158170476Y-144597380D01*
X158456190Y-144597380D02*
X158456190Y-143597380D01*
X158360952Y-143740238D01*
X158265714Y-143835476D01*
X158170476Y-143883095D01*
%TO.C,C18*%
X147693142Y-147456142D02*
X147645523Y-147503761D01*
X147502666Y-147551380D01*
X147407428Y-147551380D01*
X147264571Y-147503761D01*
X147169333Y-147408523D01*
X147121714Y-147313285D01*
X147074095Y-147122809D01*
X147074095Y-146979952D01*
X147121714Y-146789476D01*
X147169333Y-146694238D01*
X147264571Y-146599000D01*
X147407428Y-146551380D01*
X147502666Y-146551380D01*
X147645523Y-146599000D01*
X147693142Y-146646619D01*
X148645523Y-147551380D02*
X148074095Y-147551380D01*
X148359809Y-147551380D02*
X148359809Y-146551380D01*
X148264571Y-146694238D01*
X148169333Y-146789476D01*
X148074095Y-146837095D01*
X149216952Y-146979952D02*
X149121714Y-146932333D01*
X149074095Y-146884714D01*
X149026476Y-146789476D01*
X149026476Y-146741857D01*
X149074095Y-146646619D01*
X149121714Y-146599000D01*
X149216952Y-146551380D01*
X149407428Y-146551380D01*
X149502666Y-146599000D01*
X149550285Y-146646619D01*
X149597904Y-146741857D01*
X149597904Y-146789476D01*
X149550285Y-146884714D01*
X149502666Y-146932333D01*
X149407428Y-146979952D01*
X149216952Y-146979952D01*
X149121714Y-147027571D01*
X149074095Y-147075190D01*
X149026476Y-147170428D01*
X149026476Y-147360904D01*
X149074095Y-147456142D01*
X149121714Y-147503761D01*
X149216952Y-147551380D01*
X149407428Y-147551380D01*
X149502666Y-147503761D01*
X149550285Y-147456142D01*
X149597904Y-147360904D01*
X149597904Y-147170428D01*
X149550285Y-147075190D01*
X149502666Y-147027571D01*
X149407428Y-146979952D01*
%TO.C,C29*%
X160901142Y-144502142D02*
X160853523Y-144549761D01*
X160710666Y-144597380D01*
X160615428Y-144597380D01*
X160472571Y-144549761D01*
X160377333Y-144454523D01*
X160329714Y-144359285D01*
X160282095Y-144168809D01*
X160282095Y-144025952D01*
X160329714Y-143835476D01*
X160377333Y-143740238D01*
X160472571Y-143645000D01*
X160615428Y-143597380D01*
X160710666Y-143597380D01*
X160853523Y-143645000D01*
X160901142Y-143692619D01*
X161282095Y-143692619D02*
X161329714Y-143645000D01*
X161424952Y-143597380D01*
X161663047Y-143597380D01*
X161758285Y-143645000D01*
X161805904Y-143692619D01*
X161853523Y-143787857D01*
X161853523Y-143883095D01*
X161805904Y-144025952D01*
X161234476Y-144597380D01*
X161853523Y-144597380D01*
X162329714Y-144597380D02*
X162520190Y-144597380D01*
X162615428Y-144549761D01*
X162663047Y-144502142D01*
X162758285Y-144359285D01*
X162805904Y-144168809D01*
X162805904Y-143787857D01*
X162758285Y-143692619D01*
X162710666Y-143645000D01*
X162615428Y-143597380D01*
X162424952Y-143597380D01*
X162329714Y-143645000D01*
X162282095Y-143692619D01*
X162234476Y-143787857D01*
X162234476Y-144025952D01*
X162282095Y-144121190D01*
X162329714Y-144168809D01*
X162424952Y-144216428D01*
X162615428Y-144216428D01*
X162710666Y-144168809D01*
X162758285Y-144121190D01*
X162805904Y-144025952D01*
%TO.C,C24*%
X151757142Y-147456142D02*
X151709523Y-147503761D01*
X151566666Y-147551380D01*
X151471428Y-147551380D01*
X151328571Y-147503761D01*
X151233333Y-147408523D01*
X151185714Y-147313285D01*
X151138095Y-147122809D01*
X151138095Y-146979952D01*
X151185714Y-146789476D01*
X151233333Y-146694238D01*
X151328571Y-146599000D01*
X151471428Y-146551380D01*
X151566666Y-146551380D01*
X151709523Y-146599000D01*
X151757142Y-146646619D01*
X152138095Y-146646619D02*
X152185714Y-146599000D01*
X152280952Y-146551380D01*
X152519047Y-146551380D01*
X152614285Y-146599000D01*
X152661904Y-146646619D01*
X152709523Y-146741857D01*
X152709523Y-146837095D01*
X152661904Y-146979952D01*
X152090476Y-147551380D01*
X152709523Y-147551380D01*
X153566666Y-146884714D02*
X153566666Y-147551380D01*
X153328571Y-146503761D02*
X153090476Y-147218047D01*
X153709523Y-147218047D01*
%TO.C,C16*%
X147693142Y-144408142D02*
X147645523Y-144455761D01*
X147502666Y-144503380D01*
X147407428Y-144503380D01*
X147264571Y-144455761D01*
X147169333Y-144360523D01*
X147121714Y-144265285D01*
X147074095Y-144074809D01*
X147074095Y-143931952D01*
X147121714Y-143741476D01*
X147169333Y-143646238D01*
X147264571Y-143551000D01*
X147407428Y-143503380D01*
X147502666Y-143503380D01*
X147645523Y-143551000D01*
X147693142Y-143598619D01*
X148645523Y-144503380D02*
X148074095Y-144503380D01*
X148359809Y-144503380D02*
X148359809Y-143503380D01*
X148264571Y-143646238D01*
X148169333Y-143741476D01*
X148074095Y-143789095D01*
X149502666Y-143503380D02*
X149312190Y-143503380D01*
X149216952Y-143551000D01*
X149169333Y-143598619D01*
X149074095Y-143741476D01*
X149026476Y-143931952D01*
X149026476Y-144312904D01*
X149074095Y-144408142D01*
X149121714Y-144455761D01*
X149216952Y-144503380D01*
X149407428Y-144503380D01*
X149502666Y-144455761D01*
X149550285Y-144408142D01*
X149597904Y-144312904D01*
X149597904Y-144074809D01*
X149550285Y-143979571D01*
X149502666Y-143931952D01*
X149407428Y-143884333D01*
X149216952Y-143884333D01*
X149121714Y-143931952D01*
X149074095Y-143979571D01*
X149026476Y-144074809D01*
%TO.C,C15*%
X143629142Y-144408142D02*
X143581523Y-144455761D01*
X143438666Y-144503380D01*
X143343428Y-144503380D01*
X143200571Y-144455761D01*
X143105333Y-144360523D01*
X143057714Y-144265285D01*
X143010095Y-144074809D01*
X143010095Y-143931952D01*
X143057714Y-143741476D01*
X143105333Y-143646238D01*
X143200571Y-143551000D01*
X143343428Y-143503380D01*
X143438666Y-143503380D01*
X143581523Y-143551000D01*
X143629142Y-143598619D01*
X144581523Y-144503380D02*
X144010095Y-144503380D01*
X144295809Y-144503380D02*
X144295809Y-143503380D01*
X144200571Y-143646238D01*
X144105333Y-143741476D01*
X144010095Y-143789095D01*
X145486285Y-143503380D02*
X145010095Y-143503380D01*
X144962476Y-143979571D01*
X145010095Y-143931952D01*
X145105333Y-143884333D01*
X145343428Y-143884333D01*
X145438666Y-143931952D01*
X145486285Y-143979571D01*
X145533904Y-144074809D01*
X145533904Y-144312904D01*
X145486285Y-144408142D01*
X145438666Y-144455761D01*
X145343428Y-144503380D01*
X145105333Y-144503380D01*
X145010095Y-144455761D01*
X144962476Y-144408142D01*
%TO.C,C20*%
X151757142Y-144408142D02*
X151709523Y-144455761D01*
X151566666Y-144503380D01*
X151471428Y-144503380D01*
X151328571Y-144455761D01*
X151233333Y-144360523D01*
X151185714Y-144265285D01*
X151138095Y-144074809D01*
X151138095Y-143931952D01*
X151185714Y-143741476D01*
X151233333Y-143646238D01*
X151328571Y-143551000D01*
X151471428Y-143503380D01*
X151566666Y-143503380D01*
X151709523Y-143551000D01*
X151757142Y-143598619D01*
X152138095Y-143598619D02*
X152185714Y-143551000D01*
X152280952Y-143503380D01*
X152519047Y-143503380D01*
X152614285Y-143551000D01*
X152661904Y-143598619D01*
X152709523Y-143693857D01*
X152709523Y-143789095D01*
X152661904Y-143931952D01*
X152090476Y-144503380D01*
X152709523Y-144503380D01*
X153328571Y-143503380D02*
X153423809Y-143503380D01*
X153519047Y-143551000D01*
X153566666Y-143598619D01*
X153614285Y-143693857D01*
X153661904Y-143884333D01*
X153661904Y-144122428D01*
X153614285Y-144312904D01*
X153566666Y-144408142D01*
X153519047Y-144455761D01*
X153423809Y-144503380D01*
X153328571Y-144503380D01*
X153233333Y-144455761D01*
X153185714Y-144408142D01*
X153138095Y-144312904D01*
X153090476Y-144122428D01*
X153090476Y-143884333D01*
X153138095Y-143693857D01*
X153185714Y-143598619D01*
X153233333Y-143551000D01*
X153328571Y-143503380D01*
%TO.C,C27*%
X160901142Y-147550142D02*
X160853523Y-147597761D01*
X160710666Y-147645380D01*
X160615428Y-147645380D01*
X160472571Y-147597761D01*
X160377333Y-147502523D01*
X160329714Y-147407285D01*
X160282095Y-147216809D01*
X160282095Y-147073952D01*
X160329714Y-146883476D01*
X160377333Y-146788238D01*
X160472571Y-146693000D01*
X160615428Y-146645380D01*
X160710666Y-146645380D01*
X160853523Y-146693000D01*
X160901142Y-146740619D01*
X161282095Y-146740619D02*
X161329714Y-146693000D01*
X161424952Y-146645380D01*
X161663047Y-146645380D01*
X161758285Y-146693000D01*
X161805904Y-146740619D01*
X161853523Y-146835857D01*
X161853523Y-146931095D01*
X161805904Y-147073952D01*
X161234476Y-147645380D01*
X161853523Y-147645380D01*
X162186857Y-146645380D02*
X162853523Y-146645380D01*
X162424952Y-147645380D01*
%TO.C,C19*%
X143629142Y-147456142D02*
X143581523Y-147503761D01*
X143438666Y-147551380D01*
X143343428Y-147551380D01*
X143200571Y-147503761D01*
X143105333Y-147408523D01*
X143057714Y-147313285D01*
X143010095Y-147122809D01*
X143010095Y-146979952D01*
X143057714Y-146789476D01*
X143105333Y-146694238D01*
X143200571Y-146599000D01*
X143343428Y-146551380D01*
X143438666Y-146551380D01*
X143581523Y-146599000D01*
X143629142Y-146646619D01*
X144581523Y-147551380D02*
X144010095Y-147551380D01*
X144295809Y-147551380D02*
X144295809Y-146551380D01*
X144200571Y-146694238D01*
X144105333Y-146789476D01*
X144010095Y-146837095D01*
X145057714Y-147551380D02*
X145248190Y-147551380D01*
X145343428Y-147503761D01*
X145391047Y-147456142D01*
X145486285Y-147313285D01*
X145533904Y-147122809D01*
X145533904Y-146741857D01*
X145486285Y-146646619D01*
X145438666Y-146599000D01*
X145343428Y-146551380D01*
X145152952Y-146551380D01*
X145057714Y-146599000D01*
X145010095Y-146646619D01*
X144962476Y-146741857D01*
X144962476Y-146979952D01*
X145010095Y-147075190D01*
X145057714Y-147122809D01*
X145152952Y-147170428D01*
X145343428Y-147170428D01*
X145438666Y-147122809D01*
X145486285Y-147075190D01*
X145533904Y-146979952D01*
%TO.C,C26*%
X168521142Y-147296142D02*
X168473523Y-147343761D01*
X168330666Y-147391380D01*
X168235428Y-147391380D01*
X168092571Y-147343761D01*
X167997333Y-147248523D01*
X167949714Y-147153285D01*
X167902095Y-146962809D01*
X167902095Y-146819952D01*
X167949714Y-146629476D01*
X167997333Y-146534238D01*
X168092571Y-146439000D01*
X168235428Y-146391380D01*
X168330666Y-146391380D01*
X168473523Y-146439000D01*
X168521142Y-146486619D01*
X168902095Y-146486619D02*
X168949714Y-146439000D01*
X169044952Y-146391380D01*
X169283047Y-146391380D01*
X169378285Y-146439000D01*
X169425904Y-146486619D01*
X169473523Y-146581857D01*
X169473523Y-146677095D01*
X169425904Y-146819952D01*
X168854476Y-147391380D01*
X169473523Y-147391380D01*
X170330666Y-146391380D02*
X170140190Y-146391380D01*
X170044952Y-146439000D01*
X169997333Y-146486619D01*
X169902095Y-146629476D01*
X169854476Y-146819952D01*
X169854476Y-147200904D01*
X169902095Y-147296142D01*
X169949714Y-147343761D01*
X170044952Y-147391380D01*
X170235428Y-147391380D01*
X170330666Y-147343761D01*
X170378285Y-147296142D01*
X170425904Y-147200904D01*
X170425904Y-146962809D01*
X170378285Y-146867571D01*
X170330666Y-146819952D01*
X170235428Y-146772333D01*
X170044952Y-146772333D01*
X169949714Y-146819952D01*
X169902095Y-146867571D01*
X169854476Y-146962809D01*
%TO.C,J7*%
X180825333Y-104862380D02*
X180825333Y-105576666D01*
X180872952Y-105719523D01*
X180968190Y-105814761D01*
X181111047Y-105862380D01*
X181206285Y-105862380D01*
X180444380Y-104862380D02*
X179777714Y-104862380D01*
X180206285Y-105862380D01*
D11*
%TO.C,C28*%
X165754267Y-146179000D02*
X165461733Y-146179000D01*
X165754267Y-145159000D02*
X165461733Y-145159000D01*
%TO.C,J1*%
X182486000Y-83530000D02*
X104786000Y-83530000D01*
X104786000Y-83530000D02*
X104786000Y-104430000D01*
X104786000Y-104430000D02*
X182486000Y-104430000D01*
X182486000Y-104430000D02*
X182486000Y-83530000D01*
%TO.C,C25*%
X165754267Y-143131000D02*
X165461733Y-143131000D01*
X165754267Y-142111000D02*
X165461733Y-142111000D01*
%TO.C,G\u002A\u002A\u002A*%
G36*
X114817262Y-127168022D02*
G01*
X113613251Y-127168022D01*
X113613251Y-126909468D01*
X114523977Y-126909468D01*
X114523977Y-125477775D01*
X114817262Y-125477775D01*
X114817262Y-127168022D01*
G37*
G36*
X110295472Y-126059521D02*
G01*
X110296635Y-126641267D01*
X110305342Y-126674068D01*
X110309333Y-126687961D01*
X110327452Y-126734114D01*
X110351720Y-126775731D01*
X110381924Y-126812616D01*
X110417853Y-126844570D01*
X110459296Y-126871398D01*
X110506040Y-126892902D01*
X110557873Y-126908886D01*
X110565678Y-126910716D01*
X110628695Y-126921231D01*
X110692546Y-126924571D01*
X110755654Y-126920643D01*
X110793260Y-126914737D01*
X110847418Y-126900946D01*
X110896415Y-126881653D01*
X110940095Y-126857011D01*
X110978299Y-126827170D01*
X111010871Y-126792284D01*
X111037652Y-126752505D01*
X111058486Y-126707985D01*
X111073215Y-126658876D01*
X111081682Y-126605330D01*
X111081883Y-126602738D01*
X111082441Y-126590105D01*
X111082959Y-126570100D01*
X111083437Y-126542977D01*
X111083871Y-126508994D01*
X111084261Y-126468408D01*
X111084605Y-126421473D01*
X111084900Y-126368448D01*
X111085146Y-126309588D01*
X111085340Y-126245150D01*
X111085481Y-126175390D01*
X111085567Y-126100565D01*
X111085596Y-126020931D01*
X111085600Y-125477775D01*
X111375212Y-125477775D01*
X111374095Y-126076887D01*
X111374002Y-126128996D01*
X111373872Y-126205432D01*
X111373751Y-126274792D01*
X111373624Y-126337469D01*
X111373474Y-126393857D01*
X111373286Y-126444349D01*
X111373044Y-126489338D01*
X111372732Y-126529219D01*
X111372335Y-126564383D01*
X111371837Y-126595225D01*
X111371223Y-126622137D01*
X111370475Y-126645514D01*
X111369580Y-126665749D01*
X111368520Y-126683235D01*
X111367281Y-126698365D01*
X111365846Y-126711532D01*
X111364200Y-126723131D01*
X111362327Y-126733555D01*
X111360212Y-126743196D01*
X111357838Y-126752449D01*
X111355190Y-126761706D01*
X111352252Y-126771361D01*
X111349009Y-126781807D01*
X111345444Y-126793439D01*
X111333733Y-126828643D01*
X111313090Y-126877145D01*
X111288109Y-126921186D01*
X111257796Y-126962441D01*
X111221156Y-127002581D01*
X111189404Y-127032206D01*
X111154303Y-127059683D01*
X111116343Y-127083776D01*
X111073094Y-127106185D01*
X111039368Y-127121145D01*
X110974536Y-127144383D01*
X110906399Y-127161728D01*
X110833769Y-127173515D01*
X110816481Y-127175222D01*
X110787430Y-127177060D01*
X110753717Y-127178327D01*
X110717097Y-127179019D01*
X110679322Y-127179136D01*
X110642145Y-127178675D01*
X110607320Y-127177634D01*
X110576600Y-127176012D01*
X110551739Y-127173807D01*
X110502405Y-127166773D01*
X110430465Y-127151493D01*
X110363659Y-127130924D01*
X110302123Y-127105166D01*
X110245991Y-127074317D01*
X110195398Y-127038478D01*
X110150477Y-126997748D01*
X110111364Y-126952226D01*
X110078193Y-126902013D01*
X110051098Y-126847207D01*
X110030214Y-126787909D01*
X110028742Y-126782845D01*
X110025920Y-126773304D01*
X110023359Y-126764590D01*
X110021045Y-126756314D01*
X110018965Y-126748086D01*
X110017105Y-126739520D01*
X110015452Y-126730226D01*
X110013992Y-126719816D01*
X110012714Y-126707902D01*
X110011602Y-126694095D01*
X110010645Y-126678008D01*
X110009828Y-126659251D01*
X110009139Y-126637437D01*
X110008563Y-126612177D01*
X110008089Y-126583082D01*
X110007702Y-126549765D01*
X110007389Y-126511836D01*
X110007138Y-126468908D01*
X110006934Y-126420593D01*
X110006765Y-126366501D01*
X110006616Y-126306244D01*
X110006476Y-126239435D01*
X110006330Y-126165685D01*
X110006166Y-126084605D01*
X110004892Y-125477775D01*
X110294310Y-125477775D01*
X110295472Y-126059521D01*
G37*
G36*
X117436910Y-125463878D02*
G01*
X117491974Y-125467575D01*
X117543382Y-125474061D01*
X117589946Y-125483318D01*
X117630480Y-125495327D01*
X117637800Y-125498044D01*
X117683011Y-125518169D01*
X117727252Y-125543325D01*
X117769174Y-125572495D01*
X117807428Y-125604663D01*
X117840664Y-125638811D01*
X117867531Y-125673922D01*
X117892820Y-125718447D01*
X117913903Y-125769561D01*
X117929368Y-125824434D01*
X117939060Y-125882127D01*
X117942824Y-125941698D01*
X117940503Y-126002207D01*
X117931941Y-126062715D01*
X117923451Y-126098651D01*
X117905043Y-126150980D01*
X117880379Y-126198820D01*
X117849524Y-126242095D01*
X117812546Y-126280729D01*
X117769510Y-126314646D01*
X117720484Y-126343768D01*
X117665535Y-126368020D01*
X117635518Y-126378147D01*
X117596067Y-126389004D01*
X117549610Y-126399642D01*
X117496007Y-126410086D01*
X117435114Y-126420366D01*
X117366788Y-126430507D01*
X117290887Y-126440539D01*
X117269692Y-126443230D01*
X117232722Y-126448187D01*
X117201831Y-126452811D01*
X117175947Y-126457343D01*
X117154000Y-126462024D01*
X117134919Y-126467095D01*
X117117634Y-126472797D01*
X117101073Y-126479371D01*
X117084166Y-126487057D01*
X117068611Y-126495010D01*
X117038663Y-126514447D01*
X117015499Y-126536281D01*
X116998611Y-126560951D01*
X116988045Y-126582773D01*
X116980607Y-126603438D01*
X116975896Y-126625019D01*
X116973427Y-126649748D01*
X116972712Y-126679857D01*
X116972973Y-126701456D01*
X116974103Y-126722391D01*
X116976290Y-126739013D01*
X116979711Y-126753178D01*
X116983482Y-126764642D01*
X116999976Y-126800360D01*
X117022214Y-126830965D01*
X117050389Y-126856687D01*
X117084693Y-126877754D01*
X117110463Y-126889613D01*
X117145987Y-126902319D01*
X117183584Y-126911461D01*
X117224549Y-126917270D01*
X117270176Y-126919974D01*
X117321759Y-126919803D01*
X117327692Y-126919624D01*
X117385818Y-126916088D01*
X117437526Y-126909371D01*
X117483467Y-126899257D01*
X117524293Y-126885531D01*
X117560656Y-126867978D01*
X117593209Y-126846382D01*
X117622603Y-126820529D01*
X117633666Y-126808893D01*
X117661645Y-126772575D01*
X117682445Y-126733458D01*
X117696113Y-126691433D01*
X117702702Y-126646390D01*
X117703144Y-126640217D01*
X117704498Y-126625578D01*
X117705947Y-126614636D01*
X117707247Y-126609396D01*
X117707278Y-126609362D01*
X117711801Y-126608841D01*
X117722960Y-126608778D01*
X117739732Y-126609117D01*
X117761098Y-126609806D01*
X117786036Y-126610791D01*
X117813526Y-126612019D01*
X117842546Y-126613436D01*
X117872077Y-126614988D01*
X117901097Y-126616621D01*
X117928586Y-126618283D01*
X117953522Y-126619920D01*
X117974886Y-126621478D01*
X117991655Y-126622903D01*
X118002811Y-126624142D01*
X118007331Y-126625142D01*
X118008062Y-126629813D01*
X118007489Y-126640731D01*
X118005763Y-126656411D01*
X118003101Y-126675426D01*
X117999719Y-126696349D01*
X117995834Y-126717752D01*
X117991663Y-126738209D01*
X117987422Y-126756291D01*
X117970076Y-126813321D01*
X117947096Y-126867927D01*
X117918619Y-126918221D01*
X117884035Y-126965280D01*
X117842731Y-127010176D01*
X117835795Y-127016878D01*
X117794519Y-127051981D01*
X117749354Y-127082510D01*
X117699785Y-127108675D01*
X117645299Y-127130692D01*
X117585378Y-127148773D01*
X117519509Y-127163131D01*
X117447177Y-127173980D01*
X117439987Y-127174763D01*
X117414659Y-127176579D01*
X117382527Y-127177711D01*
X117343298Y-127178169D01*
X117296675Y-127177960D01*
X117270495Y-127177643D01*
X117242011Y-127177139D01*
X117218784Y-127176446D01*
X117199419Y-127175470D01*
X117182519Y-127174116D01*
X117166691Y-127172290D01*
X117150539Y-127169897D01*
X117132667Y-127166842D01*
X117101100Y-127160765D01*
X117042029Y-127146400D01*
X116988887Y-127128953D01*
X116940736Y-127107989D01*
X116896641Y-127083070D01*
X116855664Y-127053760D01*
X116816870Y-127019622D01*
X116808625Y-127011507D01*
X116771532Y-126970138D01*
X116741019Y-126926808D01*
X116716698Y-126880674D01*
X116698179Y-126830896D01*
X116685072Y-126776629D01*
X116676988Y-126717032D01*
X116675837Y-126702723D01*
X116674387Y-126640932D01*
X116678631Y-126580924D01*
X116688409Y-126523711D01*
X116703559Y-126470308D01*
X116723920Y-126421728D01*
X116727167Y-126415363D01*
X116753590Y-126371437D01*
X116784922Y-126331985D01*
X116821424Y-126296857D01*
X116863356Y-126265904D01*
X116910976Y-126238977D01*
X116964544Y-126215926D01*
X117024321Y-126196601D01*
X117090567Y-126180853D01*
X117163539Y-126168532D01*
X117177857Y-126166529D01*
X117238149Y-126157945D01*
X117291429Y-126150068D01*
X117338237Y-126142793D01*
X117379113Y-126136014D01*
X117414598Y-126129622D01*
X117445232Y-126123513D01*
X117471557Y-126117580D01*
X117494111Y-126111716D01*
X117513436Y-126105815D01*
X117530072Y-126099770D01*
X117544560Y-126093475D01*
X117567144Y-126080744D01*
X117593241Y-126060462D01*
X117614950Y-126037016D01*
X117630606Y-126011983D01*
X117639506Y-125989331D01*
X117647042Y-125952649D01*
X117647659Y-125912665D01*
X117641352Y-125869465D01*
X117631528Y-125840134D01*
X117614355Y-125811487D01*
X117590718Y-125785904D01*
X117561091Y-125763805D01*
X117525950Y-125745609D01*
X117485767Y-125731736D01*
X117479577Y-125730111D01*
X117468206Y-125727573D01*
X117456407Y-125725739D01*
X117442724Y-125724495D01*
X117425698Y-125723727D01*
X117403871Y-125723322D01*
X117375785Y-125723166D01*
X117371826Y-125723159D01*
X117343644Y-125723254D01*
X117321394Y-125723695D01*
X117303489Y-125724591D01*
X117288340Y-125726051D01*
X117274361Y-125728183D01*
X117259963Y-125731097D01*
X117230133Y-125738761D01*
X117189041Y-125753220D01*
X117152302Y-125770970D01*
X117120977Y-125791473D01*
X117096125Y-125814193D01*
X117083561Y-125829953D01*
X117064919Y-125861531D01*
X117050049Y-125898051D01*
X117039468Y-125938136D01*
X117033694Y-125980411D01*
X117031177Y-126014178D01*
X117011495Y-126014232D01*
X117011320Y-126014232D01*
X117003501Y-126014053D01*
X116989632Y-126013558D01*
X116970771Y-126012797D01*
X116947976Y-126011819D01*
X116922306Y-126010676D01*
X116894819Y-126009417D01*
X116866575Y-126008092D01*
X116838631Y-126006752D01*
X116812046Y-126005447D01*
X116787880Y-126004227D01*
X116767189Y-126003142D01*
X116751034Y-126002242D01*
X116740472Y-126001578D01*
X116736562Y-126001199D01*
X116736528Y-126001150D01*
X116736620Y-125996638D01*
X116737744Y-125986235D01*
X116739662Y-125971558D01*
X116742136Y-125954225D01*
X116744928Y-125935854D01*
X116747799Y-125918063D01*
X116750511Y-125902469D01*
X116752827Y-125890689D01*
X116762459Y-125852218D01*
X116783600Y-125790549D01*
X116810588Y-125733751D01*
X116843242Y-125682006D01*
X116881383Y-125635498D01*
X116924831Y-125594408D01*
X116973407Y-125558922D01*
X117026931Y-125529220D01*
X117085223Y-125505488D01*
X117148103Y-125487907D01*
X117148286Y-125487866D01*
X117203828Y-125477345D01*
X117261649Y-125469703D01*
X117320560Y-125464924D01*
X117379377Y-125462988D01*
X117436910Y-125463878D01*
G37*
G36*
X128432237Y-127333944D02*
G01*
X128364623Y-127398591D01*
X128298136Y-127462139D01*
X128232998Y-127524376D01*
X128169430Y-127585090D01*
X128107655Y-127644068D01*
X128047894Y-127701098D01*
X127990370Y-127755966D01*
X127935303Y-127808462D01*
X127882917Y-127858371D01*
X127833432Y-127905483D01*
X127787072Y-127949583D01*
X127744057Y-127990461D01*
X127704610Y-128027903D01*
X127668953Y-128061696D01*
X127637307Y-128091629D01*
X127609894Y-128117489D01*
X127586937Y-128139063D01*
X127568658Y-128156140D01*
X127555277Y-128168506D01*
X127547017Y-128175949D01*
X127544101Y-128178256D01*
X127543968Y-128177977D01*
X127542053Y-128171310D01*
X127539579Y-128159575D01*
X127537048Y-128145123D01*
X127532561Y-128116953D01*
X127596410Y-128054865D01*
X127607136Y-128044385D01*
X127624044Y-128027645D01*
X127638385Y-128013168D01*
X127649408Y-128001724D01*
X127656364Y-127994086D01*
X127658504Y-127991022D01*
X127657296Y-127990629D01*
X127649705Y-127989144D01*
X127636133Y-127986872D01*
X127617687Y-127983988D01*
X127595475Y-127980668D01*
X127570605Y-127977088D01*
X127484460Y-127964907D01*
X127443430Y-127883961D01*
X127402400Y-127803016D01*
X127362924Y-127882032D01*
X127356635Y-127894603D01*
X127345856Y-127916065D01*
X127336501Y-127934587D01*
X127329073Y-127949177D01*
X127324076Y-127958843D01*
X127322014Y-127962591D01*
X127321322Y-127962814D01*
X127314777Y-127964086D01*
X127302410Y-127966202D01*
X127285530Y-127968959D01*
X127265442Y-127972157D01*
X127243456Y-127975593D01*
X127220877Y-127979066D01*
X127199014Y-127982374D01*
X127179175Y-127985315D01*
X127162665Y-127987689D01*
X127150794Y-127989292D01*
X127144867Y-127989923D01*
X127145311Y-127991069D01*
X127150172Y-127996743D01*
X127159447Y-128006515D01*
X127172419Y-128019651D01*
X127188375Y-128035422D01*
X127206599Y-128053095D01*
X127272190Y-128116147D01*
X127257310Y-128203792D01*
X127254876Y-128218268D01*
X127251010Y-128241899D01*
X127247815Y-128262260D01*
X127245455Y-128278270D01*
X127244092Y-128288843D01*
X127243889Y-128292897D01*
X127244883Y-128292691D01*
X127251502Y-128289802D01*
X127263459Y-128284002D01*
X127279766Y-128275787D01*
X127299435Y-128265650D01*
X127321480Y-128254084D01*
X127332010Y-128248534D01*
X127353346Y-128237417D01*
X127372001Y-128227868D01*
X127386943Y-128220405D01*
X127397142Y-128215548D01*
X127401567Y-128213813D01*
X127404215Y-128214603D01*
X127412571Y-128218188D01*
X127424535Y-128223815D01*
X127438201Y-128230540D01*
X127451662Y-128237418D01*
X127463012Y-128243507D01*
X127470343Y-128247861D01*
X127470229Y-128248558D01*
X127468947Y-128250398D01*
X127466347Y-128253472D01*
X127462315Y-128257891D01*
X127456735Y-128263767D01*
X127449492Y-128271211D01*
X127440471Y-128280332D01*
X127429557Y-128291243D01*
X127416634Y-128304053D01*
X127401588Y-128318874D01*
X127384303Y-128335816D01*
X127364665Y-128354990D01*
X127342558Y-128376507D01*
X127317867Y-128400479D01*
X127309950Y-128408149D01*
X127290476Y-128427015D01*
X127260272Y-128456226D01*
X127227139Y-128488223D01*
X127190961Y-128523118D01*
X127151623Y-128561021D01*
X127109011Y-128602042D01*
X127063009Y-128646293D01*
X127013502Y-128693885D01*
X126960375Y-128744928D01*
X126903513Y-128799532D01*
X126842801Y-128857810D01*
X126778123Y-128919871D01*
X126709365Y-128985827D01*
X126636411Y-129055788D01*
X126559147Y-129129865D01*
X126477456Y-129208169D01*
X126391225Y-129290811D01*
X126300337Y-129377902D01*
X126204678Y-129469552D01*
X126104133Y-129565872D01*
X125998587Y-129666974D01*
X125887924Y-129772967D01*
X125772029Y-129883963D01*
X125650787Y-130000072D01*
X125524083Y-130121406D01*
X125482181Y-130161526D01*
X125426851Y-130214487D01*
X125373192Y-130265831D01*
X125321464Y-130315308D01*
X125271928Y-130362671D01*
X125224844Y-130407671D01*
X125180471Y-130450061D01*
X125139069Y-130489592D01*
X125100900Y-130526017D01*
X125066222Y-130559086D01*
X125035296Y-130588552D01*
X125008382Y-130614167D01*
X124985739Y-130635682D01*
X124967629Y-130652850D01*
X124954311Y-130665422D01*
X124946045Y-130673150D01*
X124943091Y-130675786D01*
X124942769Y-130675093D01*
X124939876Y-130668485D01*
X124934038Y-130655023D01*
X124925324Y-130634869D01*
X124913806Y-130608188D01*
X124899554Y-130575144D01*
X124882638Y-130535899D01*
X124863129Y-130490619D01*
X124841097Y-130439466D01*
X124816612Y-130382604D01*
X124789745Y-130320197D01*
X124760566Y-130252409D01*
X124729146Y-130179404D01*
X124695554Y-130101345D01*
X124659862Y-130018395D01*
X124622139Y-129930720D01*
X124582456Y-129838482D01*
X124540884Y-129741845D01*
X124497493Y-129640972D01*
X124452353Y-129536029D01*
X124405534Y-129427178D01*
X124357107Y-129314583D01*
X124307143Y-129198407D01*
X124255711Y-129078816D01*
X124202882Y-128955971D01*
X124148727Y-128830038D01*
X124093316Y-128701179D01*
X124036719Y-128569559D01*
X123979006Y-128435341D01*
X123920249Y-128298689D01*
X123860516Y-128159767D01*
X123799880Y-128018738D01*
X123738410Y-127875766D01*
X123676176Y-127731015D01*
X123613249Y-127584649D01*
X123549699Y-127436831D01*
X123485597Y-127287725D01*
X123421013Y-127137495D01*
X123356017Y-126986305D01*
X123290680Y-126834318D01*
X123225073Y-126681697D01*
X123159264Y-126528608D01*
X123093326Y-126375213D01*
X123027328Y-126221676D01*
X122961341Y-126068161D01*
X122895435Y-125914832D01*
X122829680Y-125761852D01*
X122764147Y-125609386D01*
X122698906Y-125457596D01*
X122634028Y-125306647D01*
X122569583Y-125156702D01*
X122505641Y-125007925D01*
X122442273Y-124860480D01*
X122379549Y-124714531D01*
X122317540Y-124570241D01*
X122256315Y-124427773D01*
X122195946Y-124287293D01*
X122136502Y-124148963D01*
X122078054Y-124012947D01*
X122020673Y-123879409D01*
X121964428Y-123748513D01*
X121909390Y-123620422D01*
X121855630Y-123495301D01*
X121803218Y-123373312D01*
X121752225Y-123254619D01*
X121702720Y-123139388D01*
X121654774Y-123027780D01*
X121608457Y-122919960D01*
X121563840Y-122816091D01*
X121520993Y-122716338D01*
X121479987Y-122620863D01*
X121440892Y-122529832D01*
X121403779Y-122443407D01*
X121368716Y-122361752D01*
X121335776Y-122285031D01*
X121305029Y-122213407D01*
X121276544Y-122147045D01*
X121250393Y-122086108D01*
X121226645Y-122030760D01*
X121205371Y-121981165D01*
X121186642Y-121937486D01*
X121170527Y-121899887D01*
X121157098Y-121868531D01*
X121146423Y-121843583D01*
X121138575Y-121825207D01*
X121136452Y-121820215D01*
X121147890Y-121820215D01*
X121148626Y-121821396D01*
X121153219Y-121828431D01*
X121161943Y-121841689D01*
X121174713Y-121861040D01*
X121191442Y-121886354D01*
X121212045Y-121917502D01*
X121236436Y-121954354D01*
X121264529Y-121996780D01*
X121296238Y-122044650D01*
X121331476Y-122097836D01*
X121370159Y-122156208D01*
X121412199Y-122219635D01*
X121457511Y-122287989D01*
X121506010Y-122361139D01*
X121557608Y-122438957D01*
X121612220Y-122521312D01*
X121669760Y-122608075D01*
X121730142Y-122699116D01*
X121793281Y-122794306D01*
X121859089Y-122893515D01*
X121927481Y-122996613D01*
X121998372Y-123103471D01*
X122071675Y-123213960D01*
X122147304Y-123327949D01*
X122225173Y-123445309D01*
X122305197Y-123565910D01*
X122387289Y-123689624D01*
X122471363Y-123816319D01*
X122557333Y-123945867D01*
X122645114Y-124078138D01*
X122734619Y-124213002D01*
X122825762Y-124350330D01*
X122918458Y-124489992D01*
X123012621Y-124631859D01*
X123108163Y-124775800D01*
X123205001Y-124921687D01*
X123303046Y-125069390D01*
X123402215Y-125218778D01*
X123502420Y-125369723D01*
X123553151Y-125446142D01*
X123653188Y-125596831D01*
X123752235Y-125746028D01*
X123850204Y-125893600D01*
X123947005Y-126039413D01*
X124042550Y-126183334D01*
X124136751Y-126325228D01*
X124229518Y-126464964D01*
X124320764Y-126602407D01*
X124410400Y-126737423D01*
X124498336Y-126869880D01*
X124584485Y-126999643D01*
X124668758Y-127126580D01*
X124751065Y-127250557D01*
X124831320Y-127371441D01*
X124909433Y-127489097D01*
X124985314Y-127603393D01*
X125058877Y-127714195D01*
X125130032Y-127821369D01*
X125198690Y-127924783D01*
X125264764Y-128024302D01*
X125328163Y-128119794D01*
X125388801Y-128211124D01*
X125446587Y-128298160D01*
X125501434Y-128380767D01*
X125553253Y-128458813D01*
X125601955Y-128532164D01*
X125647452Y-128600686D01*
X125689655Y-128664246D01*
X125728475Y-128722710D01*
X125763825Y-128775946D01*
X125795614Y-128823819D01*
X125823755Y-128866196D01*
X125848160Y-128902944D01*
X125868738Y-128933929D01*
X125885403Y-128959018D01*
X125898064Y-128978077D01*
X125906634Y-128990973D01*
X125911024Y-128997572D01*
X125964010Y-129077062D01*
X126351310Y-128408107D01*
X126401189Y-128408107D01*
X126467136Y-128472074D01*
X126533083Y-128536040D01*
X126517789Y-128622622D01*
X126515410Y-128636222D01*
X126511408Y-128659782D01*
X126508108Y-128680114D01*
X126505679Y-128696125D01*
X126504290Y-128706725D01*
X126504111Y-128710822D01*
X126505299Y-128710577D01*
X126512230Y-128707584D01*
X126524461Y-128701692D01*
X126541013Y-128693392D01*
X126560904Y-128683169D01*
X126583152Y-128671512D01*
X126595017Y-128665254D01*
X126616231Y-128654135D01*
X126634601Y-128644598D01*
X126649135Y-128637154D01*
X126658839Y-128632313D01*
X126662723Y-128630586D01*
X126663841Y-128631014D01*
X126670706Y-128634336D01*
X126682895Y-128640520D01*
X126699409Y-128649053D01*
X126719250Y-128659419D01*
X126741421Y-128671106D01*
X126752497Y-128676954D01*
X126773691Y-128688064D01*
X126792090Y-128697600D01*
X126806691Y-128705049D01*
X126816489Y-128709895D01*
X126820481Y-128711625D01*
X126820704Y-128711572D01*
X126821603Y-128707547D01*
X126820758Y-128699084D01*
X126820701Y-128698765D01*
X126819262Y-128690619D01*
X126816755Y-128676387D01*
X126813429Y-128657480D01*
X126809533Y-128635311D01*
X126805314Y-128611291D01*
X126792103Y-128536040D01*
X126858099Y-128472095D01*
X126924094Y-128408149D01*
X126833182Y-128395313D01*
X126742269Y-128382476D01*
X126702675Y-128301039D01*
X126663082Y-128219602D01*
X126622656Y-128301073D01*
X126582231Y-128382545D01*
X126401189Y-128408107D01*
X126351310Y-128408107D01*
X126765979Y-127691879D01*
X126802842Y-127628205D01*
X126857666Y-127533494D01*
X126911414Y-127440629D01*
X126963959Y-127349829D01*
X127015173Y-127261314D01*
X127030494Y-127234831D01*
X127623513Y-127234831D01*
X127754591Y-127360455D01*
X127739711Y-127447775D01*
X127737315Y-127461970D01*
X127733438Y-127485581D01*
X127730236Y-127505932D01*
X127727871Y-127521939D01*
X127726507Y-127532515D01*
X127726309Y-127536575D01*
X127727406Y-127536339D01*
X127734204Y-127533399D01*
X127746334Y-127527584D01*
X127762811Y-127519380D01*
X127782649Y-127509276D01*
X127804863Y-127497758D01*
X127816202Y-127491846D01*
X127837518Y-127480825D01*
X127856048Y-127471366D01*
X127870781Y-127463979D01*
X127880707Y-127459172D01*
X127884816Y-127457455D01*
X127886059Y-127457887D01*
X127893162Y-127461215D01*
X127905572Y-127467400D01*
X127922279Y-127475929D01*
X127942273Y-127486288D01*
X127964546Y-127497967D01*
X127975833Y-127503904D01*
X127997064Y-127514988D01*
X128015493Y-127524500D01*
X128030116Y-127531929D01*
X128039930Y-127536762D01*
X128043932Y-127538486D01*
X128044995Y-127537351D01*
X128044450Y-127531733D01*
X128044197Y-127530730D01*
X128042623Y-127522930D01*
X128040066Y-127509129D01*
X128036747Y-127490557D01*
X128032887Y-127468447D01*
X128028707Y-127444028D01*
X128014982Y-127363077D01*
X128143180Y-127234711D01*
X128103246Y-127228546D01*
X128088252Y-127226275D01*
X128064023Y-127222713D01*
X128038322Y-127219029D01*
X128014687Y-127215736D01*
X127966063Y-127209091D01*
X127925463Y-127127783D01*
X127884862Y-127046475D01*
X127844259Y-127127610D01*
X127803657Y-127208745D01*
X127742463Y-127217574D01*
X127733137Y-127218920D01*
X127709263Y-127222370D01*
X127686368Y-127225684D01*
X127666670Y-127228540D01*
X127652392Y-127230617D01*
X127623513Y-127234831D01*
X127030494Y-127234831D01*
X127064931Y-127175303D01*
X127113104Y-127092016D01*
X127159567Y-127011674D01*
X127204191Y-126934494D01*
X127246851Y-126860698D01*
X127287420Y-126790504D01*
X127325770Y-126724133D01*
X127361774Y-126661805D01*
X127395306Y-126603738D01*
X127426239Y-126550153D01*
X127454445Y-126501269D01*
X127479799Y-126457307D01*
X127502172Y-126418484D01*
X127521438Y-126385023D01*
X127535144Y-126361188D01*
X127631925Y-126361188D01*
X127632514Y-126364171D01*
X127636020Y-126369360D01*
X127642978Y-126377379D01*
X127653923Y-126388851D01*
X127669389Y-126404397D01*
X127689911Y-126424642D01*
X127754181Y-126487731D01*
X127739433Y-126575273D01*
X127737029Y-126589678D01*
X127733195Y-126613275D01*
X127730026Y-126633590D01*
X127727685Y-126649542D01*
X127726333Y-126660051D01*
X127726132Y-126664035D01*
X127727514Y-126663640D01*
X127734718Y-126660366D01*
X127747194Y-126654232D01*
X127763974Y-126645726D01*
X127784087Y-126635336D01*
X127806563Y-126623551D01*
X127885548Y-126581847D01*
X127904968Y-126592745D01*
X127911569Y-126596374D01*
X127925473Y-126603851D01*
X127943470Y-126613413D01*
X127963959Y-126624209D01*
X127985339Y-126635390D01*
X127999014Y-126642490D01*
X128017169Y-126651754D01*
X128029911Y-126657902D01*
X128038114Y-126661271D01*
X128042648Y-126662197D01*
X128044385Y-126661016D01*
X128044197Y-126658062D01*
X128043952Y-126656915D01*
X128042359Y-126648508D01*
X128039769Y-126634141D01*
X128036409Y-126615087D01*
X128032503Y-126592624D01*
X128028277Y-126568025D01*
X128014451Y-126487066D01*
X128079401Y-126424673D01*
X128094019Y-126410602D01*
X128111105Y-126393993D01*
X128123509Y-126381593D01*
X128131786Y-126372756D01*
X128136490Y-126366833D01*
X128138175Y-126363179D01*
X128137395Y-126361147D01*
X128134703Y-126360088D01*
X128129067Y-126359051D01*
X128116698Y-126357052D01*
X128099375Y-126354392D01*
X128078529Y-126351292D01*
X128055594Y-126347971D01*
X128035519Y-126345079D01*
X128014133Y-126341943D01*
X127996008Y-126339225D01*
X127982606Y-126337146D01*
X127975386Y-126335925D01*
X127971173Y-126334569D01*
X127966195Y-126330856D01*
X127960780Y-126323772D01*
X127954027Y-126312090D01*
X127945035Y-126294585D01*
X127937892Y-126280380D01*
X127931088Y-126267036D01*
X127926226Y-126257716D01*
X127924050Y-126253864D01*
X127920993Y-126253761D01*
X127911682Y-126254674D01*
X127897717Y-126256523D01*
X127880699Y-126259114D01*
X127838729Y-126265866D01*
X127821987Y-126300023D01*
X127820678Y-126302681D01*
X127819052Y-126305809D01*
X127812528Y-126318357D01*
X127806212Y-126328316D01*
X127800798Y-126333819D01*
X127795354Y-126336133D01*
X127789041Y-126337182D01*
X127776237Y-126339114D01*
X127758531Y-126341689D01*
X127737338Y-126344701D01*
X127714071Y-126347944D01*
X127691966Y-126351029D01*
X127670875Y-126354039D01*
X127653291Y-126356619D01*
X127640592Y-126358566D01*
X127634161Y-126359677D01*
X127633719Y-126359789D01*
X127631925Y-126361188D01*
X127535144Y-126361188D01*
X127537471Y-126357141D01*
X127550143Y-126335059D01*
X127559327Y-126318997D01*
X127564896Y-126309174D01*
X127566724Y-126305809D01*
X127563771Y-126303711D01*
X127554346Y-126297078D01*
X127538922Y-126286253D01*
X127517662Y-126271351D01*
X127490727Y-126252484D01*
X127458280Y-126229767D01*
X127420482Y-126203312D01*
X127377497Y-126173234D01*
X127329485Y-126139644D01*
X127276610Y-126102656D01*
X127219034Y-126062385D01*
X127156918Y-126018942D01*
X127090425Y-125972442D01*
X127019717Y-125922998D01*
X126944956Y-125870722D01*
X126866305Y-125815729D01*
X126783925Y-125758132D01*
X126697978Y-125698044D01*
X126608628Y-125635578D01*
X126516035Y-125570848D01*
X126420363Y-125503967D01*
X126321773Y-125435048D01*
X126220427Y-125364205D01*
X126116488Y-125291551D01*
X126010118Y-125217199D01*
X125901479Y-125141263D01*
X125790733Y-125063855D01*
X125678042Y-124985090D01*
X125563569Y-124905081D01*
X125447475Y-124823941D01*
X125329923Y-124741782D01*
X125211076Y-124658720D01*
X125091094Y-124574866D01*
X124970140Y-124490335D01*
X124848378Y-124405239D01*
X124725967Y-124319691D01*
X124603072Y-124233807D01*
X124479853Y-124147697D01*
X124356474Y-124061477D01*
X124233096Y-123975258D01*
X124109881Y-123889156D01*
X123986992Y-123803282D01*
X123864591Y-123717750D01*
X123742840Y-123632673D01*
X123621901Y-123548166D01*
X123501936Y-123464340D01*
X123383107Y-123381310D01*
X123265578Y-123299189D01*
X123149509Y-123218090D01*
X123035063Y-123138126D01*
X122922402Y-123059411D01*
X122811688Y-122982058D01*
X122703084Y-122906180D01*
X122596752Y-122831891D01*
X122492853Y-122759304D01*
X122391550Y-122688533D01*
X122293006Y-122619690D01*
X122197381Y-122552889D01*
X122104840Y-122488244D01*
X122015542Y-122425867D01*
X121929652Y-122365872D01*
X121847330Y-122308373D01*
X121768740Y-122253482D01*
X121694043Y-122201313D01*
X121623401Y-122151979D01*
X121556977Y-122105594D01*
X121494933Y-122062271D01*
X121437430Y-122022123D01*
X121384632Y-121985264D01*
X121336700Y-121951807D01*
X121293796Y-121921864D01*
X121256083Y-121895551D01*
X121223723Y-121872979D01*
X121196878Y-121854263D01*
X121175710Y-121839515D01*
X121160381Y-121828848D01*
X121151054Y-121822377D01*
X121147890Y-121820215D01*
X121136452Y-121820215D01*
X121133623Y-121813565D01*
X121131638Y-121808822D01*
X121131247Y-121806718D01*
X121133958Y-121803999D01*
X121135760Y-121804771D01*
X121144159Y-121808625D01*
X121159262Y-121815648D01*
X121180908Y-121825762D01*
X121208937Y-121838892D01*
X121243187Y-121854962D01*
X121283497Y-121873897D01*
X121329706Y-121895619D01*
X121381653Y-121920053D01*
X121439177Y-121947123D01*
X121502118Y-121976753D01*
X121570314Y-122008867D01*
X121643604Y-122043389D01*
X121721828Y-122080242D01*
X121804823Y-122119352D01*
X121892430Y-122160641D01*
X121984487Y-122204034D01*
X122080834Y-122249455D01*
X122181308Y-122296828D01*
X122285750Y-122346077D01*
X122393998Y-122397125D01*
X122505892Y-122449897D01*
X122621270Y-122504317D01*
X122739971Y-122560309D01*
X122861834Y-122617796D01*
X122986699Y-122676704D01*
X123114404Y-122736954D01*
X123244789Y-122798473D01*
X123377692Y-122861183D01*
X123512952Y-122925009D01*
X123650408Y-122989875D01*
X123789900Y-123055704D01*
X123931267Y-123122421D01*
X124074346Y-123189949D01*
X124218978Y-123258213D01*
X124365002Y-123327137D01*
X124512256Y-123396644D01*
X124660579Y-123466659D01*
X124809811Y-123537105D01*
X124959790Y-123607907D01*
X125110355Y-123678989D01*
X125261346Y-123750274D01*
X125412602Y-123821686D01*
X125563961Y-123893150D01*
X125715262Y-123964590D01*
X125866345Y-124035928D01*
X126017048Y-124107091D01*
X126167211Y-124178001D01*
X126316672Y-124248582D01*
X126465271Y-124318758D01*
X126612846Y-124388454D01*
X126759237Y-124457594D01*
X126904283Y-124526100D01*
X127047822Y-124593899D01*
X127189693Y-124660912D01*
X127329736Y-124727065D01*
X127467789Y-124792281D01*
X127603693Y-124856484D01*
X127737284Y-124919599D01*
X127868403Y-124981549D01*
X127996889Y-125042258D01*
X128122581Y-125101651D01*
X128245317Y-125159651D01*
X128364936Y-125216182D01*
X128481279Y-125271168D01*
X128594182Y-125324534D01*
X128703487Y-125376202D01*
X128809031Y-125426098D01*
X128910654Y-125474145D01*
X129008194Y-125520267D01*
X129101491Y-125564388D01*
X129190384Y-125606433D01*
X129274711Y-125646324D01*
X129354312Y-125683987D01*
X129429026Y-125719345D01*
X129498692Y-125752321D01*
X129563148Y-125782841D01*
X129622234Y-125810828D01*
X129675788Y-125836206D01*
X129723651Y-125858899D01*
X129765660Y-125878831D01*
X129801654Y-125895926D01*
X129831474Y-125910108D01*
X129854957Y-125921301D01*
X129871943Y-125929429D01*
X129882271Y-125934415D01*
X129885780Y-125936185D01*
X129885685Y-125936378D01*
X129881926Y-125940458D01*
X129872859Y-125949601D01*
X129858704Y-125963595D01*
X129839685Y-125982226D01*
X129816024Y-126005284D01*
X129787941Y-126032554D01*
X129755659Y-126063826D01*
X129719400Y-126098885D01*
X129679386Y-126137521D01*
X129635838Y-126179519D01*
X129588979Y-126224669D01*
X129539030Y-126272757D01*
X129486214Y-126323571D01*
X129445020Y-126363179D01*
X129430752Y-126376898D01*
X129372867Y-126432526D01*
X129312779Y-126490243D01*
X129250711Y-126549836D01*
X129186886Y-126611093D01*
X129121524Y-126673800D01*
X129054848Y-126737746D01*
X128987080Y-126802719D01*
X128918441Y-126868505D01*
X128849154Y-126934892D01*
X128779440Y-127001668D01*
X128709521Y-127068621D01*
X128639619Y-127135537D01*
X128569957Y-127202204D01*
X128535980Y-127234711D01*
X128500756Y-127268411D01*
X128432237Y-127333944D01*
G37*
G36*
X118929279Y-125465711D02*
G01*
X118994521Y-125470358D01*
X119057681Y-125478914D01*
X119117360Y-125491416D01*
X119186778Y-125512520D01*
X119251617Y-125539704D01*
X119311599Y-125572870D01*
X119366675Y-125611979D01*
X119416793Y-125656988D01*
X119461902Y-125707858D01*
X119501951Y-125764547D01*
X119536890Y-125827016D01*
X119547163Y-125848320D01*
X119572852Y-125908272D01*
X119593604Y-125968508D01*
X119610152Y-126031339D01*
X119623230Y-126099076D01*
X119627043Y-126124447D01*
X119634281Y-126189739D01*
X119638677Y-126258746D01*
X119640211Y-126329299D01*
X119638862Y-126399227D01*
X119634609Y-126466361D01*
X119627429Y-126528532D01*
X119616438Y-126590012D01*
X119599799Y-126657656D01*
X119578971Y-126723149D01*
X119554376Y-126785435D01*
X119526435Y-126843457D01*
X119495570Y-126896159D01*
X119462202Y-126942486D01*
X119442792Y-126965219D01*
X119397181Y-127010194D01*
X119345923Y-127050658D01*
X119289661Y-127086268D01*
X119229038Y-127116683D01*
X119164698Y-127141561D01*
X119097285Y-127160560D01*
X119027441Y-127173340D01*
X119018300Y-127174384D01*
X118996020Y-127176086D01*
X118968482Y-127177431D01*
X118937288Y-127178404D01*
X118904042Y-127178992D01*
X118870345Y-127179180D01*
X118837800Y-127178954D01*
X118808009Y-127178301D01*
X118782574Y-127177205D01*
X118763099Y-127175654D01*
X118729220Y-127171149D01*
X118656556Y-127156281D01*
X118587686Y-127134762D01*
X118522705Y-127106638D01*
X118461712Y-127071954D01*
X118404805Y-127030757D01*
X118352081Y-126983093D01*
X118333608Y-126963902D01*
X118299991Y-126924739D01*
X118271419Y-126884595D01*
X118246881Y-126841803D01*
X118225368Y-126794694D01*
X118205869Y-126741601D01*
X118199283Y-126720717D01*
X118192978Y-126698692D01*
X118187436Y-126677379D01*
X118182966Y-126658109D01*
X118179876Y-126642212D01*
X118178474Y-126631021D01*
X118179068Y-126625865D01*
X118180934Y-126625457D01*
X118189513Y-126624527D01*
X118204074Y-126623295D01*
X118223568Y-126621827D01*
X118246944Y-126620188D01*
X118273151Y-126618443D01*
X118301140Y-126616657D01*
X118329859Y-126614896D01*
X118358258Y-126613225D01*
X118385288Y-126611709D01*
X118409896Y-126610413D01*
X118431034Y-126609402D01*
X118447649Y-126608743D01*
X118458693Y-126608500D01*
X118478445Y-126608465D01*
X118485199Y-126632584D01*
X118486369Y-126636667D01*
X118501695Y-126679319D01*
X118522169Y-126721597D01*
X118546806Y-126762033D01*
X118574625Y-126799157D01*
X118604642Y-126831503D01*
X118635875Y-126857603D01*
X118647315Y-126865368D01*
X118689778Y-126888375D01*
X118737057Y-126905847D01*
X118788576Y-126917642D01*
X118843757Y-126923615D01*
X118902023Y-126923623D01*
X118907805Y-126923308D01*
X118964472Y-126917529D01*
X119015826Y-126906963D01*
X119062762Y-126891319D01*
X119106176Y-126870305D01*
X119146963Y-126843627D01*
X119156263Y-126836492D01*
X119197654Y-126798869D01*
X119234119Y-126755346D01*
X119265623Y-126705989D01*
X119292126Y-126650863D01*
X119313591Y-126590033D01*
X119329981Y-126523567D01*
X119331040Y-126518215D01*
X119337852Y-126479864D01*
X119342769Y-126443292D01*
X119346005Y-126406143D01*
X119347772Y-126366059D01*
X119348282Y-126320685D01*
X119347703Y-126281114D01*
X119343027Y-126203342D01*
X119333623Y-126131553D01*
X119319445Y-126065636D01*
X119300446Y-126005475D01*
X119276581Y-125950958D01*
X119247804Y-125901971D01*
X119214067Y-125858399D01*
X119175326Y-125820130D01*
X119131534Y-125787049D01*
X119129216Y-125785533D01*
X119089139Y-125762738D01*
X119046360Y-125744984D01*
X118998728Y-125731366D01*
X118995607Y-125730649D01*
X118982221Y-125727916D01*
X118968855Y-125725930D01*
X118953963Y-125724583D01*
X118935998Y-125723765D01*
X118913412Y-125723365D01*
X118884658Y-125723274D01*
X118878796Y-125723283D01*
X118851026Y-125723478D01*
X118829009Y-125724013D01*
X118811089Y-125725010D01*
X118795607Y-125726588D01*
X118780905Y-125728869D01*
X118765327Y-125731973D01*
X118734148Y-125739618D01*
X118686165Y-125755992D01*
X118643897Y-125776945D01*
X118606799Y-125802823D01*
X118574325Y-125833969D01*
X118545929Y-125870730D01*
X118542458Y-125876041D01*
X118520733Y-125915283D01*
X118502555Y-125958704D01*
X118488932Y-126003565D01*
X118480876Y-126047127D01*
X118478575Y-126066703D01*
X118456829Y-126065211D01*
X118453110Y-126064957D01*
X118440486Y-126064103D01*
X118421849Y-126062848D01*
X118398324Y-126061265D01*
X118371036Y-126059432D01*
X118341108Y-126057424D01*
X118309665Y-126055317D01*
X118184247Y-126046914D01*
X118185463Y-126033440D01*
X118186215Y-126026552D01*
X118190558Y-126000827D01*
X118197478Y-125970448D01*
X118206445Y-125937187D01*
X118216927Y-125902819D01*
X118228394Y-125869115D01*
X118240314Y-125837848D01*
X118252157Y-125810791D01*
X118259286Y-125796422D01*
X118291793Y-125741580D01*
X118330711Y-125690412D01*
X118375518Y-125643372D01*
X118425690Y-125600915D01*
X118480704Y-125563496D01*
X118540038Y-125531570D01*
X118603169Y-125505591D01*
X118620772Y-125499751D01*
X118675452Y-125485435D01*
X118735041Y-125474834D01*
X118798141Y-125467987D01*
X118863353Y-125464934D01*
X118929279Y-125465711D01*
G37*
G36*
X121022549Y-127168022D02*
G01*
X119806961Y-127168022D01*
X119806961Y-126909468D01*
X120733123Y-126909468D01*
X120733123Y-126446387D01*
X119938167Y-126446387D01*
X119938167Y-126191692D01*
X120733123Y-126191692D01*
X120733123Y-125736329D01*
X119818538Y-125736329D01*
X119818538Y-125477775D01*
X121022549Y-125477775D01*
X121022549Y-127168022D01*
G37*
G36*
X116353147Y-127168022D02*
G01*
X115137559Y-127168022D01*
X115137559Y-126909468D01*
X116063722Y-126909468D01*
X116063722Y-126446387D01*
X115268766Y-126446387D01*
X115268766Y-126191692D01*
X116063722Y-126191692D01*
X116063722Y-125736329D01*
X115149137Y-125736329D01*
X115149137Y-125477775D01*
X116353147Y-125477775D01*
X116353147Y-127168022D01*
G37*
G36*
X111904591Y-126071098D02*
G01*
X111905662Y-126664421D01*
X111916159Y-126702513D01*
X111920350Y-126716820D01*
X111935752Y-126757773D01*
X111954701Y-126792677D01*
X111977610Y-126822341D01*
X111991604Y-126836492D01*
X112027120Y-126864681D01*
X112067768Y-126887673D01*
X112112979Y-126905269D01*
X112162186Y-126917275D01*
X112214821Y-126923493D01*
X112270315Y-126923726D01*
X112325268Y-126918259D01*
X112376715Y-126907221D01*
X112422901Y-126890753D01*
X112463733Y-126868916D01*
X112499118Y-126841769D01*
X112528961Y-126809372D01*
X112553171Y-126771787D01*
X112571653Y-126729073D01*
X112572886Y-126725309D01*
X112577949Y-126706383D01*
X112582741Y-126683704D01*
X112586771Y-126660058D01*
X112589553Y-126638230D01*
X112590598Y-126621007D01*
X112590630Y-126618687D01*
X112592056Y-126608236D01*
X112595437Y-126604555D01*
X112599385Y-126604715D01*
X112610502Y-126605415D01*
X112627343Y-126606592D01*
X112648792Y-126608160D01*
X112673733Y-126610030D01*
X112701052Y-126612116D01*
X112729633Y-126614331D01*
X112758361Y-126616587D01*
X112786120Y-126618797D01*
X112811796Y-126620875D01*
X112834273Y-126622733D01*
X112852435Y-126624283D01*
X112865168Y-126625439D01*
X112871356Y-126626114D01*
X112872393Y-126626280D01*
X112879011Y-126627798D01*
X112882430Y-126630941D01*
X112883707Y-126637740D01*
X112883898Y-126650226D01*
X112882894Y-126677773D01*
X112877876Y-126722695D01*
X112869136Y-126769783D01*
X112857229Y-126816642D01*
X112842708Y-126860872D01*
X112826130Y-126900077D01*
X112817817Y-126916356D01*
X112787169Y-126965464D01*
X112750548Y-127009859D01*
X112708161Y-127049404D01*
X112660213Y-127083963D01*
X112606911Y-127113400D01*
X112548464Y-127137578D01*
X112485077Y-127156361D01*
X112416958Y-127169613D01*
X112405300Y-127171305D01*
X112387024Y-127173824D01*
X112371434Y-127175817D01*
X112361002Y-127176961D01*
X112357045Y-127177197D01*
X112344923Y-127177611D01*
X112327149Y-127178017D01*
X112305023Y-127178392D01*
X112279848Y-127178711D01*
X112252926Y-127178950D01*
X112234307Y-127178995D01*
X112171306Y-127177648D01*
X112114348Y-127173787D01*
X112062388Y-127167216D01*
X112014380Y-127157739D01*
X111969279Y-127145161D01*
X111926038Y-127129287D01*
X111883612Y-127109922D01*
X111882794Y-127109512D01*
X111829467Y-127079074D01*
X111782455Y-127044339D01*
X111741570Y-127005072D01*
X111706623Y-126961035D01*
X111677426Y-126911992D01*
X111653790Y-126857705D01*
X111635526Y-126797937D01*
X111634913Y-126795488D01*
X111632016Y-126784032D01*
X111629383Y-126773551D01*
X111627000Y-126763649D01*
X111624854Y-126753932D01*
X111622931Y-126744004D01*
X111621218Y-126733470D01*
X111619702Y-126721934D01*
X111618369Y-126709003D01*
X111617207Y-126694280D01*
X111616202Y-126677371D01*
X111615342Y-126657881D01*
X111614611Y-126635414D01*
X111613999Y-126609575D01*
X111613490Y-126579969D01*
X111613072Y-126546201D01*
X111612733Y-126507877D01*
X111612457Y-126464600D01*
X111612233Y-126415976D01*
X111612046Y-126361609D01*
X111611885Y-126301105D01*
X111611734Y-126234068D01*
X111611582Y-126160104D01*
X111611415Y-126078816D01*
X111610150Y-125477775D01*
X111903521Y-125477775D01*
X111904591Y-126071098D01*
G37*
%TO.C,C23*%
X157626267Y-146179000D02*
X157333733Y-146179000D01*
X157626267Y-145159000D02*
X157333733Y-145159000D01*
%TO.C,G\u002A\u002A\u002A*%
G36*
X123643725Y-113028664D02*
G01*
X123719115Y-113104634D01*
X123728388Y-113115400D01*
X123834312Y-113212187D01*
X123979421Y-113302510D01*
X124173060Y-113390687D01*
X124424574Y-113481035D01*
X124743305Y-113577873D01*
X124949899Y-113639803D01*
X125300874Y-113763526D01*
X125592681Y-113895851D01*
X125837321Y-114042595D01*
X126046798Y-114209577D01*
X126197922Y-114358449D01*
X126320239Y-114515291D01*
X126405768Y-114684403D01*
X126470931Y-114892217D01*
X126487176Y-114958932D01*
X126510627Y-115099355D01*
X126510338Y-115233342D01*
X126487634Y-115401308D01*
X126485854Y-115411726D01*
X126459382Y-115541725D01*
X126432927Y-115633931D01*
X126411966Y-115668972D01*
X126396537Y-115644627D01*
X126378378Y-115561780D01*
X126364919Y-115440504D01*
X126346133Y-115303280D01*
X126291963Y-115143920D01*
X126195533Y-114994346D01*
X126047411Y-114840750D01*
X125838167Y-114669326D01*
X125771709Y-114617563D01*
X125624614Y-114495520D01*
X125496399Y-114379768D01*
X125409017Y-114289725D01*
X125284311Y-114141879D01*
X125308875Y-114257860D01*
X125341590Y-114347324D01*
X125405184Y-114473744D01*
X125485520Y-114608501D01*
X125486905Y-114610642D01*
X125562869Y-114742350D01*
X125616979Y-114863022D01*
X125637601Y-114946781D01*
X125630121Y-114996110D01*
X125584172Y-115093223D01*
X125514675Y-115172349D01*
X125443056Y-115205045D01*
X125398034Y-115199122D01*
X125277267Y-115151525D01*
X125149546Y-115070546D01*
X125044633Y-114973483D01*
X125015864Y-114940446D01*
X124954997Y-114879386D01*
X124923983Y-114861940D01*
X124921266Y-114866196D01*
X124919960Y-114926762D01*
X124938229Y-115032674D01*
X124970374Y-115160698D01*
X125010698Y-115287598D01*
X125053504Y-115390138D01*
X125064847Y-115410823D01*
X125136126Y-115512709D01*
X125230950Y-115622451D01*
X125331956Y-115722528D01*
X125421783Y-115795423D01*
X125483070Y-115823614D01*
X125493330Y-115825076D01*
X125521619Y-115864026D01*
X125509290Y-115881327D01*
X125441687Y-115887443D01*
X125329621Y-115868305D01*
X125189658Y-115827222D01*
X125038362Y-115767503D01*
X124814598Y-115636090D01*
X124580887Y-115436905D01*
X124362794Y-115190457D01*
X124173580Y-114911835D01*
X124026506Y-114616128D01*
X123982998Y-114501221D01*
X123954442Y-114408705D01*
X123950186Y-114366635D01*
X123969609Y-114368930D01*
X124037043Y-114404141D01*
X124132043Y-114467646D01*
X124205643Y-114514954D01*
X124367644Y-114579479D01*
X124515465Y-114589179D01*
X124636542Y-114547073D01*
X124718313Y-114456182D01*
X124748216Y-114319525D01*
X124748100Y-114309090D01*
X124736507Y-114221466D01*
X124700273Y-114136696D01*
X124631371Y-114045763D01*
X124521775Y-113939653D01*
X124363457Y-113809350D01*
X124148390Y-113645840D01*
X123982537Y-113518946D01*
X123821054Y-113383109D01*
X123713374Y-113273396D01*
X123652009Y-113182824D01*
X123651167Y-113181097D01*
X123606521Y-113070658D01*
X123605117Y-113018593D01*
X123643725Y-113028664D01*
G37*
G36*
X115044602Y-119148424D02*
G01*
X114619336Y-119148424D01*
X114619336Y-116094238D01*
X115044602Y-116094238D01*
X115044602Y-119148424D01*
G37*
G36*
X119616216Y-119141660D02*
G01*
X119364973Y-119136976D01*
X119159491Y-119131074D01*
X119006357Y-119122904D01*
X118892675Y-119111099D01*
X118805548Y-119094292D01*
X118732077Y-119071114D01*
X118659367Y-119040199D01*
X118577359Y-118998762D01*
X118332030Y-118820649D01*
X118134657Y-118587091D01*
X117989009Y-118304847D01*
X117898856Y-117980674D01*
X117867968Y-117621331D01*
X118330752Y-117621331D01*
X118336596Y-117790913D01*
X118385955Y-118097445D01*
X118486598Y-118348381D01*
X118639776Y-118546322D01*
X118846744Y-118693872D01*
X118906102Y-118722016D01*
X118996479Y-118751475D01*
X119110473Y-118771317D01*
X119265982Y-118784348D01*
X119480904Y-118793377D01*
X119954496Y-118808429D01*
X119954496Y-116434232D01*
X119480904Y-116449285D01*
X119322078Y-116455376D01*
X119150993Y-116466941D01*
X119026675Y-116484493D01*
X118931225Y-116510840D01*
X118846744Y-116548789D01*
X118739502Y-116614269D01*
X118558795Y-116785950D01*
X118431270Y-117009285D01*
X118355672Y-117286878D01*
X118330752Y-117621331D01*
X117867968Y-117621331D01*
X117870762Y-117510731D01*
X117919745Y-117161183D01*
X118026866Y-116848825D01*
X118188356Y-116580413D01*
X118400446Y-116362706D01*
X118659367Y-116202462D01*
X118727548Y-116173276D01*
X118800584Y-116149645D01*
X118886454Y-116132472D01*
X118998055Y-116120388D01*
X119148284Y-116112027D01*
X119350038Y-116106021D01*
X119616216Y-116101001D01*
X120379762Y-116088434D01*
X120379762Y-119154227D01*
X119616216Y-119141660D01*
G37*
G36*
X113249055Y-116033730D02*
G01*
X113460992Y-116103903D01*
X113481915Y-116114795D01*
X113617562Y-116212074D01*
X113706048Y-116339602D01*
X113754175Y-116511479D01*
X113768743Y-116741803D01*
X113768803Y-117022092D01*
X114194070Y-117022092D01*
X114194070Y-117292716D01*
X113768803Y-117292716D01*
X113768803Y-119148424D01*
X113382198Y-119148424D01*
X113382198Y-117292716D01*
X112879610Y-117292716D01*
X112879610Y-117022092D01*
X113391205Y-117022092D01*
X113375173Y-116770316D01*
X113365485Y-116660398D01*
X113334491Y-116523158D01*
X113274613Y-116441658D01*
X113173220Y-116402547D01*
X113017684Y-116392477D01*
X112802289Y-116392477D01*
X112802289Y-116228536D01*
X112807639Y-116129096D01*
X112832930Y-116069394D01*
X112889275Y-116041284D01*
X113022221Y-116019716D01*
X113249055Y-116033730D01*
G37*
G36*
X127338666Y-116674147D02*
G01*
X126372152Y-116674147D01*
X126372152Y-119148424D01*
X125521619Y-119148424D01*
X125521619Y-116674147D01*
X124593765Y-116674147D01*
X124593765Y-116094238D01*
X127338666Y-116094238D01*
X127338666Y-116674147D01*
G37*
G36*
X122088253Y-117173988D02*
G01*
X122090812Y-117396765D01*
X122094628Y-117668030D01*
X122099128Y-117877618D01*
X122105045Y-118034866D01*
X122113111Y-118149111D01*
X122124059Y-118229690D01*
X122138622Y-118285940D01*
X122157531Y-118327198D01*
X122181520Y-118362801D01*
X122310560Y-118494495D01*
X122500742Y-118591027D01*
X122729858Y-118620782D01*
X122785715Y-118618487D01*
X122960091Y-118581841D01*
X123101581Y-118491919D01*
X123230980Y-118336945D01*
X123252882Y-118303284D01*
X123273891Y-118261935D01*
X123289812Y-118210474D01*
X123301351Y-118139300D01*
X123309211Y-118038811D01*
X123314099Y-117899407D01*
X123316717Y-117711486D01*
X123317771Y-117465446D01*
X123317966Y-117151687D01*
X123317966Y-116094238D01*
X124172736Y-116094238D01*
X124160952Y-117244390D01*
X124160933Y-117246294D01*
X124157323Y-117575610D01*
X124153540Y-117837038D01*
X124148887Y-118039961D01*
X124142667Y-118193765D01*
X124134183Y-118307830D01*
X124122739Y-118391541D01*
X124107638Y-118454282D01*
X124088182Y-118505434D01*
X124063676Y-118554383D01*
X123937749Y-118740671D01*
X123723911Y-118940520D01*
X123460158Y-119090741D01*
X123156508Y-119184378D01*
X123071676Y-119198546D01*
X122783064Y-119219421D01*
X122477436Y-119207821D01*
X122194366Y-119164562D01*
X121984793Y-119100018D01*
X121727958Y-118966257D01*
X121517128Y-118788541D01*
X121362061Y-118575636D01*
X121272516Y-118336311D01*
X121265374Y-118290370D01*
X121253768Y-118153684D01*
X121244073Y-117956916D01*
X121236674Y-117711139D01*
X121231954Y-117427424D01*
X121230295Y-117116840D01*
X121230295Y-116094238D01*
X122076348Y-116094238D01*
X122088253Y-117173988D01*
G37*
G36*
X117457632Y-118095955D02*
G01*
X117451375Y-118273990D01*
X117433421Y-118446868D01*
X117407430Y-118578569D01*
X117335878Y-118744923D01*
X117209666Y-118923242D01*
X117054442Y-119069604D01*
X116890009Y-119161692D01*
X116840596Y-119177579D01*
X116588456Y-119218778D01*
X116323877Y-119206496D01*
X116072181Y-119143865D01*
X115858691Y-119034020D01*
X115805617Y-118990618D01*
X115675742Y-118822574D01*
X115583192Y-118597904D01*
X115551518Y-118487464D01*
X115769355Y-118498994D01*
X115887043Y-118507460D01*
X115959272Y-118525243D01*
X115996016Y-118563434D01*
X116018960Y-118633739D01*
X116038900Y-118693703D01*
X116128461Y-118818725D01*
X116272820Y-118892343D01*
X116475044Y-118916460D01*
X116588088Y-118912162D01*
X116708915Y-118886925D01*
X116803302Y-118832513D01*
X116850111Y-118788905D01*
X116951710Y-118644872D01*
X117025234Y-118472855D01*
X117054103Y-118307556D01*
X117054953Y-118181909D01*
X115537255Y-118181909D01*
X115555148Y-117882290D01*
X115556201Y-117872625D01*
X115972456Y-117872625D01*
X116513704Y-117872625D01*
X116729058Y-117872143D01*
X116891930Y-117867025D01*
X116994565Y-117851612D01*
X117045778Y-117820244D01*
X117054384Y-117767260D01*
X117029196Y-117687000D01*
X116979030Y-117573804D01*
X116956410Y-117529065D01*
X116841044Y-117386561D01*
X116695274Y-117297904D01*
X116533213Y-117260558D01*
X116368973Y-117271987D01*
X116216665Y-117329655D01*
X116090401Y-117431024D01*
X116004295Y-117573559D01*
X115972456Y-117754723D01*
X115972456Y-117872625D01*
X115556201Y-117872625D01*
X115574508Y-117704560D01*
X115645668Y-117449975D01*
X115767503Y-117251004D01*
X115942865Y-117103600D01*
X116174609Y-117003715D01*
X116291029Y-116972253D01*
X116447729Y-116948897D01*
X116597972Y-116959769D01*
X116779615Y-117004943D01*
X117010398Y-117107895D01*
X117200853Y-117271577D01*
X117339914Y-117490705D01*
X117426005Y-117762770D01*
X117426444Y-117767260D01*
X117457549Y-118085258D01*
X117457632Y-118095955D01*
G37*
G36*
X111902354Y-116445992D02*
G01*
X111973552Y-116468258D01*
X112080181Y-116503808D01*
X112261041Y-116565433D01*
X112261041Y-117022092D01*
X112647647Y-117022092D01*
X112647647Y-117292716D01*
X112261041Y-117292716D01*
X112261041Y-118115316D01*
X112261021Y-118179356D01*
X112259729Y-118460820D01*
X112254722Y-118677066D01*
X112243639Y-118838204D01*
X112224119Y-118954341D01*
X112193801Y-119035584D01*
X112150325Y-119092042D01*
X112091329Y-119133820D01*
X112014452Y-119171028D01*
X111961912Y-119188478D01*
X111816703Y-119211236D01*
X111642472Y-119215402D01*
X111391178Y-119206414D01*
X111367180Y-118916460D01*
X111543486Y-118916460D01*
X111556624Y-118916374D01*
X111700911Y-118896957D01*
X111797114Y-118839139D01*
X111823433Y-118808262D01*
X111843524Y-118767282D01*
X111857536Y-118705771D01*
X111866552Y-118612371D01*
X111871653Y-118475726D01*
X111873920Y-118284477D01*
X111874435Y-118027267D01*
X111874435Y-117292716D01*
X111371847Y-117292716D01*
X111371847Y-117022092D01*
X111874435Y-117022092D01*
X111874435Y-116732137D01*
X111874489Y-116705069D01*
X111876530Y-116571620D01*
X111880930Y-116477692D01*
X111886878Y-116442183D01*
X111902354Y-116445992D01*
G37*
%TO.C,J6*%
X179137000Y-129413000D02*
X179137000Y-130743000D01*
X181797000Y-128143000D02*
X181797000Y-115383000D01*
X179137000Y-128143000D02*
X181797000Y-128143000D01*
X179137000Y-128143000D02*
X179137000Y-115383000D01*
X179137000Y-130743000D02*
X180467000Y-130743000D01*
X179137000Y-115383000D02*
X181797000Y-115383000D01*
%TO.C,C21*%
X157626267Y-142111000D02*
X157333733Y-142111000D01*
X157626267Y-143131000D02*
X157333733Y-143131000D01*
%TO.C,C18*%
X148189733Y-145159000D02*
X148482267Y-145159000D01*
X148189733Y-146179000D02*
X148482267Y-146179000D01*
%TO.C,C29*%
X161690267Y-143131000D02*
X161397733Y-143131000D01*
X161690267Y-142111000D02*
X161397733Y-142111000D01*
%TO.C,C24*%
X152253733Y-145159000D02*
X152546267Y-145159000D01*
X152253733Y-146179000D02*
X152546267Y-146179000D01*
%TO.C,C16*%
X148189733Y-142111000D02*
X148482267Y-142111000D01*
X148189733Y-143131000D02*
X148482267Y-143131000D01*
%TO.C,C15*%
X144125733Y-143131000D02*
X144418267Y-143131000D01*
X144125733Y-142111000D02*
X144418267Y-142111000D01*
%TO.C,C20*%
X152253733Y-143131000D02*
X152546267Y-143131000D01*
X152253733Y-142111000D02*
X152546267Y-142111000D01*
%TO.C,C27*%
X161690267Y-145159000D02*
X161397733Y-145159000D01*
X161690267Y-146179000D02*
X161397733Y-146179000D01*
%TO.C,C19*%
X144125733Y-146179000D02*
X144418267Y-146179000D01*
X144125733Y-145159000D02*
X144418267Y-145159000D01*
%TO.C,C26*%
X169420000Y-144291267D02*
X169420000Y-143998733D01*
X168400000Y-144291267D02*
X168400000Y-143998733D01*
%TO.C,J7*%
X179162000Y-109240000D02*
X179162000Y-111840000D01*
X181822000Y-111840000D02*
X179162000Y-111840000D01*
X179162000Y-106640000D02*
X179162000Y-107970000D01*
X180492000Y-106640000D02*
X179162000Y-106640000D01*
X181822000Y-109240000D02*
X179162000Y-109240000D01*
X181822000Y-109240000D02*
X181822000Y-111840000D01*
%TD*%
M02*
