%TF.GenerationSoftware,KiCad,Pcbnew,(6.0.6)*%
%TF.CreationDate,2022-08-28T18:07:26+02:00*%
%TF.ProjectId,PCAP04_Interface,50434150-3034-45f4-996e-746572666163,rev?*%
%TF.SameCoordinates,Original*%
%TF.FileFunction,Soldermask,Top*%
%TF.FilePolarity,Negative*%
%FSLAX46Y46*%
G04 Gerber Fmt 4.6, Leading zero omitted, Abs format (unit mm)*
G04 Created by KiCad (PCBNEW (6.0.6)) date 2022-08-28 18:07:26*
%MOMM*%
%LPD*%
G01*
G04 APERTURE LIST*
G04 Aperture macros list*
%AMRoundRect*
0 Rectangle with rounded corners*
0 $1 Rounding radius*
0 $2 $3 $4 $5 $6 $7 $8 $9 X,Y pos of 4 corners*
0 Add a 4 corners polygon primitive as box body*
4,1,4,$2,$3,$4,$5,$6,$7,$8,$9,$2,$3,0*
0 Add four circle primitives for the rounded corners*
1,1,$1+$1,$2,$3*
1,1,$1+$1,$4,$5*
1,1,$1+$1,$6,$7*
1,1,$1+$1,$8,$9*
0 Add four rect primitives between the rounded corners*
20,1,$1+$1,$2,$3,$4,$5,0*
20,1,$1+$1,$4,$5,$6,$7,0*
20,1,$1+$1,$6,$7,$8,$9,0*
20,1,$1+$1,$8,$9,$2,$3,0*%
G04 Aperture macros list end*
%ADD10R,1.050000X1.500000*%
%ADD11O,1.050000X1.500000*%
%ADD12RoundRect,0.250000X-0.375000X-0.275000X0.375000X-0.275000X0.375000X0.275000X-0.375000X0.275000X0*%
%ADD13C,1.000000*%
%ADD14R,2.000000X1.500000*%
%ADD15R,1.200000X0.800000*%
%ADD16R,1.520000X1.520000*%
%ADD17C,1.520000*%
%ADD18C,2.910000*%
%ADD19RoundRect,0.237500X0.237500X-0.300000X0.237500X0.300000X-0.237500X0.300000X-0.237500X-0.300000X0*%
%ADD20RoundRect,0.237500X-0.237500X0.300000X-0.237500X-0.300000X0.237500X-0.300000X0.237500X0.300000X0*%
%ADD21RoundRect,0.237500X0.250000X0.237500X-0.250000X0.237500X-0.250000X-0.237500X0.250000X-0.237500X0*%
%ADD22C,3.200000*%
%ADD23RoundRect,0.237500X0.300000X0.237500X-0.300000X0.237500X-0.300000X-0.237500X0.300000X-0.237500X0*%
%ADD24O,0.750000X0.250000*%
%ADD25O,0.250000X0.750000*%
%ADD26R,2.600000X2.600000*%
%ADD27R,2.100000X1.400000*%
%ADD28R,1.700000X1.700000*%
%ADD29O,1.700000X1.700000*%
%ADD30RoundRect,0.237500X-0.250000X-0.237500X0.250000X-0.237500X0.250000X0.237500X-0.250000X0.237500X0*%
%ADD31C,1.524000*%
%ADD32RoundRect,0.237500X-0.300000X-0.237500X0.300000X-0.237500X0.300000X0.237500X-0.300000X0.237500X0*%
%ADD33RoundRect,0.250000X0.325000X0.450000X-0.325000X0.450000X-0.325000X-0.450000X0.325000X-0.450000X0*%
%ADD34C,1.635000*%
%ADD35R,2.000000X3.800000*%
%ADD36R,1.500000X1.000000*%
%ADD37C,5.000000*%
G04 APERTURE END LIST*
D10*
%TO.C,IC4*%
X110744000Y-75565000D03*
D11*
X112014000Y-75565000D03*
X113284000Y-75565000D03*
%TD*%
D12*
%TO.C,C30*%
X178524000Y-84455000D03*
X180124000Y-84455000D03*
%TD*%
D13*
%TO.C,TP10*%
X162849195Y-119736695D03*
%TD*%
D14*
%TO.C,J3*%
X131065000Y-87416000D03*
X131065000Y-101306000D03*
X139265000Y-101306000D03*
X139265000Y-87416000D03*
D15*
X133265000Y-97586000D03*
X133265000Y-96486000D03*
X133265000Y-95386000D03*
X133265000Y-94286000D03*
X133265000Y-93186000D03*
X133265000Y-92086000D03*
X133265000Y-90986000D03*
X133265000Y-89886000D03*
%TD*%
D16*
%TO.C,J2*%
X169614045Y-139932795D03*
D17*
X166614045Y-139932795D03*
X163614045Y-139932795D03*
X160614045Y-139932795D03*
X157614045Y-139932795D03*
X154614045Y-139932795D03*
X151614045Y-139932795D03*
X148614045Y-139932795D03*
X145614045Y-139932795D03*
X142614045Y-139932795D03*
X169614045Y-136932795D03*
X166614045Y-136932795D03*
X163614045Y-136932795D03*
X160614045Y-136932795D03*
X157614045Y-136932795D03*
X154614045Y-136932795D03*
X151614045Y-136932795D03*
X148614045Y-136932795D03*
X145614045Y-136932795D03*
X142614045Y-136932795D03*
D18*
X171764045Y-144252795D03*
X140464045Y-144252795D03*
%TD*%
D19*
%TO.C,C4*%
X173349195Y-129099195D03*
X173349195Y-127374195D03*
%TD*%
D20*
%TO.C,C11*%
X147849195Y-123374195D03*
X147849195Y-125099195D03*
%TD*%
D13*
%TO.C,TP7*%
X138849195Y-126736695D03*
%TD*%
D21*
%TO.C,R7*%
X144261695Y-115236695D03*
X142436695Y-115236695D03*
%TD*%
D22*
%TO.C,H2*%
X181483000Y-68580000D03*
%TD*%
D19*
%TO.C,C2*%
X149349195Y-129099195D03*
X149349195Y-127374195D03*
%TD*%
D23*
%TO.C,C6*%
X120211695Y-119236695D03*
X118486695Y-119236695D03*
%TD*%
D21*
%TO.C,R10*%
X167761695Y-115236695D03*
X165936695Y-115236695D03*
%TD*%
D24*
%TO.C,IC3*%
X169274195Y-125986695D03*
X169274195Y-125486695D03*
X169274195Y-124986695D03*
X169274195Y-124486695D03*
X169274195Y-123986695D03*
X169274195Y-123486695D03*
D25*
X168599195Y-122811695D03*
X168099195Y-122811695D03*
X167599195Y-122811695D03*
X167099195Y-122811695D03*
X166599195Y-122811695D03*
X166099195Y-122811695D03*
D24*
X165424195Y-123486695D03*
X165424195Y-123986695D03*
X165424195Y-124486695D03*
X165424195Y-124986695D03*
X165424195Y-125486695D03*
X165424195Y-125986695D03*
D25*
X166099195Y-126661695D03*
X166599195Y-126661695D03*
X167099195Y-126661695D03*
X167599195Y-126661695D03*
X168099195Y-126661695D03*
X168599195Y-126661695D03*
D26*
X167349195Y-124736695D03*
%TD*%
D20*
%TO.C,C10*%
X149349195Y-123374195D03*
X149349195Y-125099195D03*
%TD*%
D19*
%TO.C,C1*%
X125349195Y-129099195D03*
X125349195Y-127374195D03*
%TD*%
D27*
%TO.C,S2*%
X175200500Y-110581000D03*
X166100500Y-110581000D03*
X175200500Y-106081000D03*
X166100500Y-106081000D03*
%TD*%
D28*
%TO.C,R2*%
X171983000Y-74061000D03*
D29*
X171983000Y-76601000D03*
%TD*%
D21*
%TO.C,R12*%
X163261695Y-129236695D03*
X161436695Y-129236695D03*
%TD*%
D30*
%TO.C,R1*%
X131920500Y-75311000D03*
X133745500Y-75311000D03*
%TD*%
D21*
%TO.C,R9*%
X139261695Y-129236695D03*
X137436695Y-129236695D03*
%TD*%
%TO.C,R5*%
X120261695Y-117236695D03*
X118436695Y-117236695D03*
%TD*%
D13*
%TO.C,TP1*%
X126349195Y-115236695D03*
%TD*%
D31*
%TO.C,U1*%
X131749195Y-131236695D03*
X131749195Y-129236695D03*
X131749195Y-127236695D03*
X131749195Y-125236695D03*
X131749195Y-123236695D03*
X131749195Y-121236695D03*
X131749195Y-119236695D03*
X131749195Y-117236695D03*
X131749195Y-115236695D03*
X106949195Y-131236695D03*
X106949195Y-129236695D03*
X106949195Y-127236695D03*
X106949195Y-125236695D03*
X106949195Y-123236695D03*
X106949195Y-121236695D03*
X106949195Y-119236695D03*
X106949195Y-117236695D03*
X106949195Y-115236695D03*
%TD*%
D21*
%TO.C,R8*%
X144261695Y-117236695D03*
X142436695Y-117236695D03*
%TD*%
D13*
%TO.C,TP2*%
X113349195Y-119236695D03*
%TD*%
D28*
%TO.C,J4*%
X131953000Y-145161000D03*
D29*
X134493000Y-145161000D03*
%TD*%
D13*
%TO.C,TP8*%
X150849195Y-119736695D03*
%TD*%
D22*
%TO.C,H4*%
X181483000Y-146431000D03*
%TD*%
D24*
%TO.C,IC1*%
X121274195Y-126486695D03*
X121274195Y-125986695D03*
X121274195Y-125486695D03*
X121274195Y-124986695D03*
X121274195Y-124486695D03*
X121274195Y-123986695D03*
D25*
X120599195Y-123311695D03*
X120099195Y-123311695D03*
X119599195Y-123311695D03*
X119099195Y-123311695D03*
X118599195Y-123311695D03*
X118099195Y-123311695D03*
D24*
X117424195Y-123986695D03*
X117424195Y-124486695D03*
X117424195Y-124986695D03*
X117424195Y-125486695D03*
X117424195Y-125986695D03*
X117424195Y-126486695D03*
D25*
X118099195Y-127161695D03*
X118599195Y-127161695D03*
X119099195Y-127161695D03*
X119599195Y-127161695D03*
X120099195Y-127161695D03*
X120599195Y-127161695D03*
D26*
X119349195Y-125236695D03*
%TD*%
D28*
%TO.C,J5*%
X136017000Y-70000000D03*
D29*
X136017000Y-67460000D03*
X138557000Y-70000000D03*
X138557000Y-67460000D03*
X141097000Y-70000000D03*
X141097000Y-67460000D03*
X143637000Y-70000000D03*
X143637000Y-67460000D03*
X146177000Y-70000000D03*
X146177000Y-67460000D03*
X148717000Y-70000000D03*
X148717000Y-67460000D03*
%TD*%
D13*
%TO.C,TP12*%
X174349195Y-119736695D03*
%TD*%
%TO.C,TP11*%
X162849195Y-126736695D03*
%TD*%
D19*
%TO.C,C7*%
X128349195Y-125099195D03*
X128349195Y-123374195D03*
%TD*%
D22*
%TO.C,H3*%
X103505000Y-146532600D03*
%TD*%
D24*
%TO.C,IC2*%
X145274195Y-125986695D03*
X145274195Y-125486695D03*
X145274195Y-124986695D03*
X145274195Y-124486695D03*
X145274195Y-123986695D03*
X145274195Y-123486695D03*
D25*
X144599195Y-122811695D03*
X144099195Y-122811695D03*
X143599195Y-122811695D03*
X143099195Y-122811695D03*
X142599195Y-122811695D03*
X142099195Y-122811695D03*
D24*
X141424195Y-123486695D03*
X141424195Y-123986695D03*
X141424195Y-124486695D03*
X141424195Y-124986695D03*
X141424195Y-125486695D03*
X141424195Y-125986695D03*
D25*
X142099195Y-126661695D03*
X142599195Y-126661695D03*
X143099195Y-126661695D03*
X143599195Y-126661695D03*
X144099195Y-126661695D03*
X144599195Y-126661695D03*
D26*
X143349195Y-124736695D03*
%TD*%
D20*
%TO.C,C8*%
X125349195Y-123374195D03*
X125349195Y-125099195D03*
%TD*%
D21*
%TO.C,R4*%
X120261695Y-115236695D03*
X118436695Y-115236695D03*
%TD*%
D28*
%TO.C,U2*%
X114450695Y-81160695D03*
D29*
X116990695Y-81160695D03*
X119530695Y-81160695D03*
X122070695Y-81160695D03*
X124610695Y-81160695D03*
X127150695Y-81160695D03*
X129690695Y-81160695D03*
X132230695Y-81160695D03*
X134770695Y-81160695D03*
X137310695Y-81160695D03*
X139850695Y-81160695D03*
X142390695Y-81160695D03*
X144930695Y-81160695D03*
X147470695Y-81160695D03*
X150010695Y-81160695D03*
D28*
X114450695Y-106560695D03*
D29*
X116990695Y-106560695D03*
X119530695Y-106560695D03*
X122070695Y-106560695D03*
X124610695Y-106560695D03*
X127150695Y-106560695D03*
X129690695Y-106560695D03*
X132230695Y-106560695D03*
X134770695Y-106560695D03*
X137310695Y-106560695D03*
X139850695Y-106560695D03*
X142390695Y-106560695D03*
X144930695Y-106560695D03*
X147470695Y-106560695D03*
X150010695Y-106560695D03*
%TD*%
D20*
%TO.C,C13*%
X173349195Y-123374195D03*
X173349195Y-125099195D03*
%TD*%
D28*
%TO.C,R3*%
X167919000Y-74061000D03*
D29*
X167919000Y-76601000D03*
%TD*%
D27*
%TO.C,S3*%
X166175500Y-97953000D03*
X175275500Y-97953000D03*
X166175500Y-102453000D03*
X175275500Y-102453000D03*
%TD*%
D32*
%TO.C,C22*%
X134011500Y-142113000D03*
X135736500Y-142113000D03*
%TD*%
D33*
%TO.C,D2*%
X137922000Y-75311000D03*
X135872000Y-75311000D03*
%TD*%
D13*
%TO.C,TP6*%
X138849195Y-119736695D03*
%TD*%
D34*
%TO.C,S1*%
X123952000Y-75311000D03*
X121412000Y-75311000D03*
X118872000Y-75311000D03*
%TD*%
D23*
%TO.C,C17*%
X132434500Y-142113000D03*
X130709500Y-142113000D03*
%TD*%
D21*
%TO.C,R11*%
X167761695Y-117236695D03*
X165936695Y-117236695D03*
%TD*%
D13*
%TO.C,TP9*%
X174349195Y-115236695D03*
%TD*%
D23*
%TO.C,C12*%
X167711695Y-119236695D03*
X165986695Y-119236695D03*
%TD*%
D14*
%TO.C,U3*%
X176174000Y-77075000D03*
D35*
X182474000Y-79375000D03*
D14*
X176174000Y-79375000D03*
X176174000Y-81675000D03*
%TD*%
D22*
%TO.C,H1*%
X103505000Y-68580000D03*
%TD*%
D21*
%TO.C,R6*%
X113261695Y-130236695D03*
X111436695Y-130236695D03*
%TD*%
D13*
%TO.C,TP3*%
X113349195Y-127236695D03*
%TD*%
D36*
%TO.C,D3*%
X159168000Y-76911000D03*
X159168000Y-73711000D03*
X154268000Y-73711000D03*
X154268000Y-76911000D03*
%TD*%
D13*
%TO.C,TP4*%
X126349195Y-119236695D03*
%TD*%
%TO.C,TP5*%
X150849195Y-115236695D03*
%TD*%
D23*
%TO.C,C9*%
X144211695Y-119236695D03*
X142486695Y-119236695D03*
%TD*%
%TO.C,C5*%
X151484500Y-75311000D03*
X149759500Y-75311000D03*
%TD*%
D20*
%TO.C,C14*%
X171849195Y-123374195D03*
X171849195Y-125099195D03*
%TD*%
D22*
%TO.C,J1*%
X115831000Y-93980000D03*
X171441000Y-93980000D03*
D37*
X180086000Y-93980000D03*
X107186000Y-93980000D03*
%TD*%
D28*
%TO.C,J6*%
X180467000Y-129413000D03*
D29*
X180467000Y-126873000D03*
X180467000Y-124333000D03*
X180467000Y-121793000D03*
X180467000Y-119253000D03*
X180467000Y-116713000D03*
%TD*%
D28*
%TO.C,J7*%
X180492000Y-107970000D03*
D29*
X180492000Y-110510000D03*
%TD*%
M02*
