%TF.GenerationSoftware,KiCad,Pcbnew,(6.0.6)*%
%TF.CreationDate,2022-08-03T15:13:17+02:00*%
%TF.ProjectId,PCAP04_Interface,50434150-3034-45f4-996e-746572666163,rev?*%
%TF.SameCoordinates,Original*%
%TF.FileFunction,Soldermask,Top*%
%TF.FilePolarity,Negative*%
%FSLAX46Y46*%
G04 Gerber Fmt 4.6, Leading zero omitted, Abs format (unit mm)*
G04 Created by KiCad (PCBNEW (6.0.6)) date 2022-08-03 15:13:17*
%MOMM*%
%LPD*%
G01*
G04 APERTURE LIST*
G04 Aperture macros list*
%AMRoundRect*
0 Rectangle with rounded corners*
0 $1 Rounding radius*
0 $2 $3 $4 $5 $6 $7 $8 $9 X,Y pos of 4 corners*
0 Add a 4 corners polygon primitive as box body*
4,1,4,$2,$3,$4,$5,$6,$7,$8,$9,$2,$3,0*
0 Add four circle primitives for the rounded corners*
1,1,$1+$1,$2,$3*
1,1,$1+$1,$4,$5*
1,1,$1+$1,$6,$7*
1,1,$1+$1,$8,$9*
0 Add four rect primitives between the rounded corners*
20,1,$1+$1,$2,$3,$4,$5,0*
20,1,$1+$1,$4,$5,$6,$7,0*
20,1,$1+$1,$6,$7,$8,$9,0*
20,1,$1+$1,$8,$9,$2,$3,0*%
G04 Aperture macros list end*
%ADD10RoundRect,0.237500X-0.300000X-0.237500X0.300000X-0.237500X0.300000X0.237500X-0.300000X0.237500X0*%
%ADD11RoundRect,0.237500X0.300000X0.237500X-0.300000X0.237500X-0.300000X-0.237500X0.300000X-0.237500X0*%
%ADD12C,1.000000*%
%ADD13R,2.000000X1.500000*%
%ADD14R,1.200000X0.800000*%
%ADD15C,2.910000*%
%ADD16C,1.520000*%
%ADD17R,1.520000X1.520000*%
%ADD18RoundRect,0.237500X0.237500X-0.300000X0.237500X0.300000X-0.237500X0.300000X-0.237500X-0.300000X0*%
%ADD19RoundRect,0.237500X-0.237500X0.300000X-0.237500X-0.300000X0.237500X-0.300000X0.237500X0.300000X0*%
%ADD20RoundRect,0.237500X0.250000X0.237500X-0.250000X0.237500X-0.250000X-0.237500X0.250000X-0.237500X0*%
%ADD21C,3.200000*%
%ADD22O,0.750000X0.250000*%
%ADD23O,0.250000X0.750000*%
%ADD24R,2.600000X2.600000*%
%ADD25R,1.100000X2.000000*%
%ADD26R,1.100000X0.800000*%
%ADD27R,2.100000X1.400000*%
%ADD28R,1.700000X1.700000*%
%ADD29O,1.700000X1.700000*%
%ADD30RoundRect,0.237500X-0.250000X-0.237500X0.250000X-0.237500X0.250000X0.237500X-0.250000X0.237500X0*%
%ADD31C,1.524000*%
%ADD32RoundRect,0.250001X-0.924999X0.499999X-0.924999X-0.499999X0.924999X-0.499999X0.924999X0.499999X0*%
%ADD33RoundRect,0.250000X0.325000X0.450000X-0.325000X0.450000X-0.325000X-0.450000X0.325000X-0.450000X0*%
%ADD34C,1.635000*%
%ADD35R,1.500000X1.000000*%
%ADD36C,5.000000*%
G04 APERTURE END LIST*
D10*
%TO.C,C22*%
X134011500Y-140462000D03*
X135736500Y-140462000D03*
%TD*%
D11*
%TO.C,C17*%
X132434500Y-140462000D03*
X130709500Y-140462000D03*
%TD*%
D12*
%TO.C,TP10*%
X162849195Y-118085695D03*
%TD*%
D13*
%TO.C,J3*%
X121032000Y-85511000D03*
X121032000Y-99401000D03*
X129232000Y-99401000D03*
X129232000Y-85511000D03*
D14*
X123232000Y-95681000D03*
X123232000Y-94581000D03*
X123232000Y-93481000D03*
X123232000Y-92381000D03*
X123232000Y-91281000D03*
X123232000Y-90181000D03*
X123232000Y-89081000D03*
X123232000Y-87981000D03*
%TD*%
D15*
%TO.C,J2*%
X140464045Y-142601795D03*
X171764045Y-142601795D03*
D16*
X142614045Y-135281795D03*
X145614045Y-135281795D03*
X148614045Y-135281795D03*
X151614045Y-135281795D03*
X154614045Y-135281795D03*
X157614045Y-135281795D03*
X160614045Y-135281795D03*
X163614045Y-135281795D03*
X166614045Y-135281795D03*
X169614045Y-135281795D03*
X142614045Y-138281795D03*
X145614045Y-138281795D03*
X148614045Y-138281795D03*
X151614045Y-138281795D03*
X154614045Y-138281795D03*
X157614045Y-138281795D03*
X160614045Y-138281795D03*
X163614045Y-138281795D03*
X166614045Y-138281795D03*
D17*
X169614045Y-138281795D03*
%TD*%
D18*
%TO.C,C4*%
X173349195Y-127448195D03*
X173349195Y-125723195D03*
%TD*%
D19*
%TO.C,C11*%
X147849195Y-121723195D03*
X147849195Y-123448195D03*
%TD*%
D12*
%TO.C,TP7*%
X138849195Y-125085695D03*
%TD*%
D20*
%TO.C,R7*%
X144261695Y-113585695D03*
X142436695Y-113585695D03*
%TD*%
D21*
%TO.C,H2*%
X181483000Y-73660000D03*
%TD*%
D18*
%TO.C,C2*%
X149349195Y-127448195D03*
X149349195Y-125723195D03*
%TD*%
D11*
%TO.C,C6*%
X120211695Y-117585695D03*
X118486695Y-117585695D03*
%TD*%
D20*
%TO.C,R10*%
X167761695Y-113585695D03*
X165936695Y-113585695D03*
%TD*%
D22*
%TO.C,IC3*%
X169274195Y-124335695D03*
X169274195Y-123835695D03*
X169274195Y-123335695D03*
X169274195Y-122835695D03*
X169274195Y-122335695D03*
X169274195Y-121835695D03*
D23*
X168599195Y-121160695D03*
X168099195Y-121160695D03*
X167599195Y-121160695D03*
X167099195Y-121160695D03*
X166599195Y-121160695D03*
X166099195Y-121160695D03*
D22*
X165424195Y-121835695D03*
X165424195Y-122335695D03*
X165424195Y-122835695D03*
X165424195Y-123335695D03*
X165424195Y-123835695D03*
X165424195Y-124335695D03*
D23*
X166099195Y-125010695D03*
X166599195Y-125010695D03*
X167099195Y-125010695D03*
X167599195Y-125010695D03*
X168099195Y-125010695D03*
X168599195Y-125010695D03*
D24*
X167349195Y-123085695D03*
%TD*%
D19*
%TO.C,C10*%
X149349195Y-121723195D03*
X149349195Y-123448195D03*
%TD*%
D25*
%TO.C,D1*%
X161290000Y-84140000D03*
D26*
X161290000Y-86040000D03*
%TD*%
D18*
%TO.C,C1*%
X125349195Y-127448195D03*
X125349195Y-125723195D03*
%TD*%
D27*
%TO.C,S2*%
X166175500Y-92274000D03*
X175275500Y-92274000D03*
X166175500Y-96774000D03*
X175275500Y-96774000D03*
%TD*%
D28*
%TO.C,R2*%
X171983000Y-72410000D03*
D29*
X171983000Y-74950000D03*
%TD*%
D20*
%TO.C,R12*%
X163261695Y-127585695D03*
X161436695Y-127585695D03*
%TD*%
D30*
%TO.C,R1*%
X131920500Y-73660000D03*
X133745500Y-73660000D03*
%TD*%
D20*
%TO.C,R9*%
X139261695Y-127585695D03*
X137436695Y-127585695D03*
%TD*%
%TO.C,R5*%
X120261695Y-115585695D03*
X118436695Y-115585695D03*
%TD*%
D12*
%TO.C,TP1*%
X126349195Y-113585695D03*
%TD*%
D31*
%TO.C,U1*%
X131749195Y-129585695D03*
X131749195Y-127585695D03*
X131749195Y-125585695D03*
X131749195Y-123585695D03*
X131749195Y-121585695D03*
X131749195Y-119585695D03*
X131749195Y-117585695D03*
X131749195Y-115585695D03*
X131749195Y-113585695D03*
X106949195Y-129585695D03*
X106949195Y-127585695D03*
X106949195Y-125585695D03*
X106949195Y-123585695D03*
X106949195Y-121585695D03*
X106949195Y-119585695D03*
X106949195Y-117585695D03*
X106949195Y-115585695D03*
X106949195Y-113585695D03*
%TD*%
D20*
%TO.C,R8*%
X144261695Y-115585695D03*
X142436695Y-115585695D03*
%TD*%
D12*
%TO.C,TP2*%
X113349195Y-117585695D03*
%TD*%
D28*
%TO.C,J4*%
X131953000Y-143510000D03*
D29*
X134493000Y-143510000D03*
%TD*%
D12*
%TO.C,TP8*%
X150849195Y-118085695D03*
%TD*%
D21*
%TO.C,H4*%
X181483000Y-144780000D03*
%TD*%
D22*
%TO.C,IC1*%
X121274195Y-124835695D03*
X121274195Y-124335695D03*
X121274195Y-123835695D03*
X121274195Y-123335695D03*
X121274195Y-122835695D03*
X121274195Y-122335695D03*
D23*
X120599195Y-121660695D03*
X120099195Y-121660695D03*
X119599195Y-121660695D03*
X119099195Y-121660695D03*
X118599195Y-121660695D03*
X118099195Y-121660695D03*
D22*
X117424195Y-122335695D03*
X117424195Y-122835695D03*
X117424195Y-123335695D03*
X117424195Y-123835695D03*
X117424195Y-124335695D03*
X117424195Y-124835695D03*
D23*
X118099195Y-125510695D03*
X118599195Y-125510695D03*
X119099195Y-125510695D03*
X119599195Y-125510695D03*
X120099195Y-125510695D03*
X120599195Y-125510695D03*
D24*
X119349195Y-123585695D03*
%TD*%
D12*
%TO.C,TP12*%
X174349195Y-118085695D03*
%TD*%
%TO.C,TP11*%
X162849195Y-125085695D03*
%TD*%
D18*
%TO.C,C7*%
X128349195Y-123448195D03*
X128349195Y-121723195D03*
%TD*%
D21*
%TO.C,H3*%
X103505000Y-144881600D03*
%TD*%
D22*
%TO.C,IC2*%
X145274195Y-124335695D03*
X145274195Y-123835695D03*
X145274195Y-123335695D03*
X145274195Y-122835695D03*
X145274195Y-122335695D03*
X145274195Y-121835695D03*
D23*
X144599195Y-121160695D03*
X144099195Y-121160695D03*
X143599195Y-121160695D03*
X143099195Y-121160695D03*
X142599195Y-121160695D03*
X142099195Y-121160695D03*
D22*
X141424195Y-121835695D03*
X141424195Y-122335695D03*
X141424195Y-122835695D03*
X141424195Y-123335695D03*
X141424195Y-123835695D03*
X141424195Y-124335695D03*
D23*
X142099195Y-125010695D03*
X142599195Y-125010695D03*
X143099195Y-125010695D03*
X143599195Y-125010695D03*
X144099195Y-125010695D03*
X144599195Y-125010695D03*
D24*
X143349195Y-123085695D03*
%TD*%
D19*
%TO.C,C8*%
X125349195Y-121723195D03*
X125349195Y-123448195D03*
%TD*%
D20*
%TO.C,R4*%
X120261695Y-113585695D03*
X118436695Y-113585695D03*
%TD*%
D28*
%TO.C,U2*%
X114450695Y-79509695D03*
D29*
X116990695Y-79509695D03*
X119530695Y-79509695D03*
X122070695Y-79509695D03*
X124610695Y-79509695D03*
X127150695Y-79509695D03*
X129690695Y-79509695D03*
X132230695Y-79509695D03*
X134770695Y-79509695D03*
X137310695Y-79509695D03*
X139850695Y-79509695D03*
X142390695Y-79509695D03*
X144930695Y-79509695D03*
X147470695Y-79509695D03*
X150010695Y-79509695D03*
D28*
X114450695Y-104909695D03*
D29*
X116990695Y-104909695D03*
X119530695Y-104909695D03*
X122070695Y-104909695D03*
X124610695Y-104909695D03*
X127150695Y-104909695D03*
X129690695Y-104909695D03*
X132230695Y-104909695D03*
X134770695Y-104909695D03*
X137310695Y-104909695D03*
X139850695Y-104909695D03*
X142390695Y-104909695D03*
X144930695Y-104909695D03*
X147470695Y-104909695D03*
X150010695Y-104909695D03*
%TD*%
D19*
%TO.C,C13*%
X173349195Y-121723195D03*
X173349195Y-123448195D03*
%TD*%
D28*
%TO.C,R3*%
X167919000Y-72410000D03*
D29*
X167919000Y-74950000D03*
%TD*%
D27*
%TO.C,S3*%
X175200500Y-104902000D03*
X166100500Y-104902000D03*
X175200500Y-100402000D03*
X166100500Y-100402000D03*
%TD*%
D32*
%TO.C,C3*%
X165100000Y-82957000D03*
X165100000Y-86207000D03*
%TD*%
D33*
%TO.C,D2*%
X137922000Y-73660000D03*
X135872000Y-73660000D03*
%TD*%
D12*
%TO.C,TP6*%
X138849195Y-118085695D03*
%TD*%
D34*
%TO.C,S1*%
X123952000Y-73660000D03*
X121412000Y-73660000D03*
X118872000Y-73660000D03*
%TD*%
D20*
%TO.C,R11*%
X167761695Y-115585695D03*
X165936695Y-115585695D03*
%TD*%
D12*
%TO.C,TP9*%
X174349195Y-113585695D03*
%TD*%
D11*
%TO.C,C12*%
X167711695Y-117585695D03*
X165986695Y-117585695D03*
%TD*%
D21*
%TO.C,H1*%
X103505000Y-73660000D03*
%TD*%
D20*
%TO.C,R6*%
X113261695Y-128585695D03*
X111436695Y-128585695D03*
%TD*%
D12*
%TO.C,TP3*%
X113349195Y-125585695D03*
%TD*%
D35*
%TO.C,D3*%
X159168000Y-75260000D03*
X159168000Y-72060000D03*
X154268000Y-72060000D03*
X154268000Y-75260000D03*
%TD*%
D12*
%TO.C,TP4*%
X126349195Y-117585695D03*
%TD*%
%TO.C,TP5*%
X150849195Y-113585695D03*
%TD*%
D11*
%TO.C,C9*%
X144211695Y-117585695D03*
X142486695Y-117585695D03*
%TD*%
%TO.C,C5*%
X151484500Y-73660000D03*
X149759500Y-73660000D03*
%TD*%
D19*
%TO.C,C14*%
X171849195Y-121723195D03*
X171849195Y-123448195D03*
%TD*%
D21*
%TO.C,J1*%
X115789195Y-108202000D03*
X171409195Y-108202000D03*
X115789195Y-88902000D03*
X171409195Y-88902000D03*
D36*
X107349195Y-88902000D03*
X179849195Y-88902000D03*
X107349195Y-108202000D03*
X179849195Y-108202000D03*
%TD*%
M02*
