%TF.GenerationSoftware,KiCad,Pcbnew,(6.0.6)*%
%TF.CreationDate,2022-08-28T18:07:26+02:00*%
%TF.ProjectId,PCAP04_Interface,50434150-3034-45f4-996e-746572666163,rev?*%
%TF.SameCoordinates,Original*%
%TF.FileFunction,Soldermask,Bot*%
%TF.FilePolarity,Negative*%
%FSLAX46Y46*%
G04 Gerber Fmt 4.6, Leading zero omitted, Abs format (unit mm)*
G04 Created by KiCad (PCBNEW (6.0.6)) date 2022-08-28 18:07:26*
%MOMM*%
%LPD*%
G01*
G04 APERTURE LIST*
G04 Aperture macros list*
%AMRoundRect*
0 Rectangle with rounded corners*
0 $1 Rounding radius*
0 $2 $3 $4 $5 $6 $7 $8 $9 X,Y pos of 4 corners*
0 Add a 4 corners polygon primitive as box body*
4,1,4,$2,$3,$4,$5,$6,$7,$8,$9,$2,$3,0*
0 Add four circle primitives for the rounded corners*
1,1,$1+$1,$2,$3*
1,1,$1+$1,$4,$5*
1,1,$1+$1,$6,$7*
1,1,$1+$1,$8,$9*
0 Add four rect primitives between the rounded corners*
20,1,$1+$1,$2,$3,$4,$5,0*
20,1,$1+$1,$4,$5,$6,$7,0*
20,1,$1+$1,$6,$7,$8,$9,0*
20,1,$1+$1,$8,$9,$2,$3,0*%
G04 Aperture macros list end*
%ADD10R,1.050000X1.500000*%
%ADD11O,1.050000X1.500000*%
%ADD12R,1.520000X1.520000*%
%ADD13C,1.520000*%
%ADD14C,2.910000*%
%ADD15C,3.200000*%
%ADD16R,1.700000X1.700000*%
%ADD17O,1.700000X1.700000*%
%ADD18C,1.524000*%
%ADD19C,1.635000*%
%ADD20RoundRect,0.237500X0.300000X0.237500X-0.300000X0.237500X-0.300000X-0.237500X0.300000X-0.237500X0*%
%ADD21C,5.000000*%
%ADD22RoundRect,0.237500X-0.300000X-0.237500X0.300000X-0.237500X0.300000X0.237500X-0.300000X0.237500X0*%
%ADD23RoundRect,0.237500X0.237500X-0.300000X0.237500X0.300000X-0.237500X0.300000X-0.237500X-0.300000X0*%
G04 APERTURE END LIST*
D10*
%TO.C,IC4*%
X110744000Y-75565000D03*
D11*
X112014000Y-75565000D03*
X113284000Y-75565000D03*
%TD*%
D12*
%TO.C,J2*%
X169614045Y-139932795D03*
D13*
X166614045Y-139932795D03*
X163614045Y-139932795D03*
X160614045Y-139932795D03*
X157614045Y-139932795D03*
X154614045Y-139932795D03*
X151614045Y-139932795D03*
X148614045Y-139932795D03*
X145614045Y-139932795D03*
X142614045Y-139932795D03*
X169614045Y-136932795D03*
X166614045Y-136932795D03*
X163614045Y-136932795D03*
X160614045Y-136932795D03*
X157614045Y-136932795D03*
X154614045Y-136932795D03*
X151614045Y-136932795D03*
X148614045Y-136932795D03*
X145614045Y-136932795D03*
X142614045Y-136932795D03*
D14*
X171764045Y-144252795D03*
X140464045Y-144252795D03*
%TD*%
D15*
%TO.C,H2*%
X181483000Y-68580000D03*
%TD*%
D16*
%TO.C,R2*%
X171983000Y-74061000D03*
D17*
X171983000Y-76601000D03*
%TD*%
D18*
%TO.C,U1*%
X131749195Y-131236695D03*
X131749195Y-129236695D03*
X131749195Y-127236695D03*
X131749195Y-125236695D03*
X131749195Y-123236695D03*
X131749195Y-121236695D03*
X131749195Y-119236695D03*
X131749195Y-117236695D03*
X131749195Y-115236695D03*
X106949195Y-131236695D03*
X106949195Y-129236695D03*
X106949195Y-127236695D03*
X106949195Y-125236695D03*
X106949195Y-123236695D03*
X106949195Y-121236695D03*
X106949195Y-119236695D03*
X106949195Y-117236695D03*
X106949195Y-115236695D03*
%TD*%
D16*
%TO.C,J4*%
X131953000Y-145161000D03*
D17*
X134493000Y-145161000D03*
%TD*%
D15*
%TO.C,H4*%
X181483000Y-146431000D03*
%TD*%
D16*
%TO.C,J5*%
X136017000Y-70000000D03*
D17*
X136017000Y-67460000D03*
X138557000Y-70000000D03*
X138557000Y-67460000D03*
X141097000Y-70000000D03*
X141097000Y-67460000D03*
X143637000Y-70000000D03*
X143637000Y-67460000D03*
X146177000Y-70000000D03*
X146177000Y-67460000D03*
X148717000Y-70000000D03*
X148717000Y-67460000D03*
%TD*%
D15*
%TO.C,H3*%
X103505000Y-146532600D03*
%TD*%
D16*
%TO.C,U2*%
X114450695Y-81160695D03*
D17*
X116990695Y-81160695D03*
X119530695Y-81160695D03*
X122070695Y-81160695D03*
X124610695Y-81160695D03*
X127150695Y-81160695D03*
X129690695Y-81160695D03*
X132230695Y-81160695D03*
X134770695Y-81160695D03*
X137310695Y-81160695D03*
X139850695Y-81160695D03*
X142390695Y-81160695D03*
X144930695Y-81160695D03*
X147470695Y-81160695D03*
X150010695Y-81160695D03*
D16*
X114450695Y-106560695D03*
D17*
X116990695Y-106560695D03*
X119530695Y-106560695D03*
X122070695Y-106560695D03*
X124610695Y-106560695D03*
X127150695Y-106560695D03*
X129690695Y-106560695D03*
X132230695Y-106560695D03*
X134770695Y-106560695D03*
X137310695Y-106560695D03*
X139850695Y-106560695D03*
X142390695Y-106560695D03*
X144930695Y-106560695D03*
X147470695Y-106560695D03*
X150010695Y-106560695D03*
%TD*%
D16*
%TO.C,R3*%
X167919000Y-74061000D03*
D17*
X167919000Y-76601000D03*
%TD*%
D19*
%TO.C,S1*%
X123952000Y-75311000D03*
X121412000Y-75311000D03*
X118872000Y-75311000D03*
%TD*%
D15*
%TO.C,H1*%
X103505000Y-68580000D03*
%TD*%
D20*
%TO.C,C28*%
X166470500Y-145669000D03*
X164745500Y-145669000D03*
%TD*%
D15*
%TO.C,J1*%
X115831000Y-93980000D03*
X171441000Y-93980000D03*
D21*
X180086000Y-93980000D03*
X107186000Y-93980000D03*
%TD*%
D20*
%TO.C,C25*%
X166470500Y-142621000D03*
X164745500Y-142621000D03*
%TD*%
%TO.C,C23*%
X158342500Y-145669000D03*
X156617500Y-145669000D03*
%TD*%
D16*
%TO.C,J6*%
X180467000Y-129413000D03*
D17*
X180467000Y-126873000D03*
X180467000Y-124333000D03*
X180467000Y-121793000D03*
X180467000Y-119253000D03*
X180467000Y-116713000D03*
%TD*%
D20*
%TO.C,C21*%
X158342500Y-142621000D03*
X156617500Y-142621000D03*
%TD*%
D22*
%TO.C,C18*%
X147473500Y-145669000D03*
X149198500Y-145669000D03*
%TD*%
D20*
%TO.C,C29*%
X162406500Y-142621000D03*
X160681500Y-142621000D03*
%TD*%
D22*
%TO.C,C24*%
X151537500Y-145669000D03*
X153262500Y-145669000D03*
%TD*%
%TO.C,C16*%
X147473500Y-142621000D03*
X149198500Y-142621000D03*
%TD*%
%TO.C,C15*%
X143409500Y-142621000D03*
X145134500Y-142621000D03*
%TD*%
%TO.C,C20*%
X151537500Y-142621000D03*
X153262500Y-142621000D03*
%TD*%
D20*
%TO.C,C27*%
X162406500Y-145669000D03*
X160681500Y-145669000D03*
%TD*%
D22*
%TO.C,C19*%
X143409500Y-145669000D03*
X145134500Y-145669000D03*
%TD*%
D23*
%TO.C,C26*%
X168910000Y-145007500D03*
X168910000Y-143282500D03*
%TD*%
D16*
%TO.C,J7*%
X180492000Y-107970000D03*
D17*
X180492000Y-110510000D03*
%TD*%
M02*
